<svg xmlns="http://www.w3.org/2000/svg" viewBox="0 0 161 66.5"><g transform="matrix(.265 0 0 .265 -19.4 53)"><path d="m341-42.6 57-123c.5-1 2-2 3-2h2c1 0 3 .9 3 2l57 123c1 2-.4 5-3 5h-20c-3 0-5-1-6-5l-7-14h-50l-7 15c-.9 2-3 4-7 4h-20c-3 0-3-2-2-5zm75-39-14-30h-.2l-14 30h28" class="a"/><path d="M524-154c29 0 52 23 52 52s-23 52-52 52-52-23-52-52c-.1-29 23-52 52-52zm0 81c16 0 29-13 29-29s-13-29-29-29-29 13-29 29c-.1 16 13 29 29 29" class="b"/><path d="m590-44.6 49-94v-.4h-40c-2 0-4-2-4-4v-20c0-2 2-4 4-4h78c2 0 4 2 4 4v2l-47 95v.4h40c2 0 4 2 4 4v20c0 2-2 4-4 4h-80c-2 0-4-2-4-4v-3" class="a"/><circle cx="199" cy="-74.6" r="125" class="b"/><path d="M312-108c2-4-2 0-5-.1-7-.2-4-7 6-17l.4-.4c-.3-.7-.6-1-1-2-4 1-11 6-17 10-5 5-9 5-17 6l6 12c14 .8 25-3 28-9" class="c"/><path d="M138-84.6s8 18 6 26c-5 25-10 63-14 88 .9.6 1.95 1.13 2.95 2.13 8.45 5.15 17.2 10.2 32.6 14.3 15-14 32.4-28.5 46.4-41.5 41-39 80-81.7 80-119 0 0-60 14.7-111 1.49-4-32-34-64-49-79-.4-.4-1-.5-2-.3s-.8.7-.8 1c0 0 15.8 36.5 8.8 106" class="a"/><path d="M139.033-145.575c.1.7.1 1 .2 2 1-.6 2-1 3-2 .6 1 1 2 2 4 0 .1.2.1.3.1h.1l.3-.3 3-6c2-.7 4-1 6-2 .1 0 .3-.1.3-.2.1-.1 0-.2-.1-.3-1-1-3-2-4-4 .6-2 1-4 2-6 0-.1 0-.2-.1-.3-.1-.1-.2 0-.4 0-2 1-4 2-6 4-2-.3-3-.4-4-.3-.1 0-.2.1-.3.2-.1.1-.2.3-.2.4v5c-.9 1-2 3-3 4zm11 5c-.1.1 0 .2.1.3 2 1 5 3 7 5-.6 3-1 5-2 8 0 .1 0 .2.2.3.1.1.3.1.4 0 3-1 6-2 9-2 3 2 6 5 9 8l.2.2c.1 0 .1 0 .1.1.1 0 .2-.1.1-.2-.7-3-1-6-2-10 1-.3 2.701-.708 3.701-.908-.849-1.99-1.768-4.116-2.701-5.892-1-1-2-2-4-3-2-3-3-6-4-9l-.3-.3c-.1 0-.3 0-.3.1-1 2-3 4-4 6-3-.1-6 .3-10 1 0-.1-.1 0-.2.1zm5.627-22.783c.1 0 0 .1 0 0-.5-1-.533-1.46-.533-2.46l.1-.1c-1.323-1.789-3.966-4.969-5-7-.3.7-.7 1-1 2-1 0-3 .1-4 .3-.1 0-.2.1-.2.2s0 .2.1.3c1 .7 2 2 3 2 0 1-.1 2-.1 3 0 .1.1.2.2.3.1 0 .1.1.2.1h.2c1-.3 2-.6 4-.9 1 .8 2.033 1.26 3.033 2.26-.1 0-.1.1 0 0zM338.545 14.317l2.488-4.892c.4-.7 1-.6 2-.3.2.1 4 3 7 3 2 0 4-1 4-3s-2-4-5-5c-4-2-10-5-10-12 0-5 4-10 12-10 5 0 10 3 11 4 .6.4.5 1 .3 2l-3 4c-.4.6-1 1-2 .7-1-.3-4-3-7-3-2 0-3 1-3 3s2 3 6 5 10 5 10 12c0 5-5 11-12 11s-10.688-3.508-12.688-4.508c-.4-.8-.5-1-.1-2zm66.488-24.892h-7c-.6 0-1-.5-1-1v-6c0-.5.4-1 1-1h23c.6 0 1 .5 1 1v6c0 .5-.4 1-1 1h-7v28c0 .5-.5 1-1 1h-6c-.5 0-1-.5-1-1v-28zm52.877-6.97c0-.5.5-1 1-1l6.123-.03c.6-.003 1 .5 1 1v21c0 4 3 7 6 7s6-3 6-7v-21c0-.5.4-1 1-1h6c.5 0 1 .5 1 1v22c0 8-7 13.99-15 14-7.269.01-13.123-6.97-13.123-13.97zm69.123-.03c0-.5.4-1 .9-1h13c10 0 18 8 18 18s-8 18-18 18h-13c-.5 0-.9-.5-.9-1zm13 28c6 0 10-5 10-11s-4-10-10-10h-5v21zm56-28c0-.5.5-1 1-1h6c.5 0 1 .5 1 1v34c0 .5-.5 1-1 1h-6c-.5 0-1-.5-1-1zm64-2c10 0 19 8 19 19s-8 19-19 19-19-8-19-19 8-19 19-19zm0 29c6 0 10-5 10-10s-5-10-10-10-10 5-10 10c0 6 5 10 10 10" class="b"/><path d="M133 31.6c14-41 47-104 47-131 0-22-19 24-42 15-2 13-2 15-3 23-4 30-7 62.9-7 89.9.48.374 3.39 2.32 4.95 3.25" class="c"/></g><style>.a{fill:#17455e}.b{fill:#ffab00}.c{fill:#fff}</style></svg>