<svg xmlns="http://www.w3.org/2000/svg" viewBox="0 0 383 461"><path d="M275.3 265.9c-1-19.7-19.4-22.8-35.4-24.4 1.4 5.8 23.2 4.2 28.5 13.4 8.9 16 2.3 39.3-15 46.3.3 1 .5 2.1.8 3.1 15.7-7 23.9-22 21.1-38.4zm-19.7 39.8c-1.6-.4-3.3-.7-4.9-1.1.8 4.7 2.7 13.6 2.1 17.9-.5 1.1-1.5 1.5-7.5 2.9s-7.4 1.4-8.5.6c-4-6.5-5.6-12.8-10.1-19.9-15.4.2-18.8 4.8-21.6-10.4-1.6-10.3-6.2-10.6 7.1-14.7-.3-.8-.6-1.5-.9-2.3-3.7 1.6-9.8 2.8-11 4.9-1.3 5.5.5 9.2 2.5 18.6 2 13.2 13.3 7.4 22 7.8l9.2 19.6c1.6 2.9 11.5.1 12 .1 15.2-1.3 9.2-15.5 9.6-24zm23.3-70.5c-9.8-11.5-47.3-13.3-66.7-5.3 1.6 1.9 5.7-.2 8.9-.5 2.6-.9 23-.7 26.7-.1 13.6.9 23.1 2.3 29.5 13.8 2.3-.5 3.2-6.7 1.6-7.9"/><path d="M280 246c-4.7-7.8-11.1-8.1-16.7-7.8 0 .6-.1 1.1-.1 1.7 9.8 1.1 20.3 12.3 9.5 17.5 1.2 2.1 1.8 3.2 1.8 3.2 3.6-1.3 9.4-9.4 5.5-14.6zm-50.7-12.1c2.7-2.6-9.8-1.5-12.2-1.6 2.5 4.3 8.4 3.2 12.2 1.6zM215 173.6c7.1 3 5.4 32.8-3.4 30.8-5.6-3.8-4.6-28.8 3.4-30.8"/><path d="M206.1 180.8c-.1 1.4 5.5 5.5 4.3.5-2.1.7-5.8-4.5-4.3-.5zm-5.1 17.8c-2.4 3 4.1 6.6 4.3 2.5-.5-1-3.1-3.6-4.3-2.5"/><path d="M196 200c-6.5.9 7 9.2 5.5 2.9 0-.7-4.3-3-5.5-2.9zm50.9-13.4c8.1-5.4 13.1-2.6 20.4-3 1.2-4.6-9-5.5-12.9-5.8-5.9-1.3-19.5 8.3-17.6 17.9 3.3 2.3 4.6-6.8 10.1-9.1"/><path d="M239.7 188.5c1.3-.2 1.7-3.4 1.7-3.5-2.7.6-7.1-3.6-8.1-4.7-.5 3.1 3.3 7 6.4 8.2zm30 6.8c-1.4-2.2 4.5-5.1 6.1-4.4 1.3 1.9-4.9 5.9-6.1 4.4zm3.6.8c.8-1.1 6.5-5.9 8.1-2.5-1.4 2.2-8.9 7.8-8.1 2.5zm-6.5-39.2c-12.1 15-40.1 3.2-51.8 14.9 17.3-3.3 44.1-.2 56.7-13.7-1.6-.4-3.2-.8-4.9-1.2"/><path d="M232 157c-15.8 12.5-47.4 24.7-39.3 47.1-1-23 28.5-34.4 43.9-46.7-1.6-.1-3.1-.3-4.6-.4"/><path d="M344.6 206.4c-20.3-29.5-49.5-52.2-80.8-53.5-27.6-1.9-71.2 8.6-86.4 36.5-6.4 12.2 9 16.4 15 24.4.6 1.3-.2-17.2-1.4-22.1 1.1-5 .5-17.9 7.6-20.3 41.9-21.9 84.4-21.7 117 9.7 7.3 12.2 2.3 29.4-3.4 40.7 7.1 2.1 23.4-8.3 28.6-16.3.9 1.7 3.3 4.6 3.8.9"/><path d="M313.1 220.4c-1.3 2.6-5.4 10-14.4 14.8-9.1 4.8-17.6 3.9-20.5 3.5-.1 1.2-.4 2.3-.7 3.4 18 5 31.4-8.8 38.9-21-1.1-.2-2.2-.5-3.3-.7"/><path d="M289.7 185.4c.6 1.2 2.6 18 5.7 10.9.6-4.4-5.4-24.5-5.7-10.9zm12.6 14.2c3.8.4-.4-15.3-4.5-15.7-.5 2 .6 10.4 4.5 15.7zm-132.6 72.2c1.7 1.6 8.7-2.1 8-3.6-2.6-2.1-8.8 2.4-8 3.6zm-4.8-12.6c18.2-2.7 5.7 6.3-8.3 6.1-.6.1-2.1 0-2-1 1.8-3.5 6.8-4.2 10.3-5.1zm-15.6-11c3.7-1.5 24.8-6.5 21.7 1-2 2.2-29.2 4-21.7-1zm85.4-172.4c-4.7 4.2-7.2 5-9 7.5 2.2 4.1 8.5.7 11.7.9 6.2 9.2 12.9 10.6 10.1-3.2m22.4 12.2c-2 7-7.7 6.7-9.9 13.4 3.4 2.4 9.7.1 13.2-1.4 2.5 2.5 4.5 9.3 8.6 10.7 2.7-1.7 3-4 6.6-7.7m-98-30.2c3.9 4.4 4.4 6.5 7.7 8.1 5.9-.4 17.2-13.7 11.5 1.8-1.7 3.2-4.7 5.8-5 8.1 3.4 8.2 11.9 16.9-4.6 8.1-1.9-.8-2.1 1.6-3.8 3.1"/><path d="M300 214c-7 18.4-36.5 10.6-25 9 17.8-7.9 18.2-37.3-1.8-56.5-3.9-3.2-8-6.8-12.6-3 17.3 6.7 28.7 30.1 22 48.4-4.2 10.3-20.1 9.5-11.7 14.4 4.4 2.2 8.1 2.5 8.1 2.5 6.2 0 9.5-1.6 12.6-2.8-3.8 4.9-13.2 4.2-18.1 5.5 13 10.2 35.7-20.8 26.5-17.5"/><path d="M371 186c-39.1-47.4-129-63.2-184-36.3-2.5.1-30.9 16-34.7 21.4 3.5.1 7.6-4 11.8-6.5 48.4-34.1 136-33.4 185 6.9 5.6 3.5 21.1 18.3 26.6 27.6-2.5 2.7-5 4.2-8.5 6-17.9 9.8-40.2 13.8-57.6 22.7 16.5-2.1 27.9-6.1 47.9-13.9-.5-.1 18.8-6.5 22.8-14.7-.8-3.9-3.9-6-9.5-13.2"/><path d="M372 203.1c1.3-.7 2.6-1.4 4-2.1-14.1-19.7-43.7-42.7-65.5-43.7 22.8 7.2 49 26.4 61.5 45.8zM211.3 263c3.9 5.5.1 15.5 6.6 15.7 2.1-21.4-20.1-36.5-35.9-50.8-7.2-6.1-14.6-14.5-23.4-17.9 7.9 9.3 21.8 20.4 32 30.6 6.9 6.5 17.9 14.4 20.7 22.4zm13.6-26.7c-21.2-11.4-34.4-27.4-56-45.3 12.6 18.4 35.4 37.5 54 47.8.7-.8 1.3-1.7 2-2.5zm46.8 72.5c-3.7-1.7-9.5-1.5-14.9-4.2l-1.2 3.6c4.3.5 16.6 7.4 16.1.6"/><path d="M288.8 313.9c-12.6 5.6-18.4-12-15.4-23 5.7-.4 3.4-4.8-.2-3.1-6.1 5.9-3 20.1 1.1 26.2 2.8 5.6 14.1 7.3 16.6.1-.7-.2-1.4-.2-2.1-.2"/><path d="M278.4 303.7c.7 3.8 3.4 7 4.7 8.7.9 1 6.1 4.9 3.8 3.2 1.1 1.3 4.6.4 4.4-1.9-.7-2-5.2-2.9-5.8-4.1-2.8-1.2-5.7-11.4-7.1-5.9"/><path d="M280.2 299.4c.6 1.4-1.6 2.5-2.3 1.4-1.6-3.1-1.2-9-.3-11.7 7.1-15.5 19.7-.3 18.4 8.8.6 14.1-14.8 17.1-13.6.2.9-2.9 1-3 2.8-2.5.9 1 .2 1.8-.3 2.6-1.3 7.3 6.9 11.9 7.3 1.9 1.4-17.3-16.9-18.1-12-.7"/><path d="M291 286c.9-2.5 10.8-3.9 8 .3-1.1 1.1-7.9 2.2-8-.3"/><path d="M312.7 298.3c4.2-4.9 2.8-13.2-4.1-17.6 1.3-7.1-19.8-3.1-21.5 2.4 1.7 2.3 4.1-.2 5.6-.6 7.6-2.2 6.2-1.3 12.7-1.3-.2.7.3 2.1 1.1 2.3 3.7 2.8 6 9.4 2.1 14.1 4.2 6.1.7 15.8-6.9 15.5-8.7.4-8.6-6.9-13.2-3.4.2 7.1 15 8 16.3 6.6 6.2.1 13.8-14.8 7.9-18zm-111.8-9.4c-12.5-6.7-32.9-13.5-47.4-11.7-17.8 9.7-5.3 36.6 2.6 48.2.4-.3.9-.7 1.3-1-7.8-14-22-53.8 14.5-41.3 14.7 3.2 19.2 4.3 30 12-.3-2.1-.6-4.1-1-6.2"/><path d="M190 357c-3.2-14.6-7.3-30.3-14.6-43-7.8 1-13 5.8-17.4 8.6-2.8 2.9-9.5 7.4-11.1 12.2 4.6 6.1 16.1 12.4 24.3 17.1-2.4 11.3-4.8 19.7-6.6 29.5-.3 5.2 6.8 4.3 8.3 1.4 6.9-7.3 17.5-19.1 17.1-25.8zm-13.7-18.9c-6-16.7-5.4-22.1 1.7-3.3 6.6 19 4.6 21.8-1.7 3.3"/><path d="M168 309c-8.1-8.8 51 23.1 47.5 34.2-10.7-10.6-33.9-25.5-47.5-34.2zm45.1 32.5c-2.1 11.2-3.3 25.9-10.6 41.7.9.6 1.7 1.2 2.6 1.8 5.9-4.9 12.3-38.2 8-43.5"/><path d="M210 405.8c-1.6-2.2-3.3-4.5-5.3-6.8-1.8-2.2-3.6-4.2-5.4-6.1 2.2-3.2 4.4-6.4 6.6-9.5-.2-.1-.6-.3-1.1-.6-3-1.5-7.8-2.4-10.7-2.6-8-.4-9.8 15.9-10.7 21.2-1.1 6.2-.8 10.4-4.2 13-2.2 1.7-5 1.8-7.1 1.7-2.1 5.1-4.7 13-4.9 22.9-.2 5.9.5 10.9 1.4 14.9.4 2.3 1.1 5 2.9 5.6 2.1.7 6.2-1.2 21.4-24.9 4.6-7.2 10.5-16.9 17.1-28.8zm-27.4 13.8c-2.1-.5 6.5-26.8 8.9-26.5.9 2.1-6.8 25.1-8.9 26.5"/><path d="M249.3 328.8c-3 6.9-12.4 34.2-18 41.9-9.1 18.5-16.2 19.7-22.8 36.8 16.2-17.3 42.6-54.2 40.8-78.7zm-77.4-105.7c-16.3 11.7-39.6-4.2-52.7 17-1.5 2.9-1.1 5.6 3.1 3.6 6.4-2.7 1.1-.9-2.9 3-10.5 13.4-16.4 32-9 46.4-1.2-.1 9.5 8.3 17.1 7.6 3.5 7.2 13.8 9.2 20.9 10.6-.5-1.5-.9-3-1.2-4.6-4.5.9-12-1.1-16-5 4 .8 9.6 1.1 13.1-1.9-3.1-1.9-15.8-1.8-19.8-3.6-21.4-5-14-27.8-3.4-46 7-10.5 12-6.5 21.4-9.6 1.7-5.2-17.2-.8-18.4-.1 6.5-16.8 40-2.4 50.1-15.2-.7-.7-1.5-1.5-2.3-2.2zm-28.8-27c1.9 8 8.1 12.2 15.7 9.7 3.4 1.7-1 3.9-4 4.2-7.9 1.2-18-11.3-11.7-13.9zm23.5-4.4c-.3 4.2-7 13-6.6 14.1 5 3 9.2-11.9 10.1-17.9.3-1.4.4-3.5-1.5-3.6-1.1.3-.8 3.2-2 7.4"/><path d="M169 181c-4.1-22.3-32.5-10.1-15.8 2.1 4.8 1.3 8.4-5.9 3.3-6.8-2.3 6.9-7.3-1-2.5-4 7.4-1.7 13.3 8.6 9.4 15.5-4.8 5.3-14.2 1.8-16.2-5.1-8.7 13.8 25.4 16.2 21.8-1.7"/><path d="M144.7 192.2c-2.1.7-3 4.8.3 3.7.9-.2 4.1-4.7 5-5.3-.1-.7-1.9-2-2.2-1.5l-3.1 3.1zm-4.9-5.8c2.8 5.7 9-2.1 8.3-4.3 1-5.6-6.4-14-8.8-11 2 3.5 10.7 14 .5 15.3"/><path d="M148 189c-4.4 3.1-18.5-2.8-18-8.1-2-1.3-6.2-3.6-8.3-5.9-7.2-5.9-2.7-23 8.9-11.9 2-5.2-6.2-9.7-12.3-5-6.5 8.1-3.5 17.1 7.3 23.8 1.7 2.8 3 6.5 10.8 10 6 2.5 14 2.2 11.6-2.9"/><path d="M150.9 171.2c-2.8-.7-1-4.5-3.6-3.9-9.2 7.6-17.8-11-14.7-16.2 7.2-.3 7.1 8.5 14.4 9.9 4.3-.1 5 4.5 6.5 8.6 5.1-.8 1.5-6 0-8.6-3.2-3.3-5.5-2.5-9.4-6-2.5-1.7-4.1-6.9-8.6-6.1-12.1-6.6-6.5 28.1 9.2 23 2.2-2.4 3 .5 4.3 1.9.6-.8 1.3-1.7 1.9-2.6zm-75.8-59.3c16.5 14.9 33 29.7 49.6 44.6-.7.6-1.5 1.2-2.2 1.8-16.1-14.9-32.3-29.9-48.4-44.8.2-.6.6-1.1 1-1.6"/><path d="M78.4 111.6c-.5.3-.9.5-1.4.8l52.8 43.8c.3-.9.6-1.9.9-2.8-17.4-14-34.9-27.9-52.3-41.8zm114.2 27.5c3.8-3.7 16.1-8.6 22.9-8.1-6.9-11.4-34.9 9.8-32.6 21.5 5.2-1.4 13.5-11.6 19.6-13-3.6-3-22 10.5-9.9-.4zm123.6 7.7c2.3.9 6.3 1.9 4.2 4.1 5.5 4.2 5.3-5.2 1.7-7.1.6-3.3-.1-7.2-3.4-9.1-13.5-8.2-65.3-15.3-70.1-10 21.1 2.7 45 2.3 68.3 13.8-1.3-.7-7.1-3.1-10-3.6-21.8-6.4 1.3 2.1 8.6 5.4 4.3 3.4 4.6 4-1.9 1.6-5.3-1-9.2-3.5-13.9-5.7-8.9-1.7-8.9-1.6-.5 2.7 5.7 6.4 9.3 5.5 17 7.9"/><path d="M218.2 133.3c-.7 2.9-1.4 6.2-1.9 9.1 5-1 10.1-1.9 15.1-2.9-.2-5.5 6.8-4.3 7.7-.6 5.1-.3 10.3-.7 15.4-1-.9-3.2-3.4-8-5.4-10.5 13.2-16.6 7.5-20.8-9-15.1-10.3-14.9-14.8-17.4-19.3 3.4-15.6 1.1-18 8.1-2.6 17.6zm4.9-14.6c1.8-4.3 3.7-9.5 5.1-14 3.4 1.2 9.7 8 10.6 11.4 17.1-6.1 17.6-1.8 6.3 10.7.3 1 5.1 9.5 4.2 9.9-5.6 4.3-13.7-9.6-19-1.7-2.9 3.7-2.7 5.1-8.9 4.2 2.6-7.7-3.4-12.8-9.4-16.5 2.2-2.1 8.5-4.3 11.1-4"/><path d="M226.5 104c.7 5.9 1.5 11.7 2.2 17.6-5.6-.2-11.3-.4-16.9-.6 0 1.3-.1 2.6-.1 4 5.2.2 10.3.3 15.5.5l-7.8 13.5c6.3 3.2 8.2-9 12.2-12.8 6 3.2 11.5 14.9 18.3 9.6-4.7-3.6-9.4-7.3-14-10.9 6.1-3.3 12.1-6.6 18.2-10-5.3-5.1-14.5 4.8-21.2 6.1-.9-5.8-1.8-11.7-2.7-17.5-1.4.2-2.5.3-3.7.5"/><path d="M195 135c5.6-13.9 5.4-26.5 1.9-40.7-1-5-7.6-17-4.1-23.1 12.1-6.6 42.5 6.3 42 5.6 34.2 10.1 48 30.8 77.8 56.2-10.9-30.6-91.7-81.2-123-63.1-8.5 20 16.6 32.1-.2 69.9 1.7-1.6 3.5-3.2 5.2-4.8zm133 117c-10.4-5.1-11.8-8.8-15.1-18.5-4-9.9-2.4 7.4-8.1 12.5-5.6 7.3-10.9 5.8-14.5 8.7 2.9 3.2 8.5 1.9 13.6 7.7 5.8 4.8 4.6 12.5 7.8 15.1 3.9-7.2 3.8-17.9 15.4-21.4 3.9-1.2 5.4-3.3.9-4.1zm-13.1 10.6c-1 1.6-2.4 4.1-3.2 7.6-2.5-8.8-8.2-14.4-15.3-15.3 7.5-2.4 14.4-11.3 15.2-17.5 1.4 6.3 7.2 15.1 14.8 16.5-3.3.2-10.3 5.5-11.5 8.7"/><path d="M318.2 253.9c-2.6-.8-4.8-4.7-6.4-7.6-2.7-3.3-1.9 3.6-4.1 5.1-2.2 2.6-5.4 2.7-5.4 3.8 5.5 3.7 5.7 2.7 9 9.8 1.7-3.3 3.1-6.4 6.6-8.5 2.7-1.5 3.5-1.4.3-2.6zm-6.8 7.7c.5-1.6-3.7-6.9-6-6.6 1.6.3 5.7-3.7 5.5-5.3.3 1.8 3.9 5.5 5.7 5.8-1.8.3-5.2 4.4-5.2 6.1zm20.1 4.7c-.3 1.9-1 5-3.1 8.3a20.4 20.4 0 0 1-8 7.2c1.4.5 4.2 1.7 6.7 4.4 2.9 3.2 3.7 6.7 4 8.2.3-1.7 1.1-4.5 3.2-7.4 2.2-3.1 4.8-4.8 6.3-5.7-1.5-1-3.6-2.6-5.4-5.2-2.7-3.9-3.4-7.8-3.7-9.8zm-.3 22.8c-.4-2.2-4.6-6.7-6.6-7.3 2.4-1.1 6.3-5.5 7.1-7.8 0 1.9 3.5 6.9 5.6 7.6-2 1-5.5 5.2-6.1 7.5zM164.8 395.8c-3-3.2-3.8-6.9-4-8.4-.3 1.6-1.2 5.2-4.3 8.6-2.6 2.9-5.6 4.2-7.1 4.8 1.5.9 3.4 2.1 5.3 4 3.3 3.3 5 6.8 5.9 9 .3-1.9 1-5.4 3.6-9 2-2.7 4.2-4.4 5.7-5.3-1.3-.7-3.3-1.7-5.1-3.7zm-4.7 12.4c.2-1.8-4.2-7-6.6-7.1 2.5-.7 7-5.4 7.6-7.7 0 1.7 3.5 5.9 5.2 6.3-2 1.3-5.5 5.9-6.2 8.5zm.5-276c-.7 1.9-2 5-4.7 7.9-2.1 2.3-4.3 3.7-5.8 4.6 1.7 1.3 4 3.3 6.2 6.3 2.3 3.2 3.6 6.2 4.3 8.4.5-1.9 1.6-5.5 4.5-9 2.2-2.6 4.6-4.2 6.2-5.1-1.6-.8-4.1-2.3-6.3-5-2.9-3.1-4-6.3-4.4-8.1zm0 21.6c-.9-2.7-4.4-7.4-6.8-9.1 2.1-.9 5.8-5.2 6.5-7.4.6 2.3 5 7.1 7.4 7.8-2.5 1.1-6.6 6.3-7.1 8.7zM95.3 68.9c-3.3-3.3-4.5-7-5-8.9-.3 1.5-.9 3.8-2.5 6.2-2.4 3.7-5.5 5.4-7 6.2 1.8 1.4 4.4 3.7 6.7 7.1 1.8 2.7 2.8 5.2 3.4 7.1.2-1.6.9-6.6 5.1-10.5 1.8-1.7 3.8-2.6 5.1-3.1-1.5-.7-3.7-1.9-5.8-4.1zM90.9 81c-.9-2.5-4.2-7-6.4-8.6 2-.9 5.5-4.9 6.2-7 .5 2.2 4.8 6.7 7 7.4-2.4 1.1-6.3 5.9-6.8 8.2zM24.4 61c-2.6-3.7-3.5-7.4-3.8-9.5 0 1.4-.3 6.2-4 10.4-2.5 2.8-5.4 4-6.8 4.5 1.9 1.2 4.5 3.3 6.9 6.4 2 2.6 3.3 5.1 4 7 .3-1.9 1.2-5.3 3.8-8.6 1.8-2.3 3.7-3.8 5.1-4.7-1.5-1.1-3.5-2.9-5.2-5.5zm-4.2 13.2c-.4-2.2-4.6-6.7-6.6-7.3 2.4-1.1 6.3-5.5 7.1-7.8 0 1.9 3.5 6.9 5.6 7.6-2.1 1.1-5.5 5.3-6.1 7.5zm10.6 53.1c-5.1-6-6.5-12.4-6.9-15.2-.2 2.3-1.1 10.5-7.7 17.3-5 5.1-10.8 6.9-13.3 7.4 2.6.6 8 2.3 12.9 7 6.4 6.1 8 13.3 8.5 15.8.2-2.4 1.1-9 6.3-15.1 4.7-5.6 10.3-7.7 12.7-8.4-2.7-.9-7.9-3.4-12.5-8.8zm-3.4 17.5c-1 1.6-2.4 4.1-3.2 7.6-2.5-8.8-8.2-14.4-15.3-15.3 7.5-2.4 14.4-11.3 15.2-17.5 1.4 6.3 7.2 15.1 14.8 16.5-3.3.2-10.3 5.5-11.5 8.7"/><path d="M27.6 132.8c-2.3-2.6-3.2-5.3-3.6-6.7-.2 1.2-.8 4.1-3.1 6.9-2.1 2.5-4.6 3.6-5.7 4.1 5.5 3.7 5.7 2.7 9 9.8.4-1.4 1.4-3.8 3.5-6.2 2-2.2 4.2-3.3 5.5-3.9-1.3-.5-3.5-1.7-5.6-4zm-3.3 10.6c.5-1.6-3.7-6.9-6-6.6 1.6.3 5.7-3.7 5.5-5.3.3 1.8 3.9 5.5 5.7 5.8-1.8.4-5.2 4.5-5.2 6.1zm73.1-46.1s-6.7-2-16.9-8.1c-8.6-5.2-16.1-23-19.6-45.5-.2-1.5-.5-3.2-.9-3.2-.8 0-1.6 7.6-1.6 11.1-.5 57.1-63.7 45.1-37.1 51.9 26.5 4.9 34.1 27.7 41.1 45.4 2.9-4.6 6.7-32 42-49.1-.5-1-2.8-1.2-7-2.5zm-28.2 19.6c-1.5 1.4-7.2 21.4-7.7 24.9.4-14.2-19.3-39.1-37.9-41 26.5-2.2 36.8-27 36.7-48.7C61.1 69 70.8 97.5 95 99.8c-13.1 4.4-17.6 6.4-25.8 17.1"/><path d="M78.4 97.2C66.8 92.4 62 74.4 60.5 67.7c-.6 4.1-2.6 23.2-15.3 29.3-24.5 10-1.6.7 7 14.3 3.6 3.1 7.4 18 8.4 18.3 5.7-35.1 40.2-25.2 17.8-32.4zM59.9 122c1.1-5.6-12-20.9-19.1-20.5 6-.4 20.1-15.6 20.1-22.7.6 5.3 10.2 18.7 17.6 21.3-5.5.4-19 15-18.6 21.9zM34.8 13.4c-3.1-3.2-4-6.8-4.4-8.5-.4 1.7-1.5 5-4.3 8.2-2.6 3-5.5 4.5-7.1 5.1 1.5.9 3.4 2.1 5.3 4 3.3 3.3 5 6.8 5.9 9 .5-2.2 1.7-5.7 4.2-9.2 1.7-2.4 3.6-4 5.1-5.1-1.2-.6-3-1.7-4.7-3.5zm-5 12.4c.2-1.8-4.2-7-6.6-7.1 2.5-.7 7-5.4 7.6-7.7 0 1.7 3.5 5.9 5.2 6.3-2.1 1.2-5.5 5.9-6.2 8.5zM254 263.9c3-7.9 30.1 2.4 24.6 10.7-5.8 4.5-25.7-2.2-24.6-10.7zm5.4 16.1c-5.9-3-13.3-3.6-12.2 3.2 1.3 3.6 26.8 18.2 24.8 5-1.6-3.7-4.7-5.1-12.6-8.2zm-40.6-2.6c-6.4-1.6-9.9-1.2-8.6 3.2 6.6 6.2 18.6 7.6 27.6 15.9 3.7 2 21.2 19.2 19.8 6.2-3.2-11.1-23.4-21.8-38.8-25.3"/><path d="M248.5 259c-2.4-9.4-6.2-19-15.2-20.8-3.1 1.6-12.4-7.4-10.5.6 3.7 5.4 6.5 15.7 5.5 23.3-.9 5.9-3.7 8.7-2.2 11.3.3 1.2 3.8 3.4 5.1.9 2.8 3 8.6 5.4 10.1-.3 7.3 9.5 10.9-2.2 7.2-15zm-2.2 14.8c-3.8 1.1-2.9-5-5.8-4.1 1.6 4.5-4.9 7.4-6.9 3.7-.9.1 2.3-7.4-.8-6.1-.6.4-.7 1.1-.9 1.7-.7 2.4-2.8 5.6-4.1 2.7-.4-2.8 1.4-4 2.9-8.3 4.6-8.6-3.3-20.9-6-25.2 10.1 3.9 15 13.8 16.7 25 6-3.5-4.8-19-7.8-22.7 10.5 3.8 17.2 23.2 12.7 33.3zM177 168c-4 1.8-8 3.6-12.1 5.3l-.9-1.2c4.5-1.8 8.1-3.4 10.5-4.6 3.9-1.9 6.7-3.4 11.1-3.9 1.4-.2 2.7-.2 3.5-.2"/></svg>