<?xml version="1.0" standalone="no"?>
<!DOCTYPE svg PUBLIC "-//W3C//DTD SVG 1.1//EN" "http://www.w3.org/Graphics/SVG/1.1/DTD/svg11.dtd" >
<svg xmlns="http://www.w3.org/2000/svg" xmlns:xlink="http://www.w3.org/1999/xlink" version="1.1">
<metadata>
Created by FontForge 20170731 at Sun Feb 21 15:30:43 2010
 By Aleksey,,,
Copyright (c) 2009 by Hannes von Doehren. All rights reserved.
</metadata>
<defs>
<font id="BrandonGrotesque-Black" horiz-adv-x="510" >
  <font-face 
    font-family="Brandon Grotesque Black"
    font-weight="500"
    font-stretch="normal"
    units-per-em="1000"
    panose-1="2 11 10 3 2 2 3 6 2 2"
    ascent="700"
    descent="-300"
    x-height="400"
    cap-height="700"
    bbox="-165.381 -389.05 1154.92 1052.56"
    underline-thickness="50"
    underline-position="-200"
    unicode-range="U+0020-FB02"
  />
<missing-glyph horiz-adv-x="599" 
d="M50 30v640q0 30 30 30h439q30 0 30 -30v-640q0 -30 -30 -30h-439q-30 0 -30 30zM262 314q0 -12 14 -12h36q15 0 15 13v26q0 16 16.5 32t36 28.5t36 36.5t16.5 53q0 48 -35.5 79.5t-89.5 31.5q-24 0 -46.5 -6.5t-37 -15t-25.5 -17.5t-16 -15l-5 -7q-8 -12 0 -18l22 -22
q8 -6 17 0q1 1 7.5 7t9.5 9t11.5 8.5t15.5 8.5t18 5.5t22 2.5q29 0 45 -15t16 -37q0 -21 -15.5 -39t-34 -30t-34 -32.5t-15.5 -45.5v-29zM245 156q0 -20 14.5 -34t33.5 -14q20 0 34.5 14t14.5 34t-14.5 34t-34.5 14q-19 0 -33.5 -14t-14.5 -34z" />
    <glyph glyph-name="fi" unicode="fi" horiz-adv-x="571" 
d="M75 19v254h-21q-8 0 -13.5 5.5t-5.5 13.5v89q0 19 19 19h21v93q0 94 60.5 155.5t153.5 61.5q78 0 155 -41q17 -9 8 -27l-43 -82q-11 -21 -28 -13q-54 25 -90 25q-26 0 -44.5 -20.5t-18.5 -59.5v-92h270q19 0 19 -19v-362q0 -8 -5.5 -13.5t-13.5 -5.5h-109q-8 0 -13.5 5.5
t-5.5 13.5v254h-142v-254q0 -7 -3 -11t-9.5 -6t-10.5 -2.5t-14 0t-11 0.5h-86q-8 0 -13.5 6t-5.5 13z" />
    <glyph glyph-name="fl" unicode="fl" horiz-adv-x="592" 
d="M76 19v254h-23q-8 0 -13.5 5.5t-5.5 13.5v89q0 19 19 19h23v93q0 100 61.5 158.5t152.5 58.5q40 0 77.5 -15t54.5 -29l18 -15l13 30q9 19 26 19h40q7 0 13 -6t6 -13v-662q0 -7 -6 -13t-13 -6h-111q-8 0 -13.5 6t-5.5 13v512q-8 12 -32.5 26.5t-51.5 14.5q-33 0 -55 -20.5
t-22 -59.5v-92h67q8 0 13.5 -5.5t5.5 -13.5v-89q0 -8 -6 -13.5t-13 -5.5h-67v-254q0 -7 -6 -13t-13 -6h-115q-7 0 -12.5 5.5t-5.5 13.5z" />
    <glyph glyph-name="f_f" unicode="ff" horiz-adv-x="667" 
d="M75 19v254h-21q-8 0 -13.5 5.5t-5.5 13.5v89q0 19 19 19h21v77q0 105 64 164t159 59q85 0 143 -49q57 59 148 59q36 0 72 -12t50 -26q12 -10 4 -23l-42 -83q-2 -5 -9.5 -7.5t-13.5 0.5q-30 16 -52 16q-59 0 -59 -83v-92h92q19 0 19 -19v-89q0 -8 -5.5 -13.5t-13.5 -5.5
h-92v-254q0 -7 -5.5 -13t-13.5 -6h-115q-7 0 -13 6t-6 13v254h-158v-254q0 -7 -6 -13t-13 -6h-115q-8 0 -13.5 6t-5.5 13zM228 400h158v92q0 14 2 38q-30 35 -79 35q-36 0 -58.5 -25t-22.5 -63v-77z" />
    <glyph glyph-name="f_f_i" unicode="ffi" horiz-adv-x="882" 
d="M75 19v254h-21q-8 0 -13.5 5.5t-5.5 13.5v89q0 19 19 19h21v77q0 100 63 161.5t160 61.5q42 0 78 -12t50 -24l15 -13q57 59 154 59q83 0 160 -41q8 -4 10 -11.5t-2 -15.5l-46 -88q-9 -14 -25 -7q-54 25 -90 25q-26 0 -44.5 -20.5t-18.5 -59.5v-92h270q19 0 19 -19v-362
q0 -8 -5.5 -13.5t-13.5 -5.5h-109q-8 0 -13.5 5.5t-5.5 13.5v254h-142v-254q0 -7 -5.5 -13t-13.5 -6h-115q-7 0 -13 6t-6 13v254h-158v-254q0 -7 -6 -13t-13 -6h-115q-8 0 -13.5 6t-5.5 13zM228 400h158v92q0 14 2 38q-30 35 -79 35q-36 0 -58.5 -25t-22.5 -63v-77z" />
    <glyph glyph-name="f_f_l" unicode="ffl" horiz-adv-x="903" 
d="M75 19v254h-21q-8 0 -13.5 5.5t-5.5 13.5v89q0 19 19 19h21v77q0 105 64 164t159 59q85 0 143 -49q57 59 162 59q38 0 75 -15t55 -29l18 -15l13 30q7 19 26 19h40q8 0 13.5 -6t5.5 -13v-662q0 -7 -5.5 -13t-13.5 -6h-111q-7 0 -13 6t-6 13v512q-8 12 -32.5 26.5
t-51.5 14.5q-33 0 -55 -20.5t-22 -59.5v-93h67q8 0 13.5 -5.5t5.5 -13.5v-89q0 -7 -5.5 -13t-13.5 -6h-67v-253q0 -7 -5.5 -13t-13.5 -6h-115q-7 0 -13 6t-6 13v254h-158v-254q0 -7 -6 -13t-13 -6h-115q-8 0 -13.5 6t-5.5 13zM228 400h158v92q0 14 2 38q-30 35 -79 35
q-36 0 -58.5 -25t-22.5 -63v-77z" />
    <glyph glyph-name="f_f_h" unicode="ffh" horiz-adv-x="1177" 
d="M75 19v254h-21q-8 0 -13.5 5.5t-5.5 13.5v89q0 19 19 19h21v77q0 100 63.5 161.5t159.5 61.5q85 0 143 -49q57 59 162 59q38 0 75 -15t55 -29l18 -15l13 30q7 19 26 19h40q8 0 13.5 -6t5.5 -13v-294q49 23 93 23q90 0 140.5 -59.5t50.5 -149.5v-182q0 -7 -5.5 -13
t-13.5 -6h-106q-8 0 -13.5 5.5t-5.5 13.5v182q0 34 -20.5 56.5t-52.5 22.5q-30 0 -48.5 -19t-18.5 -50v-192q0 -7 -5.5 -13t-13.5 -6h-111q-7 0 -13 6t-6 13v512q-8 12 -32.5 26.5t-51.5 14.5q-33 0 -55 -20.5t-22 -59.5v-93h67q8 0 13.5 -5.5t5.5 -13.5v-89q0 -7 -5.5 -13
t-13.5 -6h-67v-253q0 -7 -5.5 -13t-13.5 -6h-115q-7 0 -13 6t-6 13v254h-158v-254q0 -7 -6 -13t-13 -6h-115q-8 0 -13.5 6t-5.5 13zM228 400h158v92q0 14 2 38q-30 35 -79 35q-36 0 -58.5 -25t-22.5 -63v-77z" />
    <glyph glyph-name="f_k" unicode="fk" horiz-adv-x="846" 
d="M76 19v253h-23q-8 0 -13.5 5.5t-5.5 13.5v89q0 19 19 19h23v94q0 99 62.5 158t150.5 59q40 0 78 -15t55 -29l18 -15l13 30q7 19 26 19h40q7 0 13 -6t6 -13v-433l121 140q12 12 25 12h112q13 0 18 -10t-3 -21l-132 -153l160 -186q8 -10 3 -20t-18 -10h-135q-9 0 -15 8
l-136 174v-163q0 -7 -6 -13t-13 -6h-111q-8 0 -13.5 6t-5.5 13v512q-8 12 -32.5 26.5t-51.5 14.5q-33 0 -55 -20.5t-22 -59.5v-93h67q8 0 13.5 -5.5t5.5 -13.5v-89q0 -7 -6 -13t-13 -6h-67v-253q0 -7 -6 -13t-13 -6h-115q-7 0 -12.5 5.5t-5.5 13.5z" />
    <glyph glyph-name="f_j" unicode="fj" horiz-adv-x="571" 
d="M75 19v254h-21q-8 0 -13.5 5.5t-5.5 13.5v89q0 19 19 19h21v93q0 94 60.5 155.5t153.5 61.5q78 0 155 -41q17 -9 8 -27l-43 -82q-11 -21 -28 -13q-54 25 -90 25q-26 0 -44.5 -20.5t-18.5 -59.5v-92h270q19 0 19 -19v-473q0 -102 -56.5 -160t-146.5 -58q-36 0 -72 12
t-50 26q-12 10 -4 23l42 83q2 5 9.5 7.5t13.5 -0.5q30 -16 52 -16q63 0 63 83v365h-140v-254q0 -7 -6 -13t-13 -6h-115q-8 0 -13.5 6t-5.5 13z" />
    <glyph glyph-name="f_f_j" unicode="ffj" horiz-adv-x="882" 
d="M75 19v254h-21q-8 0 -13.5 5.5t-5.5 13.5v89q0 19 19 19h21v77q0 100 63 161.5t160 61.5q42 0 78 -12t50 -24l15 -13q57 59 154 59q83 0 160 -41q8 -4 10 -11.5t-2 -15.5l-46 -88q-9 -14 -25 -7q-54 25 -90 25q-26 0 -44.5 -20.5t-18.5 -59.5v-92h270q19 0 19 -19v-473
q0 -102 -56.5 -160t-146.5 -58q-36 0 -72 12t-50 26q-12 10 -4 23l42 83q2 5 9.5 7.5t13.5 -0.5q30 -16 52 -16q63 0 63 83v365h-140v-254q0 -7 -5.5 -13t-13.5 -6h-115q-7 0 -13 6t-6 13v254h-158v-254q0 -7 -6 -13t-13 -6h-115q-8 0 -13.5 6t-5.5 13zM228 400h158v92
q0 14 2 38q-30 35 -79 35q-36 0 -58.5 -25t-22.5 -63v-77z" />
    <glyph glyph-name="f_b" unicode="fb" horiz-adv-x="845" 
d="M76 19v253h-23q-8 0 -13.5 5.5t-5.5 13.5v89q0 19 19 19h23v94q0 95 62 156t151 61q40 0 78 -15t55 -29l18 -15l13 30q7 19 26 19h40q7 0 13 -6t6 -13v-286q40 15 83 15q84 0 141.5 -58.5t57.5 -151.5q0 -87 -57 -148.5t-141 -61.5q-39 0 -72.5 15.5t-47.5 31.5l-14 16
q-3 -5 -8 -21.5t-10.5 -24t-14.5 -7.5h-47q-8 0 -13.5 6t-5.5 13v512q-8 12 -32.5 26.5t-51.5 14.5q-33 0 -55 -20.5t-22 -59.5v-93h67q8 0 13.5 -5.5t5.5 -13.5v-89q0 -7 -6 -13t-13 -6h-67v-253q0 -7 -6 -13t-13 -6h-115q-7 0 -12.5 5.5t-5.5 13.5zM522 200
q0 -34 22.5 -57t56.5 -23t57 23t23 57q0 33 -23 56t-57 23t-56.5 -23t-22.5 -56z" />
    <glyph glyph-name="f_f_k" unicode="ffk" horiz-adv-x="1157" 
d="M75 19v254h-21q-8 0 -13.5 5.5t-5.5 13.5v89q0 19 19 19h21v77q0 105 64 164t159 59q85 0 143 -49q57 59 159 59q40 0 77.5 -15t55.5 -29l18 -15l16 38q4 11 17 11h46q8 0 13.5 -6t5.5 -13v-433l121 140q12 12 25 12h112q13 0 18 -10t-3 -21l-132 -153l160 -186
q8 -10 3 -20t-18 -10h-135q-9 0 -15 8l-136 174v-163q0 -7 -5.5 -13t-13.5 -6h-111q-7 0 -13 6t-6 13v512q-8 12 -32.5 26.5t-51.5 14.5q-33 0 -55 -20.5t-22 -59.5v-93h67q8 0 13.5 -5.5t5.5 -13.5v-89q0 -7 -5.5 -13t-13.5 -6h-67v-253q0 -7 -5.5 -13t-13.5 -6h-115
q-7 0 -13 6t-6 13v254h-158v-254q0 -7 -6 -13t-13 -6h-115q-8 0 -13.5 6t-5.5 13zM228 400h158v92q0 14 2 38q-30 35 -79 35q-36 0 -58.5 -25t-22.5 -63v-77z" />
    <glyph glyph-name="f_h" unicode="fh" horiz-adv-x="866" 
d="M76 19v253h-23q-8 0 -13.5 5.5t-5.5 13.5v89q0 19 19 19h23v94q0 96 63 156.5t155 60.5q38 0 74.5 -15t53.5 -29l18 -15l13 30q7 19 26 19h40q7 0 13 -6t6 -13v-294q43 23 93 23q90 0 140.5 -59.5t50.5 -149.5v-182q0 -7 -6 -13t-13 -6h-106q-8 0 -13.5 5.5t-5.5 13.5
v182q0 34 -20.5 56.5t-52.5 22.5q-27 0 -47 -16.5t-20 -52.5v-192q0 -7 -6 -13t-13 -6h-111q-8 0 -13.5 6t-5.5 13v512q-8 12 -32.5 26.5t-51.5 14.5q-33 0 -55 -20.5t-22 -59.5v-93h67q8 0 13.5 -5.5t5.5 -13.5v-89q0 -7 -6 -13t-13 -6h-67v-253q0 -7 -6 -13t-13 -6h-115
q-7 0 -12.5 5.5t-5.5 13.5z" />
    <glyph glyph-name="f_f_b" unicode="ffb" horiz-adv-x="1156" 
d="M75 19v254h-21q-8 0 -13.5 5.5t-5.5 13.5v89q0 19 19 19h21v77q0 100 63.5 161.5t159.5 61.5q85 0 143 -49q57 59 159 59q40 0 77.5 -15t55.5 -29l18 -15l13 30q7 19 26 19h40q8 0 13.5 -6t5.5 -13v-286q40 15 84 15q87 0 142.5 -56.5t55.5 -153.5q0 -87 -57 -148.5
t-141 -61.5q-39 0 -72.5 15.5t-47.5 31.5l-14 16q-3 -5 -8 -21.5t-10.5 -24t-14.5 -7.5h-47q-7 0 -13 6t-6 13v512q-8 12 -32.5 26.5t-51.5 14.5q-33 0 -55 -20.5t-22 -59.5v-93h67q8 0 13.5 -5.5t5.5 -13.5v-89q0 -7 -5.5 -13t-13.5 -6h-67v-253q0 -7 -5.5 -13t-13.5 -6
h-115q-7 0 -13 6t-6 13v254h-158v-254q0 -7 -6 -13t-13 -6h-115q-8 0 -13.5 6t-5.5 13zM228 400h158v92q0 14 2 38q-30 35 -79 35q-36 0 -58.5 -25t-22.5 -63v-77zM833 200q0 -34 22.5 -57t56.5 -23t57 23t23 57q0 33 -23 56t-57 23t-56.5 -23t-22.5 -56z" />
    <glyph glyph-name=".notdef" horiz-adv-x="599" 
d="M50 30v640q0 30 30 30h439q30 0 30 -30v-640q0 -30 -30 -30h-439q-30 0 -30 30zM262 314q0 -12 14 -12h36q15 0 15 13v26q0 16 16.5 32t36 28.5t36 36.5t16.5 53q0 48 -35.5 79.5t-89.5 31.5q-24 0 -46.5 -6.5t-37 -15t-25.5 -17.5t-16 -15l-5 -7q-8 -12 0 -18l22 -22
q8 -6 17 0q1 1 7.5 7t9.5 9t11.5 8.5t15.5 8.5t18 5.5t22 2.5q29 0 45 -15t16 -37q0 -21 -15.5 -39t-34 -30t-34 -32.5t-15.5 -45.5v-29zM245 156q0 -20 14.5 -34t33.5 -14q20 0 34.5 14t14.5 34t-14.5 34t-34.5 14q-19 0 -33.5 -14t-14.5 -34z" />
    <glyph glyph-name=".null" horiz-adv-x="0" 
 />
    <glyph glyph-name="nonmarkingreturn" horiz-adv-x="333" 
 />
    <glyph glyph-name="space" unicode=" " horiz-adv-x="221" 
 />
    <glyph glyph-name="exclam" unicode="!" horiz-adv-x="314" 
d="M136 272q-7 0 -12.5 5t-6.5 11l-49 279v114q0 7 6 13t13 6h140q7 0 13 -6t6 -13v-112l-49 -281q-1 -6 -6.5 -11t-12.5 -5h-42zM62 84q0 39 28 67.5t66 28.5q39 0 67.5 -28.5t28.5 -67.5q0 -38 -28.5 -66t-67.5 -28q-38 0 -66 28t-28 66z" />
    <glyph glyph-name="quotedbl" unicode="&#x22;" horiz-adv-x="366" 
d="M231 501q-7 0 -13 5.5t-6 13.5v161q0 7 6 13t13 6h104q10 0 15.5 -7.5t2.5 -17.5l-48 -159q-4 -15 -18 -15h-56zM50 501q-8 0 -13.5 5.5t-5.5 13.5v161q0 7 5.5 13t13.5 6h104q10 0 15.5 -7.5t2.5 -17.5l-48 -159q-4 -15 -18 -15h-56z" />
    <glyph glyph-name="numbersign" unicode="#" horiz-adv-x="535" 
d="M101 22l22 163h-71q-8 0 -13.5 5.5t-5.5 13.5v17q0 19 19 19h78l24 161h-73q-7 0 -13 5.5t-6 13.5v17q0 7 6 13t13 6h80l32 228q1 6 6 11t12 5h17q8 0 13.5 -6.5t4.5 -15.5l-30 -222h161l31 228q1 6 6.5 11t12.5 5h16q9 0 14.5 -6.5t4.5 -15.5l-30 -222h60q8 0 13.5 -5.5
t5.5 -13.5v-17q0 -8 -5.5 -13.5t-13.5 -5.5h-68l-23 -161h62q8 0 13.5 -5.5t5.5 -13.5v-17q0 -8 -6 -13.5t-13 -5.5h-70l-23 -169q-2 -16 -19 -16h-16q-9 0 -14.5 6.5t-4.5 15.5l23 163h-162l-22 -169q-2 -16 -19 -16h-16q-10 0 -15.5 6.5t-3.5 15.5zM185 240h162l22 161
h-160z" />
    <glyph glyph-name="dollar" unicode="$" horiz-adv-x="526" 
d="M40 67q-8 9 -9.5 13t4.5 15l43 76q16 29 38 13q65 -43 116 -60l1 162q-37 15 -69 34t-64 46.5t-51 65t-19 79.5q0 78 53.5 133.5t150.5 64.5v32q0 8 5.5 13.5t13.5 5.5h17q8 0 13.5 -5.5t5.5 -13.5v-33q99 -9 186 -73q8 -5 9 -16t-3 -16l-58 -84q-12 -17 -27 -6
q-2 1 -19 12t-42 25t-46 22v-141q212 -84 212 -234q0 -79 -58.5 -138t-155.5 -68v-104q0 -7 -5.5 -12.5t-13.5 -5.5h-17q-8 0 -13.5 5.5t-5.5 12.5v104q-125 9 -192 76zM230 455v130q-24 -3 -39.5 -18t-15.5 -34q0 -45 55 -78zM290 115q24 6 38.5 22.5t14.5 39.5
q0 48 -53 84v-146z" />
    <glyph glyph-name="percent" unicode="%" horiz-adv-x="659" 
d="M153 441q-56 0 -95.5 39.5t-39.5 95.5t39.5 95t95.5 39t95.5 -39t39.5 -95t-39.5 -95.5t-95.5 -39.5zM92 27l343 663q6 10 17 10h76q11 0 16.5 -8.5t0.5 -18.5l-345 -663q-8 -10 -17 -10h-74q-11 0 -16.5 8.5t-0.5 18.5zM153 541q14 0 24 10.5t10 24.5t-10.5 24t-23.5 10
q-14 0 -24.5 -10t-10.5 -24t10.5 -24.5t24.5 -10.5zM353 125q0 56 39.5 95.5t95.5 39.5t96 -39.5t40 -95.5t-40 -95.5t-96 -39.5t-95.5 40t-39.5 95zM454 125q0 -13 10 -23.5t24 -10.5t24.5 10t10.5 24t-10.5 24.5t-24.5 10.5t-24 -10.5t-10 -24.5z" />
    <glyph glyph-name="ampersand" unicode="&#x26;" horiz-adv-x="699" 
d="M70 180q0 40 14 75.5t34 57.5t40.5 38.5t34.5 22.5l14 7v3l-20 21q-66 69 -66 143q0 63 52 112.5t142 49.5q85 0 142.5 -48.5t57.5 -118.5q0 -31 -11 -59.5t-27.5 -48.5t-32.5 -35t-27 -23.5t-11 -10.5l90 -92q20 32 33 77q4 13 7 18.5t11.5 10.5t20.5 -2l73 -26
q18 -6 18.5 -22t-5.5 -24q-11 -31 -26.5 -61.5t-25.5 -46.5l-11 -17l85 -79q8 -8 11 -12t1 -13t-14 -21l-56 -57q-22 -20 -45 3l-65 65l-8.5 -8.5t-25 -18.5t-42.5 -23t-61.5 -18.5t-80.5 -8.5q-95 0 -157.5 55.5t-62.5 134.5zM322 449q7 3 18 9.5t29 28.5t18 47
q0 26 -21 45t-53 19q-27 0 -43 -14.5t-16 -34.5q0 -5 0.5 -9.5t2.5 -9.5t3 -8t4.5 -8.5t5.5 -8t7 -8t7 -8t8 -9.5t8 -9zM213 200q0 -36 27 -60.5t67 -24.5q22 0 41 5.5t31 12.5t20.5 14.5t12.5 12.5l3 6l-131 139q-3 -1 -7.5 -3t-17 -10.5t-22 -19.5t-17 -30t-7.5 -42z" />
    <glyph glyph-name="quotesingle" unicode="'" horiz-adv-x="183" 
d="M50 501q-8 0 -13.5 5.5t-5.5 13.5v161q0 7 5.5 13t13.5 6h103q10 0 15.5 -7.5t2.5 -17.5l-48 -159q-4 -15 -18 -15h-55z" />
    <glyph glyph-name="parenleft" unicode="(" horiz-adv-x="344" 
d="M291 -79q-254 18 -254 394q0 380 254 393q8 1 14 -4.5t6 -13.5l4 -85q0 -15 -13 -19q-61 -19 -88 -86.5t-27 -184.5q0 -118 27 -185t88 -87q13 -6 13 -19l-4 -84q-2 -19 -20 -19z" />
    <glyph glyph-name="parenright" unicode=")" horiz-adv-x="344" 
d="M29 25q0 5 4 10.5t9 7.5q61 20 88 87t27 185q0 117 -27 184.5t-88 86.5q-13 4 -13 19l4 85q0 8 6 13.5t14 4.5q254 -13 254 -393q0 -376 -254 -394q-8 0 -14 5.5t-6 12.5z" />
    <glyph glyph-name="asterisk" unicode="*" horiz-adv-x="364" 
d="M160 347q-8 0 -13.5 5.5t-5.5 13.5l2 90l-74 -51q-6 -4 -14 -2.5t-12 7.5l-22 35q-11 17 5 27l86 51l-86 52q-15 10 -6 27q16 24 24 35q12 14 25 4l74 -51l-2 91q0 7 5.5 13t13.5 6h41q7 0 13 -6t6 -13l-2 -91l75 51q16 10 26 -5l22 -34q12 -18 -5 -28l-86 -51l86 -52
q16 -10 6 -26l-25 -35q-4 -6 -11.5 -7.5t-13.5 2.5l-74 50l2 -89q0 -8 -6 -13.5t-13 -5.5h-41z" />
    <glyph glyph-name="plus" unicode="+" horiz-adv-x="532" 
d="M212 146v146h-146q-8 0 -13.5 6t-5.5 13v70q0 7 5.5 13t13.5 6h146v147q0 7 5.5 12.5t13.5 5.5h70q8 0 13.5 -5.5t5.5 -12.5v-147h147q7 0 12.5 -5.5t5.5 -13.5v-70q0 -8 -5.5 -13.5t-12.5 -5.5h-147v-146q0 -7 -5.5 -12.5t-13.5 -5.5h-70q-8 0 -13.5 5.5t-5.5 12.5z" />
    <glyph glyph-name="comma" unicode="," horiz-adv-x="277" 
d="M28 83q0 39 29.5 67t74.5 28t81.5 -37t36.5 -114q0 -129 -114 -228l-6 -6q-16 -14 -28 0l-21 24q-14 15 2 28q89 74 90 156q-22 -11 -52 -11q-38 0 -65.5 27.5t-27.5 65.5z" />
    <glyph glyph-name="hyphen" unicode="-" horiz-adv-x="359" 
d="M65 178q-8 0 -13.5 5t-5.5 13v91q0 19 19 19h229q19 0 19 -19v-91q0 -8 -5.5 -13t-13.5 -5h-229z" />
    <glyph glyph-name="period" unicode="." horiz-adv-x="244" 
d="M27 84q0 39 28 67.5t66 28.5q39 0 67.5 -28.5t28.5 -67.5q0 -38 -28.5 -66t-67.5 -28q-38 0 -66 28t-28 66z" />
    <glyph glyph-name="slash" unicode="/" horiz-adv-x="372" 
d="M24 25l196 662q4 13 18 13h98q11 0 16 -7.5t2 -17.5l-195 -662q-4 -13 -18 -13h-99q-10 0 -15.5 7.5t-2.5 17.5z" />
    <glyph glyph-name="zero" unicode="0" horiz-adv-x="624" 
d="M312 -10q-122 0 -189 92.5t-67 257.5t67 257.5t189 92.5t189 -92.5t67 -257.5t-67 -257.5t-189 -92.5zM312 135q46 0 70.5 53t24.5 152q0 98 -24.5 151.5t-70.5 53.5t-70.5 -53.5t-24.5 -151.5q0 -99 24.5 -152t70.5 -53z" />
    <glyph glyph-name="one" unicode="1" horiz-adv-x="374" 
d="M139 19v450h-96q-7 0 -12.5 5.5t-5.5 13.5v63q0 9 6 15l146 114h92q7 0 12.5 -5.5t5.5 -13.5v-642q0 -8 -5.5 -13.5t-12.5 -5.5h-111q-8 0 -13.5 5.5t-5.5 13.5z" />
    <glyph glyph-name="two" unicode="2" horiz-adv-x="514" 
d="M23 19v20q173 227 265 367q26 40 26 76q0 30 -24 51t-64 21q-52 0 -97 -50q-14 -14 -28 0l-61 62q-14 12 -1 26q3 4 9.5 10.5t26.5 23.5t42 30t55.5 23.5t66.5 10.5q104 0 165.5 -58t61.5 -144q0 -36 -8.5 -62t-30.5 -68q-14 -26 -41.5 -65t-68 -94t-51.5 -71h176
q8 0 13.5 -6t5.5 -13v-90q0 -7 -5.5 -13t-13.5 -6h-400q-8 0 -13.5 5.5t-5.5 13.5z" />
    <glyph glyph-name="three" unicode="3" horiz-adv-x="517" 
d="M30 79q-10 12 1 25l63 63q12 12 25 2q62 -46 110 -46q33 0 60 24t27 56q0 34 -32.5 57.5t-86.5 23.5h-56q-7 0 -13 6t-6 13v83q0 8 5.5 13.5t13.5 5.5h56q51 0 79 21.5t28 55.5q0 32 -23.5 53.5t-56.5 21.5q-52 0 -87 -40q-12 -14 -27 -1l-61 60q-14 12 0 26q3 4 9.5 9.5
t26.5 21t41 27t52 21t62 9.5q90 0 153 -50.5t63 -132.5q0 -53 -32 -95t-71 -60v-3q44 -19 82.5 -64.5t38.5 -103.5q0 -82 -65 -136.5t-168 -54.5q-58 0 -106 18t-69.5 35t-35.5 36z" />
    <glyph glyph-name="four" unicode="4" horiz-adv-x="600" 
d="M33 141q-8 0 -13.5 5.5t-5.5 13.5v106l349 419q6 6 15 6h72q8 0 13.5 -5.5t5.5 -13.5l1 -410h79q8 0 13.5 -5t5.5 -13v-83q0 -8 -5.5 -13.5t-13.5 -5.5h-79l1 -123q0 -7 -5.5 -13t-13.5 -6h-107q-7 0 -13 6t-6 13v122h-293zM171 265h159v186z" />
    <glyph glyph-name="five" unicode="5" horiz-adv-x="527" 
d="M52 73q-17 19 -2 34l63 62q11 11 24 3q71 -48 119 -48q41 0 68 27t27 68q0 42 -28 69.5t-75 27.5h-154q-14 0 -22.5 11t-8.5 24v310q0 8 5.5 13.5t13.5 5.5h322q8 0 13.5 -5.5t5.5 -13.5v-88q0 -8 -5.5 -13.5t-13.5 -5.5h-206v-107h71q102 0 165 -64t63 -164
q0 -95 -71.5 -162t-175.5 -67q-69 0 -121 26.5t-77 56.5z" />
    <glyph glyph-name="six" unicode="6" horiz-adv-x="538" 
d="M37 262q0 83 27.5 155.5t65.5 119t88 83.5t86.5 54.5t68.5 27.5q23 8 31 -16l29 -77q7 -21 -19 -29q-179 -57 -201 -164q47 20 95 20q78 0 138.5 -56.5t60.5 -160.5q0 -94 -67.5 -161.5t-161.5 -67.5q-113 0 -177 76t-64 196zM180 224q0 -39 28 -67.5t68 -28.5t68 28.5
t28 67.5q0 40 -28 68.5t-68 28.5t-68 -28.5t-28 -68.5z" />
    <glyph glyph-name="seven" unicode="7" horiz-adv-x="494" 
d="M37 19v11l250 522h-232q-7 0 -13 6t-6 13v90q0 7 6 13t13 6h422q7 0 13 -6t6 -13v-7l-299 -625q-14 -29 -41 -29h-99q-8 0 -14 5.5t-6 13.5z" />
    <glyph glyph-name="eight" unicode="8" horiz-adv-x="567" 
d="M40 181q0 31 15.5 61t39 52.5t39.5 35t28 19.5v3q-39 22 -71 62t-32 93q0 82 64 132.5t158 50.5q97 0 162 -50.5t65 -132.5q0 -88 -103 -154v-4q47 -26 84.5 -68.5t37.5 -99.5q0 -83 -67.5 -137t-178.5 -54q-107 0 -174 54t-67 137zM283 418q71 26 71 83q0 26 -21.5 45.5
t-49.5 19.5t-49 -19.5t-21 -45.5q0 -56 70 -83zM202 188q0 -32 25 -53.5t57 -21.5q31 0 56 22t25 53q0 29 -21.5 54t-60.5 38q-38 -13 -59.5 -38.5t-21.5 -53.5z" />
    <glyph glyph-name="nine" unicode="9" horiz-adv-x="537" 
d="M104 77q-7 21 19 29q179 57 201 164q-47 -20 -95 -20q-78 0 -138.5 56.5t-60.5 160.5q0 94 67.5 161.5t161.5 67.5q113 0 177 -76t64 -196q0 -83 -26.5 -155.5t-64.5 -119t-87.5 -83.5t-87 -54.5t-70.5 -27.5q-23 -6 -31 16zM261 365q40 0 68 28.5t28 68.5q0 39 -28 67.5
t-68 28.5t-68 -28.5t-28 -67.5q0 -40 28 -68.5t68 -28.5z" />
    <glyph glyph-name="colon" unicode=":" horiz-adv-x="260" 
d="M130 251q-33 0 -56 23t-23 56t23 56.5t56 23.5t56.5 -23.5t23.5 -56.5t-23.5 -56t-56.5 -23zM51 69q0 33 23 56.5t56 23.5t56.5 -23.5t23.5 -56.5t-23.5 -56t-56.5 -23t-56 23t-23 56z" />
    <glyph glyph-name="semicolon" unicode=";" horiz-adv-x="237" 
d="M107 251q-33 0 -56 23t-23 56t23 56.5t56 23.5t56.5 -23.5t23.5 -56.5t-23.5 -56t-56.5 -23zM33 61q0 30 22.5 51t56.5 21q35 0 63 -28.5t28 -87.5q0 -102 -93 -179q-12 -9 -22 2l-15 15q-11 12 1 22q70 51 71 120q-17 -7 -40 -7q-30 0 -51 20.5t-21 50.5z" />
    <glyph glyph-name="less" unicode="&#x3c;" horiz-adv-x="435" 
d="M27 210q-10 6 -10 17v5q0 11 10 17l350 212q10 6 19 1t9 -17v-87q0 -10 -8 -14l-191 -113l191 -109q8 -4 8 -14v-87q0 -12 -9 -17t-19 1z" />
    <glyph glyph-name="equal" unicode="=" horiz-adv-x="483" 
d="M72 331q-8 0 -13.5 5.5t-5.5 13.5v70q0 8 5.5 13.5t13.5 5.5h339q8 0 13.5 -5.5t5.5 -13.5v-70q0 -8 -5.5 -13.5t-13.5 -5.5h-339zM72 120q-8 0 -13.5 5.5t-5.5 13.5v71q0 8 5.5 13.5t13.5 5.5h339q8 0 13.5 -5.5t5.5 -13.5v-71q0 -8 -5.5 -13.5t-13.5 -5.5h-339z" />
    <glyph glyph-name="greater" unicode="&#x3e;" horiz-adv-x="435" 
d="M30 21v87q0 10 8 14l191 109l-191 113q-8 4 -8 14v87q0 12 9 17t19 -1l350 -212q10 -6 10 -17v-5q0 -11 -10 -17l-350 -205q-10 -6 -19 -1t-9 17z" />
    <glyph glyph-name="question" unicode="?" horiz-adv-x="453" 
d="M154 272q-8 0 -13.5 5.5t-5.5 13.5v42q0 28 21.5 55t47.5 45t47.5 41t21.5 44q0 24 -21.5 41.5t-53.5 17.5q-29 0 -53 -15.5t-37.5 -25t-23.5 -0.5l-61 60q-14 12 0 26q3 4 9 9.5t25.5 21t41.5 27t56.5 21t70.5 9.5q82 0 143 -50.5t61 -124.5q0 -36 -15.5 -65
t-37.5 -47.5t-44 -36t-37.5 -41.5t-15.5 -54q0 -8 -5.5 -13.5t-13.5 -5.5h-107zM113 84q0 39 28 67.5t66 28.5q39 0 67.5 -28.5t28.5 -67.5q0 -38 -28.5 -66t-67.5 -28q-38 0 -66 28t-28 66z" />
    <glyph glyph-name="at" unicode="@" horiz-adv-x="990" 
d="M26 223q0 213 135.5 350t348.5 137q207 0 325.5 -118t118.5 -304q0 -52 -13 -102.5t-40 -95.5t-74.5 -72.5t-109.5 -27.5q-87 0 -120 78h-8q-18 -34 -52.5 -56t-80.5 -22q-83 0 -133.5 62t-50.5 147q0 86 54 148.5t134 62.5q66 0 123 -62q2 5 6.5 16.5t7 17.5t8 12
t12.5 6h41q8 0 13.5 -5.5t5.5 -13.5v-168q0 -58 15.5 -78t40.5 -20q41 0 62.5 51t21.5 114q0 136 -80.5 220t-231.5 84q-159 0 -253 -97.5t-94 -263.5q0 -111 63.5 -201t166.5 -132q17 -8 12 -23l-30 -82q-7 -18 -23 -12q-139 46 -230 171.5t-91 278.5zM396 203
q0 -40 21 -62.5t52 -22.5q30 0 50.5 25t20.5 61q0 38 -20.5 62t-53.5 24q-31 0 -50.5 -25t-19.5 -62z" />
    <glyph glyph-name="A" unicode="A" horiz-adv-x="662" 
d="M13 0q-11 0 -16.5 8t-0.5 18l313 673q5 11 17 11h10q12 0 17 -11l313 -673q5 -10 -0.5 -18t-16.5 -8h-111q-23 0 -35 25l-36 79h-272l-36 -80q-10 -24 -36 -24h-110zM255 240h152l-76 165h-1z" />
    <glyph glyph-name="B" unicode="B" horiz-adv-x="612" 
d="M86 19v662q0 8 5.5 13.5t13.5 5.5h233q89 0 152 -54t63 -132q0 -52 -35.5 -93t-80.5 -65q134 -56 134 -163q0 -83 -63.5 -138t-154.5 -55h-248q-8 0 -13.5 5.5t-5.5 13.5zM242 416h78q29 0 49.5 21t20.5 51q0 29 -20.5 48.5t-49.5 19.5h-78v-140zM242 143h91
q29 0 50.5 21.5t21.5 51.5q0 29 -25.5 49.5t-56.5 20.5h-81v-143z" />
    <glyph glyph-name="C" unicode="C" horiz-adv-x="673" 
d="M35 349q0 150 105.5 255.5t255.5 105.5q140 0 242 -93q15 -14 1 -28l-78 -81q-13 -12 -25 0q-57 51 -135 51q-84 0 -140 -60.5t-56 -145.5q0 -84 56.5 -143.5t140.5 -59.5q78 0 134 48q14 12 26 -1l78 -83q13 -13 -1 -27q-100 -97 -243 -97q-150 0 -255.5 104.5
t-105.5 254.5z" />
    <glyph glyph-name="D" unicode="D" horiz-adv-x="735" 
d="M86 19v662q0 8 5.5 13.5t12.5 5.5h244q145 0 248 -102.5t103 -246.5q0 -145 -103 -248t-248 -103h-244q-7 0 -12.5 5.5t-5.5 13.5zM242 148h96q84 0 139.5 58.5t55.5 144.5q0 85 -55.5 143.5t-139.5 58.5h-96v-405z" />
    <glyph glyph-name="E" unicode="E" horiz-adv-x="586" 
d="M86 19v662q0 8 5.5 13.5t13.5 5.5h414q8 0 13.5 -5.5t5.5 -13.5v-109q0 -8 -5.5 -13.5t-13.5 -5.5h-277v-124h228q8 0 13.5 -5.5t5.5 -13.5v-109q0 -8 -5.5 -13.5t-13.5 -5.5h-228v-135h277q8 0 13.5 -5.5t5.5 -13.5v-109q0 -8 -5.5 -13.5t-13.5 -5.5h-414
q-8 0 -13.5 5.5t-5.5 13.5z" />
    <glyph glyph-name="F" unicode="F" horiz-adv-x="563" 
d="M86 19v662q0 8 5.5 13.5t13.5 5.5h414q8 0 13.5 -5.5t5.5 -13.5v-109q0 -8 -5.5 -13.5t-13.5 -5.5h-277v-144h228q8 0 13.5 -5.5t5.5 -13.5v-109q0 -7 -5.5 -13t-13.5 -6h-228v-243q0 -7 -6 -13t-13 -6h-118q-8 0 -13.5 5.5t-5.5 13.5z" />
    <glyph glyph-name="G" unicode="G" horiz-adv-x="702" 
d="M36 349q0 150 105 255t254 105q63 0 128 -25t116 -69q16 -13 2 -27l-79 -84q-13 -11 -27 -1q-52 48 -131 48q-81 0 -139 -59.5t-58 -142.5q0 -82 58 -140.5t140 -58.5q49 0 89 16v58h-63q-8 0 -13.5 5t-5.5 13v99q0 19 19 19h201q7 0 12.5 -5.5t5.5 -13.5l1 -269
q0 -10 -8 -16q-12 -7 -33 -18t-86 -29t-129 -18q-150 0 -254.5 104t-104.5 254z" />
    <glyph glyph-name="H" unicode="H" horiz-adv-x="772" 
d="M86 19v662q0 7 6 13t13 6h119q8 0 13.5 -5.5t5.5 -13.5v-252h286v252q0 8 5.5 13.5t13.5 5.5h119q7 0 13 -6t6 -13v-662q0 -7 -6 -13t-13 -6h-119q-8 0 -13.5 5.5t-5.5 13.5v263h-286v-263q0 -8 -5.5 -13.5t-13.5 -5.5h-119q-7 0 -13 6t-6 13z" />
    <glyph glyph-name="I" unicode="I" horiz-adv-x="330" 
d="M86 19v662q0 7 6 13t13 6h120q7 0 13 -6t6 -13v-662q0 -7 -6 -13t-13 -6h-120q-7 0 -13 6t-6 13z" />
    <glyph glyph-name="J" unicode="J" horiz-adv-x="424" 
d="M-14 63q-8 13 2 25l68 67q14 13 27 0q21 -21 51 -21q23 0 41 20.5t18 55.5v471q0 8 5.5 13.5t13.5 5.5h122q8 0 13.5 -5.5t5.5 -13.5v-472q0 -101 -62 -160t-153 -59q-93 0 -152 73z" />
    <glyph glyph-name="K" unicode="K" horiz-adv-x="673" 
d="M86 24v652q0 10 7 17t17 7h117q10 0 17 -7t7 -17v-263l222 277q8 10 19 10h126q14 0 20 -13t-2 -24l-234 -293l255 -332q8 -11 1.5 -24t-20.5 -13h-138q-13 0 -18 7l-231 314v-298q0 -10 -7 -17t-17 -7h-117q-10 0 -17 7t-7 17z" />
    <glyph glyph-name="L" unicode="L" horiz-adv-x="511" 
d="M86 19v662q0 8 5.5 13.5t13.5 5.5h119q8 0 13.5 -6t5.5 -13v-534h238q8 0 13.5 -5.5t5.5 -13.5v-109q0 -8 -5.5 -13.5t-13.5 -5.5h-376q-8 0 -13.5 5.5t-5.5 13.5z" />
    <glyph glyph-name="M" unicode="M" horiz-adv-x="878" 
d="M42 22l113 672q2 16 18 16h16q12 0 17 -10l232 -432h2l232 432q5 10 17 10h16q16 0 18 -16l113 -672q1 -10 -4.5 -16t-14.5 -6h-118q-7 0 -12.5 5t-6.5 11l-45 309h-2l-168 -324q-5 -11 -17 -11h-18q-12 0 -17 11l-169 324h-2l-44 -309q-2 -16 -19 -16h-118q-9 0 -14.5 6
t-4.5 16z" />
    <glyph glyph-name="N" unicode="N" horiz-adv-x="773" 
d="M86 19l-1 673q0 7 5.5 12.5t13.5 5.5h25l399 -384h1v355q0 8 5.5 13.5t13.5 5.5h120q8 0 13.5 -6t5.5 -13v-673q0 -7 -5.5 -12.5t-13.5 -5.5h-16q-8 0 -13 5l-395 397h-1v-373q0 -8 -5.5 -13.5t-13.5 -5.5h-119q-7 0 -13 6t-6 13z" />
    <glyph glyph-name="O" unicode="O" horiz-adv-x="789" 
d="M35 349q0 150 104.5 255.5t254.5 105.5t255 -105.5t105 -255.5t-105 -254.5t-255 -104.5t-254.5 104.5t-104.5 254.5zM195 349q0 -82 58.5 -140.5t140.5 -58.5t141 58.5t59 140.5q0 83 -59 142t-141 59t-140.5 -59t-58.5 -142z" />
    <glyph glyph-name="P" unicode="P" horiz-adv-x="589" 
d="M86 19v662q0 8 5.5 13.5t13.5 5.5h241q92 0 158 -65t66 -156q0 -93 -65.5 -159t-157.5 -66h-105v-235q0 -7 -6 -13t-13 -6h-118q-8 0 -13.5 5.5t-5.5 13.5zM242 400h95q33 0 56 23t23 56q0 31 -23 52.5t-56 21.5h-95v-153z" />
    <glyph glyph-name="Q" unicode="Q" horiz-adv-x="792" 
d="M35 349q0 150 104.5 255.5t254.5 105.5t255 -105.5t105 -255.5q0 -96 -50.5 -180t-134.5 -135l129 -202q6 -10 1 -20t-17 -10h-135q-10 0 -16 10l-106 179q-12 -1 -31 -1q-150 0 -254.5 104.5t-104.5 254.5zM195 349q0 -82 58.5 -140.5t140.5 -58.5t141 58.5t59 140.5
q0 83 -59 142t-141 59t-140.5 -59t-58.5 -142z" />
    <glyph glyph-name="R" unicode="R" horiz-adv-x="670" 
d="M86 19v662q0 8 5.5 13.5t13.5 5.5h299q90 0 154 -63.5t64 -152.5q0 -67 -40.5 -120.5t-107.5 -80.5l137 -254q6 -10 0.5 -19.5t-17.5 -9.5h-133q-11 0 -16 9l-133 265h-69v-255q0 -7 -5.5 -13t-13.5 -6h-119q-8 0 -13.5 5.5t-5.5 13.5zM243 401h148q31 0 53.5 24t22.5 56
q0 31 -22.5 53.5t-53.5 22.5h-148v-156z" />
    <glyph glyph-name="S" unicode="S" horiz-adv-x="548" 
d="M51 67q-8 8 -9 12.5t4 15.5l47 83q5 9 17 10t17 -4l7 -4q7 -5 16.5 -11t24 -13t29 -13t32 -10t33.5 -4q30 0 49.5 17t19.5 43q0 60 -103 101q-194 77 -194 221q0 81 61 140t170 59q112 0 214 -75q8 -5 9 -16t-3 -16l-51 -77q-6 -9 -16.5 -13.5t-17.5 0.5q-1 0 -12 8
t-25 15.5t-31.5 16.5t-37.5 14.5t-37 5.5q-27 0 -45 -15t-18 -36q0 -28 25 -50.5t84 -46.5q202 -80 202 -228q0 -82 -65.5 -144.5t-170.5 -62.5q-85 0 -141.5 25t-83.5 52z" />
    <glyph glyph-name="T" unicode="T" 
d="M176 19v534h-143q-8 0 -13.5 5.5t-5.5 13.5v109q0 8 5.5 13.5t13.5 5.5h444q8 0 13.5 -5.5t5.5 -13.5v-109q0 -8 -5.5 -13.5t-13.5 -5.5h-143v-534q0 -7 -6 -13t-13 -6h-120q-7 0 -13 6t-6 13z" />
    <glyph glyph-name="U" unicode="U" horiz-adv-x="721" 
d="M76 268v413q0 7 6 13t13 6h123q8 0 13.5 -5.5t5.5 -13.5v-405q0 -53 35 -89.5t88 -36.5q54 0 89.5 36.5t35.5 89.5v405q0 8 5.5 13.5t13.5 5.5h123q7 0 13 -6t6 -13v-413q0 -114 -84 -196t-202 -82q-117 0 -200.5 82t-83.5 196z" />
    <glyph glyph-name="V" unicode="V" horiz-adv-x="662" 
d="M308 1l-312 673q-5 10 0.5 18t16.5 8h133q13 0 17 -11l165 -365h6l165 365q4 11 17 11h133q11 0 16.5 -8t0.5 -18l-314 -673q-6 -11 -17 -11h-10q-11 0 -17 11z" />
    <glyph glyph-name="W" unicode="W" horiz-adv-x="896" 
d="M213 4l-189 672q-3 10 2 17t16 7h117q14 0 18 -14l86 -339h4l155 352q6 11 17 11h18q13 0 17 -11l155 -352h4l86 339q4 14 18 14h117q11 0 16 -7t2 -17l-189 -672q-3 -14 -18 -14h-16q-11 0 -17 11l-183 409h-3l-182 -409q-6 -11 -17 -11h-16q-15 0 -18 14z" />
    <glyph glyph-name="X" unicode="X" horiz-adv-x="655" 
d="M24 28l210 331l-202 313q-6 10 -1 19t18 9h146q9 0 16 -9l115 -186h1l117 186q4 9 16 9h146q13 0 18.5 -9t-1.5 -19l-203 -313l210 -331q7 -10 1.5 -19t-17.5 -9h-139q-12 0 -17 9l-131 202h-2l-128 -202q-7 -9 -17 -9h-139q-13 0 -18.5 9t1.5 19z" />
    <glyph glyph-name="Y" unicode="Y" horiz-adv-x="590" 
d="M215 19v318l-221 334q-6 10 -1 19.5t17 9.5h130q9 0 16 -9l139 -205l139 205q7 9 16 9h130q12 0 17 -9.5t-1 -19.5l-224 -333v-319q0 -7 -6 -13t-13 -6h-119q-8 0 -13.5 5.5t-5.5 13.5z" />
    <glyph glyph-name="Z" unicode="Z" horiz-adv-x="542" 
d="M23 19v18l266 514v2h-218q-7 0 -13 5.5t-6 13.5v109q0 7 6 13t13 6h425q8 0 13.5 -6t5.5 -13v-13l-257 -519v-2h218q8 0 13.5 -5.5t5.5 -13.5v-109q0 -8 -5.5 -13.5t-13.5 -5.5h-434q-8 0 -13.5 6t-5.5 13z" />
    <glyph glyph-name="bracketleft" unicode="[" horiz-adv-x="361" 
d="M198 -183h127q8 0 13.5 -5.5t5.5 -12.5v-81q0 -8 -6 -13.5t-13 -5.5h-246q-7 0 -13 5.5t-6 13.5v963q0 7 6 13t13 6h246q7 0 13 -6t6 -13v-80q0 -8 -5.5 -13.5t-13.5 -5.5h-127v-765z" />
    <glyph glyph-name="backslash" unicode="\" horiz-adv-x="372" 
d="M213 13l-195 662q-3 10 2 17.5t16 7.5h98q14 0 18 -13l196 -662q3 -10 -2.5 -17.5t-15.5 -7.5h-99q-14 0 -18 13z" />
    <glyph glyph-name="bracketright" unicode="]" horiz-adv-x="361" 
d="M36 -183h127v765h-127q-8 0 -13.5 5.5t-5.5 13.5v80q0 7 5.5 13t13.5 6h246q8 0 13.5 -6t5.5 -13v-963q0 -8 -5.5 -13.5t-13.5 -5.5h-246q-8 0 -13.5 5.5t-5.5 13.5v81q0 7 5.5 12.5t13.5 5.5z" />
    <glyph glyph-name="asciicircum" unicode="^" horiz-adv-x="524" 
d="M50 378q-12 0 -17 9t1 19l211 298q6 10 17 10h5q11 0 17 -10l206 -298q6 -10 1 -19t-17 -9h-87q-10 0 -14 8l-110 149l-112 -149q-4 -8 -14 -8h-87z" />
    <glyph glyph-name="underscore" unicode="_" horiz-adv-x="431" 
d="M17 -29q0 19 19 19h359q19 0 19 -19v-51q0 -8 -5.5 -13t-13.5 -5h-359q-8 0 -13.5 5t-5.5 13v51z" />
    <glyph glyph-name="grave" unicode="`" horiz-adv-x="302" 
d="M232 512l-182 82q-16 10 -6 30l34 59q3 6 12.5 6.5t13.5 -3.5l170 -104q11 -9 6 -19l-21 -42q-10 -20 -27 -9z" />
    <glyph glyph-name="a" unicode="a" horiz-adv-x="429" 
d="M27 122q0 59 40 96.5t107 37.5q20 0 39 -4t29 -8l9 -4q0 32 -10 45.5t-44 13.5q-51 0 -100 -15q-20 -7 -24 21l-9 63q-4 21 15 27q10 3 54 9t79 6q92 0 130.5 -40t38.5 -130v-221q0 -7 -5.5 -13t-13.5 -6h-44q-12 0 -18 13l-14 27q-55 -50 -121 -50q-60 0 -99 36.5
t-39 95.5zM157 132q0 -18 12.5 -31t30.5 -13t31 13t13 31q-1 17 -13.5 29.5t-30.5 12.5t-30.5 -12.5t-12.5 -29.5z" />
    <glyph glyph-name="b" unicode="b" 
d="M54 19v662q0 7 6 13t13 6h111q8 0 13.5 -6t5.5 -13v-290q33 19 83 19q85 0 142 -54.5t57 -155.5q0 -87 -57 -148.5t-141 -61.5q-39 0 -72.5 15.5t-47.5 31.5l-14 16l-12 -33q-7 -20 -21 -20h-47q-7 0 -13 6t-6 13zM187 201q0 -35 23 -58.5t57 -23.5t57.5 23.5t23.5 58.5
q0 34 -23.5 57t-57.5 23t-57 -23t-23 -57z" />
    <glyph glyph-name="c" unicode="c" horiz-adv-x="420" 
d="M23 200q0 87 64.5 148.5t151.5 61.5q91 0 150 -72q11 -14 -5 -28l-60 -57q-4 -4 -11 -3t-11 5q-24 26 -58 26q-33 0 -56.5 -24t-23.5 -57q0 -34 22.5 -57.5t55.5 -23.5q37 0 68 31q12 12 22 4l60 -52q16 -15 7 -28q-56 -84 -161 -84q-87 0 -151 60.5t-64 149.5z" />
    <glyph glyph-name="d" unicode="d" 
d="M25 200q0 101 57 155.5t142 54.5q50 0 83 -19v290q0 7 5.5 13t13.5 6h111q7 0 13 -6t6 -13v-662q0 -7 -6 -13t-13 -6h-47q-14 0 -21 20l-12 33q-5 -7 -15 -17.5t-45 -28t-74 -17.5q-84 0 -141 61.5t-57 148.5zM162 201q0 -35 23.5 -58.5t57.5 -23.5t57 23.5t23 58.5
q0 34 -23 57t-57 23t-57.5 -23t-23.5 -57z" />
    <glyph glyph-name="e" unicode="e" horiz-adv-x="439" 
d="M24 200q0 86 60 148t147 62q78 0 134 -53.5t56 -134.5q0 -13 -2 -27q-2 -17 -19 -17h-240q3 -25 22.5 -45.5t54.5 -20.5q38 0 70 24q15 12 25 0l50 -60q12 -16 -1 -29q-57 -57 -148 -57q-88 0 -148.5 61.5t-60.5 148.5zM173 256h107q-1 19 -17 33t-36 14t-35.5 -13.5
t-18.5 -33.5z" />
    <glyph glyph-name="f" unicode="f" horiz-adv-x="356" 
d="M75 19v254h-21q-8 0 -13.5 5.5t-5.5 13.5v89q0 19 19 19h21v92q0 102 56.5 160t146.5 58q36 0 72 -12t50 -26q12 -10 4 -23l-42 -83q-2 -5 -9.5 -7.5t-13.5 0.5q-30 16 -52 16q-59 0 -59 -83v-92h92q19 0 19 -19v-89q0 -8 -5.5 -13.5t-13.5 -5.5h-92v-254q0 -7 -6 -13
t-13 -6h-115q-8 0 -13.5 6t-5.5 13z" />
    <glyph glyph-name="g" unicode="g" horiz-adv-x="465" 
d="M11 36q0 35 20 62.5t40 37.5l20 10q-29 30 -29 91q0 70 52 121.5t124 51.5h189q19 0 19 -19v-41q0 -12 -11 -17l-58 -21q4 -3 10.5 -10t17 -32.5t10.5 -54.5q0 -58 -48.5 -104.5t-124.5 -46.5h-72q-33 0 -33 -27q0 -13 9.5 -20t22.5 -7h120q72 0 122 -40.5t50 -105.5
q0 -77 -56 -125.5t-169 -48.5q-107 0 -158 40.5t-51 95.5q0 63 61 96v3q-8 2 -18 8.5t-25 18.5t-24.5 34.5t-9.5 49.5zM189 228q0 -22 15 -37t38 -15t38 14.5t15 37.5t-15 37.5t-38 14.5t-38 -15t-15 -37zM164 -146q0 -47 72 -47t72 47q0 42 -72 42q-30 0 -51 -11t-21 -31z
" />
    <glyph glyph-name="h" unicode="h" horiz-adv-x="530" 
d="M54 19v662q0 7 6 13t13 6h111q8 0 13.5 -6t5.5 -13v-294q46 23 93 23q90 0 140.5 -61t50.5 -149v-181q0 -7 -5.5 -13t-13.5 -6h-106q-8 0 -13.5 5.5t-5.5 13.5v183q0 34 -20.5 56.5t-52.5 22.5q-28 0 -47.5 -18.5t-19.5 -60.5v-183q0 -19 -22 -19h-108q-7 0 -13 6t-6 13z
" />
    <glyph glyph-name="i" unicode="i" horiz-adv-x="256" 
d="M127 521q-33 0 -56 23t-23 56t23 56.5t56 23.5t56.5 -23.5t23.5 -56.5t-23.5 -56t-56.5 -23zM54 19v362q0 8 5.5 13.5t13.5 5.5h110q8 0 13.5 -5.5t5.5 -13.5v-362q0 -7 -6 -13t-13 -6h-110q-7 0 -13 6t-6 13z" />
    <glyph glyph-name="j" unicode="j" horiz-adv-x="257" 
d="M128 521q-33 0 -56 23t-23 56t23 56.5t56 23.5t56.5 -23.5t23.5 -56.5t-23.5 -56t-56.5 -23zM54 -92v473q0 8 5.5 13.5t13.5 5.5h111q8 0 13.5 -5.5t5.5 -13.5v-473q0 -102 -56.5 -160t-146.5 -58q-36 0 -72 12t-50 26q-12 10 -4 23l42 83q2 5 9.5 7.5t13.5 -0.5
q30 -16 52 -16q63 0 63 83z" />
    <glyph glyph-name="k" unicode="k" horiz-adv-x="511" 
d="M54 19v662q0 7 6 13t13 6h111q8 0 13.5 -6t5.5 -13v-433l121 140q12 12 25 12h112q13 0 18 -10t-3 -21l-132 -153l160 -186q8 -10 3 -20t-18 -10h-135q-9 0 -15 8l-136 174v-163q0 -7 -5.5 -13t-13.5 -6h-111q-7 0 -13 6t-6 13z" />
    <glyph glyph-name="l" unicode="l" horiz-adv-x="256" 
d="M54 19v662q0 7 6 13t13 6h110q7 0 13 -6t6 -13v-662q0 -7 -6 -13t-13 -6h-110q-7 0 -13 6t-6 13z" />
    <glyph glyph-name="m" unicode="m" horiz-adv-x="786" 
d="M54 19v362q0 19 19 19h46q11 0 17 -11l17 -41q60 62 135 62q76 0 131 -61q61 61 138 61q89 0 137 -59.5t48 -150.5v-181q0 -8 -5.5 -13.5t-13.5 -5.5h-106q-8 0 -13.5 5.5t-5.5 13.5v187q0 32 -17 53.5t-50 21.5q-27 0 -47 -19.5t-20 -48.5v-194q0 -8 -5.5 -13.5
t-13.5 -5.5h-96q-8 0 -13.5 5.5t-5.5 13.5v187q0 33 -15.5 54t-47.5 21q-30 0 -50 -19.5t-20 -50.5v-192q0 -7 -5.5 -13t-13.5 -6h-105q-8 0 -13.5 5.5t-5.5 13.5z" />
    <glyph glyph-name="n" unicode="n" horiz-adv-x="528" 
d="M54 19v362q0 8 5.5 13.5t13.5 5.5h47q13 0 18 -12l16 -40q57 62 141 62q89 0 139.5 -59.5t50.5 -149.5v-182q0 -7 -5.5 -13t-13.5 -6h-107q-8 0 -13.5 5.5t-5.5 13.5v187q0 32 -18 53.5t-50 21.5q-31 0 -53.5 -20t-22.5 -50v-192q0 -19 -18 -19h-105q-7 0 -13 6t-6 13z
" />
    <glyph glyph-name="o" unicode="o" horiz-adv-x="462" 
d="M23 201q0 85 61.5 147t146.5 62t146.5 -62t61.5 -147q0 -86 -61.5 -148.5t-146.5 -62.5t-146.5 62.5t-61.5 148.5zM152 201q0 -34 23 -58t56 -24t56 24t23 58q0 33 -23 56.5t-56 23.5t-56 -23.5t-23 -56.5z" />
    <glyph glyph-name="p" unicode="p" 
d="M203 9v-290q0 -7 -5.5 -13t-13.5 -6h-111q-7 0 -13 6t-6 13v662q0 7 6 13t13 6h47q14 0 21 -20l12 -33q5 7 15 17.5t45 28t74 17.5q84 0 141 -61.5t57 -148.5q0 -101 -57 -155.5t-142 -54.5q-50 0 -83 19zM187 199q0 -34 23 -57t57 -23t57.5 23t23.5 57q0 35 -23.5 58.5
t-57.5 23.5t-57 -23.5t-23 -58.5z" />
    <glyph glyph-name="q" unicode="q" 
d="M25 200q0 87 57 148.5t141 61.5q39 0 72.5 -16t47.5 -32l14 -15l12 33q7 20 21 20h47q7 0 13 -6t6 -13v-662q0 -7 -6 -13t-13 -6h-111q-8 0 -13.5 6t-5.5 13v290q-33 -19 -83 -19q-85 0 -142 54.5t-57 155.5zM162 199q0 -34 23.5 -57t57.5 -23t57 23t23 57q0 35 -23 58.5
t-57 23.5t-57.5 -23.5t-23.5 -58.5z" />
    <glyph glyph-name="r" unicode="r" horiz-adv-x="345" 
d="M54 19v362q0 8 5.5 13.5t13.5 5.5h47q12 0 18 -12l18 -44q46 66 109 66q27 0 48 -6t30 -16t2 -21l-49 -80q-8 -14 -22 -9q-12 5 -24 5q-23 0 -38 -16t-15 -41v-207q0 -19 -22 -19h-102q-7 0 -13 6t-6 13z" />
    <glyph glyph-name="s" unicode="s" horiz-adv-x="371" 
d="M40 23q-13 11 -7 21l35 69q2 5 8.5 8t12.5 0q47 -26 90 -26q19 0 19 18q0 22 -57 42q-112 39 -112 134q0 53 39.5 87t116.5 34q84 0 133 -31q18 -12 10 -25l-37 -68q-6 -12 -21 -6q-46 23 -85 23q-22 0 -22 -14q0 -16 45 -32q69 -24 103 -54t34 -86q0 -55 -44 -91
t-125 -36q-95 0 -136 33z" />
    <glyph glyph-name="t" unicode="t" horiz-adv-x="344" 
d="M70 129v144h-26q-7 0 -12.5 5.5t-5.5 13.5v89q0 8 5 13.5t13 5.5h26v111q0 7 6 13t13 6h107q7 0 12.5 -5.5t5.5 -13.5v-111h74q19 0 19 -19v-89q0 -8 -5.5 -13.5t-13.5 -5.5h-74v-125q0 -24 27 -24q4 0 39 7q18 3 22 -13l22 -83q4 -18 -13 -23q-71 -22 -121 -22
q-57 0 -88.5 35.5t-31.5 103.5z" />
    <glyph glyph-name="u" unicode="u" 
d="M45 200v181q0 8 5.5 13.5t13.5 5.5h107q8 0 13.5 -5.5t5.5 -13.5v-185q0 -32 17 -54.5t47 -22.5q28 0 44 21.5t16 49.5v191q0 19 21 19h102q8 0 13.5 -5.5t5.5 -13.5v-362q0 -7 -6 -13t-13 -6h-47q-13 0 -19 14l-15 37q-21 -21 -31 -29t-39.5 -20t-64.5 -12
q-85 0 -130.5 59.5t-45.5 150.5z" />
    <glyph glyph-name="v" unicode="v" horiz-adv-x="426" 
d="M192 0l-188 373q-5 10 0.5 18.5t16.5 8.5h112q13 0 18 -11l59 -136h3l63 136q4 8 9 9.5t18 1.5h101q11 0 16.5 -8.5t0.5 -18.5l-190 -373q-6 -10 -17 -10h-5q-11 0 -17 10z" />
    <glyph glyph-name="w" unicode="w" horiz-adv-x="619" 
d="M143 2l-133 373q-4 10 1.5 17.5t16.5 7.5h95q15 0 18 -12l52 -137h1l95 151q5 8 16 8h10q11 0 15 -8l96 -151h1l51 137q5 12 20 12h93q11 0 16.5 -7.5t1.5 -17.5l-133 -373q-3 -12 -18 -12h-4q-12 0 -16 8l-129 200h-1l-127 -200q-6 -8 -16 -8h-5q-15 0 -17 12z" />
    <glyph glyph-name="x" unicode="x" horiz-adv-x="469" 
d="M34 0q-13 0 -17.5 10t2.5 20l130 174l-126 166q-8 10 -3 20t18 10h123q12 0 16 -8l56 -82h3l57 82q4 8 16 8h123q13 0 18 -10t-3 -20l-126 -165l127 -175q7 -10 2 -20t-17 -10h-121q-8 0 -15 9l-61 86h-3q-10 -14 -32.5 -44.5t-31.5 -42.5q-6 -8 -16 -8h-119z" />
    <glyph glyph-name="y" unicode="y" horiz-adv-x="465" 
d="M156 41l-150 333q-5 10 0.5 18t16.5 8h114q11 0 17 -11l77 -186h2l79 186q4 11 17 11h113q11 0 16.5 -8t0.5 -18l-306 -662q-6 -12 -17 -12h-112q-11 0 -16.5 8.5t-0.5 18.5z" />
    <glyph glyph-name="z" unicode="z" horiz-adv-x="369" 
d="M28 19v10l117 240v2h-89q-7 0 -12.5 5.5t-5.5 13.5v91q0 8 5 13.5t13 5.5h271q11 0 16.5 -8.5t0.5 -18.5l-126 -243v-2h89q19 0 19 -19v-90q0 -8 -5.5 -13.5t-13.5 -5.5h-260q-7 0 -13 6t-6 13z" />
    <glyph glyph-name="braceleft" unicode="{" horiz-adv-x="393" 
d="M101 -19v104q0 50 -69 64q-6 1 -10.5 6.5t-4.5 11.5v58q0 14 13 18l20 7.5t31.5 21.5t19.5 35v111q0 69 16.5 121.5t41.5 83t60 50t66 27t66 9.5q18 2 20 -17q1 -16 2.5 -43t2.5 -42q0 -15 -14 -19q-110 -28 -110 -170v-91q0 -22 -9 -43.5t-21 -36t-24.5 -26t-21.5 -17.5
l-9 -5v-4q17 -7 34 -19.5t34 -40t17 -60.5v-94q0 -142 110 -170q14 -4 14 -19q-2 -60 -5 -85q-1 -8 -7 -13t-13 -4q-35 2 -66 9.5t-66 27t-60 50t-41.5 83t-16.5 121.5z" />
    <glyph glyph-name="bar" unicode="|" horiz-adv-x="174" 
d="M60 -282v1023q0 8 5.5 13.5t13.5 5.5h17q8 0 13 -5.5t5 -13.5v-1023q0 -7 -5.5 -12.5t-13.5 -5.5h-16q-8 0 -13.5 5.5t-5.5 12.5z" />
    <glyph glyph-name="braceright" unicode="}" horiz-adv-x="393" 
d="M141 -19v94q0 47 27.5 77t57.5 43v4l-9 6t-20.5 16.5t-26 26.5t-20.5 35.5t-9 43.5v91q0 142 -110 170q-14 4 -14 19q1 15 2.5 42t2.5 43q2 19 20 17q35 -2 66 -9.5t66 -27t60 -50t41.5 -83t16.5 -121.5v-111q0 -18 18 -34t36 -23l17 -7q13 -4 13 -18v-58
q0 -6 -4.5 -11.5t-10.5 -6.5q-69 -14 -69 -64v-104q0 -69 -16.5 -121.5t-41.5 -83t-60 -50t-66 -27t-66 -9.5q-7 -1 -13 4t-7 13q-3 25 -5 85q0 15 14 19q110 28 110 170z" />
    <glyph glyph-name="asciitilde" unicode="~" horiz-adv-x="526" 
d="M84 172l-61 63q-11 13 -2 24q3 4 8 11t22 24.5t34.5 31t43 24.5t50.5 11q19 0 38.5 -7t28.5 -12.5t31 -19.5q2 -1 11 -7t11.5 -7.5t11 -6t13 -6t12 -3t14.5 -1.5q30 0 64 49q13 17 29 1l58 -61q12 -14 2 -25q-3 -4 -8 -11t-21.5 -24.5t-33.5 -30.5t-42 -24t-49 -11
q-23 0 -45.5 8t-32 13.5t-34.5 22.5q-38 24 -60 24q-33 0 -64 -48q-15 -18 -29 -2z" />
    <glyph glyph-name="uni00A0" unicode="&#xa0;" horiz-adv-x="221" 
 />
    <glyph glyph-name="exclamdown" unicode="&#xa1;" horiz-adv-x="282" 
d="M142 220q-39 0 -67.5 28.5t-28.5 67.5q0 38 28.5 66t67.5 28q38 0 66 -28t28 -66q0 -39 -28 -67.5t-66 -28.5zM101 112q1 6 6.5 11t12.5 5h42q7 0 12.5 -5t6.5 -11l49 -279v-114q0 -7 -6 -13t-13 -6h-140q-7 0 -13 6t-6 13v112z" />
    <glyph glyph-name="cent" unicode="&#xa2;" horiz-adv-x="413" 
d="M154 4q-61 23 -99 76t-38 120q0 87 64.5 148.5t151.5 61.5q10 0 30 -2l11 41q5 18 23 13l17 -5q18 -4 13 -23l-11 -42q34 -17 67 -54q12 -16 -5 -28l-60 -57q-4 -4 -11 -3t-11 5t-14 12l-40 -147q33 1 62 30q12 12 22 4l60 -52q16 -15 7 -28q-55 -84 -161 -84q-9 0 -25 2
l-26 -98q-1 -7 -8 -11t-15 -2l-16 5q-18 4 -14 22zM189 135l39 145q-29 -4 -49.5 -26.5t-20.5 -53.5q0 -41 31 -65z" />
    <glyph glyph-name="sterling" unicode="&#xa3;" horiz-adv-x="479" 
d="M60 19v18q61 116 36 252h-43q-7 0 -12.5 5.5t-5.5 13.5v17q0 8 5.5 13.5t12.5 5.5h31q-29 112 -29 150q0 102 57.5 159t156.5 57q92 0 173 -71q15 -11 2 -26l-63 -76q-10 -13 -26 -3q-46 39 -83 39q-28 0 -46.5 -18.5t-18.5 -51.5q0 -20 17.5 -74t23.5 -85h92
q8 0 13.5 -5.5t5.5 -13.5v-18q0 -8 -5.5 -13t-13.5 -5h-83q7 -83 -9 -155h169q8 0 13 -5.5t5 -13.5v-96q0 -8 -5.5 -13.5t-12.5 -5.5h-338q-7 0 -13 6t-6 13z" />
    <glyph glyph-name="currency" unicode="&#xa4;" horiz-adv-x="447" 
d="M96 147l-49 50q-13 13 0 27l52 52q-18 46 -1 95l-52 53q-5 5 -5 13.5t5 13.5l50 49q13 13 26 0l51 -51q48 21 101 2l51 51q5 5 13.5 5t13.5 -6l49 -49q13 -14 1 -26l-51 -51q20 -51 -1 -103l51 -51q5 -5 4.5 -13t-5.5 -13l-49 -49q-5 -5 -13 -5.5t-13 4.5l-53 53
q-50 -18 -97 1l-52 -52q-13 -13 -27 0zM196 295q12 -12 29 -12t30 13q11 11 11 28.5t-11 29.5q-13 12 -30 12t-29 -12t-12 -29.5t12 -29.5z" />
    <glyph glyph-name="yen" unicode="&#xa5;" horiz-adv-x="642" 
d="M140 118q-7 0 -12.5 5.5t-5.5 13.5v17q0 8 5.5 13.5t12.5 5.5h101v65h-101q-7 0 -12.5 5.5t-5.5 13.5v17q0 8 5.5 13.5t12.5 5.5h101v44l-221 334q-6 10 -1 19.5t17 9.5h130q9 0 16 -9l139 -205l139 205q7 9 16 9h130q12 0 17 -9.5t-1 -19.5l-224 -333v-45h99
q8 0 13.5 -5.5t5.5 -13.5v-18q0 -8 -5.5 -13t-13.5 -5h-99v-65h99q8 0 13.5 -5.5t5.5 -13.5v-18q0 -8 -5.5 -13t-13.5 -5h-99v-99q0 -7 -6 -13t-13 -6h-119q-8 0 -13.5 5.5t-5.5 13.5v99h-101z" />
    <glyph glyph-name="brokenbar" unicode="&#xa6;" horiz-adv-x="294" 
d="M139 392q-8 0 -13.5 5.5t-5.5 12.5v331q0 8 5.5 13.5t13.5 5.5h17q8 0 13 -5.5t5 -13.5v-331q0 -7 -5.5 -12.5t-13.5 -5.5h-16zM120 49q0 8 5.5 13.5t13.5 5.5h17q8 0 13 -5.5t5 -13.5v-331q0 -7 -5.5 -12.5t-13.5 -5.5h-16q-8 0 -13.5 5.5t-5.5 12.5v331z" />
    <glyph glyph-name="section" unicode="&#xa7;" horiz-adv-x="504" 
d="M74 -77q14 25 38 11q1 0 12.5 -7t24 -13t29 -13.5t34 -12t31.5 -4.5q28 0 46.5 15t18.5 41q0 32 -25 53.5t-71 39.5q-182 73 -182 208q0 85 68 141q-68 61 -68 140q0 77 56.5 132.5t159.5 55.5q102 0 201 -71q8 -4 9 -14t-3 -15l-53 -78q-12 -19 -33 -4q-74 52 -128 52
q-26 0 -43 -13.5t-17 -32.5q0 -27 23.5 -48.5t78.5 -43.5q191 -75 191 -214q0 -79 -66 -139q66 -62 66 -143q0 -76 -61.5 -135t-160.5 -59q-134 0 -208 70q-15 15 -4 34zM172 254q0 -34 27.5 -54.5t87.5 -45.5q28 23 28 71q0 24 -16.5 42.5t-36 28.5t-62.5 29l-4 -4
q-24 -27 -24 -67z" />
    <glyph glyph-name="dieresis" unicode="&#xa8;" horiz-adv-x="414" 
d="M309 535q-29 0 -49.5 21t-20.5 50t20.5 49.5t49.5 20.5t50 -20.5t21 -49.5t-21 -50t-50 -21zM104 535q-29 0 -49.5 21t-20.5 50t20.5 49.5t49.5 20.5t50 -20.5t21 -49.5t-21 -50t-50 -21z" />
    <glyph glyph-name="copyright" unicode="&#xa9;" horiz-adv-x="789" 
d="M35 350q0 149 105.5 254.5t253.5 105.5t254 -106t106 -254t-106 -254t-254 -106t-253.5 105.5t-105.5 254.5zM122 350q0 -113 80 -193t192 -80q113 0 192.5 80t79.5 193t-79.5 192.5t-192.5 79.5t-192.5 -79.5t-79.5 -192.5zM216 348q0 78 55 133t132 55q67 0 115 -38
q16 -14 2 -29l-48 -48q-12 -12 -24 -3q-18 13 -45 13q-33 0 -55.5 -23.5t-22.5 -56.5q0 -34 22 -57t56 -23q26 0 44 13q12 9 24 -3l50 -50q13 -14 -1 -28q-49 -42 -117 -42q-77 0 -132 55t-55 132z" />
    <glyph glyph-name="ordfeminine" unicode="&#xaa;" horiz-adv-x="316" 
d="M122 396q-47 0 -76 28t-29 76q0 40 32 66.5t87 26.5q13 0 26 -1.5t19 -3.5l6 -2q2 43 -41 43q-31 0 -74 -9q-16 -3 -18 16l-7 42q-2 17 11 21q38 11 100 11q68 0 97 -30t29 -97v-166q0 -5 -4.5 -9.5t-9.5 -4.5h-33q-9 0 -14 10l-10 21q-40 -38 -91 -38zM149 467
q13 0 22.5 9.5t9.5 23.5q0 13 -9.5 22.5t-22.5 9.5q-14 0 -23 -9.5t-9 -22.5q0 -14 9 -23.5t23 -9.5z" />
    <glyph glyph-name="guillemotleft" unicode="&#xab;" horiz-adv-x="501" 
d="M239 194q-8 11 0 24l109 148q7 12 18 12h79q13 0 17 -9.5t-2 -21.5l-65 -139l62 -147q6 -12 1.5 -21t-16.5 -9h-84q-9 0 -15 8zM125 39l-104 155q-8 11 0 24l109 148q7 12 18 12h79q13 0 17 -9.5t-2 -21.5l-65 -139l62 -147q6 -12 1.5 -21t-16.5 -9h-84q-9 0 -15 8z" />
    <glyph glyph-name="logicalnot" unicode="&#xac;" horiz-adv-x="549" 
d="M51 293q-7 0 -13 5.5t-6 13.5v70q0 8 6 13.5t13 5.5h400q8 0 13.5 -6t5.5 -13v-236q0 -7 -5.5 -12.5t-13.5 -5.5h-70q-8 0 -13.5 5.5t-5.5 12.5v147h-311z" />
    <glyph glyph-name="uni00AD" unicode="&#xad;" horiz-adv-x="500" 
 />
    <glyph glyph-name="registered" unicode="&#xae;" horiz-adv-x="789" 
d="M35 350q0 149 105.5 254.5t253.5 105.5t254 -106t106 -254t-106 -254t-254 -106t-253.5 105.5t-105.5 254.5zM122 350q0 -113 80 -193t192 -80q113 0 192.5 80t79.5 193t-79.5 192.5t-192.5 79.5t-192.5 -79.5t-79.5 -192.5zM256 187v328q0 8 5.5 13.5t13.5 5.5h162
q49 0 86 -36t37 -94q0 -73 -67 -112l40 -97q4 -10 -1 -18.5t-16 -8.5h-68q-14 0 -18 14l-37 106h-39v-101q0 -8 -5.5 -13.5t-13.5 -5.5h-60q-8 0 -13.5 5.5t-5.5 13.5zM351 369h69q13 0 22.5 10t9.5 23q0 14 -9.5 23.5t-22.5 9.5h-69v-66z" />
    <glyph glyph-name="macron" unicode="&#xaf;" horiz-adv-x="414" 
d="M79 563q-8 0 -13.5 5t-5.5 13v41q0 19 19 19h256q19 0 19 -19v-41q0 -8 -5.5 -13t-13.5 -5h-256z" />
    <glyph glyph-name="degree" unicode="&#xb0;" horiz-adv-x="300" 
d="M150 440q-56 0 -95.5 39.5t-39.5 95.5t39.5 95.5t95.5 39.5t95.5 -39.5t39.5 -95.5t-39.5 -95.5t-95.5 -39.5zM150 540q14 0 24 10.5t10 24.5q0 13 -10 23.5t-24 10.5t-24.5 -10t-10.5 -24t10.5 -24.5t24.5 -10.5z" />
    <glyph glyph-name="plusminus" unicode="&#xb1;" horiz-adv-x="557" 
d="M244 239q-8 0 -13.5 5.5t-5.5 12.5v96h-146q-7 0 -13 5.5t-6 13.5v70q0 8 6 13.5t13 5.5h146v147q0 7 5.5 12.5t13.5 5.5h70q8 0 13.5 -5.5t5.5 -12.5v-147h147q7 0 12.5 -5.5t5.5 -13.5v-70q0 -8 -5.5 -13.5t-12.5 -5.5h-147v-96q0 -7 -5.5 -12.5t-13.5 -5.5h-70zM70 58
v70q0 8 6 13.5t13 5.5h374q7 0 12.5 -5.5t5.5 -13.5v-70q0 -8 -5.5 -13.5t-12.5 -5.5h-374q-7 0 -13 5.5t-6 13.5z" />
    <glyph glyph-name="twosuperior" unicode="&#xb2;" horiz-adv-x="267" 
d="M30 504q-10 0 -10 9v18l102 123q20 26 20 47q0 29 -31 29q-20 0 -35 -15q-12 -8 -18 4l-22 36q-8 14 -4 20q2 3 8 7q36 28 93 28q45 0 74.5 -25.5t29.5 -68.5q0 -41 -30 -84l-40 -53h58q10 0 10 -9v-57q0 -9 -10 -9h-195z" />
    <glyph glyph-name="threesuperior" unicode="&#xb3;" horiz-adv-x="256" 
d="M116 494q-51 0 -90 29q-12 9 -3 22l23 34q8 11 20 4q14 -11 36 -11q33 0 33 24q0 25 -33 25h-33q-13 2 -13 16v34q0 17 18 17h28q12 0 20 6.5t8 17.5q0 22 -29 22q-15 0 -30 -11q-10 -6 -17 4l-26 35q-9 11 1 21q31 27 87 27q50 0 80 -22.5t30 -60.5q0 -45 -51 -70
q60 -23 60 -77q0 -41 -34.5 -63.5t-84.5 -22.5z" />
    <glyph glyph-name="acute" unicode="&#xb4;" horiz-adv-x="302" 
d="M80 512q-17 -11 -27 9l-21 42q-5 10 6 19l170 104q4 4 13.5 3.5t12.5 -6.5l34 -59q10 -20 -6 -30z" />
    <glyph glyph-name="mu" unicode="&#xb5;" horiz-adv-x="519" 
d="M199 -7v-274q0 -7 -5.5 -13t-13.5 -6h-107q-7 0 -13 6t-6 13v662q0 8 5.5 13.5t13.5 5.5h107q8 0 13.5 -5.5t5.5 -13.5v-187q2 -29 19 -48t45 -19t44 20t16 47v187q0 19 21 19h102q8 0 13.5 -5.5t5.5 -13.5v-362q0 -7 -5.5 -13t-13.5 -6h-47q-13 0 -19 14l-15 37
q-21 -21 -31 -29t-39.5 -20t-64.5 -12q-16 0 -31 3z" />
    <glyph glyph-name="paragraph" unicode="&#xb6;" horiz-adv-x="704" 
d="M225 281q-85 0 -146.5 61t-61.5 149q0 86 56.5 147.5t137.5 61.5l462 -1q7 0 13 -5.5t6 -13.5v-60q0 -8 -5.5 -13.5t-13.5 -5.5h-61v-882q0 -8 -5.5 -13.5t-13.5 -5.5h-71q-8 0 -13.5 6t-5.5 13v882h-126v-882q0 -7 -5.5 -13t-13.5 -6h-70q-8 0 -13.5 6t-5.5 13v562h-44z
" />
    <glyph glyph-name="periodcentered" unicode="&#xb7;" horiz-adv-x="276" 
d="M136 149q-43 0 -74 31t-31 74q0 45 31 77t74 32q45 0 77 -32t32 -77q0 -43 -32 -74t-77 -31z" />
    <glyph glyph-name="cedilla" unicode="&#xb8;" horiz-adv-x="247" 
d="M51 0h73v-52q45 -6 68.5 -33t23.5 -69q0 -44 -31 -75t-75 -31q-46 0 -76 35q-13 14 4 29l23 20q11 11 21 -2q6 -9 24 -9q12 0 21 10t9 22q0 39 -68 42q-17 2 -17 18v95z" />
    <glyph glyph-name="onesuperior" unicode="&#xb9;" horiz-adv-x="204" 
d="M83 504q-10 0 -10 9v184h-54q-8 0 -8 11v38q0 6 8 11l76 43h63q9 0 9 -9v-278q0 -9 -9 -9h-75z" />
    <glyph glyph-name="ordmasculine" unicode="&#xba;" horiz-adv-x="302" 
d="M151 394q-63 0 -97 42t-34 116q0 75 34 116.5t97 41.5t97 -41.5t34 -116.5q0 -74 -34 -116t-97 -42zM151 474q31 0 31 78t-31 78t-31 -78t31 -78z" />
    <glyph glyph-name="guillemotright" unicode="&#xbb;" horiz-adv-x="501" 
d="M261 61l62 147l-65 139q-6 12 -2 21.5t17 9.5h79q11 0 18 -12l109 -148q8 -13 0 -24l-104 -155q-6 -8 -15 -8h-84q-12 0 -16.5 9t1.5 21zM58 31q-12 0 -16.5 9t1.5 21l62 147l-65 139q-6 12 -2 21.5t17 9.5h79q11 0 18 -12l109 -148q8 -13 0 -24l-104 -155q-6 -8 -15 -8
h-84z" />
    <glyph glyph-name="onequarter" unicode="&#xbc;" horiz-adv-x="628" 
d="M72 27l344 663q5 10 17 10h56q11 0 16.5 -8.5t0.5 -18.5l-345 -663q-5 -10 -17 -10h-55q-11 0 -16.5 8.5t-0.5 18.5zM91 404q-10 0 -10 9v184h-54q-8 0 -8 11v38q0 6 8 11l76 43h63q9 0 9 -9v-278q0 -9 -9 -9h-75zM315 64v62l159 167q2 3 7 3h51q9 0 9 -9v-163h39
q9 0 9 -8v-51q0 -9 -9 -9h-39v-47q0 -9 -9 -9h-68q-10 0 -10 9v47h-130q-9 0 -9 8zM404 122h51v65z" />
    <glyph glyph-name="onehalf" unicode="&#xbd;" horiz-adv-x="635" 
d="M72 27l344 663q5 10 17 10h56q11 0 16.5 -8.5t0.5 -18.5l-345 -663q-5 -10 -17 -10h-55q-11 0 -16.5 8.5t-0.5 18.5zM91 404q-10 0 -10 9v184h-54q-8 0 -8 11v38q0 6 8 11l76 43h63q9 0 9 -9v-278q0 -9 -9 -9h-75zM369 9v18l102 123q20 26 20 47q0 29 -31 29
q-20 0 -35 -15q-12 -8 -18 4l-22 36q-8 14 -4 20q2 3 8 7q36 28 93 28q45 0 74.5 -25.5t29.5 -68.5q0 -41 -30 -84l-40 -53h58q10 0 10 -9v-57q0 -9 -10 -9h-195q-10 0 -10 9z" />
    <glyph glyph-name="threequarters" unicode="&#xbe;" horiz-adv-x="655" 
d="M122 394q-51 0 -90 29q-12 9 -3 22l23 34q8 11 20 4q14 -11 36 -11q33 0 33 24q0 25 -33 25h-33q-13 2 -13 16v34q0 17 18 17h28q12 0 20 6.5t8 17.5q0 22 -29 22q-15 0 -30 -11q-10 -6 -17 4l-26 35q-9 11 1 21q31 27 87 27q50 0 80 -22.5t30 -60.5q0 -45 -51 -70
q60 -23 60 -77q0 -41 -34.5 -63.5t-84.5 -22.5zM99 27l344 663q5 10 17 10h56q11 0 16.5 -8.5t0.5 -18.5l-345 -663q-5 -10 -17 -10h-55q-11 0 -16.5 8.5t-0.5 18.5zM342 64v62l159 167q1 3 7 3h51q9 0 9 -9v-163h39q9 0 9 -8v-51q0 -9 -9 -9h-39v-47q0 -9 -9 -9h-68
q-10 0 -10 9v47h-130q-9 0 -9 8zM431 122h51v65z" />
    <glyph glyph-name="questiondown" unicode="&#xbf;" horiz-adv-x="446" 
d="M240 220q-39 0 -67.5 28.5t-28.5 67.5q0 38 28.5 66t67.5 28q38 0 66 -28t28 -66q0 -39 -28 -67.5t-66 -28.5zM17 -135q0 36 15.5 65t37.5 47.5t44 36t37.5 41.5t15.5 54q0 8 5.5 13.5t13.5 5.5h107q8 0 13.5 -5.5t5.5 -13.5v-42q0 -28 -21.5 -55t-47.5 -45t-47.5 -41
t-21.5 -44q0 -24 21.5 -41.5t53.5 -17.5q29 0 53 15.5t37.5 25t23.5 0.5l61 -60q14 -12 0 -26q-3 -4 -9 -9.5t-25.5 -21t-41.5 -27t-56.5 -21t-70.5 -9.5q-82 0 -143 50.5t-61 124.5z" />
    <glyph glyph-name="Agrave" unicode="&#xc0;" horiz-adv-x="662" 
d="M13 0q-11 0 -16.5 8t-0.5 18l313 673q5 11 17 11h10q12 0 17 -11l313 -673q5 -10 -0.5 -18t-16.5 -8h-111q-23 0 -35 25l-36 79h-272l-36 -80q-10 -24 -36 -24h-110zM255 240h152l-76 165h-1zM402 762l-182 82q-16 10 -6 30l34 59q3 6 12.5 6.5t13.5 -3.5l170 -104
q11 -9 6 -19l-21 -42q-10 -20 -27 -9z" />
    <glyph glyph-name="Aacute" unicode="&#xc1;" horiz-adv-x="662" 
d="M13 0q-11 0 -16.5 8t-0.5 18l313 673q5 11 17 11h10q12 0 17 -11l313 -673q5 -10 -0.5 -18t-16.5 -8h-111q-23 0 -35 25l-36 79h-272l-36 -80q-10 -24 -36 -24h-110zM255 240h152l-76 165h-1zM260 762q-17 -11 -27 9l-21 42q-5 10 6 19l170 104q4 4 13.5 3.5t12.5 -6.5
l34 -59q10 -20 -6 -30z" />
    <glyph glyph-name="Acircumflex" unicode="&#xc2;" horiz-adv-x="662" 
d="M13 0q-11 0 -16.5 8t-0.5 18l313 673q5 11 17 11h10q12 0 17 -11l313 -673q5 -10 -0.5 -18t-16.5 -8h-111q-23 0 -35 25l-36 79h-272l-36 -80q-10 -24 -36 -24h-110zM255 240h152l-76 165h-1zM232 762q-13 -7 -22 4l-33 47q-6 9 6 19l135 104q11 8 24 0l138 -104
q11 -9 6 -19l-34 -46q-9 -12 -21 -5l-99 58z" />
    <glyph glyph-name="Atilde" unicode="&#xc3;" horiz-adv-x="662" 
d="M13 0q-11 0 -16.5 8t-0.5 18l313 673q5 11 17 11h10q12 0 17 -11l313 -673q5 -10 -0.5 -18t-16.5 -8h-111q-23 0 -35 25l-36 79h-272l-36 -80q-10 -24 -36 -24h-110zM255 240h152l-76 165h-1zM214 785l-35 28q-12 9 -6 23q8 14 20 30.5t37.5 35t49.5 18.5
q25 0 57.5 -23.5t50.5 -23.5t38 31q10 16 25 2l34 -26q14 -10 1 -29q-46 -78 -100 -78q-28 0 -61.5 24t-48.5 24q-8 0 -15 -5.5t-15.5 -17t-9.5 -12.5q-9 -9 -22 -1z" />
    <glyph glyph-name="Adieresis" unicode="&#xc4;" horiz-adv-x="662" 
d="M13 0q-11 0 -16.5 8t-0.5 18l313 673q5 11 17 11h10q12 0 17 -11l313 -673q5 -10 -0.5 -18t-16.5 -8h-111q-23 0 -35 25l-36 79h-272l-36 -80q-10 -24 -36 -24h-110zM255 240h152l-76 165h-1zM463 768q-29 0 -49.5 21t-20.5 50t20.5 49.5t49.5 20.5t50 -20.5t21 -49.5
t-21 -50t-50 -21zM198 768q-29 0 -49.5 21t-20.5 50t20.5 49.5t49.5 20.5t50 -20.5t21 -49.5t-21 -50t-50 -21z" />
    <glyph glyph-name="Aring" unicode="&#xc5;" horiz-adv-x="662" 
d="M13 0q-11 0 -16.5 8t-0.5 18l313 673q5 11 17 11h10q12 0 17 -11l313 -673q5 -10 -0.5 -18t-16.5 -8h-111q-23 0 -35 25l-36 79h-272l-36 -80q-10 -24 -36 -24h-110zM255 240h152l-76 165h-1zM331 752q-48 0 -81.5 33.5t-33.5 81.5t33.5 81.5t81.5 33.5q47 0 81 -33.5
t34 -81.5t-34 -81.5t-81 -33.5zM331 823q17 0 30 13.5t13 30.5t-13 30t-30 13t-30.5 -13t-13.5 -30t13.5 -30.5t30.5 -13.5z" />
    <glyph glyph-name="AE" unicode="&#xc6;" horiz-adv-x="898" 
d="M-3 0q-11 0 -14.5 8t2.5 18l401 643q15 24 25 28q7 3 19 3h401q8 0 13.5 -5.5t5.5 -13.5v-109q0 -8 -5.5 -13.5t-13.5 -5.5h-277v-124h228q8 0 13.5 -5.5t5.5 -13.5v-109q0 -8 -5.5 -13.5t-13.5 -5.5h-228v-135h277q8 0 13.5 -5.5t5.5 -13.5v-109q0 -8 -5.5 -13.5
t-13.5 -5.5h-414q-8 0 -13.5 5.5t-5.5 13.5v85h-184l-53 -87q-10 -17 -29 -17h-135zM288 240h110v177z" />
    <glyph glyph-name="Ccedilla" unicode="&#xc7;" horiz-adv-x="675" 
d="M331 -4q-127 23 -211 122t-84 231q0 150 105.5 255.5t255.5 105.5q140 0 242 -93q15 -14 1 -28l-78 -81q-12 -12 -25 0q-57 51 -135 51q-84 0 -140 -60.5t-56 -145.5q0 -84 56.5 -143.5t140.5 -59.5q78 0 134 48q14 12 26 -1l78 -83q13 -13 -1 -27q-95 -94 -236 -97v-42
q45 -6 68.5 -33t23.5 -69q0 -44 -31 -75t-75 -31q-46 0 -76 35q-13 14 4 29l23 20q11 11 21 -2q6 -9 24 -9q12 0 21 10t9 22q0 39 -68 42q-17 2 -17 18v91z" />
    <glyph glyph-name="Egrave" unicode="&#xc8;" horiz-adv-x="586" 
d="M86 19v662q0 8 5.5 13.5t13.5 5.5h414q8 0 13.5 -5.5t5.5 -13.5v-109q0 -8 -5.5 -13.5t-13.5 -5.5h-277v-124h228q8 0 13.5 -5.5t5.5 -13.5v-109q0 -8 -5.5 -13.5t-13.5 -5.5h-228v-135h277q8 0 13.5 -5.5t5.5 -13.5v-109q0 -8 -5.5 -13.5t-13.5 -5.5h-414
q-8 0 -13.5 5.5t-5.5 13.5zM388 762l-182 82q-16 10 -6 30l34 59q3 6 12.5 6.5t13.5 -3.5l170 -104q11 -9 6 -19l-21 -42q-10 -20 -27 -9z" />
    <glyph glyph-name="Eacute" unicode="&#xc9;" horiz-adv-x="586" 
d="M86 19v662q0 8 5.5 13.5t13.5 5.5h414q8 0 13.5 -5.5t5.5 -13.5v-109q0 -8 -5.5 -13.5t-13.5 -5.5h-277v-124h228q8 0 13.5 -5.5t5.5 -13.5v-109q0 -8 -5.5 -13.5t-13.5 -5.5h-228v-135h277q8 0 13.5 -5.5t5.5 -13.5v-109q0 -8 -5.5 -13.5t-13.5 -5.5h-414
q-8 0 -13.5 5.5t-5.5 13.5zM246 762q-17 -11 -27 9l-21 42q-5 10 6 19l170 104q4 4 13.5 3.5t12.5 -6.5l34 -59q10 -20 -6 -30z" />
    <glyph glyph-name="Ecircumflex" unicode="&#xca;" horiz-adv-x="586" 
d="M86 19v662q0 8 5.5 13.5t13.5 5.5h414q8 0 13.5 -5.5t5.5 -13.5v-109q0 -8 -5.5 -13.5t-13.5 -5.5h-277v-124h228q8 0 13.5 -5.5t5.5 -13.5v-109q0 -8 -5.5 -13.5t-13.5 -5.5h-228v-135h277q8 0 13.5 -5.5t5.5 -13.5v-109q0 -8 -5.5 -13.5t-13.5 -5.5h-414
q-8 0 -13.5 5.5t-5.5 13.5zM218 762q-13 -7 -22 4l-33 47q-6 9 6 19l135 104q11 8 24 0l138 -104q11 -9 6 -19l-34 -46q-9 -12 -21 -5l-99 58z" />
    <glyph glyph-name="Edieresis" unicode="&#xcb;" horiz-adv-x="586" 
d="M86 19v662q0 8 5.5 13.5t13.5 5.5h414q8 0 13.5 -5.5t5.5 -13.5v-109q0 -8 -5.5 -13.5t-13.5 -5.5h-277v-124h228q8 0 13.5 -5.5t5.5 -13.5v-109q0 -8 -5.5 -13.5t-13.5 -5.5h-228v-135h277q8 0 13.5 -5.5t5.5 -13.5v-109q0 -8 -5.5 -13.5t-13.5 -5.5h-414
q-8 0 -13.5 5.5t-5.5 13.5zM446 768q-29 0 -49.5 21t-20.5 50t20.5 49.5t49.5 20.5t50 -20.5t21 -49.5t-21 -50t-50 -21zM181 768q-29 0 -49.5 21t-20.5 50t20.5 49.5t49.5 20.5t50 -20.5t21 -49.5t-21 -50t-50 -21z" />
    <glyph glyph-name="Igrave" unicode="&#xcc;" horiz-adv-x="330" 
d="M86 19v662q0 7 6 13t13 6h120q7 0 13 -6t6 -13v-662q0 -7 -6 -13t-13 -6h-120q-7 0 -13 6t-6 13zM236 762l-182 82q-16 10 -6 30l34 59q3 6 12.5 6.5t13.5 -3.5l170 -104q11 -9 6 -19l-21 -42q-10 -20 -27 -9z" />
    <glyph glyph-name="Iacute" unicode="&#xcd;" horiz-adv-x="330" 
d="M86 19v662q0 7 6 13t13 6h120q7 0 13 -6t6 -13v-662q0 -7 -6 -13t-13 -6h-120q-7 0 -13 6t-6 13zM94 762q-17 -11 -27 9l-21 42q-5 10 6 19l170 104q4 4 13.5 3.5t12.5 -6.5l34 -59q10 -20 -6 -30z" />
    <glyph glyph-name="Icircumflex" unicode="&#xce;" horiz-adv-x="330" 
d="M86 19v662q0 7 6 13t13 6h120q7 0 13 -6t6 -13v-662q0 -7 -6 -13t-13 -6h-120q-7 0 -13 6t-6 13zM66 762q-13 -7 -22 4l-33 47q-6 9 6 19l135 104q11 8 24 0l138 -104q11 -9 6 -19l-34 -46q-9 -12 -21 -5l-99 58z" />
    <glyph glyph-name="Idieresis" unicode="&#xcf;" horiz-adv-x="330" 
d="M86 19v662q0 7 6 13t13 6h120q7 0 13 -6t6 -13v-662q0 -7 -6 -13t-13 -6h-120q-7 0 -13 6t-6 13zM297 768q-29 0 -49.5 21t-20.5 50t20.5 49.5t49.5 20.5t50 -20.5t21 -49.5t-21 -50t-50 -21zM32 768q-29 0 -49.5 21t-20.5 50t20.5 49.5t49.5 20.5t50 -20.5t21 -49.5
t-21 -50t-50 -21z" />
    <glyph glyph-name="Eth" unicode="&#xd0;" horiz-adv-x="740" 
d="M91 19v300h-29q-7 0 -12.5 5.5t-5.5 13.5v17q0 8 5.5 13.5t12.5 5.5h29v307q0 8 5.5 13.5t12.5 5.5h244q145 0 248 -102.5t103 -246.5q0 -145 -103 -248t-248 -103h-244q-7 0 -12.5 5.5t-5.5 13.5zM247 148h96q84 0 139.5 58.5t55.5 144.5q0 85 -55.5 143.5t-139.5 58.5
h-96v-179h142q8 0 13.5 -5.5t5.5 -13.5v-18q0 -8 -5.5 -13t-13.5 -5h-142v-171z" />
    <glyph glyph-name="Ntilde" unicode="&#xd1;" horiz-adv-x="773" 
d="M86 19l-1 673q0 7 5.5 12.5t13.5 5.5h25l399 -384h1v355q0 8 5.5 13.5t13.5 5.5h120q8 0 13.5 -6t5.5 -13v-673q0 -7 -5.5 -12.5t-13.5 -5.5h-16q-8 0 -13 5l-395 397h-1v-373q0 -8 -5.5 -13.5t-13.5 -5.5h-119q-7 0 -13 6t-6 13zM271 785l-35 28q-12 9 -6 23
q8 14 20 30.5t37.5 35t49.5 18.5q25 0 57.5 -23.5t50.5 -23.5t38 31q10 16 25 2l34 -26q14 -10 1 -29q-46 -78 -100 -78q-28 0 -61.5 24t-48.5 24q-8 0 -15 -5.5t-15.5 -17t-9.5 -12.5q-9 -9 -22 -1z" />
    <glyph glyph-name="Ograve" unicode="&#xd2;" horiz-adv-x="789" 
d="M35 349q0 150 104.5 255.5t254.5 105.5t255 -105.5t105 -255.5t-105 -254.5t-255 -104.5t-254.5 104.5t-104.5 254.5zM195 349q0 -82 58.5 -140.5t140.5 -58.5t141 58.5t59 140.5q0 83 -59 142t-141 59t-140.5 -59t-58.5 -142zM465 762l-182 82q-17 10 -6 30l34 59
q3 6 12.5 6.5t13.5 -3.5l170 -104q11 -9 6 -19l-21 -42q-10 -20 -27 -9z" />
    <glyph glyph-name="Oacute" unicode="&#xd3;" horiz-adv-x="789" 
d="M35 349q0 150 104.5 255.5t254.5 105.5t255 -105.5t105 -255.5t-105 -254.5t-255 -104.5t-254.5 104.5t-104.5 254.5zM195 349q0 -82 58.5 -140.5t140.5 -58.5t141 58.5t59 140.5q0 83 -59 142t-141 59t-140.5 -59t-58.5 -142zM323 762q-17 -11 -27 9l-21 42q-5 10 6 19
l170 104q4 4 13.5 3.5t12.5 -6.5l34 -59q11 -20 -6 -30z" />
    <glyph glyph-name="Ocircumflex" unicode="&#xd4;" horiz-adv-x="789" 
d="M35 349q0 150 104.5 255.5t254.5 105.5t255 -105.5t105 -255.5t-105 -254.5t-255 -104.5t-254.5 104.5t-104.5 254.5zM195 349q0 -82 58.5 -140.5t140.5 -58.5t141 58.5t59 140.5q0 83 -59 142t-141 59t-140.5 -59t-58.5 -142zM295 762q-13 -7 -22 4l-33 47q-6 9 6 19
l135 104q11 8 24 0l138 -104q11 -9 6 -19l-34 -46q-9 -12 -21 -5l-99 58z" />
    <glyph glyph-name="Otilde" unicode="&#xd5;" horiz-adv-x="789" 
d="M35 349q0 150 104.5 255.5t254.5 105.5t255 -105.5t105 -255.5t-105 -254.5t-255 -104.5t-254.5 104.5t-104.5 254.5zM195 349q0 -82 58.5 -140.5t140.5 -58.5t141 58.5t59 140.5q0 83 -59 142t-141 59t-140.5 -59t-58.5 -142zM277 785l-35 28q-12 9 -6 23q8 14 20 30.5
t37.5 35t49.5 18.5q25 0 57.5 -23.5t50.5 -23.5t38 31q10 16 25 2l34 -26q14 -10 1 -29q-46 -78 -100 -78q-28 0 -61.5 24t-48.5 24q-8 0 -15 -5.5t-15.5 -17t-9.5 -12.5q-9 -9 -22 -1z" />
    <glyph glyph-name="Odieresis" unicode="&#xd6;" horiz-adv-x="789" 
d="M35 349q0 150 104.5 255.5t254.5 105.5t255 -105.5t105 -255.5t-105 -254.5t-255 -104.5t-254.5 104.5t-104.5 254.5zM195 349q0 -82 58.5 -140.5t140.5 -58.5t141 58.5t59 140.5q0 83 -59 142t-141 59t-140.5 -59t-58.5 -142zM526 768q-29 0 -49.5 21t-20.5 50
t20.5 49.5t49.5 20.5t50 -20.5t21 -49.5t-21 -50t-50 -21zM261 768q-29 0 -49.5 21t-20.5 50t20.5 49.5t49.5 20.5t50 -20.5t21 -49.5t-21 -50t-50 -21z" />
    <glyph glyph-name="multiply" unicode="&#xd7;" horiz-adv-x="459" 
d="M100 168l-50 50q-13 13 0 26l103 103l-103 104q-13 13 0 26l49 50q13 13 27 0l103 -103l104 104q13 12 26 -1l50 -50q13 -13 1 -26l-104 -104l104 -104q12 -13 -1 -26l-50 -49q-5 -5 -13 -5.5t-13 4.5l-104 104l-103 -103q-13 -13 -26 0z" />
    <glyph glyph-name="Oslash" unicode="&#xd8;" horiz-adv-x="795" 
d="M57 23q-13 13 -1 26l67 66q-85 101 -85 234q0 150 104.5 255.5t254.5 105.5q133 0 235 -87l70 69q12 14 26 0l12 -12q14 -12 0 -26l-70 -70q87 -102 87 -235q0 -150 -105 -254.5t-255 -104.5q-136 0 -235 86l-67 -66q-13 -12 -26 1zM238 230l280 279q-56 41 -121 41
q-82 0 -140.5 -59t-58.5 -142q0 -66 40 -119zM277 191q52 -41 120 -41q82 0 141 58.5t59 140.5q0 69 -41 121z" />
    <glyph glyph-name="Ugrave" unicode="&#xd9;" horiz-adv-x="722" 
d="M76 268v413q0 7 6 13t13 6h123q8 0 13.5 -5.5t5.5 -13.5v-405q0 -53 35 -89.5t88 -36.5q54 0 89.5 36.5t35.5 89.5v405q0 8 5.5 13.5t13.5 5.5h123q7 0 13 -6t6 -13v-413q0 -114 -84 -196t-202 -82q-117 0 -200.5 82t-83.5 196zM432 762l-182 82q-16 10 -6 30l34 59
q3 6 12.5 6.5t13.5 -3.5l170 -104q11 -9 6 -19l-21 -42q-10 -20 -27 -9z" />
    <glyph glyph-name="Uacute" unicode="&#xda;" horiz-adv-x="722" 
d="M76 268v413q0 7 6 13t13 6h123q8 0 13.5 -5.5t5.5 -13.5v-405q0 -53 35 -89.5t88 -36.5q54 0 89.5 36.5t35.5 89.5v405q0 8 5.5 13.5t13.5 5.5h123q7 0 13 -6t6 -13v-413q0 -114 -84 -196t-202 -82q-117 0 -200.5 82t-83.5 196zM290 762q-17 -11 -27 9l-21 42q-5 10 6 19
l170 104q4 4 13.5 3.5t12.5 -6.5l34 -59q10 -20 -6 -30z" />
    <glyph glyph-name="Ucircumflex" unicode="&#xdb;" horiz-adv-x="722" 
d="M76 268v413q0 7 6 13t13 6h123q8 0 13.5 -5.5t5.5 -13.5v-405q0 -53 35 -89.5t88 -36.5q54 0 89.5 36.5t35.5 89.5v405q0 8 5.5 13.5t13.5 5.5h123q7 0 13 -6t6 -13v-413q0 -114 -84 -196t-202 -82q-117 0 -200.5 82t-83.5 196zM261 762q-13 -7 -22 4l-33 47q-6 9 6 19
l135 104q11 8 24 0l138 -104q11 -9 6 -19l-34 -46q-9 -12 -21 -5l-99 58z" />
    <glyph glyph-name="Udieresis" unicode="&#xdc;" horiz-adv-x="722" 
d="M76 268v413q0 7 6 13t13 6h123q8 0 13.5 -5.5t5.5 -13.5v-405q0 -53 35 -89.5t88 -36.5q54 0 89.5 36.5t35.5 89.5v405q0 8 5.5 13.5t13.5 5.5h123q7 0 13 -6t6 -13v-413q0 -114 -84 -196t-202 -82q-117 0 -200.5 82t-83.5 196zM492 768q-29 0 -49.5 21t-20.5 50
t20.5 49.5t49.5 20.5t50 -20.5t21 -49.5t-21 -50t-50 -21zM227 768q-29 0 -49.5 21t-20.5 50t20.5 49.5t49.5 20.5t50 -20.5t21 -49.5t-21 -50t-50 -21z" />
    <glyph glyph-name="Yacute" unicode="&#xdd;" horiz-adv-x="590" 
d="M215 19v318l-221 334q-6 10 -1 19.5t17 9.5h130q9 0 16 -9l139 -205l139 205q7 9 16 9h130q12 0 17 -9.5t-1 -19.5l-224 -333v-319q0 -7 -6 -13t-13 -6h-119q-8 0 -13.5 5.5t-5.5 13.5zM224 762q-17 -11 -27 9l-21 42q-5 10 6 19l170 104q4 4 13.5 3.5t12.5 -6.5l34 -59
q10 -20 -6 -30z" />
    <glyph glyph-name="Thorn" unicode="&#xde;" horiz-adv-x="586" 
d="M86 19v662q0 8 5.5 13.5t13.5 5.5h118q7 0 13 -6t6 -13v-108h104q92 0 158 -65t66 -156q0 -93 -65.5 -159t-157.5 -66h-105v-108q0 -7 -6 -13t-13 -6h-118q-8 0 -13.5 5.5t-5.5 13.5zM242 273h95q33 0 56 23t23 56q0 31 -23 52.5t-56 21.5h-95v-153z" />
    <glyph glyph-name="germandbls" unicode="&#xdf;" horiz-adv-x="540" 
d="M54 19v394q0 146 68 221.5t182 75.5q67 0 117.5 -41.5t50.5 -118.5q0 -48 -37 -113t-37 -88q0 -18 40 -54q81 -72 81 -148q0 -153 -194 -157q-17 0 -20 15l-19 84q-2 8 3 15t13 8q56 9 56 52q0 28 -45 58q-66 50 -66 102q0 36 37 109t37 111q0 14 -8.5 24.5t-24.5 10.5
q-11 0 -24 -7t-27 -23.5t-23.5 -52.5t-9.5 -86v-391q0 -7 -6 -13t-13 -6h-112q-7 0 -13 6t-6 13z" />
    <glyph glyph-name="agrave" unicode="&#xe0;" horiz-adv-x="429" 
d="M27 122q0 59 40 96.5t107 37.5q20 0 39 -4t29 -8l9 -4q0 32 -10 45.5t-44 13.5q-51 0 -100 -15q-20 -7 -24 21l-9 63q-4 21 15 27q10 3 54 9t79 6q92 0 130.5 -40t38.5 -130v-221q0 -7 -5.5 -13t-13.5 -6h-44q-12 0 -18 13l-14 27q-55 -50 -121 -50q-60 0 -99 36.5
t-39 95.5zM157 132q0 -18 12.5 -31t30.5 -13t31 13t13 31q-1 17 -13.5 29.5t-30.5 12.5t-30.5 -12.5t-12.5 -29.5zM300 512l-182 82q-16 10 -6 30l34 59q3 6 12.5 6.5t13.5 -3.5l170 -104q11 -9 6 -19l-21 -42q-10 -20 -27 -9z" />
    <glyph glyph-name="aacute" unicode="&#xe1;" horiz-adv-x="429" 
d="M27 122q0 59 40 96.5t107 37.5q20 0 39 -4t29 -8l9 -4q0 32 -10 45.5t-44 13.5q-51 0 -100 -15q-20 -7 -24 21l-9 63q-4 21 15 27q10 3 54 9t79 6q92 0 130.5 -40t38.5 -130v-221q0 -7 -5.5 -13t-13.5 -6h-44q-12 0 -18 13l-14 27q-55 -50 -121 -50q-60 0 -99 36.5
t-39 95.5zM157 132q0 -18 12.5 -31t30.5 -13t31 13t13 31q-1 17 -13.5 29.5t-30.5 12.5t-30.5 -12.5t-12.5 -29.5zM148 512q-17 -11 -27 9l-21 42q-5 10 6 19l170 104q4 4 13.5 3.5t12.5 -6.5l34 -59q10 -20 -6 -30z" />
    <glyph glyph-name="acircumflex" unicode="&#xe2;" horiz-adv-x="429" 
d="M27 122q0 59 40 96.5t107 37.5q20 0 39 -4t29 -8l9 -4q0 32 -10 45.5t-44 13.5q-51 0 -100 -15q-20 -7 -24 21l-9 63q-4 21 15 27q10 3 54 9t79 6q92 0 130.5 -40t38.5 -130v-221q0 -7 -5.5 -13t-13.5 -6h-44q-12 0 -18 13l-14 27q-55 -50 -121 -50q-60 0 -99 36.5
t-39 95.5zM157 132q0 -18 12.5 -31t30.5 -13t31 13t13 31q-1 17 -13.5 29.5t-30.5 12.5t-30.5 -12.5t-12.5 -29.5zM120 512q-13 -7 -22 4l-33 47q-6 9 6 19l135 104q11 8 24 0l138 -104q11 -9 6 -19l-34 -46q-9 -12 -21 -5l-99 58z" />
    <glyph glyph-name="atilde" unicode="&#xe3;" horiz-adv-x="429" 
d="M27 122q0 59 40 96.5t107 37.5q20 0 39 -4t29 -8l9 -4q0 32 -10 45.5t-44 13.5q-51 0 -100 -15q-20 -7 -24 21l-9 63q-4 21 15 27q10 3 54 9t79 6q92 0 130.5 -40t38.5 -130v-221q0 -7 -5.5 -13t-13.5 -6h-44q-12 0 -18 13l-14 27q-55 -50 -121 -50q-60 0 -99 36.5
t-39 95.5zM157 132q0 -18 12.5 -31t30.5 -13t31 13t13 31q-1 17 -13.5 29.5t-30.5 12.5t-30.5 -12.5t-12.5 -29.5zM95 555l-35 28q-12 9 -6 23q8 14 20 30.5t37.5 35t49.5 18.5q25 0 57.5 -23.5t50.5 -23.5t38 31q10 16 25 2l34 -26q14 -10 1 -29q-46 -78 -100 -78
q-28 0 -61.5 24t-48.5 24q-8 0 -15 -5.5t-15.5 -17t-9.5 -12.5q-9 -9 -22 -1z" />
    <glyph glyph-name="adieresis" unicode="&#xe4;" horiz-adv-x="429" 
d="M27 122q0 59 40 96.5t107 37.5q20 0 39 -4t29 -8l9 -4q0 32 -10 45.5t-44 13.5q-51 0 -100 -15q-20 -7 -24 21l-9 63q-4 21 15 27q10 3 54 9t79 6q92 0 130.5 -40t38.5 -130v-221q0 -7 -5.5 -13t-13.5 -6h-44q-12 0 -18 13l-14 27q-55 -50 -121 -50q-60 0 -99 36.5
t-39 95.5zM157 132q0 -18 12.5 -31t30.5 -13t31 13t13 31q-1 17 -13.5 29.5t-30.5 12.5t-30.5 -12.5t-12.5 -29.5zM321 535q-29 0 -49.5 21t-20.5 50t20.5 49.5t49.5 20.5t50 -20.5t21 -49.5t-21 -50t-50 -21zM116 535q-29 0 -49.5 21t-20.5 50t20.5 49.5t49.5 20.5
t50 -20.5t21 -49.5t-21 -50t-50 -21z" />
    <glyph glyph-name="aring" unicode="&#xe5;" horiz-adv-x="429" 
d="M27 122q0 59 40 96.5t107 37.5q20 0 39 -4t29 -8l9 -4q0 32 -10 45.5t-44 13.5q-51 0 -100 -15q-20 -7 -24 21l-9 63q-4 21 15 27q10 3 54 9t79 6q92 0 130.5 -40t38.5 -130v-221q0 -7 -5.5 -13t-13.5 -6h-44q-12 0 -18 13l-14 27q-55 -50 -121 -50q-60 0 -99 36.5
t-39 95.5zM157 132q0 -18 12.5 -31t30.5 -13t31 13t13 31q-1 17 -13.5 29.5t-30.5 12.5t-30.5 -12.5t-12.5 -29.5zM219 480q-48 0 -81.5 33.5t-33.5 81.5t33.5 81.5t81.5 33.5q47 0 81 -33.5t34 -81.5t-34 -81.5t-81 -33.5zM219 551q17 0 30 13.5t13 30.5t-13 30t-30 13
t-30.5 -13t-13.5 -30t13.5 -30.5t30.5 -13.5z" />
    <glyph glyph-name="ae" unicode="&#xe6;" horiz-adv-x="661" 
d="M26 123q0 57 40 95t109 38q18 0 37 -4t29 -8l10 -4q1 34 -11 48t-43 14q-38 0 -100 -12q-19 -2 -23 16l-11 69q-1 7 4 13t12 7q79 15 133 15q88 0 126 -35q52 35 115 35q78 0 134 -53.5t56 -134.5q0 -44 -21 -44h-240q3 -25 22.5 -46t54.5 -21q36 0 68 24q16 11 25 0
l52 -59q14 -14 1 -27q-59 -59 -150 -59q-93 0 -150 65q-9 -12 -24 -24.5t-47.5 -26.5t-68.5 -14q-63 0 -101 37t-38 96zM395 256h107q-1 19 -17 33t-36 14t-35.5 -13.5t-18.5 -33.5zM157 132q0 -18 12.5 -31t30.5 -13t31 13t13 31q-1 17 -13.5 29.5t-30.5 12.5t-30.5 -12.5
t-12.5 -29.5z" />
    <glyph glyph-name="ccedilla" unicode="&#xe7;" horiz-adv-x="421" 
d="M170 1q-64 22 -105 75.5t-41 123.5q0 87 64.5 148.5t151.5 61.5q91 0 150 -72q11 -14 -5 -28l-60 -57q-4 -4 -11 -3t-11 5q-24 26 -58 26q-33 0 -56.5 -24t-23.5 -57q0 -34 22.5 -57.5t55.5 -23.5q37 0 68 31q12 12 22 4l60 -52q16 -15 7 -28q-56 -83 -157 -84v-43
q45 -6 68.5 -33t23.5 -69q0 -44 -31 -75t-75 -31q-46 0 -76 35q-13 14 4 29l23 20q11 11 21 -2q6 -9 24 -9q12 0 21 10t9 22q0 39 -68 42q-17 2 -17 18v97z" />
    <glyph glyph-name="egrave" unicode="&#xe8;" horiz-adv-x="439" 
d="M24 200q0 86 60 148t147 62q78 0 134 -53.5t56 -134.5q0 -13 -2 -27q-2 -17 -19 -17h-240q3 -25 22.5 -45.5t54.5 -20.5q38 0 70 24q15 12 25 0l50 -60q12 -16 -1 -29q-57 -57 -148 -57q-88 0 -148.5 61.5t-60.5 148.5zM173 256h107q-1 19 -17 33t-36 14t-35.5 -13.5
t-18.5 -33.5zM314 512l-182 82q-16 10 -6 30l34 59q3 6 12.5 6.5t13.5 -3.5l170 -104q11 -9 6 -19l-21 -42q-10 -20 -27 -9z" />
    <glyph glyph-name="eacute" unicode="&#xe9;" horiz-adv-x="439" 
d="M24 200q0 86 60 148t147 62q78 0 134 -53.5t56 -134.5q0 -13 -2 -27q-2 -17 -19 -17h-240q3 -25 22.5 -45.5t54.5 -20.5q38 0 70 24q15 12 25 0l50 -60q12 -16 -1 -29q-57 -57 -148 -57q-88 0 -148.5 61.5t-60.5 148.5zM173 256h107q-1 19 -17 33t-36 14t-35.5 -13.5
t-18.5 -33.5zM162 512q-17 -11 -27 9l-21 42q-5 10 6 19l170 104q4 4 13.5 3.5t12.5 -6.5l34 -59q10 -20 -6 -30z" />
    <glyph glyph-name="ecircumflex" unicode="&#xea;" horiz-adv-x="439" 
d="M24 200q0 86 60 148t147 62q78 0 134 -53.5t56 -134.5q0 -13 -2 -27q-2 -17 -19 -17h-240q3 -25 22.5 -45.5t54.5 -20.5q38 0 70 24q15 12 25 0l50 -60q12 -16 -1 -29q-57 -57 -148 -57q-88 0 -148.5 61.5t-60.5 148.5zM173 256h107q-1 19 -17 33t-36 14t-35.5 -13.5
t-18.5 -33.5zM134 512q-13 -7 -22 4l-33 47q-6 9 6 19l135 104q11 8 24 0l138 -104q11 -9 6 -19l-34 -46q-9 -12 -21 -5l-99 58z" />
    <glyph glyph-name="edieresis" unicode="&#xeb;" horiz-adv-x="439" 
d="M24 200q0 86 60 148t147 62q78 0 134 -53.5t56 -134.5q0 -13 -2 -27q-2 -17 -19 -17h-240q3 -25 22.5 -45.5t54.5 -20.5q38 0 70 24q15 12 25 0l50 -60q12 -16 -1 -29q-57 -57 -148 -57q-88 0 -148.5 61.5t-60.5 148.5zM173 256h107q-1 19 -17 33t-36 14t-35.5 -13.5
t-18.5 -33.5zM335 535q-29 0 -49.5 21t-20.5 50t20.5 49.5t49.5 20.5t50 -20.5t21 -49.5t-21 -50t-50 -21zM130 535q-29 0 -49.5 21t-20.5 50t20.5 49.5t49.5 20.5t50 -20.5t21 -49.5t-21 -50t-50 -21z" />
    <glyph glyph-name="igrave" unicode="&#xec;" horiz-adv-x="256" 
d="M54 19v361q0 8 5.5 13.5t13.5 5.5h110q8 0 13.5 -5.5t5.5 -13.5v-361q0 -7 -6 -13t-13 -6h-110q-7 0 -13 6t-6 13zM199 512l-182 82q-17 10 -6 30l34 59q3 6 12.5 6.5t13.5 -3.5l170 -104q11 -9 6 -19l-21 -42q-10 -20 -27 -9z" />
    <glyph glyph-name="iacute" unicode="&#xed;" horiz-adv-x="256" 
d="M54 19v361q0 8 5.5 13.5t13.5 5.5h110q8 0 13.5 -5.5t5.5 -13.5v-361q0 -7 -6 -13t-13 -6h-110q-7 0 -13 6t-6 13zM57 512q-17 -11 -27 9l-21 42q-5 10 6 19l170 104q4 4 13.5 3.5t12.5 -6.5l34 -59q11 -20 -6 -30z" />
    <glyph glyph-name="icircumflex" unicode="&#xee;" horiz-adv-x="256" 
d="M54 19v361q0 8 5.5 13.5t13.5 5.5h110q8 0 13.5 -5.5t5.5 -13.5v-361q0 -7 -6 -13t-13 -6h-110q-7 0 -13 6t-6 13zM29 512q-13 -7 -22 4l-33 47q-6 9 6 19l135 104q11 8 24 0l138 -104q11 -9 6 -19l-34 -46q-9 -12 -21 -5l-99 58z" />
    <glyph glyph-name="idieresis" unicode="&#xef;" horiz-adv-x="256" 
d="M54 19v361q0 8 5.5 13.5t13.5 5.5h110q8 0 13.5 -5.5t5.5 -13.5v-361q0 -7 -6 -13t-13 -6h-110q-7 0 -13 6t-6 13zM230 535q-29 0 -49.5 21t-20.5 50t20.5 49.5t49.5 20.5t50 -20.5t21 -49.5t-21 -50t-50 -21zM25 535q-29 0 -49.5 21t-20.5 50t20.5 49.5t49.5 20.5
t50 -20.5t21 -49.5t-21 -50t-50 -21z" />
    <glyph glyph-name="eth" unicode="&#xf0;" horiz-adv-x="523" 
d="M24 219q0 102 60.5 159.5t138.5 57.5q48 0 95 -20q-14 67 -89 114l-77 -44q-16 -10 -25 6l-9 15q-10 17 6 26l47 27q-25 15 -61 24q-19 6 -12 25l29 77q9 23 38 13q55 -18 128 -69l71 42q16 9 25 -8l9 -14q10 -17 -6 -26l-52 -30q154 -133 154 -332q0 -120 -64 -196
t-177 -76q-94 0 -161.5 67.5t-67.5 161.5zM159 224q0 -39 28 -67.5t68 -28.5t68 28.5t28 67.5q0 40 -28 68.5t-68 28.5t-68 -28.5t-28 -68.5z" />
    <glyph glyph-name="ntilde" unicode="&#xf1;" horiz-adv-x="528" 
d="M54 19v362q0 8 5.5 13.5t13.5 5.5h47q13 0 18 -12l16 -40q57 62 141 62q89 0 139.5 -59.5t50.5 -149.5v-182q0 -7 -5.5 -13t-13.5 -6h-107q-8 0 -13.5 5.5t-5.5 13.5v187q0 32 -18 53.5t-50 21.5q-31 0 -53.5 -20t-22.5 -50v-192q0 -19 -18 -19h-105q-7 0 -13 6t-6 13z
M152 555l-35 28q-12 9 -6 23q8 14 20 30.5t37.5 35t49.5 18.5q25 0 57.5 -23.5t50.5 -23.5t38 31q10 16 25 2l34 -26q14 -10 1 -29q-46 -78 -100 -78q-28 0 -61.5 24t-48.5 24q-8 0 -15 -5.5t-15.5 -17t-9.5 -12.5q-9 -9 -22 -1z" />
    <glyph glyph-name="ograve" unicode="&#xf2;" horiz-adv-x="462" 
d="M23 201q0 85 61.5 147t146.5 62t146.5 -62t61.5 -147q0 -86 -61.5 -148.5t-146.5 -62.5t-146.5 62.5t-61.5 148.5zM152 201q0 -34 23 -58t56 -24t56 24t23 58q0 33 -23 56.5t-56 23.5t-56 -23.5t-23 -56.5zM302 512l-182 82q-16 10 -6 30l34 59q3 6 12.5 6.5t13.5 -3.5
l170 -104q11 -9 6 -19l-21 -42q-10 -20 -27 -9z" />
    <glyph glyph-name="oacute" unicode="&#xf3;" horiz-adv-x="462" 
d="M23 201q0 85 61.5 147t146.5 62t146.5 -62t61.5 -147q0 -86 -61.5 -148.5t-146.5 -62.5t-146.5 62.5t-61.5 148.5zM152 201q0 -34 23 -58t56 -24t56 24t23 58q0 33 -23 56.5t-56 23.5t-56 -23.5t-23 -56.5zM158 512q-17 -11 -27 9l-21 42q-5 10 6 19l170 104
q4 4 13.5 3.5t12.5 -6.5l34 -59q10 -20 -6 -30z" />
    <glyph glyph-name="ocircumflex" unicode="&#xf4;" horiz-adv-x="462" 
d="M23 201q0 85 61.5 147t146.5 62t146.5 -62t61.5 -147q0 -86 -61.5 -148.5t-146.5 -62.5t-146.5 62.5t-61.5 148.5zM152 201q0 -34 23 -58t56 -24t56 24t23 58q0 33 -23 56.5t-56 23.5t-56 -23.5t-23 -56.5zM132 512q-13 -7 -22 4l-33 47q-6 9 6 19l135 104q11 8 24 0
l138 -104q11 -9 6 -19l-34 -46q-9 -12 -21 -5l-99 58z" />
    <glyph glyph-name="otilde" unicode="&#xf5;" horiz-adv-x="462" 
d="M23 201q0 85 61.5 147t146.5 62t146.5 -62t61.5 -147q0 -86 -61.5 -148.5t-146.5 -62.5t-146.5 62.5t-61.5 148.5zM152 201q0 -34 23 -58t56 -24t56 24t23 58q0 33 -23 56.5t-56 23.5t-56 -23.5t-23 -56.5zM114 555l-35 28q-12 9 -6 23q8 14 20 30.5t37.5 35t49.5 18.5
q25 0 57.5 -23.5t50.5 -23.5t38 31q10 16 25 2l34 -26q14 -10 1 -29q-46 -78 -100 -78q-28 0 -61.5 24t-48.5 24q-8 0 -15 -5.5t-15.5 -17t-9.5 -12.5q-9 -9 -22 -1z" />
    <glyph glyph-name="odieresis" unicode="&#xf6;" horiz-adv-x="462" 
d="M23 201q0 85 61.5 147t146.5 62t146.5 -62t61.5 -147q0 -86 -61.5 -148.5t-146.5 -62.5t-146.5 62.5t-61.5 148.5zM152 201q0 -34 23 -58t56 -24t56 24t23 58q0 33 -23 56.5t-56 23.5t-56 -23.5t-23 -56.5zM333 535q-29 0 -49.5 21t-20.5 50t20.5 49.5t49.5 20.5
t50 -20.5t21 -49.5t-21 -50t-50 -21zM128 535q-29 0 -49.5 21t-20.5 50t20.5 49.5t49.5 20.5t50 -20.5t21 -49.5t-21 -50t-50 -21z" />
    <glyph glyph-name="divide" unicode="&#xf7;" horiz-adv-x="494" 
d="M244 471q-31 0 -52.5 22t-21.5 53t21.5 52.5t52.5 21.5t53 -21.5t22 -52.5t-22 -53t-53 -22zM47 292q-7 0 -13 6t-6 13v70q0 7 6 13t13 6h401q7 0 12.5 -5.5t5.5 -13.5v-70q0 -8 -5.5 -13.5t-12.5 -5.5h-401zM169 154q0 31 21.5 52.5t52.5 21.5t53 -21.5t22 -52.5
t-22 -53t-53 -22t-52.5 22t-21.5 53z" />
    <glyph glyph-name="oslash" unicode="&#xf8;" horiz-adv-x="466" 
d="M44 21q-5 5 -5.5 13t4.5 13l25 25q-43 56 -43 130q0 85 61.5 146.5t146.5 61.5q69 0 126 -44l28 28q12 14 26 0l12 -12q14 -12 0 -26l-28 -28q44 -57 44 -126q0 -86 -61.5 -149t-146.5 -63q-70 0 -126 43l-25 -25q-12 -12 -26 1zM161 168l106 106q-14 7 -34 7
q-33 0 -56 -23t-23 -56q0 -20 7 -34zM199 126q14 -7 34 -7q33 0 56 24.5t23 58.5q0 16 -7 33z" />
    <glyph glyph-name="ugrave" unicode="&#xf9;" 
d="M45 200v181q0 8 5.5 13.5t13.5 5.5h107q8 0 13.5 -5.5t5.5 -13.5v-185q0 -32 17 -54.5t47 -22.5q28 0 44 21.5t16 49.5v191q0 19 21 19h102q8 0 13.5 -5.5t5.5 -13.5v-362q0 -7 -6 -13t-13 -6h-47q-13 0 -19 14l-15 37q-21 -21 -31 -29t-39.5 -20t-64.5 -12
q-85 0 -130.5 59.5t-45.5 150.5zM334 512l-182 82q-16 10 -6 30l34 59q3 6 12.5 6.5t13.5 -3.5l170 -104q11 -9 6 -19l-21 -42q-10 -20 -27 -9z" />
    <glyph glyph-name="uacute" unicode="&#xfa;" 
d="M45 200v181q0 8 5.5 13.5t13.5 5.5h107q8 0 13.5 -5.5t5.5 -13.5v-185q0 -32 17 -54.5t47 -22.5q28 0 44 21.5t16 49.5v191q0 19 21 19h102q8 0 13.5 -5.5t5.5 -13.5v-362q0 -7 -6 -13t-13 -6h-47q-13 0 -19 14l-15 37q-21 -21 -31 -29t-39.5 -20t-64.5 -12
q-85 0 -130.5 59.5t-45.5 150.5zM182 512q-17 -11 -27 9l-21 42q-5 10 6 19l170 104q4 4 13.5 3.5t12.5 -6.5l34 -59q10 -20 -6 -30z" />
    <glyph glyph-name="ucircumflex" unicode="&#xfb;" 
d="M45 200v181q0 8 5.5 13.5t13.5 5.5h107q8 0 13.5 -5.5t5.5 -13.5v-185q0 -32 17 -54.5t47 -22.5q28 0 44 21.5t16 49.5v191q0 19 21 19h102q8 0 13.5 -5.5t5.5 -13.5v-362q0 -7 -6 -13t-13 -6h-47q-13 0 -19 14l-15 37q-21 -21 -31 -29t-39.5 -20t-64.5 -12
q-85 0 -130.5 59.5t-45.5 150.5zM154 512q-13 -7 -22 4l-33 47q-6 9 6 19l135 104q11 8 24 0l138 -104q11 -9 6 -19l-34 -46q-9 -12 -21 -5l-99 58z" />
    <glyph glyph-name="udieresis" unicode="&#xfc;" 
d="M45 200v181q0 8 5.5 13.5t13.5 5.5h107q8 0 13.5 -5.5t5.5 -13.5v-185q0 -32 17 -54.5t47 -22.5q28 0 44 21.5t16 49.5v191q0 19 21 19h102q8 0 13.5 -5.5t5.5 -13.5v-362q0 -7 -6 -13t-13 -6h-47q-13 0 -19 14l-15 37q-21 -21 -31 -29t-39.5 -20t-64.5 -12
q-85 0 -130.5 59.5t-45.5 150.5zM355 535q-29 0 -49.5 21t-20.5 50t20.5 49.5t49.5 20.5t50 -20.5t21 -49.5t-21 -50t-50 -21zM150 535q-29 0 -49.5 21t-20.5 50t20.5 49.5t49.5 20.5t50 -20.5t21 -49.5t-21 -50t-50 -21z" />
    <glyph glyph-name="yacute" unicode="&#xfd;" horiz-adv-x="465" 
d="M156 41l-150 333q-5 10 0.5 18t16.5 8h114q11 0 17 -11l77 -186h2l79 186q4 11 17 11h113q11 0 16.5 -8t0.5 -18l-306 -662q-6 -12 -17 -12h-112q-11 0 -16.5 8.5t-0.5 18.5zM160 512q-17 -11 -27 9l-21 42q-5 10 6 19l170 104q4 4 13.5 3.5t12.5 -6.5l34 -59
q10 -20 -6 -30z" />
    <glyph glyph-name="thorn" unicode="&#xfe;" 
d="M203 6v-288q0 -8 -5.5 -13.5t-13.5 -5.5h-111q-7 0 -13 5.5t-6 13.5v963q0 7 6 13t13 6h111q8 0 13.5 -6t5.5 -13v-296q35 25 87 25q84 0 139.5 -58t55.5 -152q0 -88 -61.5 -149t-147.5 -61q-38 0 -73 16zM187 200q0 -34 22.5 -57t56.5 -23t57 23t23 57q0 33 -23 56
t-57 23q-33 0 -56 -23t-23 -56z" />
    <glyph glyph-name="ydieresis" unicode="&#xff;" horiz-adv-x="465" 
d="M156 41l-150 333q-5 10 0.5 18t16.5 8h114q11 0 17 -11l77 -186h2l79 186q4 11 17 11h113q11 0 16.5 -8t0.5 -18l-306 -662q-6 -12 -17 -12h-112q-11 0 -16.5 8.5t-0.5 18.5zM334 535q-29 0 -49.5 21t-20.5 50t20.5 49.5t49.5 20.5t50 -20.5t21 -49.5t-21 -50t-50 -21z
M129 535q-29 0 -49.5 21t-20.5 50t20.5 49.5t49.5 20.5t50 -20.5t21 -49.5t-21 -50t-50 -21z" />
    <glyph glyph-name="Amacron" unicode="&#x100;" horiz-adv-x="662" 
d="M13 0q-11 0 -16.5 8t-0.5 18l313 673q5 11 17 11h10q12 0 17 -11l313 -673q5 -10 -0.5 -18t-16.5 -8h-111q-23 0 -35 25l-36 79h-272l-36 -80q-10 -24 -36 -24h-110zM255 240h152l-76 165h-1zM203 801q-8 0 -13.5 5t-5.5 13v41q0 19 19 19h256q19 0 19 -19v-41
q0 -8 -5.5 -13t-13.5 -5h-256z" />
    <glyph glyph-name="amacron" unicode="&#x101;" horiz-adv-x="429" 
d="M27 122q0 59 40 96.5t107 37.5q20 0 39 -4t29 -8l9 -4q0 32 -10 45.5t-44 13.5q-51 0 -100 -15q-20 -7 -24 21l-9 63q-4 21 15 27q10 3 54 9t79 6q92 0 130.5 -40t38.5 -130v-221q0 -7 -5.5 -13t-13.5 -6h-44q-12 0 -18 13l-14 27q-55 -50 -121 -50q-60 0 -99 36.5
t-39 95.5zM157 132q0 -18 12.5 -31t30.5 -13t31 13t13 31q-1 17 -13.5 29.5t-30.5 12.5t-30.5 -12.5t-12.5 -29.5zM91 563q-8 0 -13.5 5t-5.5 13v41q0 19 19 19h256q19 0 19 -19v-41q0 -8 -5.5 -13t-13.5 -5h-256z" />
    <glyph glyph-name="Abreve" unicode="&#x102;" horiz-adv-x="662" 
d="M13 0q-11 0 -16.5 8t-0.5 18l313 673q5 11 17 11h10q12 0 17 -11l313 -673q5 -10 -0.5 -18t-16.5 -8h-111q-23 0 -35 25l-36 79h-272l-36 -80q-10 -24 -36 -24h-110zM255 240h152l-76 165h-1zM331 763q-55 0 -94.5 34t-47.5 86q-2 9 3.5 15.5t15.5 6.5h45q13 0 17 -12
q7 -21 23.5 -34.5t37.5 -13.5q19 0 35.5 14.5t23.5 33.5q3 12 17 12h47q9 0 14.5 -6.5t4.5 -15.5q-8 -52 -48 -86t-94 -34z" />
    <glyph glyph-name="abreve" unicode="&#x103;" horiz-adv-x="429" 
d="M27 122q0 59 40 96.5t107 37.5q20 0 39 -4t29 -8l9 -4q0 32 -10 45.5t-44 13.5q-51 0 -100 -15q-20 -7 -24 21l-9 63q-4 21 15 27q10 3 54 9t79 6q92 0 130.5 -40t38.5 -130v-221q0 -7 -5.5 -13t-13.5 -6h-44q-12 0 -18 13l-14 27q-55 -50 -121 -50q-60 0 -99 36.5
t-39 95.5zM157 132q0 -18 12.5 -31t30.5 -13t31 13t13 31q-1 17 -13.5 29.5t-30.5 12.5t-30.5 -12.5t-12.5 -29.5zM219 527q-55 0 -94.5 34t-47.5 86q-2 9 3.5 15.5t15.5 6.5h45q13 0 17 -12q7 -21 23.5 -34.5t37.5 -13.5q19 0 35.5 14.5t23.5 33.5q3 12 17 12h47
q9 0 14.5 -6.5t4.5 -15.5q-8 -52 -48 -86t-94 -34z" />
    <glyph glyph-name="Aogonek" unicode="&#x104;" horiz-adv-x="662" 
d="M13 0q-11 0 -16.5 8t-0.5 18l314 673q6 11 17 11h10q11 0 17 -11l312 -673q5 -10 -0.5 -18t-16.5 -8h-85q-45 -45 -45 -95q0 -29 17.5 -48t52.5 -19q8 0 41 6q10 1 16 -4.5t6 -14.5v-33q0 -15 -15 -19q-35 -8 -63 -8q-60 0 -99 29t-39 85q0 37 18.5 71t33.5 47.5t20 16.5
l-41 90h-272l-36 -80q-10 -24 -36 -24h-110zM255 240h152l-77 165h-1z" />
    <glyph glyph-name="aogonek" unicode="&#x105;" horiz-adv-x="429" 
d="M27 122q0 59 40 96.5t107 37.5q20 0 39 -4t29 -8l9 -4q0 35 -10 48.5t-44 13.5q-38 0 -100 -12q-21 -4 -24 21l-9 57q-4 21 15 27q10 3 54 9t79 6q92 0 130.5 -40t38.5 -130v-221q0 -7 -5.5 -13t-13.5 -6h-5q-45 -45 -45 -95q0 -29 17.5 -48t52.5 -19q8 0 41 6
q10 1 16 -4.5t6 -14.5v-33q0 -15 -15 -19q-35 -8 -63 -8q-61 0 -99.5 29t-38.5 85q0 35 17.5 68t31 47t22.5 19l-14 27q-55 -50 -121 -50q-60 0 -99 36.5t-39 95.5zM157 132q0 -18 12.5 -31t30.5 -13t31 13t13 31q-1 17 -13.5 29.5t-30.5 12.5t-30.5 -12.5t-12.5 -29.5z" />
    <glyph glyph-name="Cacute" unicode="&#x106;" horiz-adv-x="673" 
d="M35 349q0 150 105.5 255.5t255.5 105.5q140 0 242 -93q15 -14 1 -28l-78 -81q-13 -12 -25 0q-57 51 -135 51q-84 0 -140 -60.5t-56 -145.5q0 -84 56.5 -143.5t140.5 -59.5q78 0 134 48q14 12 26 -1l78 -83q13 -13 -1 -27q-100 -97 -243 -97q-150 0 -255.5 104.5
t-105.5 254.5zM326 762q-17 -11 -27 9l-21 42q-5 10 6 19l170 104q4 4 13.5 3.5t12.5 -6.5l34 -59q10 -20 -6 -30z" />
    <glyph glyph-name="cacute" unicode="&#x107;" horiz-adv-x="420" 
d="M23 200q0 87 64.5 148.5t151.5 61.5q91 0 150 -72q11 -14 -5 -28l-60 -57q-4 -4 -11 -3t-11 5q-24 26 -58 26q-33 0 -56.5 -24t-23.5 -57q0 -34 22.5 -57.5t55.5 -23.5q37 0 68 31q12 12 22 4l60 -52q16 -15 7 -28q-56 -84 -161 -84q-87 0 -151 60.5t-64 149.5zM167 512
q-17 -11 -27 9l-21 42q-5 10 6 19l170 104q4 4 13.5 3.5t12.5 -6.5l34 -59q11 -20 -6 -30z" />
    <glyph glyph-name="Ccircumflex" unicode="&#x108;" horiz-adv-x="673" 
d="M35 349q0 150 105.5 255.5t255.5 105.5q140 0 242 -93q15 -14 1 -28l-78 -81q-13 -12 -25 0q-57 51 -135 51q-84 0 -140 -60.5t-56 -145.5q0 -84 56.5 -143.5t140.5 -59.5q78 0 134 48q14 12 26 -1l78 -83q13 -13 -1 -27q-100 -97 -243 -97q-150 0 -255.5 104.5
t-105.5 254.5zM298 762q-13 -7 -22 4l-33 47q-6 9 6 19l135 104q11 8 24 0l138 -104q11 -9 6 -19l-34 -46q-9 -12 -21 -5l-99 58z" />
    <glyph glyph-name="ccircumflex" unicode="&#x109;" horiz-adv-x="420" 
d="M23 200q0 87 64.5 148.5t151.5 61.5q91 0 150 -72q11 -14 -5 -28l-60 -57q-4 -4 -11 -3t-11 5q-24 26 -58 26q-33 0 -56.5 -24t-23.5 -57q0 -34 22.5 -57.5t55.5 -23.5q37 0 68 31q12 12 22 4l60 -52q16 -15 7 -28q-56 -84 -161 -84q-87 0 -151 60.5t-64 149.5zM139 512
q-13 -7 -22 4l-33 47q-6 9 6 19l135 104q11 8 24 0l138 -104q11 -9 6 -19l-34 -46q-9 -12 -21 -5l-99 58z" />
    <glyph glyph-name="Cdotaccent" unicode="&#x10a;" horiz-adv-x="673" 
d="M35 349q0 150 105.5 255.5t255.5 105.5q140 0 242 -93q15 -14 1 -28l-78 -81q-13 -12 -25 0q-57 51 -135 51q-84 0 -140 -60.5t-56 -145.5q0 -84 56.5 -143.5t140.5 -59.5q78 0 134 48q14 12 26 -1l78 -83q13 -13 -1 -27q-100 -97 -243 -97q-150 0 -255.5 104.5
t-105.5 254.5zM397 774q-33 0 -56 23t-23 56t23 56.5t56 23.5t56.5 -23.5t23.5 -56.5t-23.5 -56t-56.5 -23z" />
    <glyph glyph-name="cdotaccent" unicode="&#x10b;" horiz-adv-x="420" 
d="M23 200q0 87 64.5 148.5t151.5 61.5q91 0 150 -72q11 -14 -5 -28l-60 -57q-4 -4 -11 -3t-11 5q-24 26 -58 26q-33 0 -56.5 -24t-23.5 -57q0 -34 22.5 -57.5t55.5 -23.5q37 0 68 31q12 12 22 4l60 -52q16 -15 7 -28q-56 -84 -161 -84q-87 0 -151 60.5t-64 149.5zM238 521
q-33 0 -56 23t-23 56t23 56.5t56 23.5t56.5 -23.5t23.5 -56.5t-23.5 -56t-56.5 -23z" />
    <glyph glyph-name="Ccaron" unicode="&#x10c;" horiz-adv-x="673" 
d="M35 349q0 150 105.5 255.5t255.5 105.5q140 0 242 -93q15 -14 1 -28l-78 -81q-13 -12 -25 0q-57 51 -135 51q-84 0 -140 -60.5t-56 -145.5q0 -84 56.5 -143.5t140.5 -59.5q78 0 134 48q14 12 26 -1l78 -83q13 -13 -1 -27q-100 -97 -243 -97q-150 0 -255.5 104.5
t-105.5 254.5zM386 762l-138 104q-11 9 -6 19l34 46q9 12 21 5l99 -58l100 58q13 7 22 -4l33 -47q6 -9 -6 -19l-135 -104q-11 -8 -24 0z" />
    <glyph glyph-name="ccaron" unicode="&#x10d;" horiz-adv-x="420" 
d="M23 200q0 87 64.5 148.5t151.5 61.5q91 0 150 -72q11 -14 -5 -28l-60 -57q-4 -4 -11 -3t-11 5q-24 26 -58 26q-33 0 -56.5 -24t-23.5 -57q0 -34 22.5 -57.5t55.5 -23.5q37 0 68 31q12 12 22 4l60 -52q16 -15 7 -28q-56 -84 -161 -84q-87 0 -151 60.5t-64 149.5zM227 512
l-138 104q-11 9 -6 19l34 46q9 12 21 5l99 -58l100 58q13 7 22 -4l33 -47q6 -9 -6 -19l-135 -104q-11 -8 -24 0z" />
    <glyph glyph-name="Dcaron" unicode="&#x10e;" horiz-adv-x="735" 
d="M86 19v662q0 8 5.5 13.5t12.5 5.5h244q145 0 248 -102.5t103 -246.5q0 -145 -103 -248t-248 -103h-244q-7 0 -12.5 5.5t-5.5 13.5zM242 148h96q84 0 139.5 58.5t55.5 144.5q0 85 -55.5 143.5t-139.5 58.5h-96v-405zM315 762l-138 104q-11 9 -6 19l34 46q9 12 21 5l99 -58
l100 58q13 7 22 -4l33 -47q6 -9 -6 -19l-135 -104q-11 -8 -24 0z" />
    <glyph glyph-name="dcaron" unicode="&#x10f;" horiz-adv-x="550" 
d="M25 200q0 101 57 155.5t142 54.5q50 0 83 -19v290q0 7 5.5 13t13.5 6h111q7 0 13 -6t6 -13v-662q0 -7 -6 -13t-13 -6h-47q-14 0 -21 20l-12 33q-5 -7 -15 -17.5t-45 -28t-74 -17.5q-84 0 -141 61.5t-57 148.5zM162 201q0 -35 23.5 -58.5t57.5 -23.5t57 23.5t23 58.5
q0 34 -23 57t-57 23t-57.5 -23t-23.5 -57zM581 417l-15 15q-11 12 1 22q70 51 71 120q-17 -7 -40 -7q-30 0 -51 20.5t-21 50.5t22.5 51t56.5 21q35 0 63 -28.5t28 -87.5q0 -102 -93 -179q-12 -9 -22 2z" />
    <glyph glyph-name="Dcroat" unicode="&#x110;" horiz-adv-x="740" 
d="M91 19v300h-29q-7 0 -12.5 5.5t-5.5 13.5v17q0 8 5.5 13.5t12.5 5.5h29v307q0 8 5.5 13.5t12.5 5.5h244q145 0 248 -102.5t103 -246.5q0 -145 -103 -248t-248 -103h-244q-7 0 -12.5 5.5t-5.5 13.5zM247 148h96q84 0 139.5 58.5t55.5 144.5q0 85 -55.5 143.5t-139.5 58.5
h-96v-179h142q8 0 13.5 -5.5t5.5 -13.5v-18q0 -8 -5.5 -13t-13.5 -5h-142v-171z" />
    <glyph glyph-name="dcroat" unicode="&#x111;" 
d="M25 200q0 101 57 155.5t142 54.5q50 0 83 -19v140h-96q-8 0 -13.5 5t-5.5 13v18q0 8 5.5 13.5t13.5 5.5h96v95q0 7 5.5 13t13.5 6h111q7 0 13 -6t6 -13v-95h32q7 0 12.5 -5.5t5.5 -13.5v-17q0 -8 -5.5 -13.5t-12.5 -5.5h-32v-512q0 -7 -6 -13t-13 -6h-47q-14 0 -21 20
l-12 33q-5 -7 -15 -17.5t-45 -28t-74 -17.5q-84 0 -141 61.5t-57 148.5zM164 200q0 -34 23 -57t57 -23t56.5 23t22.5 57q0 33 -22.5 56t-56.5 23t-57 -23t-23 -56z" />
    <glyph glyph-name="Emacron" unicode="&#x112;" horiz-adv-x="586" 
d="M86 19v662q0 8 5.5 13.5t13.5 5.5h414q8 0 13.5 -5.5t5.5 -13.5v-109q0 -8 -5.5 -13.5t-13.5 -5.5h-277v-124h228q8 0 13.5 -5.5t5.5 -13.5v-109q0 -8 -5.5 -13.5t-13.5 -5.5h-228v-135h277q8 0 13.5 -5.5t5.5 -13.5v-109q0 -8 -5.5 -13.5t-13.5 -5.5h-414
q-8 0 -13.5 5.5t-5.5 13.5zM189 801q-8 0 -13.5 5t-5.5 13v41q0 19 19 19h256q19 0 19 -19v-41q0 -8 -5.5 -13t-13.5 -5h-256z" />
    <glyph glyph-name="emacron" unicode="&#x113;" horiz-adv-x="439" 
d="M24 200q0 86 60 148t147 62q78 0 134 -53.5t56 -134.5q0 -13 -2 -27q-2 -17 -19 -17h-240q3 -25 22.5 -45.5t54.5 -20.5q38 0 70 24q15 12 25 0l50 -60q12 -16 -1 -29q-57 -57 -148 -57q-88 0 -148.5 61.5t-60.5 148.5zM173 256h107q-1 19 -17 33t-36 14t-35.5 -13.5
t-18.5 -33.5zM105 563q-8 0 -13.5 5t-5.5 13v41q0 19 19 19h256q19 0 19 -19v-41q0 -8 -5.5 -13t-13.5 -5h-256z" />
    <glyph glyph-name="Ebreve" unicode="&#x114;" horiz-adv-x="586" 
d="M86 19v662q0 8 5.5 13.5t13.5 5.5h414q8 0 13.5 -5.5t5.5 -13.5v-109q0 -8 -5.5 -13.5t-13.5 -5.5h-277v-124h228q8 0 13.5 -5.5t5.5 -13.5v-109q0 -8 -5.5 -13.5t-13.5 -5.5h-228v-135h277q8 0 13.5 -5.5t5.5 -13.5v-109q0 -8 -5.5 -13.5t-13.5 -5.5h-414
q-8 0 -13.5 5.5t-5.5 13.5zM317 763q-55 0 -94.5 34t-47.5 86q-2 9 3.5 15.5t15.5 6.5h45q13 0 17 -12q7 -21 23.5 -34.5t37.5 -13.5q19 0 35.5 14.5t23.5 33.5q3 12 17 12h47q9 0 14.5 -6.5t4.5 -15.5q-8 -52 -48 -86t-94 -34z" />
    <glyph glyph-name="ebreve" unicode="&#x115;" horiz-adv-x="439" 
d="M24 200q0 86 60 148t147 62q78 0 134 -53.5t56 -134.5q0 -13 -2 -27q-2 -17 -19 -17h-240q3 -25 22.5 -45.5t54.5 -20.5q38 0 70 24q15 12 25 0l50 -60q12 -16 -1 -29q-57 -57 -148 -57q-88 0 -148.5 61.5t-60.5 148.5zM173 256h107q-1 19 -17 33t-36 14t-35.5 -13.5
t-18.5 -33.5zM233 527q-55 0 -94.5 34t-47.5 86q-2 9 3.5 15.5t15.5 6.5h45q13 0 17 -12q7 -21 23.5 -34.5t37.5 -13.5q19 0 35.5 14.5t23.5 33.5q3 12 17 12h47q9 0 14.5 -6.5t4.5 -15.5q-8 -52 -48 -86t-94 -34z" />
    <glyph glyph-name="Edotaccent" unicode="&#x116;" horiz-adv-x="586" 
d="M86 19v662q0 8 5.5 13.5t13.5 5.5h414q8 0 13.5 -5.5t5.5 -13.5v-109q0 -8 -5.5 -13.5t-13.5 -5.5h-277v-124h228q8 0 13.5 -5.5t5.5 -13.5v-109q0 -8 -5.5 -13.5t-13.5 -5.5h-228v-135h277q8 0 13.5 -5.5t5.5 -13.5v-109q0 -8 -5.5 -13.5t-13.5 -5.5h-414
q-8 0 -13.5 5.5t-5.5 13.5zM317 774q-33 0 -56 23t-23 56t23 56.5t56 23.5t56.5 -23.5t23.5 -56.5t-23.5 -56t-56.5 -23z" />
    <glyph glyph-name="edotaccent" unicode="&#x117;" horiz-adv-x="439" 
d="M24 200q0 86 60 148t147 62q78 0 134 -53.5t56 -134.5q0 -13 -2 -27q-2 -17 -19 -17h-240q3 -25 22.5 -45.5t54.5 -20.5q38 0 70 24q15 12 25 0l50 -60q12 -16 -1 -29q-57 -57 -148 -57q-88 0 -148.5 61.5t-60.5 148.5zM173 256h107q-1 19 -17 33t-36 14t-35.5 -13.5
t-18.5 -33.5zM233 521q-33 0 -56 23t-23 56t23 56.5t56 23.5t56.5 -23.5t23.5 -56.5t-23.5 -56t-56.5 -23z" />
    <glyph glyph-name="Eogonek" unicode="&#x118;" horiz-adv-x="586" 
d="M86 19v662q0 8 5.5 13.5t13.5 5.5h414q8 0 13.5 -5.5t5.5 -13.5v-109q0 -8 -5.5 -13.5t-13.5 -5.5h-277v-124h228q8 0 13.5 -5.5t5.5 -13.5v-109q0 -8 -5.5 -13.5t-13.5 -5.5h-228v-135h277q8 0 13.5 -5.5t5.5 -13.5v-93q0 -10 -3.5 -17t-5 -8.5t-11.5 -9.5
q-45 -45 -45 -95q0 -29 17.5 -48t52.5 -19q8 0 41 6q10 1 16 -4.5t6 -14.5v-33q0 -15 -15 -19q-35 -8 -63 -8q-60 0 -99 29t-39 85q0 66 55 121h-340q-8 0 -13.5 5.5t-5.5 13.5z" />
    <glyph glyph-name="eogonek" unicode="&#x119;" horiz-adv-x="441" 
d="M134 -121q0 64 51 117q-71 16 -115.5 73t-44.5 131q0 86 60 148t147 62q78 0 134 -53.5t56 -134.5q0 -13 -2 -27q-2 -17 -19 -17h-240q3 -25 22.5 -46t54.5 -21q36 0 68 24q16 11 25 0q7 -8 23.5 -27.5t28.5 -31.5q14 -14 1 -27q-52 -52 -131 -58q-36 -42 -36 -86
q0 -29 17.5 -48t52.5 -19q8 0 41 6q10 1 16 -4.5t6 -14.5v-33q0 -15 -15 -19q-35 -8 -63 -8q-60 0 -99 29t-39 85zM174 256h107q-1 19 -17 33t-36 14t-35.5 -13.5t-18.5 -33.5z" />
    <glyph glyph-name="Ecaron" unicode="&#x11a;" horiz-adv-x="586" 
d="M86 19v662q0 8 5.5 13.5t13.5 5.5h414q8 0 13.5 -5.5t5.5 -13.5v-109q0 -8 -5.5 -13.5t-13.5 -5.5h-277v-124h228q8 0 13.5 -5.5t5.5 -13.5v-109q0 -8 -5.5 -13.5t-13.5 -5.5h-228v-135h277q8 0 13.5 -5.5t5.5 -13.5v-109q0 -8 -5.5 -13.5t-13.5 -5.5h-414
q-8 0 -13.5 5.5t-5.5 13.5zM306 762l-138 104q-11 9 -6 19l34 46q9 12 21 5l99 -58l100 58q13 7 22 -4l33 -47q6 -9 -6 -19l-135 -104q-11 -8 -24 0z" />
    <glyph glyph-name="ecaron" unicode="&#x11b;" horiz-adv-x="439" 
d="M24 200q0 86 60 148t147 62q78 0 134 -53.5t56 -134.5q0 -13 -2 -27q-2 -17 -19 -17h-240q3 -25 22.5 -45.5t54.5 -20.5q38 0 70 24q15 12 25 0l50 -60q12 -16 -1 -29q-57 -57 -148 -57q-88 0 -148.5 61.5t-60.5 148.5zM173 256h107q-1 19 -17 33t-36 14t-35.5 -13.5
t-18.5 -33.5zM222 512l-138 104q-11 9 -6 19l34 46q9 12 21 5l99 -58l100 58q13 7 22 -4l33 -47q6 -9 -6 -19l-135 -104q-11 -8 -24 0z" />
    <glyph glyph-name="Gcircumflex" unicode="&#x11c;" horiz-adv-x="702" 
d="M36 349q0 150 105 255t254 105q63 0 128 -25t116 -69q16 -13 2 -27l-79 -84q-13 -11 -27 -1q-52 48 -131 48q-81 0 -139 -59.5t-58 -142.5q0 -82 58 -140.5t140 -58.5q49 0 89 16v58h-63q-8 0 -13.5 5t-5.5 13v99q0 19 19 19h201q7 0 12.5 -5.5t5.5 -13.5l1 -269
q0 -10 -8 -16q-12 -7 -33 -18t-86 -29t-129 -18q-150 0 -254.5 104t-104.5 254zM297 762q-13 -7 -22 4l-33 47q-6 9 6 19l135 104q11 8 24 0l138 -104q11 -9 6 -19l-34 -46q-9 -12 -21 -5l-99 58z" />
    <glyph glyph-name="gcircumflex" unicode="&#x11d;" horiz-adv-x="465" 
d="M11 36q0 35 20 62.5t40 37.5l20 10q-29 30 -29 91q0 70 52 121.5t124 51.5h189q19 0 19 -19v-41q0 -12 -11 -17l-58 -21q4 -3 10.5 -10t17 -32.5t10.5 -54.5q0 -58 -48.5 -104.5t-124.5 -46.5h-72q-33 0 -33 -27q0 -13 9.5 -20t22.5 -7h120q72 0 122 -40.5t50 -105.5
q0 -77 -56 -125.5t-169 -48.5q-107 0 -158 40.5t-51 95.5q0 63 61 96v3q-8 2 -18 8.5t-25 18.5t-24.5 34.5t-9.5 49.5zM189 228q0 -22 15 -37t38 -15t38 14.5t15 37.5t-15 37.5t-38 14.5t-38 -15t-15 -37zM164 -146q0 -47 72 -47t72 47q0 42 -72 42q-30 0 -51 -11t-21 -31z
M152 512q-13 -7 -22 4l-33 47q-6 9 6 19l135 104q11 8 24 0l138 -104q11 -9 6 -19l-34 -46q-9 -12 -21 -5l-99 58z" />
    <glyph glyph-name="Gbreve" unicode="&#x11e;" horiz-adv-x="702" 
d="M36 349q0 150 105 255t254 105q63 0 128 -25t116 -69q16 -13 2 -27l-79 -84q-13 -11 -27 -1q-52 48 -131 48q-81 0 -139 -59.5t-58 -142.5q0 -82 58 -140.5t140 -58.5q49 0 89 16v58h-63q-8 0 -13.5 5t-5.5 13v99q0 19 19 19h201q7 0 12.5 -5.5t5.5 -13.5l1 -269
q0 -10 -8 -16q-12 -7 -33 -18t-86 -29t-129 -18q-150 0 -254.5 104t-104.5 254zM396 763q-55 0 -94.5 34t-47.5 86q-2 9 3.5 15.5t15.5 6.5h45q13 0 17 -12q7 -21 23.5 -34.5t37.5 -13.5q19 0 35.5 14.5t23.5 33.5q3 12 17 12h47q9 0 14.5 -6.5t4.5 -15.5q-8 -52 -48 -86
t-94 -34z" />
    <glyph glyph-name="gbreve" unicode="&#x11f;" horiz-adv-x="465" 
d="M11 36q0 35 20 62.5t40 37.5l20 10q-29 30 -29 91q0 70 52 121.5t124 51.5h189q19 0 19 -19v-41q0 -12 -11 -17l-58 -21q4 -3 10.5 -10t17 -32.5t10.5 -54.5q0 -58 -48.5 -104.5t-124.5 -46.5h-72q-33 0 -33 -27q0 -13 9.5 -20t22.5 -7h120q72 0 122 -40.5t50 -105.5
q0 -77 -56 -125.5t-169 -48.5q-107 0 -158 40.5t-51 95.5q0 63 61 96v3q-8 2 -18 8.5t-25 18.5t-24.5 34.5t-9.5 49.5zM189 228q0 -22 15 -37t38 -15t38 14.5t15 37.5t-15 37.5t-38 14.5t-38 -15t-15 -37zM164 -146q0 -47 72 -47t72 47q0 42 -72 42q-30 0 -51 -11t-21 -31z
M251 527q-55 0 -94.5 34t-47.5 86q-2 9 3.5 15.5t15.5 6.5h45q13 0 17 -12q7 -21 23.5 -34.5t37.5 -13.5q19 0 35.5 14.5t23.5 33.5q3 12 17 12h47q9 0 14.5 -6.5t4.5 -15.5q-8 -52 -48 -86t-94 -34z" />
    <glyph glyph-name="Gdotaccent" unicode="&#x120;" horiz-adv-x="702" 
d="M36 349q0 150 105 255t254 105q63 0 128 -25t116 -69q16 -13 2 -27l-79 -84q-13 -11 -27 -1q-52 48 -131 48q-81 0 -139 -59.5t-58 -142.5q0 -82 58 -140.5t140 -58.5q49 0 89 16v58h-63q-8 0 -13.5 5t-5.5 13v99q0 19 19 19h201q7 0 12.5 -5.5t5.5 -13.5l1 -269
q0 -10 -8 -16q-12 -7 -33 -18t-86 -29t-129 -18q-150 0 -254.5 104t-104.5 254zM396 774q-33 0 -56 23t-23 56t23 56.5t56 23.5t56.5 -23.5t23.5 -56.5t-23.5 -56t-56.5 -23z" />
    <glyph glyph-name="gdotaccent" unicode="&#x121;" horiz-adv-x="465" 
d="M11 36q0 35 20 62.5t40 37.5l20 10q-29 30 -29 91q0 70 52 121.5t124 51.5h189q19 0 19 -19v-41q0 -12 -11 -17l-58 -21q4 -3 10.5 -10t17 -32.5t10.5 -54.5q0 -58 -48.5 -104.5t-124.5 -46.5h-72q-33 0 -33 -27q0 -13 9.5 -20t22.5 -7h120q72 0 122 -40.5t50 -105.5
q0 -77 -56 -125.5t-169 -48.5q-107 0 -158 40.5t-51 95.5q0 63 61 96v3q-8 2 -18 8.5t-25 18.5t-24.5 34.5t-9.5 49.5zM189 228q0 -22 15 -37t38 -15t38 14.5t15 37.5t-15 37.5t-38 14.5t-38 -15t-15 -37zM164 -146q0 -47 72 -47t72 47q0 42 -72 42q-30 0 -51 -11t-21 -31z
M255 521q-33 0 -56 23t-23 56t23 56.5t56 23.5t56.5 -23.5t23.5 -56.5t-23.5 -56t-56.5 -23z" />
    <glyph glyph-name="Gcommaaccent" unicode="&#x122;" horiz-adv-x="702" 
d="M36 349q0 150 105 255t254 105q63 0 128 -25t116 -69q16 -13 2 -27l-79 -84q-13 -11 -27 -1q-52 48 -131 48q-81 0 -139 -59.5t-58 -142.5q0 -82 58 -140.5t140 -58.5q49 0 89 16v58h-63q-8 0 -13.5 5t-5.5 13v99q0 19 19 19h201q7 0 12.5 -5.5t5.5 -13.5l1 -269
q0 -10 -8 -16q-12 -7 -33 -18t-86 -29t-129 -18q-150 0 -254.5 104t-104.5 254zM405 -90q35 0 63 -28.5t28 -87.5q0 -102 -93 -179q-12 -9 -22 2l-15 15q-11 12 1 22q70 51 71 120q-17 -7 -40 -7q-30 0 -51 20.5t-21 50.5t22.5 51t56.5 21z" />
    <glyph glyph-name="gcommaaccent" unicode="&#x123;" horiz-adv-x="465" 
d="M257 524q-35 0 -63 28.5t-28 87.5q0 102 93 179q12 9 22 -2l15 -15q11 -12 -1 -22q-70 -51 -71 -120q17 7 40 7q30 0 51 -20.5t21 -50.5t-22.5 -51t-56.5 -21zM11 36q0 35 20 62.5t40 37.5l20 10q-29 30 -29 91q0 70 52 121.5t124 51.5h189q19 0 19 -19v-41
q0 -12 -11 -17l-58 -21q4 -3 10.5 -10t17 -32.5t10.5 -54.5q0 -58 -48.5 -104.5t-124.5 -46.5h-72q-33 0 -33 -27q0 -13 9.5 -20t22.5 -7h120q72 0 122 -40.5t50 -105.5q0 -77 -56 -125.5t-169 -48.5q-107 0 -158 40.5t-51 95.5q0 63 61 96v3q-8 2 -18 8.5t-25 18.5
t-24.5 34.5t-9.5 49.5zM189 228q0 -22 15 -37t38 -15t38 14.5t15 37.5t-15 37.5t-38 14.5t-38 -15t-15 -37zM164 -146q0 -47 72 -47t72 47q0 42 -72 42q-30 0 -51 -11t-21 -31z" />
    <glyph glyph-name="Hcircumflex" unicode="&#x124;" horiz-adv-x="772" 
d="M86 19v662q0 7 6 13t13 6h119q8 0 13.5 -5.5t5.5 -13.5v-252h286v252q0 8 5.5 13.5t13.5 5.5h119q7 0 13 -6t6 -13v-662q0 -7 -6 -13t-13 -6h-119q-8 0 -13.5 5.5t-5.5 13.5v263h-286v-263q0 -8 -5.5 -13.5t-13.5 -5.5h-119q-7 0 -13 6t-6 13zM287 762q-13 -7 -22 4
l-33 47q-6 9 6 19l135 104q11 8 24 0l138 -104q11 -9 6 -19l-34 -46q-9 -12 -21 -5l-99 58z" />
    <glyph glyph-name="hcircumflex" unicode="&#x125;" horiz-adv-x="530" 
d="M54 19v662q0 7 6 13t13 6h111q8 0 13.5 -6t5.5 -13v-294q46 23 93 23q90 0 140.5 -61t50.5 -149v-181q0 -7 -5.5 -13t-13.5 -6h-106q-8 0 -13.5 5.5t-5.5 13.5v183q0 34 -20.5 56.5t-52.5 22.5q-28 0 -47.5 -18.5t-19.5 -60.5v-183q0 -19 -22 -19h-108q-7 0 -13 6t-6 13z
M24 729q-13 -7 -22 4l-33 47q-6 9 6 19l135 104q11 8 24 0l138 -104q11 -9 6 -19l-34 -46q-9 -12 -21 -5l-99 58z" />
    <glyph glyph-name="Hbar" unicode="&#x126;" horiz-adv-x="772" 
d="M86 19v512h-28q-7 0 -12.5 5.5t-5.5 13.5v17q0 8 5.5 13.5t12.5 5.5h28v95q0 7 6 13t13 6h119q8 0 13.5 -5.5t5.5 -13.5v-95h286v95q0 8 5.5 13.5t13.5 5.5h119q7 0 13 -6t6 -13v-95h28q8 0 13.5 -5.5t5.5 -13.5v-18q0 -8 -5.5 -13t-13.5 -5h-28v-512q0 -7 -6 -13t-13 -6
h-119q-8 0 -13.5 5.5t-5.5 13.5v263h-286v-263q0 -8 -5.5 -13.5t-13.5 -5.5h-119q-7 0 -13 6t-6 13zM243 429h286v102h-286v-102z" />
    <glyph glyph-name="hbar" unicode="&#x127;" horiz-adv-x="531" 
d="M54 19v512h-31q-7 0 -12.5 5.5t-5.5 13.5v17q0 8 5.5 13.5t12.5 5.5h31v95q0 7 6 13t13 6h111q8 0 13.5 -6t5.5 -13v-95h97q8 0 13.5 -5.5t5.5 -13.5v-18q0 -8 -5.5 -13t-13.5 -5h-97v-145q49 23 93 23q90 0 140.5 -60t50.5 -149v-181q0 -7 -5.5 -13t-13.5 -6h-106
q-8 0 -13.5 5.5t-5.5 13.5v181q0 34 -20.5 56.5t-52.5 22.5q-27 0 -47 -16.5t-20 -52.5v-191q0 -19 -22 -19h-108q-7 0 -13 6t-6 13z" />
    <glyph glyph-name="Itilde" unicode="&#x128;" horiz-adv-x="330" 
d="M86 19v662q0 7 6 13t13 6h120q7 0 13 -6t6 -13v-662q0 -7 -6 -13t-13 -6h-120q-7 0 -13 6t-6 13zM48 785l-35 28q-12 9 -6 23q8 14 20 30.5t37.5 35t49.5 18.5q25 0 57.5 -23.5t50.5 -23.5t38 31q10 16 25 2l34 -26q14 -10 1 -29q-46 -78 -100 -78q-28 0 -61.5 24
t-48.5 24q-8 0 -15 -5.5t-15.5 -17t-9.5 -12.5q-9 -9 -22 -1z" />
    <glyph glyph-name="itilde" unicode="&#x129;" horiz-adv-x="256" 
d="M54 19v361q0 8 5.5 13.5t13.5 5.5h110q8 0 13.5 -5.5t5.5 -13.5v-361q0 -7 -6 -13t-13 -6h-110q-7 0 -13 6t-6 13zM11 555l-35 28q-12 9 -6 23q8 14 20 30.5t37.5 35t49.5 18.5q25 0 57.5 -23.5t50.5 -23.5t38 31q10 16 25 2l34 -26q14 -10 1 -29q-46 -78 -100 -78
q-28 0 -61.5 24t-48.5 24q-8 0 -15 -5.5t-15.5 -17t-9.5 -12.5q-9 -9 -22 -1z" />
    <glyph glyph-name="Imacron" unicode="&#x12a;" horiz-adv-x="330" 
d="M86 19v662q0 7 6 13t13 6h120q7 0 13 -6t6 -13v-662q0 -7 -6 -13t-13 -6h-120q-7 0 -13 6t-6 13zM37 801q-8 0 -13.5 5t-5.5 13v41q0 19 19 19h256q19 0 19 -19v-41q0 -8 -5.5 -13t-13.5 -5h-256z" />
    <glyph glyph-name="imacron" unicode="&#x12b;" horiz-adv-x="256" 
d="M54 19v361q0 8 5.5 13.5t13.5 5.5h110q8 0 13.5 -5.5t5.5 -13.5v-361q0 -7 -6 -13t-13 -6h-110q-7 0 -13 6t-6 13zM0 563q-8 0 -13.5 5t-5.5 13v41q0 19 19 19h256q19 0 19 -19v-41q0 -8 -5.5 -13t-13.5 -5h-256z" />
    <glyph glyph-name="Ibreve" unicode="&#x12c;" horiz-adv-x="330" 
d="M86 19v662q0 7 6 13t13 6h120q7 0 13 -6t6 -13v-662q0 -7 -6 -13t-13 -6h-120q-7 0 -13 6t-6 13zM165 763q-55 0 -94.5 34t-47.5 86q-2 9 3.5 15.5t15.5 6.5h45q13 0 17 -12q7 -21 23.5 -34.5t37.5 -13.5q19 0 35.5 14.5t23.5 33.5q3 12 17 12h47q9 0 14.5 -6.5
t4.5 -15.5q-8 -52 -48 -86t-94 -34z" />
    <glyph glyph-name="ibreve" unicode="&#x12d;" horiz-adv-x="256" 
d="M54 19v361q0 8 5.5 13.5t13.5 5.5h110q8 0 13.5 -5.5t5.5 -13.5v-361q0 -7 -6 -13t-13 -6h-110q-7 0 -13 6t-6 13zM128 527q-55 0 -94.5 34t-47.5 86q-2 9 3.5 15.5t15.5 6.5h45q13 0 17 -12q7 -21 23.5 -34.5t37.5 -13.5q19 0 35.5 14.5t23.5 33.5q3 12 17 12h47
q9 0 14.5 -6.5t4.5 -15.5q-8 -52 -48 -86t-94 -34z" />
    <glyph glyph-name="Iogonek" unicode="&#x12e;" horiz-adv-x="330" 
d="M86 19v662q0 7 6 13t13 6h120q7 0 13 -6t6 -13v-662q0 -7 -6 -13t-13 -6h-29q-45 -45 -45 -95q0 -29 17.5 -48t52.5 -19q8 0 41 6q10 1 16 -4.5t6 -14.5v-33q0 -15 -15 -19q-35 -8 -63 -8q-60 0 -99 29t-39 85q0 66 55 121h-18q-7 0 -13 6t-6 13z" />
    <glyph glyph-name="iogonek" unicode="&#x12f;" horiz-adv-x="256" 
d="M127 521q-33 0 -56 23t-23 56t23 56.5t56 23.5t56.5 -23.5t23.5 -56.5t-23.5 -56t-56.5 -23zM54 19v362q0 8 5.5 13.5t13.5 5.5h110q8 0 13.5 -5.5t5.5 -13.5v-362q0 -7 -6 -13t-13 -6h-25q-45 -45 -45 -95q0 -29 17.5 -48t52.5 -19q8 0 41 6q10 1 16 -4.5t6 -14.5v-33
q0 -15 -15 -19q-35 -8 -63 -8q-60 0 -99 29t-39 85q0 66 55 121h-12q-7 0 -13 6t-6 13z" />
    <glyph glyph-name="Idotaccent" unicode="&#x130;" horiz-adv-x="330" 
d="M86 19v662q0 7 6 13t13 6h120q7 0 13 -6t6 -13v-662q0 -7 -6 -13t-13 -6h-120q-7 0 -13 6t-6 13zM165 774q-33 0 -56 23t-23 56t23 56.5t56 23.5t56.5 -23.5t23.5 -56.5t-23.5 -56t-56.5 -23z" />
    <glyph glyph-name="dotlessi" unicode="&#x131;" horiz-adv-x="256" 
d="M54 19v361q0 8 5.5 13.5t13.5 5.5h110q8 0 13.5 -5.5t5.5 -13.5v-361q0 -7 -6 -13t-13 -6h-110q-7 0 -13 6t-6 13z" />
    <glyph glyph-name="IJ" unicode="&#x132;" horiz-adv-x="776" 
d="M86 19v662q0 7 6 13t13 6h120q7 0 13 -6t6 -13v-662q0 -7 -6 -13t-13 -6h-120q-7 0 -13 6t-6 13zM338 63q-8 13 2 25l68 67q14 13 27 0q21 -21 51 -21q23 0 41 20.5t18 55.5v471q0 8 5.5 13.5t13.5 5.5h122q8 0 13.5 -5.5t5.5 -13.5v-472q0 -101 -62 -160t-153 -59
q-93 0 -152 73z" />
    <glyph glyph-name="ij" unicode="&#x133;" horiz-adv-x="525" 
d="M127 521q-33 0 -56 23t-23 56t23 56.5t56 23.5t56.5 -23.5t23.5 -56.5t-23.5 -56t-56.5 -23zM54 19v362q0 8 5.5 13.5t13.5 5.5h110q8 0 13.5 -5.5t5.5 -13.5v-362q0 -7 -6 -13t-13 -6h-110q-7 0 -13 6t-6 13zM396 521q-33 0 -56 23t-23 56t23 56.5t56 23.5t56.5 -23.5
t23.5 -56.5t-23.5 -56t-56.5 -23zM322 -92v473q0 8 5.5 13.5t13.5 5.5h111q8 0 13.5 -5.5t5.5 -13.5v-473q0 -102 -56.5 -160t-146.5 -58q-36 0 -72 12t-50 26q-12 10 -4 23l42 83q2 5 9.5 7.5t13.5 -0.5q30 -16 52 -16q63 0 63 83z" />
    <glyph glyph-name="Jcircumflex" unicode="&#x134;" horiz-adv-x="425" 
d="M-14 63q-8 13 2 25l68 67q14 13 27 0q21 -21 51 -21q23 0 41 20.5t18 55.5v471q0 8 5.5 13.5t13.5 5.5h122q8 0 13.5 -5.5t5.5 -13.5v-472q0 -101 -62 -160t-153 -59q-93 0 -152 73zM168 762q-13 -7 -22 4l-33 47q-6 9 6 19l135 104q11 8 24 0l138 -104q11 -9 6 -19
l-34 -46q-9 -12 -21 -5l-99 58z" />
    <glyph glyph-name="jcircumflex" unicode="&#x135;" horiz-adv-x="257" 
d="M54 -92v472q0 8 5.5 13.5t13.5 5.5h111q8 0 13.5 -5.5t5.5 -13.5v-472q0 -102 -56.5 -160t-146.5 -58q-36 0 -72 12t-50 26q-12 10 -4 23l42 83q2 5 9.5 7.5t13.5 -0.5q30 -16 52 -16q63 0 63 83zM30 512q-13 -7 -22 4l-33 47q-6 9 6 19l135 104q11 8 24 0l138 -104
q11 -9 6 -19l-34 -46q-9 -12 -21 -5l-99 58z" />
    <glyph glyph-name="Kcommaaccent" unicode="&#x136;" horiz-adv-x="673" 
d="M86 24v652q0 10 7 17t17 7h117q10 0 17 -7t7 -17v-263l222 277q8 10 19 10h126q14 0 20 -13t-2 -24l-234 -293l255 -332q8 -11 1.5 -24t-20.5 -13h-138q-13 0 -18 7l-231 314v-298q0 -10 -7 -17t-17 -7h-117q-10 0 -17 7t-7 17zM383 -90q35 0 63 -28.5t28 -87.5
q0 -102 -93 -179q-12 -9 -22 2l-15 15q-11 12 1 22q70 51 71 120q-17 -7 -40 -7q-30 0 -51 20.5t-21 50.5t22.5 51t56.5 21z" />
    <glyph glyph-name="kcommaaccent" unicode="&#x137;" horiz-adv-x="511" 
d="M54 19v662q0 7 6 13t13 6h111q8 0 13.5 -6t5.5 -13v-433l121 140q12 12 25 12h112q13 0 18 -10t-3 -21l-132 -153l160 -186q8 -10 3 -20t-18 -10h-135q-9 0 -15 8l-136 174v-163q0 -7 -5.5 -13t-13.5 -6h-111q-7 0 -13 6t-6 13zM275 -90q35 0 63 -28.5t28 -87.5
q0 -102 -93 -179q-12 -9 -22 2l-15 15q-11 12 1 22q70 51 71 120q-17 -7 -40 -7q-30 0 -51 20.5t-21 50.5t22.5 51t56.5 21z" />
    <glyph glyph-name="kgreenlandic" unicode="&#x138;" horiz-adv-x="513" 
d="M54 19v362q0 7 6 13t13 6h111q8 0 13.5 -6t5.5 -13v-153l131 160q12 12 25 12h112q13 0 18 -10t-3 -21l-145 -173l163 -166q8 -10 3 -20t-18 -10h-135q-9 0 -15 8l-136 154v-143q0 -7 -5.5 -13t-13.5 -6h-111q-7 0 -13 6t-6 13z" />
    <glyph glyph-name="Lacute" unicode="&#x139;" horiz-adv-x="511" 
d="M86 19v662q0 8 5.5 13.5t13.5 5.5h119q8 0 13.5 -6t5.5 -13v-534h238q8 0 13.5 -5.5t5.5 -13.5v-109q0 -8 -5.5 -13.5t-13.5 -5.5h-376q-8 0 -13.5 5.5t-5.5 13.5zM92 762q-17 -11 -27 9l-21 42q-5 10 6 19l170 104q4 4 13.5 3.5t12.5 -6.5l34 -59q10 -20 -6 -30z" />
    <glyph glyph-name="lacute" unicode="&#x13a;" horiz-adv-x="256" 
d="M54 19v662q0 7 6 13t13 6h110q7 0 13 -6t6 -13v-662q0 -7 -6 -13t-13 -6h-110q-7 0 -13 6t-6 13zM54 729q-17 -11 -27 9l-21 42q-5 10 6 19l170 104q4 4 13.5 3.5t12.5 -6.5l34 -59q10 -20 -6 -30z" />
    <glyph glyph-name="Lcommaaccent" unicode="&#x13b;" horiz-adv-x="511" 
d="M86 19v662q0 8 5.5 13.5t13.5 5.5h119q8 0 13.5 -6t5.5 -13v-534h238q8 0 13.5 -5.5t5.5 -13.5v-109q0 -8 -5.5 -13.5t-13.5 -5.5h-376q-8 0 -13.5 5.5t-5.5 13.5zM302 -90q35 0 63 -28.5t28 -87.5q0 -102 -93 -179q-12 -9 -22 2l-15 15q-11 12 1 22q70 51 71 120
q-17 -7 -40 -7q-30 0 -51 20.5t-21 50.5t22.5 51t56.5 21z" />
    <glyph glyph-name="lcommaaccent" unicode="&#x13c;" horiz-adv-x="256" 
d="M54 19v662q0 7 6 13t13 6h110q7 0 13 -6t6 -13v-662q0 -7 -6 -13t-13 -6h-110q-7 0 -13 6t-6 13zM122 -90q35 0 63 -28.5t28 -87.5q0 -102 -93 -179q-12 -9 -22 2l-15 15q-11 12 1 22q70 51 71 120q-17 -7 -40 -7q-30 0 -51 20.5t-21 50.5t22.5 51t56.5 21z" />
    <glyph glyph-name="Lcaron" unicode="&#x13d;" horiz-adv-x="511" 
d="M86 19v662q0 8 5.5 13.5t13.5 5.5h119q8 0 13.5 -6t5.5 -13v-534h238q8 0 13.5 -5.5t5.5 -13.5v-109q0 -8 -5.5 -13.5t-13.5 -5.5h-376q-8 0 -13.5 5.5t-5.5 13.5zM388 710q35 0 63 -28.5t28 -87.5q0 -102 -93 -179q-12 -9 -22 2l-15 15q-11 12 1 22q70 51 71 120
q-17 -7 -40 -7q-30 0 -51 20.5t-21 50.5t22.5 51t56.5 21z" />
    <glyph glyph-name="lcaron" unicode="&#x13e;" horiz-adv-x="296" 
d="M54 19v662q0 7 6 13t13 6h110q7 0 13 -6t6 -13v-662q0 -7 -6 -13t-13 -6h-110q-7 0 -13 6t-6 13zM328 417l-15 15q-11 12 1 22q70 51 71 120q-17 -7 -40 -7q-30 0 -51 20.5t-21 50.5t22.5 51t56.5 21q35 0 63 -28.5t28 -87.5q0 -102 -93 -179q-12 -9 -22 2z" />
    <glyph glyph-name="Ldot" unicode="&#x13f;" horiz-adv-x="574" 
d="M86 19v662q0 8 5.5 13.5t13.5 5.5h119q8 0 13.5 -6t5.5 -13v-534h238q8 0 13.5 -5.5t5.5 -13.5v-109q0 -8 -5.5 -13.5t-13.5 -5.5h-376q-8 0 -13.5 5.5t-5.5 13.5zM475 281q-33 0 -56 23t-23 56t23 56.5t56 23.5t56.5 -23.5t23.5 -56.5t-23.5 -56t-56.5 -23z" />
    <glyph glyph-name="ldot" unicode="&#x140;" horiz-adv-x="452" 
d="M54 19v662q0 7 6 13t13 6h110q7 0 13 -6t6 -13v-662q0 -7 -6 -13t-13 -6h-110q-7 0 -13 6t-6 13zM343 281q-33 0 -56 23t-23 56t23 56.5t56 23.5t56.5 -23.5t23.5 -56.5t-23.5 -56t-56.5 -23z" />
    <glyph glyph-name="Lslash" unicode="&#x141;" horiz-adv-x="527" 
d="M102 19v285l-23 -13q-17 -9 -26 7l-8 15q-10 16 6 25l51 29v314q0 8 5.5 13.5t13.5 5.5h119q8 0 13.5 -6t5.5 -13v-223l75 44q17 9 26 -7l9 -16q9 -14 -7 -25l-103 -60v-247h238q8 0 13.5 -5.5t5.5 -13.5v-109q0 -8 -5.5 -13.5t-13.5 -5.5h-376q-8 0 -13.5 5.5t-5.5 13.5
z" />
    <glyph glyph-name="lslash" unicode="&#x142;" horiz-adv-x="269" 
d="M67 19v287l-26 -15q-17 -9 -26 7l-8 15q-10 16 6 25l54 31v312q0 7 5.5 13t13.5 6h110q8 0 13.5 -6t5.5 -13v-225l50 30q17 9 26 -7l9 -16q9 -14 -7 -25l-78 -46v-373q0 -7 -5.5 -13t-13.5 -6h-110q-8 0 -13.5 6t-5.5 13z" />
    <glyph glyph-name="Nacute" unicode="&#x143;" horiz-adv-x="773" 
d="M86 19l-1 673q0 7 5.5 12.5t13.5 5.5h25l399 -384h1v355q0 8 5.5 13.5t13.5 5.5h120q8 0 13.5 -6t5.5 -13v-673q0 -7 -5.5 -12.5t-13.5 -5.5h-16q-8 0 -13 5l-395 397h-1v-373q0 -8 -5.5 -13.5t-13.5 -5.5h-119q-7 0 -13 6t-6 13zM317 762q-17 -11 -27 9l-21 42
q-5 10 6 19l170 104q4 4 13.5 3.5t12.5 -6.5l34 -59q11 -20 -6 -30z" />
    <glyph glyph-name="nacute" unicode="&#x144;" horiz-adv-x="528" 
d="M54 19v362q0 8 5.5 13.5t13.5 5.5h47q13 0 18 -12l16 -40q57 62 141 62q89 0 139.5 -59.5t50.5 -149.5v-182q0 -7 -5.5 -13t-13.5 -6h-107q-8 0 -13.5 5.5t-5.5 13.5v187q0 32 -18 53.5t-50 21.5q-31 0 -53.5 -20t-22.5 -50v-192q0 -19 -18 -19h-105q-7 0 -13 6t-6 13z
M205 512q-17 -11 -27 9l-21 42q-5 10 6 19l170 104q4 4 13.5 3.5t12.5 -6.5l34 -59q11 -20 -6 -30z" />
    <glyph glyph-name="Ncommaaccent" unicode="&#x145;" horiz-adv-x="773" 
d="M86 19l-1 673q0 7 5.5 12.5t13.5 5.5h25l399 -384h1v355q0 8 5.5 13.5t13.5 5.5h120q8 0 13.5 -6t5.5 -13v-673q0 -7 -5.5 -12.5t-13.5 -5.5h-16q-8 0 -13 5l-395 397h-1v-373q0 -8 -5.5 -13.5t-13.5 -5.5h-119q-7 0 -13 6t-6 13zM404 -90q35 0 63 -28.5t28 -87.5
q0 -102 -93 -179q-12 -9 -22 2l-15 15q-11 12 1 22q70 51 71 120q-17 -7 -40 -7q-30 0 -51 20.5t-21 50.5t22.5 51t56.5 21z" />
    <glyph glyph-name="ncommaaccent" unicode="&#x146;" horiz-adv-x="529" 
d="M54 19v362q0 8 5.5 13.5t13.5 5.5h47q13 0 18 -12l16 -40q57 62 141 62q89 0 139.5 -59.5t50.5 -149.5v-182q0 -7 -5.5 -13t-13.5 -6h-107q-8 0 -13.5 5.5t-5.5 13.5v187q0 32 -18 53.5t-50 21.5q-31 0 -53.5 -20t-22.5 -50v-192q0 -19 -18 -19h-105q-7 0 -13 6t-6 13z
M268 -90q35 0 63 -28.5t28 -87.5q0 -102 -93 -179q-12 -9 -22 2l-15 15q-11 12 1 22q70 51 71 120q-17 -7 -40 -7q-30 0 -51 20.5t-21 50.5t22.5 51t56.5 21z" />
    <glyph glyph-name="Ncaron" unicode="&#x147;" horiz-adv-x="773" 
d="M86 19l-1 673q0 7 5.5 12.5t13.5 5.5h25l399 -384h1v355q0 8 5.5 13.5t13.5 5.5h120q8 0 13.5 -6t5.5 -13v-673q0 -7 -5.5 -12.5t-13.5 -5.5h-16q-8 0 -13 5l-395 397h-1v-373q0 -8 -5.5 -13.5t-13.5 -5.5h-119q-7 0 -13 6t-6 13zM377 762l-138 104q-11 9 -6 19l34 46
q9 12 21 5l99 -58l100 58q13 7 22 -4l33 -47q6 -9 -6 -19l-135 -104q-11 -8 -24 0z" />
    <glyph glyph-name="ncaron" unicode="&#x148;" horiz-adv-x="528" 
d="M54 19v362q0 8 5.5 13.5t13.5 5.5h47q13 0 18 -12l16 -40q57 62 141 62q89 0 139.5 -59.5t50.5 -149.5v-182q0 -7 -5.5 -13t-13.5 -6h-107q-8 0 -13.5 5.5t-5.5 13.5v187q0 32 -18 53.5t-50 21.5q-31 0 -53.5 -20t-22.5 -50v-192q0 -19 -18 -19h-105q-7 0 -13 6t-6 13z
M263 512l-138 104q-11 9 -6 19l34 46q9 12 21 5l99 -58l100 58q13 7 22 -4l33 -47q6 -9 -6 -19l-135 -104q-11 -8 -24 0z" />
    <glyph glyph-name="napostrophe" unicode="&#x149;" horiz-adv-x="528" 
d="M54 19v362q0 8 5.5 13.5t13.5 5.5h47q13 0 18 -12l16 -40q57 62 141 62q89 0 139.5 -59.5t50.5 -149.5v-182q0 -7 -5.5 -13t-13.5 -6h-107q-8 0 -13.5 5.5t-5.5 13.5v187q0 32 -18 53.5t-50 21.5q-31 0 -53.5 -20t-22.5 -50v-192q0 -19 -18 -19h-105q-7 0 -13 6t-6 13z
M-60 710q35 0 63 -28.5t28 -87.5q0 -102 -93 -179q-12 -9 -22 2l-15 15q-11 12 1 22q70 51 71 120q-17 -7 -40 -7q-30 0 -51 20.5t-21 50.5t22.5 51t56.5 21z" />
    <glyph glyph-name="Eng" unicode="&#x14a;" horiz-adv-x="773" 
d="M86 19l-1 673q0 7 5.5 12.5t13.5 5.5h25l399 -390h1v361q0 8 5.5 13.5t13.5 5.5h120q8 0 13.5 -6t5.5 -13l-1 -773q0 -102 -56.5 -160t-146.5 -58q-36 0 -72 12t-50 26q-12 10 -4 23l42 83q2 5 9.5 7.5t13.5 -0.5q30 -16 52 -16q61 0 61 83v194l-291 290h-1v-373
q0 -8 -5.5 -13.5t-13.5 -5.5h-119q-7 0 -13 6t-6 13z" />
    <glyph glyph-name="eng" unicode="&#x14b;" horiz-adv-x="528" 
d="M54 19v362q0 8 5.5 13.5t13.5 5.5h47q13 0 18 -12l16 -40q57 62 141 62q89 0 139.5 -59.5t50.5 -149.5v-293q0 -102 -56.5 -160t-146.5 -58q-36 0 -72 12t-50 26q-12 10 -4 23l42 83q2 5 9.5 7.5t13.5 -0.5q30 -16 52 -16q33 0 50 22.5t17 60.5v293q0 31 -17.5 51
t-50.5 20q-31 0 -53.5 -18t-22.5 -48v-187q0 -19 -18 -19h-105q-7 0 -13 6t-6 13z" />
    <glyph glyph-name="Omacron" unicode="&#x14c;" horiz-adv-x="789" 
d="M35 349q0 150 104.5 255.5t254.5 105.5t255 -105.5t105 -255.5t-105 -254.5t-255 -104.5t-254.5 104.5t-104.5 254.5zM195 349q0 -82 58.5 -140.5t140.5 -58.5t141 58.5t59 140.5q0 83 -59 142t-141 59t-140.5 -59t-58.5 -142zM266 801q-8 0 -13.5 5t-5.5 13v41
q0 19 19 19h256q19 0 19 -19v-41q0 -8 -5.5 -13t-13.5 -5h-256z" />
    <glyph glyph-name="omacron" unicode="&#x14d;" horiz-adv-x="462" 
d="M23 201q0 85 61.5 147t146.5 62t146.5 -62t61.5 -147q0 -86 -61.5 -148.5t-146.5 -62.5t-146.5 62.5t-61.5 148.5zM152 201q0 -34 23 -58t56 -24t56 24t23 58q0 33 -23 56.5t-56 23.5t-56 -23.5t-23 -56.5zM103 563q-8 0 -13.5 5t-5.5 13v41q0 19 19 19h256q19 0 19 -19
v-41q0 -8 -5.5 -13t-13.5 -5h-256z" />
    <glyph glyph-name="Obreve" unicode="&#x14e;" horiz-adv-x="789" 
d="M35 349q0 150 104.5 255.5t254.5 105.5t255 -105.5t105 -255.5t-105 -254.5t-255 -104.5t-254.5 104.5t-104.5 254.5zM195 349q0 -82 58.5 -140.5t140.5 -58.5t141 58.5t59 140.5q0 83 -59 142t-141 59t-140.5 -59t-58.5 -142zM394 763q-55 0 -94.5 34t-47.5 86
q-2 9 3.5 15.5t15.5 6.5h45q13 0 17 -12q7 -21 23.5 -34.5t37.5 -13.5q19 0 35.5 14.5t23.5 33.5q3 12 17 12h47q9 0 14.5 -6.5t4.5 -15.5q-8 -52 -48 -86t-94 -34z" />
    <glyph glyph-name="obreve" unicode="&#x14f;" horiz-adv-x="462" 
d="M23 201q0 85 61.5 147t146.5 62t146.5 -62t61.5 -147q0 -86 -61.5 -148.5t-146.5 -62.5t-146.5 62.5t-61.5 148.5zM152 201q0 -34 23 -58t56 -24t56 24t23 58q0 33 -23 56.5t-56 23.5t-56 -23.5t-23 -56.5zM231 527q-55 0 -94.5 34t-47.5 86q-2 9 3.5 15.5t15.5 6.5h45
q13 0 17 -12q7 -21 23.5 -34.5t37.5 -13.5q19 0 35.5 14.5t23.5 33.5q3 12 17 12h47q9 0 14.5 -6.5t4.5 -15.5q-8 -52 -48 -86t-94 -34z" />
    <glyph glyph-name="Ohungarumlaut" unicode="&#x150;" horiz-adv-x="789" 
d="M35 349q0 150 104.5 255.5t254.5 105.5t255 -105.5t105 -255.5t-105 -254.5t-255 -104.5t-254.5 104.5t-104.5 254.5zM195 349q0 -82 58.5 -140.5t140.5 -58.5t141 58.5t59 140.5q0 83 -59 142t-141 59t-140.5 -59t-58.5 -142zM465 768q-8 0 -14.5 6t-4.5 13l30 141
q6 19 19 19h94q14 0 19 -8t-1 -17l-78 -139q-11 -15 -18 -15h-46zM299 768q-8 0 -14.5 6t-4.5 13l30 141q6 19 19 19h94q14 0 19 -7.5t-1 -17.5l-78 -139q-7 -15 -18 -15h-46z" />
    <glyph glyph-name="ohungarumlaut" unicode="&#x151;" horiz-adv-x="462" 
d="M23 201q0 85 61.5 147t146.5 62t146.5 -62t61.5 -147q0 -86 -61.5 -148.5t-146.5 -62.5t-146.5 62.5t-61.5 148.5zM152 201q0 -34 23 -58t56 -24t56 24t23 58q0 33 -23 56.5t-56 23.5t-56 -23.5t-23 -56.5zM296 521q-8 0 -14.5 6t-4.5 13l30 141q6 19 19 19h94
q14 0 19 -8t-1 -17l-78 -139q-11 -15 -18 -15h-46zM130 521q-8 0 -14.5 6t-4.5 13l30 141q6 19 19 19h94q14 0 19 -7.5t-1 -17.5l-78 -139q-8 -15 -18 -15h-46z" />
    <glyph glyph-name="OE" unicode="&#x152;" horiz-adv-x="978" 
d="M35 349q0 150 104.5 255.5t254.5 105.5q23 0 49 -2.5t40 -5.5l14 -2h414q8 0 13.5 -5.5t5.5 -13.5v-109q0 -8 -5.5 -13.5t-13.5 -5.5h-277v-124h228q8 0 13.5 -5.5t5.5 -13.5v-109q0 -8 -5.5 -13.5t-13.5 -5.5h-228v-135h277q8 0 13.5 -5.5t5.5 -13.5v-109
q0 -8 -5.5 -13.5t-13.5 -5.5h-414q-53 -10 -103 -10q-150 0 -254.5 104.5t-104.5 254.5zM195 349q0 -82 59 -142t140 -60q49 0 84 16v373q-35 16 -84 16q-82 0 -140.5 -60t-58.5 -143z" />
    <glyph glyph-name="oe" unicode="&#x153;" horiz-adv-x="710" 
d="M24 202q0 85 61.5 146.5t146.5 61.5q74 0 134 -52q58 52 136 52t134 -53.5t56 -134.5q0 -13 -2 -27q-2 -17 -19 -17h-240q3 -25 22.5 -46t54.5 -21q36 0 68 24q16 11 25 0q7 -8 23.5 -27.5t28.5 -31.5q14 -14 1 -27q-59 -59 -150 -59q-79 0 -138 51q-57 -51 -134 -51
q-85 0 -146.5 63t-61.5 149zM444 256h107q-1 19 -17 33t-36 14t-35.5 -13.5t-18.5 -33.5zM153 202q0 -34 23 -58.5t56 -24.5t56 24.5t23 58.5q0 33 -23 56t-56 23t-56 -23t-23 -56z" />
    <glyph glyph-name="Racute" unicode="&#x154;" horiz-adv-x="670" 
d="M86 19v662q0 8 5.5 13.5t13.5 5.5h299q90 0 154 -63.5t64 -152.5q0 -67 -40.5 -120.5t-107.5 -80.5l137 -254q6 -10 0.5 -19.5t-17.5 -9.5h-133q-11 0 -16 9l-133 265h-69v-255q0 -7 -5.5 -13t-13.5 -6h-119q-8 0 -13.5 5.5t-5.5 13.5zM243 401h148q31 0 53.5 24t22.5 56
q0 31 -22.5 53.5t-53.5 22.5h-148v-156zM253 762q-17 -11 -27 9l-21 42q-5 10 6 19l170 104q4 4 13.5 3.5t12.5 -6.5l34 -59q11 -20 -6 -30z" />
    <glyph glyph-name="racute" unicode="&#x155;" horiz-adv-x="345" 
d="M54 19v362q0 8 5.5 13.5t13.5 5.5h47q12 0 18 -12l18 -44q46 66 109 66q27 0 48 -6t30 -16t2 -21l-49 -80q-8 -14 -22 -9q-12 5 -24 5q-23 0 -38 -16t-15 -41v-207q0 -19 -22 -19h-102q-7 0 -13 6t-6 13zM106 512q-17 -11 -27 9l-21 42q-5 10 6 19l170 104q4 4 13.5 3.5
t12.5 -6.5l34 -59q10 -20 -6 -30z" />
    <glyph glyph-name="Rcommaaccent" unicode="&#x156;" horiz-adv-x="669" 
d="M86 19v662q0 8 5.5 13.5t13.5 5.5h299q90 0 154 -63.5t64 -152.5q0 -67 -40.5 -120.5t-107.5 -80.5l137 -254q6 -10 0.5 -19.5t-17.5 -9.5h-133q-11 0 -16 9l-133 265h-69v-255q0 -7 -5.5 -13t-13.5 -6h-119q-8 0 -13.5 5.5t-5.5 13.5zM243 401h148q31 0 53.5 24t22.5 56
q0 31 -22.5 53.5t-53.5 22.5h-148v-156zM343 -90q35 0 63 -28.5t28 -87.5q0 -102 -93 -179q-12 -9 -22 2l-15 15q-11 12 1 22q70 51 71 120q-17 -7 -40 -7q-30 0 -51 20.5t-21 50.5t22.5 51t56.5 21z" />
    <glyph glyph-name="rcommaaccent" unicode="&#x157;" horiz-adv-x="345" 
d="M54 19v362q0 8 5.5 13.5t13.5 5.5h47q12 0 18 -12l18 -44q46 66 109 66q27 0 48 -6t30 -16t2 -21l-49 -80q-8 -14 -22 -9q-12 5 -24 5q-23 0 -38 -16t-15 -41v-207q0 -19 -22 -19h-102q-7 0 -13 6t-6 13zM124 -90q35 0 63 -28.5t28 -87.5q0 -102 -93 -179q-12 -9 -22 2
l-15 15q-11 12 1 22q70 51 71 120q-17 -7 -40 -7q-30 0 -51 20.5t-21 50.5t22.5 51t56.5 21z" />
    <glyph glyph-name="Rcaron" unicode="&#x158;" horiz-adv-x="670" 
d="M86 19v662q0 8 5.5 13.5t13.5 5.5h299q90 0 154 -63.5t64 -152.5q0 -67 -40.5 -120.5t-107.5 -80.5l137 -254q6 -10 0.5 -19.5t-17.5 -9.5h-133q-11 0 -16 9l-133 265h-69v-255q0 -7 -5.5 -13t-13.5 -6h-119q-8 0 -13.5 5.5t-5.5 13.5zM243 401h148q31 0 53.5 24t22.5 56
q0 31 -22.5 53.5t-53.5 22.5h-148v-156zM313 762l-138 104q-11 9 -6 19l34 46q9 12 21 5l99 -58l100 58q13 7 22 -4l33 -47q6 -9 -6 -19l-135 -104q-11 -8 -24 0z" />
    <glyph glyph-name="rcaron" unicode="&#x159;" horiz-adv-x="345" 
d="M54 19v362q0 8 5.5 13.5t13.5 5.5h47q12 0 18 -12l18 -44q46 66 109 66q27 0 48 -6t30 -16t2 -21l-49 -80q-8 -14 -22 -9q-12 5 -24 5q-23 0 -38 -16t-15 -41v-207q0 -19 -22 -19h-102q-7 0 -13 6t-6 13zM166 512l-138 104q-11 9 -6 19l34 46q9 12 21 5l99 -58l100 58
q13 7 22 -4l33 -47q6 -9 -6 -19l-135 -104q-11 -8 -24 0z" />
    <glyph glyph-name="Sacute" unicode="&#x15a;" horiz-adv-x="548" 
d="M51 67q-8 8 -9 12.5t4 15.5l47 83q5 9 17 10t17 -4l7 -4q7 -5 16.5 -11t24 -13t29 -13t32 -10t33.5 -4q30 0 49.5 17t19.5 43q0 60 -103 101q-194 77 -194 221q0 81 61 140t170 59q112 0 214 -75q8 -5 9 -16t-3 -16l-51 -77q-6 -9 -16.5 -13.5t-17.5 0.5q-1 0 -12 8
t-25 15.5t-31.5 16.5t-37.5 14.5t-37 5.5q-27 0 -45 -15t-18 -36q0 -28 25 -50.5t84 -46.5q202 -80 202 -228q0 -82 -65.5 -144.5t-170.5 -62.5q-85 0 -141.5 25t-83.5 52zM202 762q-17 -11 -27 9l-21 42q-5 10 6 19l170 104q4 4 13.5 3.5t12.5 -6.5l34 -59q10 -20 -6 -30z
" />
    <glyph glyph-name="sacute" unicode="&#x15b;" horiz-adv-x="371" 
d="M40 23q-13 11 -7 21l35 69q2 5 8.5 8t12.5 0q47 -26 90 -26q19 0 19 18q0 22 -57 42q-112 39 -112 134q0 53 39.5 87t116.5 34q84 0 133 -31q18 -12 10 -25l-37 -68q-6 -12 -21 -6q-46 23 -85 23q-22 0 -22 -14q0 -16 45 -32q69 -24 103 -54t34 -86q0 -55 -44 -91
t-125 -36q-95 0 -136 33zM116 512q-17 -11 -27 9l-21 42q-5 10 6 19l170 104q4 4 13.5 3.5t12.5 -6.5l34 -59q10 -20 -6 -30z" />
    <glyph glyph-name="Scircumflex" unicode="&#x15c;" horiz-adv-x="548" 
d="M51 67q-8 8 -9 12.5t4 15.5l47 83q5 9 17 10t17 -4l7 -4q7 -5 16.5 -11t24 -13t29 -13t32 -10t33.5 -4q30 0 49.5 17t19.5 43q0 60 -103 101q-194 77 -194 221q0 81 61 140t170 59q112 0 214 -75q8 -5 9 -16t-3 -16l-51 -77q-6 -9 -16.5 -13.5t-17.5 0.5q-1 0 -12 8
t-25 15.5t-31.5 16.5t-37.5 14.5t-37 5.5q-27 0 -45 -15t-18 -36q0 -28 25 -50.5t84 -46.5q202 -80 202 -228q0 -82 -65.5 -144.5t-170.5 -62.5q-85 0 -141.5 25t-83.5 52zM174 762q-13 -7 -22 4l-33 47q-6 9 6 19l135 104q11 8 24 0l138 -104q11 -9 6 -19l-34 -46
q-9 -12 -21 -5l-99 58z" />
    <glyph glyph-name="scircumflex" unicode="&#x15d;" horiz-adv-x="371" 
d="M40 23q-13 11 -7 21l35 69q2 5 8.5 8t12.5 0q47 -26 90 -26q19 0 19 18q0 22 -57 42q-112 39 -112 134q0 53 39.5 87t116.5 34q84 0 133 -31q18 -12 10 -25l-37 -68q-6 -12 -21 -6q-46 23 -85 23q-22 0 -22 -14q0 -16 45 -32q69 -24 103 -54t34 -86q0 -55 -44 -91
t-125 -36q-95 0 -136 33zM87 512q-13 -7 -22 4l-33 47q-6 9 6 19l135 104q11 8 24 0l138 -104q11 -9 6 -19l-34 -46q-9 -12 -21 -5l-99 58z" />
    <glyph glyph-name="Scedilla" unicode="&#x15e;" horiz-adv-x="550" 
d="M52 67q-8 8 -9 12.5t4 15.5l47 83q5 9 17 10t17 -4l7 -4q7 -5 16.5 -11t24 -13t29 -13t32 -10t33.5 -4q30 0 49.5 17t19.5 43q0 60 -103 101q-194 77 -194 221q0 81 61 140t170 59q112 0 214 -75q8 -5 9 -16t-3 -16l-51 -77q-6 -9 -16.5 -13.5t-17.5 0.5q-1 0 -12 8
t-25 15.5t-31.5 16.5t-37.5 14.5t-37 5.5q-27 0 -45 -15t-18 -36q0 -28 25 -50.5t84 -46.5q202 -80 202 -228q0 -81 -64 -143t-167 -64v-42q45 -6 68.5 -33t23.5 -69q0 -44 -31 -75t-75 -31q-46 0 -76 35q-13 14 4 29l23 20q11 11 21 -2q6 -9 24 -9q12 0 21 10t9 22
q0 39 -68 42q-17 2 -17 18v91q-104 15 -157 71z" />
    <glyph glyph-name="scedilla" unicode="&#x15f;" horiz-adv-x="372" 
d="M41 23q-13 11 -7 21l35 69q2 5 8.5 8t12.5 0q47 -26 90 -26q19 0 19 18q0 22 -57 42q-112 39 -112 134q0 53 39.5 87t116.5 34q84 0 133 -31q18 -12 10 -25l-37 -68q-6 -12 -21 -6q-46 23 -85 23q-22 0 -22 -14q0 -16 45 -32q69 -24 103 -54t34 -86q0 -52 -39 -87
t-112 -39v-43q45 -6 68.5 -33t23.5 -69q0 -44 -31 -75t-75 -31q-46 0 -76 35q-13 14 4 29l23 20q11 11 21 -2q6 -9 24 -9q12 0 21 10t9 22q0 39 -68 42q-17 2 -17 18v89q-55 8 -81 29z" />
    <glyph glyph-name="Scaron" unicode="&#x160;" horiz-adv-x="548" 
d="M51 67q-8 8 -9 12.5t4 15.5l47 83q5 9 17 10t17 -4l7 -4q7 -5 16.5 -11t24 -13t29 -13t32 -10t33.5 -4q30 0 49.5 17t19.5 43q0 60 -103 101q-194 77 -194 221q0 81 61 140t170 59q112 0 214 -75q8 -5 9 -16t-3 -16l-51 -77q-6 -9 -16.5 -13.5t-17.5 0.5q-1 0 -12 8
t-25 15.5t-31.5 16.5t-37.5 14.5t-37 5.5q-27 0 -45 -15t-18 -36q0 -28 25 -50.5t84 -46.5q202 -80 202 -228q0 -82 -65.5 -144.5t-170.5 -62.5q-85 0 -141.5 25t-83.5 52zM262 762l-138 104q-11 9 -6 19l34 46q9 12 21 5l99 -58l100 58q13 7 22 -4l33 -47q6 -9 -6 -19
l-135 -104q-11 -8 -24 0z" />
    <glyph glyph-name="scaron" unicode="&#x161;" horiz-adv-x="371" 
d="M40 23q-13 11 -7 21l35 69q2 5 8.5 8t12.5 0q47 -26 90 -26q19 0 19 18q0 22 -57 42q-112 39 -112 134q0 53 39.5 87t116.5 34q84 0 133 -31q18 -12 10 -25l-37 -68q-6 -12 -21 -6q-46 23 -85 23q-22 0 -22 -14q0 -16 45 -32q69 -24 103 -54t34 -86q0 -55 -44 -91
t-125 -36q-95 0 -136 33zM175 512l-138 104q-11 9 -6 19l34 46q9 12 21 5l99 -58l100 58q13 7 22 -4l33 -47q6 -9 -6 -19l-135 -104q-11 -8 -24 0z" />
    <glyph glyph-name="Tcommaaccent" unicode="&#x162;" horiz-adv-x="508" 
d="M175 19v534h-143q-8 0 -13.5 5.5t-5.5 13.5v109q0 8 5.5 13.5t13.5 5.5h444q8 0 13.5 -5.5t5.5 -13.5v-109q0 -8 -5.5 -13.5t-13.5 -5.5h-143v-534q0 -7 -5.5 -13t-13.5 -6h-120q-8 0 -13.5 6t-5.5 13zM243 -90q35 0 63 -28.5t28 -87.5q0 -102 -93 -179q-12 -9 -22 2
l-15 15q-11 12 1 22q70 51 71 120q-17 -7 -40 -7q-30 0 -51 20.5t-21 50.5t22.5 51t56.5 21z" />
    <glyph glyph-name="tcommaaccent" unicode="&#x163;" horiz-adv-x="344" 
d="M70 129v144h-26q-7 0 -12.5 5.5t-5.5 13.5v89q0 8 5 13.5t13 5.5h26v111q0 7 6 13t13 6h107q7 0 12.5 -5.5t5.5 -13.5v-111h74q19 0 19 -19v-89q0 -8 -5.5 -13.5t-13.5 -5.5h-74v-125q0 -24 27 -24q4 0 39 7q18 3 22 -13l22 -83q4 -18 -13 -23q-71 -22 -121 -22
q-57 0 -88.5 35.5t-31.5 103.5zM184 -90q35 0 63 -28.5t28 -87.5q0 -102 -93 -179q-12 -9 -22 2l-15 15q-11 12 1 22q70 51 71 120q-17 -7 -40 -7q-30 0 -51 20.5t-21 50.5t22.5 51t56.5 21z" />
    <glyph glyph-name="Tcaron" unicode="&#x164;" 
d="M176 19v534h-143q-8 0 -13.5 5.5t-5.5 13.5v109q0 8 5.5 13.5t13.5 5.5h444q8 0 13.5 -5.5t5.5 -13.5v-109q0 -8 -5.5 -13.5t-13.5 -5.5h-143v-534q0 -7 -6 -13t-13 -6h-120q-7 0 -13 6t-6 13zM244 762l-138 104q-11 9 -6 19l34 46q9 12 21 5l99 -58l100 58q13 7 22 -4
l33 -47q6 -9 -6 -19l-135 -104q-11 -8 -24 0z" />
    <glyph glyph-name="tcaron" unicode="&#x165;" horiz-adv-x="344" 
d="M70 129v144h-26q-7 0 -12.5 5.5t-5.5 13.5v89q0 8 5 13.5t13 5.5h26v111q0 7 6 13t13 6h107q7 0 12.5 -5.5t5.5 -13.5v-111h74q19 0 19 -19v-89q0 -8 -5.5 -13.5t-13.5 -5.5h-74v-125q0 -24 27 -24q4 0 39 7q18 3 22 -13l22 -83q4 -18 -13 -23q-71 -22 -121 -22
q-57 0 -88.5 35.5t-31.5 103.5zM393 417l-15 15q-11 12 1 22q70 51 71 120q-17 -7 -40 -7q-30 0 -51 20.5t-21 50.5t22.5 51t56.5 21q35 0 63 -28.5t28 -87.5q0 -102 -93 -179q-12 -9 -22 2z" />
    <glyph glyph-name="Tbar" unicode="&#x166;" 
d="M176 19v270h-82q-7 0 -12.5 5.5t-5.5 13.5v17q0 8 5.5 13.5t12.5 5.5h82v209h-143q-8 0 -13.5 5.5t-5.5 13.5v109q0 8 5.5 13.5t13.5 5.5h444q8 0 13.5 -5.5t5.5 -13.5v-109q0 -8 -5.5 -13.5t-13.5 -5.5h-143v-209h87q8 0 13.5 -5.5t5.5 -13.5v-18q0 -8 -5.5 -13
t-13.5 -5h-87v-270q0 -7 -6 -13t-13 -6h-120q-7 0 -13 6t-6 13z" />
    <glyph glyph-name="tbar" unicode="&#x167;" horiz-adv-x="344" 
d="M70 129v39h-26q-7 0 -12.5 5.5t-5.5 13.5v17q0 8 5.5 13.5t12.5 5.5h26v50h-26q-7 0 -12.5 5.5t-5.5 13.5v89q0 8 5 13.5t13 5.5h26v111q0 7 6 13t13 6h107q7 0 12.5 -5.5t5.5 -13.5v-111h74q19 0 19 -19v-89q0 -8 -5.5 -13.5t-13.5 -5.5h-74v-50h74q8 0 13.5 -5.5
t5.5 -13.5v-18q0 -8 -5.5 -13t-13.5 -5h-74v-17q0 -24 29 -24q17 0 37 4q18 3 22 -13l22 -83q2 -18 -13 -23q-71 -22 -121 -22q-57 0 -88.5 35.5t-31.5 103.5z" />
    <glyph glyph-name="Utilde" unicode="&#x168;" horiz-adv-x="722" 
d="M76 268v413q0 7 6 13t13 6h123q8 0 13.5 -5.5t5.5 -13.5v-405q0 -53 35 -89.5t88 -36.5q54 0 89.5 36.5t35.5 89.5v405q0 8 5.5 13.5t13.5 5.5h123q7 0 13 -6t6 -13v-413q0 -114 -84 -196t-202 -82q-117 0 -200.5 82t-83.5 196zM244 785l-35 28q-12 9 -6 23q8 14 20 30.5
t37.5 35t49.5 18.5q25 0 57.5 -23.5t50.5 -23.5t38 31q10 16 25 2l34 -26q14 -10 1 -29q-46 -78 -100 -78q-28 0 -61.5 24t-48.5 24q-8 0 -15 -5.5t-15.5 -17t-9.5 -12.5q-9 -9 -22 -1z" />
    <glyph glyph-name="utilde" unicode="&#x169;" 
d="M45 200v181q0 8 5.5 13.5t13.5 5.5h107q8 0 13.5 -5.5t5.5 -13.5v-185q0 -32 17 -54.5t47 -22.5q28 0 44 21.5t16 49.5v191q0 19 21 19h102q8 0 13.5 -5.5t5.5 -13.5v-362q0 -7 -6 -13t-13 -6h-47q-13 0 -19 14l-15 37q-21 -21 -31 -29t-39.5 -20t-64.5 -12
q-85 0 -130.5 59.5t-45.5 150.5zM136 555l-35 28q-12 9 -6 23q8 14 20 30.5t37.5 35t49.5 18.5q25 0 57.5 -23.5t50.5 -23.5t38 31q10 16 25 2l34 -26q14 -10 1 -29q-46 -78 -100 -78q-28 0 -61.5 24t-48.5 24q-8 0 -15 -5.5t-15.5 -17t-9.5 -12.5q-9 -9 -22 -1z" />
    <glyph glyph-name="Umacron" unicode="&#x16a;" horiz-adv-x="722" 
d="M76 268v413q0 7 6 13t13 6h123q8 0 13.5 -5.5t5.5 -13.5v-405q0 -53 35 -89.5t88 -36.5q54 0 89.5 36.5t35.5 89.5v405q0 8 5.5 13.5t13.5 5.5h123q7 0 13 -6t6 -13v-413q0 -114 -84 -196t-202 -82q-117 0 -200.5 82t-83.5 196zM233 801q-8 0 -13.5 5t-5.5 13v41
q0 19 19 19h256q19 0 19 -19v-41q0 -8 -5.5 -13t-13.5 -5h-256z" />
    <glyph glyph-name="umacron" unicode="&#x16b;" 
d="M45 200v181q0 8 5.5 13.5t13.5 5.5h107q8 0 13.5 -5.5t5.5 -13.5v-185q0 -32 17 -54.5t47 -22.5q28 0 44 21.5t16 49.5v191q0 19 21 19h102q8 0 13.5 -5.5t5.5 -13.5v-362q0 -7 -6 -13t-13 -6h-47q-13 0 -19 14l-15 37q-21 -21 -31 -29t-39.5 -20t-64.5 -12
q-85 0 -130.5 59.5t-45.5 150.5zM125 563q-8 0 -13.5 5t-5.5 13v41q0 19 19 19h256q19 0 19 -19v-41q0 -8 -5.5 -13t-13.5 -5h-256z" />
    <glyph glyph-name="Ubreve" unicode="&#x16c;" horiz-adv-x="722" 
d="M76 268v413q0 7 6 13t13 6h123q8 0 13.5 -5.5t5.5 -13.5v-405q0 -53 35 -89.5t88 -36.5q54 0 89.5 36.5t35.5 89.5v405q0 8 5.5 13.5t13.5 5.5h123q7 0 13 -6t6 -13v-413q0 -114 -84 -196t-202 -82q-117 0 -200.5 82t-83.5 196zM361 763q-55 0 -94.5 34t-47.5 86
q-2 9 3.5 15.5t15.5 6.5h45q13 0 17 -12q7 -21 23.5 -34.5t37.5 -13.5q19 0 35.5 14.5t23.5 33.5q3 12 17 12h47q9 0 14.5 -6.5t4.5 -15.5q-8 -52 -48 -86t-94 -34z" />
    <glyph glyph-name="ubreve" unicode="&#x16d;" 
d="M45 200v181q0 8 5.5 13.5t13.5 5.5h107q8 0 13.5 -5.5t5.5 -13.5v-185q0 -32 17 -54.5t47 -22.5q28 0 44 21.5t16 49.5v191q0 19 21 19h102q8 0 13.5 -5.5t5.5 -13.5v-362q0 -7 -6 -13t-13 -6h-47q-13 0 -19 14l-15 37q-21 -21 -31 -29t-39.5 -20t-64.5 -12
q-85 0 -130.5 59.5t-45.5 150.5zM255 527q-55 0 -94.5 34t-47.5 86q-2 9 3.5 15.5t15.5 6.5h45q13 0 17 -12q7 -21 23.5 -34.5t37.5 -13.5q19 0 35.5 14.5t23.5 33.5q3 12 17 12h47q9 0 14.5 -6.5t4.5 -15.5q-8 -52 -48 -86t-94 -34z" />
    <glyph glyph-name="Uring" unicode="&#x16e;" horiz-adv-x="722" 
d="M76 268v413q0 7 6 13t13 6h123q8 0 13.5 -5.5t5.5 -13.5v-405q0 -53 35 -89.5t88 -36.5q54 0 89.5 36.5t35.5 89.5v405q0 8 5.5 13.5t13.5 5.5h123q7 0 13 -6t6 -13v-413q0 -114 -84 -196t-202 -82q-117 0 -200.5 82t-83.5 196zM361 752q-48 0 -81.5 33.5t-33.5 81.5
t33.5 81.5t81.5 33.5q47 0 81 -33.5t34 -81.5t-34 -81.5t-81 -33.5zM361 823q17 0 30 13.5t13 30.5t-13 30t-30 13t-30.5 -13t-13.5 -30t13.5 -30.5t30.5 -13.5z" />
    <glyph glyph-name="uring" unicode="&#x16f;" 
d="M45 200v181q0 8 5.5 13.5t13.5 5.5h107q8 0 13.5 -5.5t5.5 -13.5v-185q0 -32 17 -54.5t47 -22.5q28 0 44 21.5t16 49.5v191q0 19 21 19h102q8 0 13.5 -5.5t5.5 -13.5v-362q0 -7 -6 -13t-13 -6h-47q-13 0 -19 14l-15 37q-21 -21 -31 -29t-39.5 -20t-64.5 -12
q-85 0 -130.5 59.5t-45.5 150.5zM255 480q-48 0 -81.5 33.5t-33.5 81.5t33.5 81.5t81.5 33.5q47 0 81 -33.5t34 -81.5t-34 -81.5t-81 -33.5zM255 551q17 0 30 13.5t13 30.5t-13 30t-30 13t-30.5 -13t-13.5 -30t13.5 -30.5t30.5 -13.5z" />
    <glyph glyph-name="Uhungarumlaut" unicode="&#x170;" horiz-adv-x="722" 
d="M76 268v413q0 7 6 13t13 6h123q8 0 13.5 -5.5t5.5 -13.5v-405q0 -53 35 -89.5t88 -36.5q54 0 89.5 36.5t35.5 89.5v405q0 8 5.5 13.5t13.5 5.5h123q7 0 13 -6t6 -13v-413q0 -114 -84 -196t-202 -82q-117 0 -200.5 82t-83.5 196zM422 768q-8 0 -14.5 6t-4.5 13l30 141
q6 19 19 19h94q14 0 19 -8t-1 -17l-78 -139q-11 -15 -18 -15h-46zM256 768q-8 0 -14.5 6t-4.5 13l30 141q6 19 19 19h94q14 0 19 -7.5t-1 -17.5l-78 -139q-8 -15 -18 -15h-46z" />
    <glyph glyph-name="uhungarumlaut" unicode="&#x171;" 
d="M45 200v181q0 8 5.5 13.5t13.5 5.5h107q8 0 13.5 -5.5t5.5 -13.5v-185q0 -32 17 -54.5t47 -22.5q28 0 44 21.5t16 49.5v191q0 19 21 19h102q8 0 13.5 -5.5t5.5 -13.5v-362q0 -7 -6 -13t-13 -6h-47q-13 0 -19 14l-15 37q-21 -21 -31 -29t-39.5 -20t-64.5 -12
q-85 0 -130.5 59.5t-45.5 150.5zM322 521q-8 0 -14.5 6t-4.5 13l30 141q6 19 19 19h94q14 0 19 -8t-1 -17l-78 -139q-11 -15 -18 -15h-46zM156 521q-8 0 -14.5 6t-4.5 13l30 141q6 19 19 19h94q14 0 19 -7.5t-1 -17.5l-78 -139q-8 -15 -18 -15h-46z" />
    <glyph glyph-name="Uogonek" unicode="&#x172;" horiz-adv-x="727" 
d="M79 268v413q0 7 5.5 13t13.5 6h123q8 0 13.5 -5.5t5.5 -13.5v-405q0 -53 35 -89.5t88 -36.5q54 0 89.5 36.5t35.5 89.5v405q0 8 5.5 13.5t13.5 5.5h123q8 0 13.5 -6t5.5 -13v-413q0 -107 -75 -186.5t-184 -89.5q-37 -44 -37 -87q0 -29 17.5 -48t52.5 -19q8 0 41 6
q10 1 16 -4.5t6 -14.5v-33q0 -15 -15 -19q-35 -8 -63 -8q-60 0 -99 29t-39 85q0 65 49 114q-103 16 -171.5 94t-68.5 181z" />
    <glyph glyph-name="uogonek" unicode="&#x173;" 
d="M45 200v181q0 8 5.5 13.5t13.5 5.5h107q8 0 13.5 -5.5t5.5 -13.5v-181q0 -32 17 -52.5t47 -20.5q28 0 44 20t16 47v187q0 19 21 19h102q8 0 13.5 -5.5t5.5 -13.5v-362q0 -7 -6 -13t-13 -6h-9q-45 -45 -45 -95q0 -29 17.5 -48t52.5 -19q8 0 41 6q10 1 16 -4.5t6 -14.5v-33
q0 -15 -15 -19q-35 -8 -63 -8q-60 0 -99 29t-39 85q0 35 17.5 68t31 47t22.5 19v1l-15 37q-21 -21 -31 -29t-39.5 -20t-64.5 -12q-85 0 -130.5 59.5t-45.5 150.5z" />
    <glyph glyph-name="Wcircumflex" unicode="&#x174;" horiz-adv-x="896" 
d="M213 4l-189 672q-3 10 2 17t16 7h117q14 0 18 -14l86 -339h4l155 352q6 11 17 11h18q13 0 17 -11l155 -352h4l86 339q4 14 18 14h117q11 0 16 -7t2 -17l-189 -672q-3 -14 -18 -14h-16q-11 0 -17 11l-183 409h-3l-182 -409q-6 -11 -17 -11h-16q-15 0 -18 14zM347 762
q-13 -7 -22 4l-33 47q-6 9 6 19l135 104q11 8 24 0l138 -104q11 -9 6 -19l-34 -46q-9 -12 -21 -5l-99 58z" />
    <glyph glyph-name="wcircumflex" unicode="&#x175;" horiz-adv-x="619" 
d="M143 2l-133 373q-4 10 1.5 17.5t16.5 7.5h95q15 0 18 -12l52 -137h1l95 151q5 8 16 8h10q11 0 15 -8l96 -151h1l51 137q5 12 20 12h93q11 0 16.5 -7.5t1.5 -17.5l-133 -373q-3 -12 -18 -12h-4q-12 0 -16 8l-129 200h-1l-127 -200q-6 -8 -16 -8h-5q-15 0 -17 12zM210 512
q-13 -7 -22 4l-33 47q-6 9 6 19l135 104q11 8 24 0l138 -104q11 -9 6 -19l-34 -46q-9 -12 -21 -5l-99 58z" />
    <glyph glyph-name="Ycircumflex" unicode="&#x176;" horiz-adv-x="590" 
d="M215 19v318l-221 334q-6 10 -1 19.5t17 9.5h130q9 0 16 -9l139 -205l139 205q7 9 16 9h130q12 0 17 -9.5t-1 -19.5l-224 -333v-319q0 -7 -6 -13t-13 -6h-119q-8 0 -13.5 5.5t-5.5 13.5zM196 762q-13 -7 -22 4l-33 47q-6 9 6 19l135 104q11 8 24 0l138 -104q11 -9 6 -19
l-34 -46q-9 -12 -21 -5l-99 58z" />
    <glyph glyph-name="ycircumflex" unicode="&#x177;" horiz-adv-x="465" 
d="M156 41l-150 333q-5 10 0.5 18t16.5 8h114q11 0 17 -11l77 -186h2l79 186q4 11 17 11h113q11 0 16.5 -8t0.5 -18l-306 -662q-6 -12 -17 -12h-112q-11 0 -16.5 8.5t-0.5 18.5zM133 512q-13 -7 -22 4l-33 47q-6 9 6 19l135 104q11 8 24 0l138 -104q11 -9 6 -19l-34 -46
q-9 -12 -21 -5l-99 58z" />
    <glyph glyph-name="Ydieresis" unicode="&#x178;" horiz-adv-x="590" 
d="M215 19v318l-221 334q-6 10 -1 19.5t17 9.5h130q9 0 16 -9l139 -205l139 205q7 9 16 9h130q12 0 17 -9.5t-1 -19.5l-224 -333v-319q0 -7 -6 -13t-13 -6h-119q-8 0 -13.5 5.5t-5.5 13.5zM427 768q-29 0 -49.5 21t-20.5 50t20.5 49.5t49.5 20.5t50 -20.5t21 -49.5t-21 -50
t-50 -21zM162 768q-29 0 -49.5 21t-20.5 50t20.5 49.5t49.5 20.5t50 -20.5t21 -49.5t-21 -50t-50 -21z" />
    <glyph glyph-name="Zacute" unicode="&#x179;" horiz-adv-x="542" 
d="M23 19v18l266 514v2h-218q-7 0 -13 5.5t-6 13.5v109q0 7 6 13t13 6h425q8 0 13.5 -6t5.5 -13v-13l-257 -519v-2h218q8 0 13.5 -5.5t5.5 -13.5v-109q0 -8 -5.5 -13.5t-13.5 -5.5h-434q-8 0 -13.5 6t-5.5 13zM208 762q-17 -11 -27 9l-21 42q-5 10 6 19l170 104
q4 4 13.5 3.5t12.5 -6.5l34 -59q10 -20 -6 -30z" />
    <glyph glyph-name="zacute" unicode="&#x17a;" horiz-adv-x="369" 
d="M28 19v10l117 240v2h-89q-7 0 -12.5 5.5t-5.5 13.5v91q0 8 5 13.5t13 5.5h271q11 0 16.5 -8.5t0.5 -18.5l-126 -243v-2h89q19 0 19 -19v-90q0 -8 -5.5 -13.5t-13.5 -5.5h-260q-7 0 -13 6t-6 13zM125 512q-17 -11 -27 9l-21 42q-5 10 6 19l170 104q4 4 13.5 3.5t12.5 -6.5
l34 -59q11 -20 -6 -30z" />
    <glyph glyph-name="Zdotaccent" unicode="&#x17b;" horiz-adv-x="542" 
d="M23 19v18l266 514v2h-218q-7 0 -13 5.5t-6 13.5v109q0 7 6 13t13 6h425q8 0 13.5 -6t5.5 -13v-13l-257 -519v-2h218q8 0 13.5 -5.5t5.5 -13.5v-109q0 -8 -5.5 -13.5t-13.5 -5.5h-434q-8 0 -13.5 6t-5.5 13zM279 774q-33 0 -56 23t-23 56t23 56.5t56 23.5t56.5 -23.5
t23.5 -56.5t-23.5 -56t-56.5 -23z" />
    <glyph glyph-name="zdotaccent" unicode="&#x17c;" horiz-adv-x="369" 
d="M28 19v10l117 240v2h-89q-7 0 -12.5 5.5t-5.5 13.5v91q0 8 5 13.5t13 5.5h271q11 0 16.5 -8.5t0.5 -18.5l-126 -243v-2h89q19 0 19 -19v-90q0 -8 -5.5 -13.5t-13.5 -5.5h-260q-7 0 -13 6t-6 13zM195 521q-33 0 -56 23t-23 56t23 56.5t56 23.5t56.5 -23.5t23.5 -56.5
t-23.5 -56t-56.5 -23z" />
    <glyph glyph-name="Zcaron" unicode="&#x17d;" horiz-adv-x="542" 
d="M23 19v18l266 514v2h-218q-7 0 -13 5.5t-6 13.5v109q0 7 6 13t13 6h425q8 0 13.5 -6t5.5 -13v-13l-257 -519v-2h218q8 0 13.5 -5.5t5.5 -13.5v-109q0 -8 -5.5 -13.5t-13.5 -5.5h-434q-8 0 -13.5 6t-5.5 13zM268 762l-138 104q-11 9 -6 19l34 46q9 12 21 5l99 -58l100 58
q13 7 22 -4l33 -47q6 -9 -6 -19l-135 -104q-11 -8 -24 0z" />
    <glyph glyph-name="zcaron" unicode="&#x17e;" horiz-adv-x="369" 
d="M28 19v10l117 240v2h-89q-7 0 -12.5 5.5t-5.5 13.5v91q0 8 5 13.5t13 5.5h271q11 0 16.5 -8.5t0.5 -18.5l-126 -243v-2h89q19 0 19 -19v-90q0 -8 -5.5 -13.5t-13.5 -5.5h-260q-7 0 -13 6t-6 13zM185 512l-138 104q-11 9 -6 19l34 46q9 12 21 5l99 -58l100 58q13 7 22 -4
l33 -47q6 -9 -6 -19l-135 -104q-11 -8 -24 0z" />
    <glyph glyph-name="florin" unicode="&#x192;" horiz-adv-x="398" 
d="M117 -92v365h-81q-8 0 -13.5 5.5t-5.5 13.5v89q0 19 19 19h81v93q0 101 58.5 159t155.5 58q64 0 111 -38q12 -12 4 -25l-48 -79q-9 -14 -23 -7q-25 11 -42 11q-28 0 -45.5 -20t-17.5 -60v-92h92q19 0 19 -19v-89q0 -8 -5.5 -13.5t-13.5 -5.5h-92v-366q0 -100 -60 -158.5
t-154 -58.5q-64 0 -111 38q-12 12 -4 25l48 79q9 14 23 7q25 -11 42 -11q28 0 45.5 20.5t17.5 59.5z" />
    <glyph glyph-name="Aringacute" unicode="&#x1fa;" horiz-adv-x="662" 
d="M260 875q-17 -11 -27 9l-21 42q-5 10 6 19l170 104q4 4 13.5 3.5t12.5 -6.5l34 -59q10 -20 -6 -30zM13 0q-11 0 -16.5 8t-0.5 18l291 626q-32 13 -51.5 42t-19.5 65q0 48 33.5 81.5t81.5 33.5q47 0 81 -33.5t34 -81.5q0 -36 -20 -65t-52 -42l292 -626q5 -10 -0.5 -18
t-16.5 -8h-111q-23 0 -35 25l-36 79h-272l-36 -80q-10 -24 -36 -24h-110zM331 715q17 0 30 13.5t13 30.5t-13 30t-30 13t-30.5 -13t-13.5 -30t13.5 -30.5t30.5 -13.5zM255 240h152l-76 165h-1z" />
    <glyph glyph-name="aringacute" unicode="&#x1fb;" horiz-adv-x="429" 
d="M27 122q0 59 40 96.5t107 37.5q20 0 39 -4t29 -8l9 -4q0 32 -10 45.5t-44 13.5q-51 0 -100 -15q-20 -7 -24 21l-9 63q-4 21 15 27q10 3 54 9t79 6q92 0 130.5 -40t38.5 -130v-221q0 -7 -5.5 -13t-13.5 -6h-44q-12 0 -18 13l-14 27q-55 -50 -121 -50q-60 0 -99 36.5
t-39 95.5zM157 132q0 -18 12.5 -31t30.5 -13t31 13t13 31q-1 17 -13.5 29.5t-30.5 12.5t-30.5 -12.5t-12.5 -29.5zM219 429q-48 0 -81.5 33.5t-33.5 81.5t33.5 81.5t81.5 33.5q47 0 81 -33.5t34 -81.5t-34 -81.5t-81 -33.5zM219 500q17 0 30 13.5t13 30.5t-13 30t-30 13
t-30.5 -13t-13.5 -30t13.5 -30.5t30.5 -13.5zM148 661q-17 -11 -27 9l-21 42q-5 10 6 19l170 104q4 4 13.5 3.5t12.5 -6.5l34 -59q10 -20 -6 -30z" />
    <glyph glyph-name="AEacute" unicode="&#x1fc;" horiz-adv-x="898" 
d="M-3 0q-11 0 -14.5 8t2.5 18l401 643q15 24 25 28q7 3 19 3h401q8 0 13.5 -5.5t5.5 -13.5v-109q0 -8 -5.5 -13.5t-13.5 -5.5h-277v-124h228q8 0 13.5 -5.5t5.5 -13.5v-109q0 -8 -5.5 -13.5t-13.5 -5.5h-228v-135h277q8 0 13.5 -5.5t5.5 -13.5v-109q0 -8 -5.5 -13.5
t-13.5 -5.5h-414q-8 0 -13.5 5.5t-5.5 13.5v85h-184l-53 -87q-10 -17 -29 -17h-135zM288 240h110v177zM536 763q-17 -11 -27 9l-21 42q-5 10 6 19l170 104q4 4 13.5 3.5t12.5 -6.5l34 -59q10 -20 -6 -30z" />
    <glyph glyph-name="aeacute" unicode="&#x1fd;" horiz-adv-x="661" 
d="M26 123q0 57 40 95t109 38q18 0 37 -4t29 -8l10 -4q1 34 -11 48t-43 14q-38 0 -100 -12q-19 -2 -23 16l-11 69q-1 7 4 13t12 7q79 15 133 15q88 0 126 -35q52 35 115 35q78 0 134 -53.5t56 -134.5q0 -44 -21 -44h-240q3 -25 22.5 -46t54.5 -21q36 0 68 24q16 11 25 0
l52 -59q14 -14 1 -27q-59 -59 -150 -59q-93 0 -150 65q-9 -12 -24 -24.5t-47.5 -26.5t-68.5 -14q-63 0 -101 37t-38 96zM395 256h107q-1 19 -17 33t-36 14t-35.5 -13.5t-18.5 -33.5zM157 132q0 -18 12.5 -31t30.5 -13t31 13t13 31q-1 17 -13.5 29.5t-30.5 12.5t-30.5 -12.5
t-12.5 -29.5zM309 512q-17 -11 -27 9l-21 42q-5 10 6 19l170 104q4 4 13.5 3.5t12.5 -6.5l34 -59q11 -20 -6 -30z" />
    <glyph glyph-name="Oslashacute" unicode="&#x1fe;" horiz-adv-x="796" 
d="M57 23q-13 13 -1 26l67 66q-85 101 -85 234q0 150 104.5 255.5t254.5 105.5q133 0 235 -87l70 69q12 14 26 0l12 -12q14 -12 0 -26l-70 -70q87 -102 87 -235q0 -150 -105 -254.5t-255 -104.5q-136 0 -235 86l-67 -66q-13 -12 -26 1zM238 230l280 279q-56 41 -121 41
q-82 0 -140.5 -59t-58.5 -142q0 -66 40 -119zM277 191q52 -41 120 -41q82 0 141 58.5t59 140.5q0 69 -41 121zM326 762q-17 -11 -27 9l-21 42q-5 10 6 19l170 104q4 4 13.5 3.5t12.5 -6.5l34 -59q10 -20 -6 -30z" />
    <glyph glyph-name="oslashacute" unicode="&#x1ff;" horiz-adv-x="470" 
d="M44 21q-5 5 -5.5 13t4.5 13l25 25q-43 56 -43 130q0 85 61.5 146.5t146.5 61.5q69 0 126 -44l28 28q12 14 26 0l12 -12q14 -12 0 -26l-28 -28q44 -57 44 -126q0 -86 -61.5 -149t-146.5 -63q-70 0 -126 43l-25 -25q-12 -12 -26 1zM161 168l106 106q-14 7 -34 7
q-33 0 -56 -23t-23 -56q0 -20 7 -34zM199 126q14 -7 34 -7q33 0 56 24.5t23 58.5q0 16 -7 33zM160 512q-17 -11 -27 9l-21 42q-5 10 6 19l170 104q4 4 13.5 3.5t12.5 -6.5l34 -59q10 -20 -6 -30z" />
    <glyph glyph-name="Scommaaccent" unicode="&#x218;" horiz-adv-x="548" 
d="M51 67q-8 8 -9 12.5t4 15.5l47 83q5 9 17 10t17 -4l7 -4q7 -5 16.5 -11t24 -13t29 -13t32 -10t33.5 -4q30 0 49.5 17t19.5 43q0 60 -103 101q-194 77 -194 221q0 81 61 140t170 59q112 0 214 -75q8 -5 9 -16t-3 -16l-51 -77q-6 -9 -16.5 -13.5t-17.5 0.5q-1 0 -12 8
t-25 15.5t-31.5 16.5t-37.5 14.5t-37 5.5q-27 0 -45 -15t-18 -36q0 -28 25 -50.5t84 -46.5q202 -80 202 -228q0 -82 -65.5 -144.5t-170.5 -62.5q-85 0 -141.5 25t-83.5 52zM285 -90q35 0 63 -28.5t28 -87.5q0 -102 -93 -179q-12 -9 -22 2l-15 15q-11 12 1 22q70 51 71 120
q-17 -7 -40 -7q-30 0 -51 20.5t-21 50.5t22.5 51t56.5 21z" />
    <glyph glyph-name="scommaaccent" unicode="&#x219;" horiz-adv-x="370" 
d="M40 23q-13 11 -7 21l35 69q2 5 8.5 8t12.5 0q47 -26 90 -26q19 0 19 18q0 22 -57 42q-112 39 -112 134q0 53 39.5 87t116.5 34q84 0 133 -31q18 -12 10 -25l-37 -68q-6 -12 -21 -6q-46 23 -85 23q-22 0 -22 -14q0 -16 45 -32q69 -24 103 -54t34 -86q0 -55 -44 -91
t-125 -36q-95 0 -136 33zM195 -90q35 0 63 -28.5t28 -87.5q0 -102 -93 -179q-12 -9 -22 2l-15 15q-11 12 1 22q70 51 71 120q-17 -7 -40 -7q-30 0 -51 20.5t-21 50.5t22.5 51t56.5 21z" />
    <glyph glyph-name="uni021A" unicode="&#x21a;" horiz-adv-x="508" 
d="M175 19v534h-143q-8 0 -13.5 5.5t-5.5 13.5v109q0 8 5.5 13.5t13.5 5.5h444q8 0 13.5 -5.5t5.5 -13.5v-109q0 -8 -5.5 -13.5t-13.5 -5.5h-143v-534q0 -7 -5.5 -13t-13.5 -6h-120q-8 0 -13.5 6t-5.5 13zM243 -90q35 0 63 -28.5t28 -87.5q0 -102 -93 -179q-12 -9 -22 2
l-15 15q-11 12 1 22q70 51 71 120q-17 -7 -40 -7q-30 0 -51 20.5t-21 50.5t22.5 51t56.5 21z" />
    <glyph glyph-name="uni021B" unicode="&#x21b;" horiz-adv-x="344" 
d="M70 129v144h-26q-7 0 -12.5 5.5t-5.5 13.5v89q0 8 5 13.5t13 5.5h26v111q0 7 6 13t13 6h107q7 0 12.5 -5.5t5.5 -13.5v-111h74q19 0 19 -19v-89q0 -8 -5.5 -13.5t-13.5 -5.5h-74v-125q0 -24 27 -24q4 0 39 7q18 3 22 -13l22 -83q4 -18 -13 -23q-71 -22 -121 -22
q-57 0 -88.5 35.5t-31.5 103.5zM184 -90q35 0 63 -28.5t28 -87.5q0 -102 -93 -179q-12 -9 -22 2l-15 15q-11 12 1 22q70 51 71 120q-17 -7 -40 -7q-30 0 -51 20.5t-21 50.5t22.5 51t56.5 21z" />
    <glyph glyph-name="dotlessj" unicode="&#x237;" horiz-adv-x="257" 
d="M54 -92v472q0 8 5.5 13.5t13.5 5.5h111q8 0 13.5 -5.5t5.5 -13.5v-472q0 -102 -56.5 -160t-146.5 -58q-36 0 -72 12t-50 26q-12 10 -4 23l42 83q2 5 9.5 7.5t13.5 -0.5q30 -16 52 -16q63 0 63 83z" />
    <glyph glyph-name="circumflex" unicode="&#x2c6;" horiz-adv-x="373" 
d="M87 512q-13 -7 -22 4l-33 47q-6 9 6 19l135 104q11 8 24 0l138 -104q11 -9 6 -19l-34 -46q-9 -12 -21 -5l-99 58z" />
    <glyph glyph-name="caron" unicode="&#x2c7;" horiz-adv-x="373" 
d="M175 512l-138 104q-11 9 -6 19l34 46q9 12 21 5l99 -58l100 58q13 7 22 -4l33 -47q6 -9 -6 -19l-135 -104q-11 -8 -24 0z" />
    <glyph glyph-name="uni02C9" unicode="&#x2c9;" horiz-adv-x="414" 
d="M79 563q-8 0 -13.5 5t-5.5 13v41q0 19 19 19h256q19 0 19 -19v-41q0 -8 -5.5 -13t-13.5 -5h-256z" />
    <glyph glyph-name="breve" unicode="&#x2d8;" horiz-adv-x="346" 
d="M173 527q-55 0 -94.5 34t-47.5 86q-2 9 3.5 15.5t15.5 6.5h45q13 0 17 -12q7 -21 23.5 -34.5t37.5 -13.5q19 0 35.5 14.5t23.5 33.5q3 12 17 12h47q9 0 14.5 -6.5t4.5 -15.5q-8 -52 -48 -86t-94 -34z" />
    <glyph glyph-name="dotaccent" unicode="&#x2d9;" horiz-adv-x="219" 
d="M109 521q-33 0 -56 23t-23 56t23 56.5t56 23.5t56.5 -23.5t23.5 -56.5t-23.5 -56t-56.5 -23z" />
    <glyph glyph-name="ring" unicode="&#x2da;" horiz-adv-x="290" 
d="M145 480q-48 0 -81.5 33.5t-33.5 81.5t33.5 81.5t81.5 33.5q47 0 81 -33.5t34 -81.5t-34 -81.5t-81 -33.5zM145 551q17 0 30 13.5t13 30.5t-13 30t-30 13t-30.5 -13t-13.5 -30t13.5 -30.5t30.5 -13.5z" />
    <glyph glyph-name="ogonek" unicode="&#x2db;" horiz-adv-x="276" 
d="M104 15h71q-7 -6 -17 -15.5t-27 -38.5t-17 -56q0 -29 17.5 -48t52.5 -19q8 0 41 6q10 1 16 -4.5t6 -14.5v-33q0 -15 -15 -19q-35 -8 -63 -8q-61 0 -99.5 29t-38.5 85q0 37 18.5 71t36.5 50z" />
    <glyph glyph-name="tilde" unicode="&#x2dc;" horiz-adv-x="380" 
d="M73 555l-35 28q-12 9 -6 23q8 14 20 30.5t37.5 35t49.5 18.5q25 0 57.5 -23.5t50.5 -23.5t38 31q10 16 25 2l34 -26q14 -10 1 -29q-46 -78 -100 -78q-28 0 -61.5 24t-48.5 24q-8 0 -15 -5.5t-15.5 -17t-9.5 -12.5q-9 -9 -22 -1z" />
    <glyph glyph-name="hungarumlaut" unicode="&#x2dd;" horiz-adv-x="392" 
d="M216 521q-8 0 -14.5 6t-4.5 13l30 141q6 19 19 19h94q14 0 19 -8t-1 -17l-78 -139q-11 -15 -18 -15h-46zM50 521q-8 0 -14.5 6t-4.5 13l30 141q6 19 19 19h94q14 0 19 -7.5t-1 -17.5l-78 -139q-8 -15 -18 -15h-46z" />
    <glyph glyph-name="uni0394" unicode="&#x394;" horiz-adv-x="710" 
d="M29 45l305 654q6 11 17 11h10q11 0 17 -11l304 -656q8 -17 2.5 -30t-22.5 -13h-604q-21 0 -29.5 10.5t0.5 34.5zM237 144l238 1l-121 260h-1z" />
    <glyph glyph-name="uni03A9" unicode="&#x3a9;" horiz-adv-x="781" 
d="M26 19v109q0 8 5.5 13.5t13.5 5.5h77q-39 28 -65.5 90.5t-26.5 120.5q0 149 104.5 250.5t255.5 101.5t255.5 -101.5t104.5 -250.5q0 -58 -26.5 -120.5t-65.5 -90.5h77q8 0 13.5 -5.5t5.5 -13.5v-109q0 -8 -5.5 -13.5t-13.5 -5.5h-279q-8 0 -13.5 5.5t-5.5 13.5v65
q0 15 4 24t7.5 12t16.5 10q60 36 92.5 96t32.5 123q0 83 -59 142t-141 59t-141 -59t-59 -142q0 -63 32.5 -123t92.5 -96q13 -7 16.5 -10t7.5 -12t4 -24v-65q0 -8 -5.5 -13.5t-13.5 -5.5h-279q-8 0 -13.5 5.5t-5.5 13.5z" />
    <glyph glyph-name="uni03BC" unicode="&#x3bc;" horiz-adv-x="519" 
d="M199 -7v-274q0 -7 -5.5 -13t-13.5 -6h-107q-7 0 -13 6t-6 13v662q0 8 5.5 13.5t13.5 5.5h107q8 0 13.5 -5.5t5.5 -13.5v-187q2 -29 19 -48t45 -19t44 20t16 47v187q0 19 21 19h102q8 0 13.5 -5.5t5.5 -13.5v-362q0 -7 -5.5 -13t-13.5 -6h-47q-13 0 -19 14l-15 37
q-21 -21 -31 -29t-39.5 -20t-64.5 -12q-16 0 -31 3z" />
    <glyph glyph-name="pi" unicode="&#x3c0;" horiz-adv-x="703" 
d="M114 19v254h-65q-8 0 -13.5 5.5t-5.5 13.5v89q0 19 19 19h577q19 0 19 -19v-89q0 -8 -5.5 -13.5t-13.5 -5.5h-72v-254q0 -7 -6 -13t-13 -6h-115q-8 0 -13.5 6t-5.5 13v254h-134v-254q0 -7 -5.5 -13t-13.5 -6h-115q-7 0 -13 6t-6 13z" />
    <glyph glyph-name="Wgrave" unicode="&#x1e80;" horiz-adv-x="896" 
d="M213 4l-189 672q-3 10 2 17t16 7h117q14 0 18 -14l86 -339h4l155 352q6 11 17 11h18q13 0 17 -11l155 -352h4l86 339q4 14 18 14h117q11 0 16 -7t2 -17l-189 -672q-3 -14 -18 -14h-16q-11 0 -17 11l-183 409h-3l-182 -409q-6 -11 -17 -11h-16q-15 0 -18 14zM518 762
l-182 82q-16 10 -6 30l34 59q3 6 12.5 6.5t13.5 -3.5l170 -104q11 -9 6 -19l-21 -42q-10 -20 -27 -9z" />
    <glyph glyph-name="wgrave" unicode="&#x1e81;" horiz-adv-x="619" 
d="M143 2l-133 373q-4 10 1.5 17.5t16.5 7.5h95q15 0 18 -12l52 -137h1l95 151q5 8 16 8h10q11 0 15 -8l96 -151h1l51 137q5 12 20 12h93q11 0 16.5 -7.5t1.5 -17.5l-133 -373q-3 -12 -18 -12h-4q-12 0 -16 8l-129 200h-1l-127 -200q-6 -8 -16 -8h-5q-15 0 -17 12zM390 512
l-182 82q-16 10 -6 30l34 59q3 6 12.5 6.5t13.5 -3.5l170 -104q11 -9 6 -19l-21 -42q-10 -20 -27 -9z" />
    <glyph glyph-name="Wacute" unicode="&#x1e82;" horiz-adv-x="896" 
d="M213 4l-189 672q-3 10 2 17t16 7h117q14 0 18 -14l86 -339h4l155 352q6 11 17 11h18q13 0 17 -11l155 -352h4l86 339q4 14 18 14h117q11 0 16 -7t2 -17l-189 -672q-3 -14 -18 -14h-16q-11 0 -17 11l-183 409h-3l-182 -409q-6 -11 -17 -11h-16q-15 0 -18 14zM375 762
q-17 -11 -27 9l-21 42q-5 10 6 19l170 104q4 4 13.5 3.5t12.5 -6.5l34 -59q11 -20 -6 -30z" />
    <glyph glyph-name="wacute" unicode="&#x1e83;" horiz-adv-x="619" 
d="M143 2l-133 373q-4 10 1.5 17.5t16.5 7.5h95q15 0 18 -12l52 -137h1l95 151q5 8 16 8h10q11 0 15 -8l96 -151h1l51 137q5 12 20 12h93q11 0 16.5 -7.5t1.5 -17.5l-133 -373q-3 -12 -18 -12h-4q-12 0 -16 8l-129 200h-1l-127 -200q-6 -8 -16 -8h-5q-15 0 -17 12zM238 512
q-17 -11 -27 9l-21 42q-5 10 6 19l170 104q4 4 13.5 3.5t12.5 -6.5l34 -59q10 -20 -6 -30z" />
    <glyph glyph-name="Wdieresis" unicode="&#x1e84;" horiz-adv-x="896" 
d="M213 4l-189 672q-3 10 2 17t16 7h117q14 0 18 -14l86 -339h4l155 352q6 11 17 11h18q13 0 17 -11l155 -352h4l86 339q4 14 18 14h117q11 0 16 -7t2 -17l-189 -672q-3 -14 -18 -14h-16q-11 0 -17 11l-183 409h-3l-182 -409q-6 -11 -17 -11h-16q-15 0 -18 14zM578 768
q-29 0 -49.5 21t-20.5 50t20.5 49.5t49.5 20.5t50 -20.5t21 -49.5t-21 -50t-50 -21zM313 768q-29 0 -49.5 21t-20.5 50t20.5 49.5t49.5 20.5t50 -20.5t21 -49.5t-21 -50t-50 -21z" />
    <glyph glyph-name="wdieresis" unicode="&#x1e85;" horiz-adv-x="619" 
d="M143 2l-133 373q-4 10 1.5 17.5t16.5 7.5h95q15 0 18 -12l52 -137h1l95 151q5 8 16 8h10q11 0 15 -8l96 -151h1l51 137q5 12 20 12h93q11 0 16.5 -7.5t1.5 -17.5l-133 -373q-3 -12 -18 -12h-4q-12 0 -16 8l-129 200h-1l-127 -200q-6 -8 -16 -8h-5q-15 0 -17 12zM411 535
q-29 0 -49.5 21t-20.5 50t20.5 49.5t49.5 20.5t50 -20.5t21 -49.5t-21 -50t-50 -21zM206 535q-29 0 -49.5 21t-20.5 50t20.5 49.5t49.5 20.5t50 -20.5t21 -49.5t-21 -50t-50 -21z" />
    <glyph glyph-name="Ygrave" unicode="&#x1ef2;" horiz-adv-x="590" 
d="M215 19v318l-221 334q-6 10 -1 19.5t17 9.5h130q9 0 16 -9l139 -205l139 205q7 9 16 9h130q12 0 17 -9.5t-1 -19.5l-224 -333v-319q0 -7 -6 -13t-13 -6h-119q-8 0 -13.5 5.5t-5.5 13.5zM366 762l-182 82q-16 10 -6 30l34 59q3 6 12.5 6.5t13.5 -3.5l170 -104q11 -9 6 -19
l-21 -42q-10 -20 -27 -9z" />
    <glyph glyph-name="ygrave" unicode="&#x1ef3;" horiz-adv-x="465" 
d="M156 41l-150 333q-5 10 0.5 18t16.5 8h114q11 0 17 -11l77 -186h2l79 186q4 11 17 11h113q11 0 16.5 -8t0.5 -18l-306 -662q-6 -12 -17 -12h-112q-11 0 -16.5 8.5t-0.5 18.5zM304 512l-182 82q-16 10 -6 30l34 59q3 6 12.5 6.5t13.5 -3.5l170 -104q11 -9 6 -19l-21 -42
q-10 -20 -27 -9z" />
    <glyph glyph-name="endash" unicode="&#x2013;" horiz-adv-x="535" 
d="M63 203q-8 0 -13.5 5t-5.5 13v51q0 19 19 19h409q19 0 19 -19v-51q0 -8 -5.5 -13t-13.5 -5h-409z" />
    <glyph glyph-name="emdash" unicode="&#x2014;" horiz-adv-x="755" 
d="M63 203q-8 0 -13.5 5t-5.5 13v51q0 19 19 19h629q19 0 19 -19v-51q0 -8 -5.5 -13t-13.5 -5h-629z" />
    <glyph glyph-name="quoteleft" unicode="&#x2018;" horiz-adv-x="204" 
d="M110 408q-35 0 -63 28.5t-28 87.5q0 102 93 179q12 9 22 -2l15 -15q11 -12 -1 -22q-70 -51 -71 -120q17 7 40 7q30 0 51 -20.5t21 -50.5t-22.5 -51t-56.5 -21z" />
    <glyph glyph-name="quoteright" unicode="&#x2019;" horiz-adv-x="200" 
d="M68 417l-15 15q-11 12 1 22q70 51 71 120q-17 -7 -40 -7q-30 0 -51 20.5t-21 50.5t22.5 51t56.5 21q35 0 63 -28.5t28 -87.5q0 -102 -93 -179q-12 -9 -22 2z" />
    <glyph glyph-name="quotesinglbase" unicode="&#x201a;" horiz-adv-x="228" 
d="M30 61q0 30 22.5 51t56.5 21q35 0 63 -28.5t28 -87.5q0 -102 -93 -179q-12 -9 -22 2l-15 15q-11 12 1 22q70 51 71 120q-17 -7 -40 -7q-30 0 -51 20.5t-21 50.5z" />
    <glyph glyph-name="quotedblleft" unicode="&#x201c;" horiz-adv-x="403" 
d="M309 409q-35 0 -63 28.5t-28 87.5q0 102 93 179q12 9 22 -2l15 -15q11 -12 -1 -22q-70 -51 -71 -120q17 7 40 7q30 0 51 -20.5t21 -50.5t-22.5 -51t-56.5 -21zM110 409q-35 0 -63 28.5t-28 87.5q0 102 93 179q12 9 22 -2l15 -15q11 -12 -1 -22q-70 -51 -71 -120
q17 7 40 7q30 0 51 -20.5t21 -50.5t-22.5 -51t-56.5 -21z" />
    <glyph glyph-name="quotedblright" unicode="&#x201d;" horiz-adv-x="399" 
d="M267 417l-15 15q-11 12 1 22q70 51 71 120q-17 -7 -40 -7q-30 0 -51 20.5t-21 50.5t22.5 51t56.5 21q35 0 63 -28.5t28 -87.5q0 -102 -93 -179q-12 -9 -22 2zM68 417l-15 15q-11 12 1 22q70 51 71 120q-17 -7 -40 -7q-30 0 -51 20.5t-21 50.5t22.5 51t56.5 21
q35 0 63 -28.5t28 -87.5q0 -102 -93 -179q-12 -9 -22 2z" />
    <glyph glyph-name="quotedblbase" unicode="&#x201e;" horiz-adv-x="428" 
d="M229 61q0 30 22.5 51t56.5 21q35 0 63 -28.5t28 -87.5q0 -102 -93 -179q-12 -9 -22 2l-15 15q-11 12 1 22q70 51 71 120q-17 -7 -40 -7q-30 0 -51 20.5t-21 50.5zM30 61q0 30 22.5 51t56.5 21q35 0 63 -28.5t28 -87.5q0 -102 -93 -179q-12 -9 -22 2l-15 15q-11 12 1 22
q70 51 71 120q-17 -7 -40 -7q-30 0 -51 20.5t-21 50.5z" />
    <glyph glyph-name="dagger" unicode="&#x2020;" horiz-adv-x="618" 
d="M69 262q-7 0 -13 6t-6 13v100q0 7 6 13t13 6h157v281q0 7 6 13t13 6h120q7 0 13 -6t6 -13v-281h166q7 0 12.5 -5.5t5.5 -13.5v-100q0 -8 -5.5 -13.5t-12.5 -5.5h-176l-39 -546q-2 -16 -19 -16h-22q-17 0 -19 16l-39 546h-167z" />
    <glyph glyph-name="daggerdbl" unicode="&#x2021;" horiz-adv-x="618" 
d="M80 20v100q0 8 6 13.5t13 5.5h145l-18 259v1h-157q-7 0 -13 5.5t-6 13.5v100q0 8 6 13.5t13 5.5h157v144q0 7 6 13t13 6h120q7 0 13 -6t6 -13v-144h166q7 0 12.5 -5.5t5.5 -13.5v-100q0 -8 -5.5 -13.5t-12.5 -5.5h-166l-19 -260h155q7 0 12.5 -5.5t5.5 -13.5v-100
q0 -8 -5.5 -13.5t-12.5 -5.5h-165l-20 -285q-2 -16 -19 -16h-22q-17 0 -19 16l-21 285h-155q-7 0 -13 5.5t-6 13.5z" />
    <glyph glyph-name="bullet" unicode="&#x2022;" horiz-adv-x="406" 
d="M201 83q-57 0 -99 42t-42 99q0 59 42 102t99 43q59 0 102 -43t43 -102q0 -57 -43 -99t-102 -42z" />
    <glyph glyph-name="ellipsis" unicode="&#x2026;" horiz-adv-x="690" 
d="M491 70q0 33 23 56t56 23t56.5 -23t23.5 -56t-23.5 -56.5t-56.5 -23.5t-56 23.5t-23 56.5zM269 70q0 33 23 56t56 23t56.5 -23t23.5 -56t-23.5 -56.5t-56.5 -23.5t-56 23.5t-23 56.5zM40 70q0 33 23 56t56 23t56.5 -23t23.5 -56t-23.5 -56.5t-56.5 -23.5t-56 23.5
t-23 56.5z" />
    <glyph glyph-name="perthousand" unicode="&#x2030;" horiz-adv-x="986" 
d="M175 441q-56 0 -95.5 39.5t-39.5 95.5t39.5 95.5t95.5 39.5t95.5 -39.5t39.5 -95.5t-39.5 -95.5t-95.5 -39.5zM114 27l343 663q6 10 17 10h76q11 0 16.5 -8.5t0.5 -18.5l-345 -663q-8 -10 -17 -10h-74q-11 0 -16.5 8.5t-0.5 18.5zM175 541q14 0 24 10.5t10 24.5t-10.5 24
t-23.5 10q-14 0 -24.5 -10t-10.5 -24t10.5 -24.5t24.5 -10.5zM675 125q0 56 39.5 95.5t95.5 39.5t96 -39.5t40 -95.5t-40 -95.5t-96 -39.5t-95.5 40t-39.5 95zM375 125q0 56 39.5 95.5t95.5 39.5t96 -39.5t40 -95.5t-40 -95.5t-96 -39.5t-95.5 40t-39.5 95zM776 125
q0 -13 10 -23.5t24 -10.5t24.5 10t10.5 24t-10.5 24.5t-24.5 10.5t-24 -10.5t-10 -24.5zM476 125q0 -13 10 -23.5t24 -10.5t24.5 10t10.5 24t-10.5 24.5t-24.5 10.5t-24 -10.5t-10 -24.5z" />
    <glyph glyph-name="guilsinglleft" unicode="&#x2039;" horiz-adv-x="283" 
d="M125 39l-104 155q-8 11 0 24l109 148q7 12 18 12h79q13 0 17 -9.5t-2 -21.5l-65 -139l62 -147q6 -12 1.5 -21t-16.5 -9h-84q-9 0 -15 8z" />
    <glyph glyph-name="guilsinglright" unicode="&#x203a;" horiz-adv-x="283" 
d="M58 31q-12 0 -16.5 9t1.5 21l62 147l-65 139q-6 12 -2 21.5t17 9.5h79q11 0 18 -12l109 -148q8 -13 0 -24l-104 -155q-6 -8 -15 -8h-84z" />
    <glyph glyph-name="fraction" unicode="&#x2044;" horiz-adv-x="104" 
d="M-74 10q-5 -10 -17 -10h-55q-11 0 -16.5 8.5t-0.5 18.5l344 663q5 10 17 10h56q11 0 16.5 -8.5t0.5 -18.5z" />
    <glyph glyph-name="zerosuperior" unicode="&#x2070;" horiz-adv-x="362" 
d="M181 494q-63 0 -97 42t-34 116q0 75 34 116.5t97 41.5t97 -41.5t34 -116.5q0 -74 -34 -116t-97 -42zM181 574q31 0 31 78t-31 78t-31 -78t31 -78z" />
    <glyph glyph-name="foursuperior" unicode="&#x2074;" horiz-adv-x="374" 
d="M199 504q-10 0 -10 9v47h-130q-9 0 -9 8v62l159 167q1 3 7 3h51q9 0 9 -9v-163h39q9 0 9 -8v-51q0 -9 -9 -9h-39v-47q0 -9 -9 -9h-68zM132 626h58v65z" />
    <glyph glyph-name="fivesuperior" unicode="&#x2075;" horiz-adv-x="328" 
d="M150 494q-63 0 -96 38q-7 7 -1 15l30 39q8 13 17 4q19 -18 51 -18q13 0 24 7.5t11 20.5t-10.5 21t-27.5 8h-72q-7 0 -11.5 4.5t-4.5 10.5v147q0 9 10 9h161q10 0 10 -9v-53q0 -9 -10 -9h-96v-29h29q54 0 84 -25.5t30 -73.5t-35 -77.5t-93 -29.5z" />
    <glyph glyph-name="sixsuperior" unicode="&#x2076;" horiz-adv-x="339" 
d="M173 494q-56 0 -89.5 33t-33.5 86q0 47 20.5 86t51.5 62t54 35t43 18q15 4 20 -9l15 -40q4 -13 -9 -17q-26 -8 -56.5 -25.5t-40.5 -39.5q17 12 50 12q36 0 63.5 -25.5t27.5 -71.5q0 -43 -34.5 -73.5t-81.5 -30.5zM173 574q12 0 20.5 8t8.5 21t-8.5 21.5t-20.5 8.5
t-21 -8.5t-9 -21.5q0 -12 9 -20.5t21 -8.5z" />
    <glyph glyph-name="sevensuperior" unicode="&#x2077;" horiz-adv-x="324" 
d="M63 504q-13 0 -13 9v5l108 208h-92q-10 0 -10 8v57q0 9 10 9h198q10 0 10 -9v-16l-127 -262q-5 -9 -16 -9h-68z" />
    <glyph glyph-name="eightsuperior" unicode="&#x2078;" horiz-adv-x="353" 
d="M175 494q-56 0 -90.5 24.5t-34.5 61.5q0 22 15.5 41t28 26.5t17.5 8.5v1q-19 7 -35.5 25t-16.5 45q0 37 34 60t82 23q50 0 84 -23t34 -60q0 -27 -16.5 -45.5t-35.5 -24.5v-1q24 -6 43 -25t19 -51q0 -37 -35.5 -61.5t-92.5 -24.5zM176 688q10 0 17.5 7.5t7.5 17.5t-7.5 18
t-17.5 8t-18 -8t-8 -18t8 -17.5t18 -7.5zM177 562q12 0 21.5 8t9.5 22q0 13 -8.5 22t-22.5 9q-12 0 -22 -9.5t-10 -21.5q0 -13 10 -21.5t22 -8.5z" />
    <glyph glyph-name="ninesuperior" unicode="&#x2079;" horiz-adv-x="339" 
d="M120 490q-15 -4 -20 9l-15 40q-4 13 9 17q26 8 56.5 25.5t40.5 39.5q-17 -12 -54 -12q-33 0 -60 26.5t-27 70.5q0 43 34.5 73.5t81.5 30.5q56 0 89.5 -33t33.5 -86q0 -47 -20.5 -86t-51.5 -62t-54 -35t-43 -18zM166 671q12 0 21 8.5t9 21.5q0 12 -9 20.5t-21 8.5
t-20.5 -8t-8.5 -21t8.5 -21.5t20.5 -8.5z" />
    <glyph glyph-name="zeroinferior" unicode="&#x2080;" horiz-adv-x="362" 
d="M50 -2q0 75 34 116.5t97 41.5t97 -41.5t34 -116.5q0 -74 -34 -116t-97 -42t-97 42t-34 116zM150 -2q0 -78 31 -78t31 78t-31 78t-31 -78z" />
    <glyph glyph-name="oneinferior" unicode="&#x2081;" horiz-adv-x="256" 
d="M58 43q-8 0 -8 11v38q0 6 8 11l76 43h63q9 0 9 -9v-278q0 -9 -9 -9h-75q-10 0 -10 9v184h-54z" />
    <glyph glyph-name="twoinferior" unicode="&#x2082;" horiz-adv-x="317" 
d="M88 65l-22 36q0 1 -1 2q-8 13 -1 20q3 3 6 5q36 28 93 28q45 0 74.5 -25.5t29.5 -68.5q0 -41 -30 -84l-40 -53h58q10 0 10 -9v-57q0 -9 -10 -9h-195q-10 0 -10 9v18l102 123q20 26 20 47q0 29 -31 29q-20 0 -35 -15q-12 -8 -18 4z" />
    <glyph glyph-name="threeinferior" unicode="&#x2083;" horiz-adv-x="316" 
d="M87 17q0 17 18 17h28q12 0 20 6.5t8 17.5q0 22 -29 22q-15 0 -30 -11q-10 -6 -17 4l-26 35q-9 11 1 21q31 27 87 27q50 0 80 -22.5t30 -60.5q0 -45 -51 -70q60 -23 60 -77q0 -41 -34.5 -63.5t-84.5 -22.5q-51 0 -90 29q-12 9 -3 22l23 34q8 11 20 4q14 -11 36 -11
q33 0 33 24q0 25 -33 25h-33q-13 2 -13 16v34z" />
    <glyph glyph-name="fourinferior" unicode="&#x2084;" horiz-adv-x="374" 
d="M50 -24l159 167q1 3 7 3h51q9 0 9 -9v-163h39q9 0 9 -8v-51q0 -9 -9 -9h-39v-47q0 -9 -9 -9h-68q-10 0 -10 9v47h-130q-9 0 -9 8v62zM132 -28h58v65z" />
    <glyph glyph-name="fiveinferior" unicode="&#x2085;" horiz-adv-x="328" 
d="M60 -10v147q0 9 10 9h161q10 0 10 -9v-53q0 -9 -10 -9h-96v-29h29q54 0 84 -25.5t30 -73.5t-35 -77.5t-93 -29.5q-63 0 -96 38q-7 7 -1 15l30 39q8 13 17 4q19 -18 51 -18q13 0 24 7.5t11 20.5t-10.5 21t-27.5 8h-72q-7 0 -11.5 4.5t-4.5 10.5z" />
    <glyph glyph-name="sixinferior" unicode="&#x2086;" horiz-adv-x="339" 
d="M50 -41q0 47 20.5 86t51.5 62t54 35t43 18q15 4 20 -9l15 -40q4 -13 -9 -17q-26 -8 -56.5 -25.5t-40.5 -39.5q17 12 50 12q36 0 63.5 -25.5t27.5 -71.5q0 -43 -34.5 -73.5t-81.5 -30.5q-56 0 -89.5 33t-33.5 86zM143 -51q0 -12 9 -20.5t21 -8.5t20.5 8t8.5 21t-8.5 21.5
t-20.5 8.5t-21 -8.5t-9 -21.5z" />
    <glyph glyph-name="seveninferior" unicode="&#x2087;" horiz-adv-x="324" 
d="M56 80v57q0 9 10 9h198q10 0 10 -9v-16l-127 -262q-5 -9 -16 -9h-68q-13 0 -13 9v5l108 208h-92q-10 0 -10 8z" />
    <glyph glyph-name="eightinferior" unicode="&#x2088;" horiz-adv-x="353" 
d="M50 -74q0 22 15.5 41t28 26.5t17.5 8.5v1q-19 7 -35.5 25t-16.5 45q0 37 34 60t82 23q50 0 84 -23t34 -60q0 -27 -16.5 -45.5t-35.5 -24.5v-1q24 -6 43 -25t19 -51q0 -37 -35.5 -61.5t-92.5 -24.5q-56 0 -90.5 24.5t-34.5 61.5zM150 59q0 -10 8 -17.5t18 -7.5t17.5 7.5
t7.5 17.5t-7.5 18t-17.5 8t-18 -8t-8 -18zM145 -62q0 -13 10 -21.5t22 -8.5t21.5 8t9.5 22q0 13 -8.5 22t-22.5 9q-12 0 -22 -9.5t-10 -21.5z" />
    <glyph glyph-name="nineinferior" unicode="&#x2089;" horiz-adv-x="339" 
d="M50 52q0 43 34.5 73.5t81.5 30.5q56 0 89.5 -33t33.5 -86q0 -47 -20.5 -86t-51.5 -62t-54 -35t-43 -18q-15 -4 -20 9l-15 40q-4 13 9 17q26 8 56.5 25.5t40.5 39.5q-17 -12 -54 -12q-33 0 -60 26.5t-27 70.5zM137 47q0 -13 8.5 -21.5t20.5 -8.5t21 8.5t9 21.5
q0 12 -9 20.5t-21 8.5t-20.5 -8t-8.5 -21z" />
    <glyph glyph-name="Euro" unicode="&#x20ac;" horiz-adv-x="712" 
d="M38 248q-7 0 -12.5 5.5t-5.5 13.5v17q0 8 5.5 13.5t12.5 5.5h38q-2 15 -2 46v19h-36q-7 0 -12.5 5.5t-5.5 13.5v17q0 8 5.5 13.5t12.5 5.5h43q26 124 125 205.5t229 81.5q140 0 242 -93q15 -14 1 -28l-78 -81q-12 -12 -25 0q-57 51 -135 51q-65 0 -114.5 -38t-70.5 -98
h210q8 0 13.5 -5.5t5.5 -13.5v-19q0 -8 -5.5 -13t-13.5 -5h-221v-14q0 -26 6 -50h175q8 0 13.5 -5.5t5.5 -13.5v-18q0 -8 -5.5 -13t-13.5 -5h-154q26 -45 71 -71.5t99 -26.5q78 0 134 48q14 12 26 -1l78 -83q13 -13 -1 -27q-100 -97 -243 -97q-123 0 -218.5 72t-128.5 186
h-50z" />
    <glyph glyph-name="afii61289" unicode="&#x2113;" horiz-adv-x="505" 
d="M89 156q0 25 3 49q-39 -10 -41 -10q-13 -3 -15 12l-5 45q0 4 -0.5 8t3.5 7.5t13 5.5q40 8 61 15q12 66 15 81q31 169 81.5 255t127.5 86q56 0 87.5 -37.5t31.5 -101.5q0 -121 -79 -207t-200 -132q-8 -40 -8 -74q0 -39 17.5 -65.5t51.5 -26.5q72 0 143 43q13 7 18.5 6.5
t10.5 -11.5l16 -24q7 -12 7 -16.5t-9 -13.5q-93 -60 -186 -60q-71 0 -107.5 48t-36.5 118zM189 310q86 39 136.5 105t50.5 156q0 30 -12 46.5t-32 16.5q-87 0 -135 -278z" />
    <glyph glyph-name="trademark" unicode="&#x2122;" horiz-adv-x="721" 
d="M331 378q-10 0 -15.5 7t-3.5 16l52 289q2 15 19 15h4q11 0 17 -11l91 -172l92 172q5 11 17 11h4q17 0 19 -15l53 -290q1 -9 -4.5 -15.5t-14.5 -6.5h-52q-7 0 -12.5 5t-6.5 12l-17 105l-59 -116q-5 -9 -16 -9h-6q-12 0 -17 10l-57 115l-18 -106q-1 -6 -7 -11t-12 -5h-50z
M138 378q-8 0 -13.5 5.5t-5.5 13.5v216h-60q-8 0 -13.5 5.5t-5.5 13.5v49q0 7 6 13t13 6h211q8 0 13.5 -5.5t5.5 -13.5v-49q0 -19 -19 -19h-60v-216q0 -7 -6 -13t-13 -6h-53z" />
    <glyph glyph-name="Omega" unicode="&#x2126;" horiz-adv-x="781" 
d="M26 19v109q0 8 5.5 13.5t13.5 5.5h77q-39 28 -65.5 90.5t-26.5 120.5q0 149 104.5 250.5t255.5 101.5t255.5 -101.5t104.5 -250.5q0 -58 -26.5 -120.5t-65.5 -90.5h77q8 0 13.5 -5.5t5.5 -13.5v-109q0 -8 -5.5 -13.5t-13.5 -5.5h-279q-8 0 -13.5 5.5t-5.5 13.5v65
q0 15 4 24t7.5 12t16.5 10q60 36 92.5 96t32.5 123q0 83 -59 142t-141 59t-141 -59t-59 -142q0 -63 32.5 -123t92.5 -96q13 -7 16.5 -10t7.5 -12t4 -24v-65q0 -8 -5.5 -13.5t-13.5 -5.5h-279q-8 0 -13.5 5.5t-5.5 13.5z" />
    <glyph glyph-name="estimated" unicode="&#x212e;" horiz-adv-x="823" 
d="M153 172q36 -51 98.5 -80t131.5 -29q104 0 196 79q18 16 31 3l24 -26q12 -13 -7 -32q-103 -97 -244 -97q-152 0 -257.5 104t-105.5 255q0 152 105.5 256.5t257.5 104.5q151 0 256 -106.5t107 -258.5q0 -19 -5.5 -25.5t-20.5 -6.5h-567v-141zM153 384h461v142
q-40 51 -101 80.5t-130 29.5q-149 0 -230 -108v-144z" />
    <glyph glyph-name="onethird" unicode="&#x2153;" horiz-adv-x="667" 
d="M103 27l344 663q5 10 17 10h56q11 0 16.5 -8.5t0.5 -18.5l-345 -663q-5 -10 -17 -10h-55q-11 0 -16.5 8.5t-0.5 18.5zM122 404q-10 0 -10 9v184h-54q-8 0 -8 11v38q0 6 8 11l76 43h63q9 0 9 -9v-278q0 -9 -9 -9h-75zM412 41l23 34q8 11 20 4q14 -11 36 -11q33 0 33 24
q0 25 -33 25h-33q-13 2 -13 16v34q0 17 18 17h28q12 0 20 6.5t8 17.5q0 22 -29 22q-15 0 -30 -11q-10 -6 -17 4l-26 35q-9 11 1 21q31 27 87 27q50 0 80 -22.5t30 -60.5q0 -45 -51 -70q60 -23 60 -77q0 -41 -34.5 -63.5t-84.5 -22.5q-51 0 -90 29q-12 9 -3 22z" />
    <glyph glyph-name="twothirds" unicode="&#x2154;" horiz-adv-x="667" 
d="M11 404q-10 0 -10 9v18l102 123q20 26 20 47q0 29 -31 29q-20 0 -35 -15q-12 -8 -18 4l-22 36q-8 14 -4 20q2 3 8 7q36 28 93 28q45 0 74.5 -25.5t29.5 -68.5q0 -41 -30 -84l-40 -53h58q10 0 10 -9v-57q0 -9 -10 -9h-195zM103 27l344 663q5 10 17 10h56q11 0 16.5 -8.5
t0.5 -18.5l-345 -663q-5 -10 -17 -10h-55q-11 0 -16.5 8.5t-0.5 18.5zM412 41l23 34q8 11 20 4q14 -11 36 -11q33 0 33 24q0 25 -33 25h-33q-13 2 -13 16v34q0 17 18 17h28q12 0 20 6.5t8 17.5q0 22 -29 22q-15 0 -30 -11q-10 -6 -17 4l-26 35q-9 11 1 21q31 27 87 27
q50 0 80 -22.5t30 -60.5q0 -45 -51 -70q60 -23 60 -77q0 -41 -34.5 -63.5t-84.5 -22.5q-51 0 -90 29q-12 9 -3 22z" />
    <glyph glyph-name="oneeighth" unicode="&#x215b;" horiz-adv-x="667" 
d="M103 27l344 663q5 10 17 10h56q11 0 16.5 -8.5t0.5 -18.5l-345 -663q-5 -10 -17 -10h-55q-11 0 -16.5 8.5t-0.5 18.5zM122 404q-10 0 -10 9v184h-54q-8 0 -8 11v38q0 6 8 11l76 43h63q9 0 9 -9v-278q0 -9 -9 -9h-75zM388 77q0 22 15.5 41t28 26.5t17.5 8.5v1
q-19 7 -35.5 25t-16.5 45q0 37 34 60t82 23q50 0 84 -23t34 -60q0 -27 -16.5 -45.5t-35.5 -24.5v-1q24 -6 43 -25t19 -51q0 -37 -35.5 -61.5t-92.5 -24.5q-56 0 -90.5 24.5t-34.5 61.5zM490 210q0 -10 7.5 -16.5t16.5 -6.5t16 6.5t7 16.5t-7 17t-16 7t-16.5 -7t-7.5 -17z
M486 89q0 -12 9 -19.5t20 -7.5t19.5 7t8.5 20q0 12 -8 20t-20 8q-11 0 -20 -8.5t-9 -19.5z" />
    <glyph glyph-name="threeeighths" unicode="&#x215c;" horiz-adv-x="691" 
d="M147 394q-51 0 -90 29q-12 9 -3 22l23 34q8 11 20 4q14 -11 36 -11q33 0 33 24q0 25 -33 25h-33q-13 2 -13 16v34q0 17 18 17h28q12 0 20 6.5t8 17.5q0 22 -29 22q-15 0 -30 -11q-10 -6 -17 4l-26 35q-9 11 1 21q31 27 87 27q50 0 80 -22.5t30 -60.5q0 -45 -51 -70
q60 -23 60 -77q0 -41 -34.5 -63.5t-84.5 -22.5zM124 27l344 663q5 10 17 10h56q11 0 16.5 -8.5t0.5 -18.5l-345 -663q-5 -10 -17 -10h-55q-11 0 -16.5 8.5t-0.5 18.5zM408 77q0 22 15.5 41t28 26.5t17.5 8.5v1q-19 7 -35.5 25t-16.5 45q0 37 34 60t82 23q50 0 84 -23t34 -60
q0 -27 -16.5 -45.5t-35.5 -24.5v-1q24 -6 43 -25t19 -51q0 -37 -35.5 -61.5t-92.5 -24.5q-56 0 -90.5 24.5t-34.5 61.5zM510 210q0 -10 7.5 -16.5t16.5 -6.5t16 6.5t7 16.5t-7 17t-16 7t-16.5 -7t-7.5 -17zM506 89q0 -12 9 -19.5t20 -7.5t19.5 7t8.5 20q0 12 -8 20t-20 8
q-11 0 -20 -8.5t-9 -19.5z" />
    <glyph glyph-name="fiveeighths" unicode="&#x215d;" horiz-adv-x="691" 
d="M124 27l344 663q5 10 17 10h56q11 0 16.5 -8.5t0.5 -18.5l-345 -663q-5 -10 -17 -10h-55q-11 0 -16.5 8.5t-0.5 18.5zM139 394q-63 0 -96 38q-7 7 -1 15l30 39q8 13 17 4q19 -18 51 -18q13 0 24 7.5t11 20.5t-10.5 21t-27.5 8h-72q-7 0 -11.5 4.5t-4.5 10.5v147q0 9 10 9
h161q10 0 10 -9v-53q0 -9 -10 -9h-96v-29h29q54 0 84 -25.5t30 -73.5t-35 -77.5t-93 -29.5zM408 77q0 22 15.5 41t28 26.5t17.5 8.5v1q-19 7 -35.5 25t-16.5 45q0 37 34 60t82 23q50 0 84 -23t34 -60q0 -27 -16.5 -45.5t-35.5 -24.5v-1q24 -6 43 -25t19 -51
q0 -37 -35.5 -61.5t-92.5 -24.5q-56 0 -90.5 24.5t-34.5 61.5zM510 210q0 -10 7.5 -16.5t16.5 -6.5t16 6.5t7 16.5t-7 17t-16 7t-16.5 -7t-7.5 -17zM506 89q0 -12 9 -19.5t20 -7.5t19.5 7t8.5 20q0 12 -8 20t-20 8q-11 0 -20 -8.5t-9 -19.5z" />
    <glyph glyph-name="seveneighths" unicode="&#x215e;" horiz-adv-x="691" 
d="M124 27l344 663q5 10 17 10h56q11 0 16.5 -8.5t0.5 -18.5l-345 -663q-5 -10 -17 -10h-55q-11 0 -16.5 8.5t-0.5 18.5zM88 404q-13 0 -13 9v5l108 208h-92q-10 0 -10 8v57q0 9 10 9h198q10 0 10 -9v-16l-127 -262q-5 -9 -16 -9h-68zM408 77q0 22 15.5 41t28 26.5t17.5 8.5
v1q-19 7 -35.5 25t-16.5 45q0 37 34 60t82 23q50 0 84 -23t34 -60q0 -27 -16.5 -45.5t-35.5 -24.5v-1q24 -6 43 -25t19 -51q0 -37 -35.5 -61.5t-92.5 -24.5q-56 0 -90.5 24.5t-34.5 61.5zM510 210q0 -10 7.5 -16.5t16.5 -6.5t16 6.5t7 16.5t-7 17t-16 7t-16.5 -7t-7.5 -17z
M506 89q0 -12 9 -19.5t20 -7.5t19.5 7t8.5 20q0 12 -8 20t-20 8q-11 0 -20 -8.5t-9 -19.5z" />
    <glyph glyph-name="partialdiff" unicode="&#x2202;" horiz-adv-x="570" 
d="M50 219q0 104 60.5 160.5t138.5 56.5q48 0 95 -20q-22 107 -201 164q-26 8 -19 29l29 77q8 24 31 16q32 -10 68.5 -27.5t86.5 -54.5t88 -83.5t65.5 -119t27.5 -155.5q0 -120 -64 -196t-177 -76q-94 0 -161.5 67.5t-67.5 161.5zM185 224q0 -39 28 -67.5t68 -28.5t68 28.5
t28 67.5q0 40 -28 68.5t-68 28.5t-68 -28.5t-28 -68.5z" />
    <glyph glyph-name="Delta" unicode="&#x2206;" horiz-adv-x="710" 
d="M29 45l305 654q6 11 17 11h10q11 0 17 -11l304 -656q8 -17 2.5 -30t-22.5 -13h-604q-21 0 -29.5 10.5t0.5 34.5zM237 144l238 1l-121 260h-1z" />
    <glyph glyph-name="product" unicode="&#x220f;" horiz-adv-x="698" 
d="M49 19v662q0 7 5.5 13t13.5 6h562q8 0 13.5 -6t5.5 -13v-662q0 -7 -5.5 -13t-13.5 -6h-119q-8 0 -13.5 5.5t-5.5 13.5v534h-286v-534q0 -8 -5.5 -13.5t-13.5 -5.5h-119q-8 0 -13.5 6t-5.5 13z" />
    <glyph glyph-name="summation" unicode="&#x2211;" horiz-adv-x="552" 
d="M50 19v49l265 285l-265 287v41q0 8 5.5 13.5t13.5 5.5h414q8 0 13.5 -5.5t5.5 -13.5v-109q0 -8 -5.5 -13.5t-13.5 -5.5h-184l135 -124q19 -19 19 -41v-69q0 -18 -19 -37l-135 -135h184q8 0 13.5 -5.5t5.5 -13.5v-109q0 -8 -5.5 -13.5t-13.5 -5.5h-414q-8 0 -13.5 5.5
t-5.5 13.5z" />
    <glyph glyph-name="minus" unicode="&#x2212;" horiz-adv-x="539" 
d="M69 293q-7 0 -13 5.5t-6 13.5v70q0 8 6 13.5t13 5.5h401q7 0 12.5 -5.5t5.5 -13.5v-70q0 -8 -5.5 -13.5t-12.5 -5.5h-401z" />
    <glyph glyph-name="uni2215" unicode="&#x2215;" horiz-adv-x="104" 
d="M-74 10q-5 -10 -17 -10h-55q-11 0 -16.5 8.5t-0.5 18.5l344 663q5 10 17 10h56q11 0 16.5 -8.5t0.5 -18.5z" />
    <glyph glyph-name="uni2219" unicode="&#x2219;" horiz-adv-x="406" 
d="M201 149q-43 0 -74 31t-31 74q0 45 31 77t74 32q45 0 77 -32t32 -77q0 -43 -32 -74t-77 -31z" />
    <glyph glyph-name="radical" unicode="&#x221a;" horiz-adv-x="696" 
d="M242 1l-174 373q-5 10 0.5 18t16.5 8h113q13 0 17 -11l47 -106h6l185 406q4 11 17 11h205q19 0 19 -19v-89q0 -8 -5.5 -13.5t-13.5 -5.5h-122l-267 -572q-6 -11 -17 -11h-10q-11 0 -17 11z" />
    <glyph glyph-name="infinity" unicode="&#x221e;" horiz-adv-x="586" 
d="M190 156q-58 0 -99 41t-41 99t41 99t99 41q56 0 102 -50q48 50 103 50q59 0 100 -41t41 -99t-41.5 -99t-99.5 -41q-57 0 -103 50q-45 -50 -102 -50zM352 296q0 -16 11 -27t27 -11t27.5 11t11.5 27t-11.5 27.5t-27.5 11.5t-27 -11.5t-11 -27.5zM195 258q16 0 27.5 11
t11.5 27t-11 27.5t-28 11.5q-16 0 -27 -11.5t-11 -27.5t11 -27t27 -11z" />
    <glyph glyph-name="integral" unicode="&#x222b;" horiz-adv-x="393" 
d="M111 -92v585q0 101 58.5 159t155.5 58q64 0 111 -38q12 -12 4 -25l-48 -79q-9 -14 -23 -7q-25 11 -42 11q-28 0 -45.5 -20t-17.5 -60v-585q0 -100 -60 -158.5t-154 -58.5q-64 0 -111 38q-12 12 -4 25l48 79q9 14 23 7q25 -11 42 -11q28 0 45.5 20.5t17.5 59.5z" />
    <glyph glyph-name="approxequal" unicode="&#x2248;" horiz-adv-x="477" 
d="M93 309l-47 41q-8 12 -1 19q2 3 6.5 9t17.5 20t27.5 25t35.5 20t41 9q8 0 16 -2t13 -3t14 -6t11 -6.5l12 -9t11 -7.5q3 -2 13 -8.5t15 -9.5t14 -6t17 -3q24 0 54 44q11 12 24 1l44 -40q9 -11 1 -20q-2 -3 -6 -8.5t-17 -20t-27 -25t-34.5 -19.5t-40.5 -9q-14 0 -27.5 4.5
t-19.5 7.5t-20.5 14t-17.5 13q-34 21 -49 21q-27 0 -57 -43q-4 -7 -11.5 -7t-11.5 5zM93 113l-47 41q-8 12 -1 19q2 3 6.5 9t17.5 20t27.5 25t35.5 20t41 9q8 0 16 -2t13 -3t14 -6t11 -6.5l12 -9t11 -7.5q3 -2 13 -8.5t15 -9.5t14 -6t17 -3q24 0 54 44q11 12 24 1l44 -40
q9 -11 1 -20q-2 -3 -6 -8.5t-17 -20t-27 -25t-34.5 -19.5t-40.5 -9q-14 0 -27.5 4.5t-19.5 7.5t-20.5 14t-17.5 13q-34 21 -49 21q-27 0 -57 -43q-4 -7 -11.5 -7t-11.5 5z" />
    <glyph glyph-name="notequal" unicode="&#x2260;" horiz-adv-x="477" 
d="M124 48q-17 8 -10 24l22 48h-67q-8 0 -13.5 5.5t-5.5 13.5v71q0 8 5.5 13.5t13.5 5.5h118l47 102h-165q-8 0 -13.5 5.5t-5.5 13.5v70q0 8 5.5 13.5t13.5 5.5h215l35 74q7 17 25 9l15 -8q7 -2 10 -9.5t-1 -14.5l-24 -51h64q8 0 13.5 -5.5t5.5 -13.5v-70q0 -8 -5.5 -13.5
t-13.5 -5.5h-114l-47 -102h161q8 0 13.5 -5.5t5.5 -13.5v-71q0 -8 -5.5 -13.5t-13.5 -5.5h-211l-33 -72q-7 -16 -25 -8z" />
    <glyph glyph-name="lessequal" unicode="&#x2264;" horiz-adv-x="458" 
d="M26 383q-10 6 -10 17v15q0 11 10 17l377 182q11 5 19.5 0.5t8.5 -16.5v-87q0 -10 -8 -14l-208 -88l208 -84q8 -4 8 -14v-87q0 -12 -9 -17t-19 1zM39 39q-7 0 -13 5.5t-6 13.5v70q0 8 6 13.5t13 5.5h374q7 0 12.5 -5.5t5.5 -13.5v-70q0 -8 -5.5 -13.5t-12.5 -5.5h-374z
" />
    <glyph glyph-name="greaterequal" unicode="&#x2265;" horiz-adv-x="458" 
d="M44 208q-10 -6 -19 -1t-9 17v87q0 10 8 14l208 84l-208 88q-8 4 -8 14v87q0 12 9 16.5t19 -0.5l377 -182q10 -6 10 -17v-15q0 -11 -10 -17zM34 39q-7 0 -12.5 5.5t-5.5 13.5v70q0 8 5.5 13.5t12.5 5.5h374q8 0 13.5 -5.5t5.5 -13.5v-70q0 -8 -5.5 -13.5t-13.5 -5.5h-374z
" />
    <glyph glyph-name="lozenge" unicode="&#x25ca;" horiz-adv-x="710" 
d="M86 314q-14 16 -13 40.5t19 45.5l241 299q5 11 17 11h10q12 0 17 -11l242 -299q37 -45 -1 -91l-241 -298q-5 -11 -17 -11h-10q-12 0 -17 11zM354 198h1l124 157l-124 157h-1l-124 -157z" />
    <glyph glyph-name="uniF8FF" unicode="&#xf8ff;" horiz-adv-x="599" 
d="M50 30v640q0 30 30 30h439q30 0 30 -30v-640q0 -30 -30 -30h-439q-30 0 -30 30zM262 314q0 -12 14 -12h36q15 0 15 13v26q0 16 16.5 32t36 28.5t36 36.5t16.5 53q0 48 -35.5 79.5t-89.5 31.5q-24 0 -46.5 -6.5t-37 -15t-25.5 -17.5t-16 -15l-5 -7q-8 -12 0 -18l22 -22
q8 -6 17 0q1 1 7.5 7t9.5 9t11.5 8.5t15.5 8.5t18 5.5t22 2.5q29 0 45 -15t16 -37q0 -21 -15.5 -39t-34 -30t-34 -32.5t-15.5 -45.5v-29zM245 156q0 -20 14.5 -34t33.5 -14q20 0 34.5 14t14.5 34t-14.5 34t-34.5 14q-19 0 -33.5 -14t-14.5 -34z" />
    <glyph glyph-name="CR" horiz-adv-x="0" 
 />
    <glyph glyph-name="grave.cap" horiz-adv-x="302" 
d="M222 762l-182 82q-16 10 -6 30l34 59q3 6 12.5 6.5t13.5 -3.5l170 -104q11 -9 6 -19l-21 -42q-10 -20 -27 -9z" />
    <glyph glyph-name="acute.cap" horiz-adv-x="302" 
d="M80 762q-17 -11 -27 9l-21 42q-5 10 6 19l170 104q4 4 13.5 3.5t12.5 -6.5l34 -59q10 -20 -6 -30z" />
    <glyph glyph-name="circumflex.cap" horiz-adv-x="373" 
d="M87 762q-13 -7 -22 4l-33 47q-6 9 6 19l135 104q11 8 24 0l138 -104q11 -9 6 -19l-34 -46q-9 -12 -21 -5l-99 58z" />
    <glyph glyph-name="caron.cap" horiz-adv-x="373" 
d="M175 762l-138 104q-11 9 -6 19l34 46q9 12 21 5l99 -58l100 58q13 7 22 -4l33 -47q6 -9 -6 -19l-135 -104q-11 -8 -24 0z" />
    <glyph glyph-name="caron.alt" horiz-adv-x="373" 
d="M175 710q35 0 63 -28.5t28 -87.5q0 -102 -93 -179q-12 -9 -22 2l-15 15q-11 12 1 22q70 51 71 120q-17 -7 -40 -7q-30 0 -51 20.5t-21 50.5t22.5 51t56.5 21z" />
    <glyph glyph-name="tilde.cap" horiz-adv-x="380" 
d="M73 785l-35 28q-12 9 -6 23q8 14 20 30.5t37.5 35t49.5 18.5q25 0 57.5 -23.5t50.5 -23.5t38 31q10 16 25 2l34 -26q14 -10 1 -29q-46 -78 -100 -78q-28 0 -61.5 24t-48.5 24q-8 0 -15 -5.5t-15.5 -17t-9.5 -12.5q-9 -9 -22 -1z" />
    <glyph glyph-name="dieresis.cap" horiz-adv-x="474" 
d="M369 768q-29 0 -49.5 21t-20.5 50t20.5 49.5t49.5 20.5t50 -20.5t21 -49.5t-21 -50t-50 -21zM104 768q-29 0 -49.5 21t-20.5 50t20.5 49.5t49.5 20.5t50 -20.5t21 -49.5t-21 -50t-50 -21z" />
    <glyph glyph-name="macron.cap" horiz-adv-x="414" 
d="M79 801q-8 0 -13.5 5t-5.5 13v41q0 19 19 19h256q19 0 19 -19v-41q0 -8 -5.5 -13t-13.5 -5h-256z" />
    <glyph glyph-name="breve.cap" horiz-adv-x="346" 
d="M173 763q-55 0 -94.5 34t-47.5 86q-2 9 3.5 15.5t15.5 6.5h45q13 0 17 -12q7 -21 23.5 -34.5t37.5 -13.5q19 0 35.5 14.5t23.5 33.5q3 12 17 12h47q9 0 14.5 -6.5t4.5 -15.5q-8 -52 -48 -86t-94 -34z" />
    <glyph glyph-name="ring.cap" horiz-adv-x="290" 
d="M145 752q-48 0 -81.5 33.5t-33.5 81.5t33.5 81.5t81.5 33.5q47 0 81 -33.5t34 -81.5t-34 -81.5t-81 -33.5zM145 823q17 0 30 13.5t13 30.5t-13 30t-30 13t-30.5 -13t-13.5 -30t13.5 -30.5t30.5 -13.5z" />
    <glyph glyph-name="hungarumlaut.cap" horiz-adv-x="392" 
d="M216 768q-8 0 -14.5 6t-4.5 13l30 141q6 19 19 19h94q14 0 19 -8t-1 -17l-78 -139q-11 -15 -18 -15h-46zM50 768q-8 0 -14.5 6t-4.5 13l30 141q6 19 19 19h94q14 0 19 -7.5t-1 -17.5l-78 -139q-8 -15 -18 -15h-46z" />
    <glyph glyph-name="dotaccent.cap" horiz-adv-x="219" 
d="M109 774q-33 0 -56 23t-23 56t23 56.5t56 23.5t56.5 -23.5t23.5 -56.5t-23.5 -56t-56.5 -23z" />
    <glyph glyph-name="cedilla.cap" horiz-adv-x="247" 
d="M51 0h73v-52q45 -6 68.5 -33t23.5 -69q0 -44 -31 -75t-75 -31q-46 0 -76 35q-13 14 4 29l23 20q11 11 21 -2q6 -9 24 -9q12 0 21 10t9 22q0 39 -68 42q-17 2 -17 18v95z" />
    <glyph glyph-name="ogonek.cap" horiz-adv-x="276" 
d="M104 15h71q-7 -6 -17 -15.5t-27 -38.5t-17 -56q0 -29 17.5 -48t52.5 -19q8 0 41 6q10 1 16 -4.5t6 -14.5v-33q0 -15 -15 -19q-35 -8 -63 -8q-61 0 -99.5 29t-38.5 85q0 37 18.5 71t36.5 50z" />
    <glyph glyph-name="commaaccent" horiz-adv-x="292" 
d="M150 -90q35 0 63 -28.5t28 -87.5q0 -102 -93 -179q-12 -9 -22 2l-15 15q-11 12 1 22q70 51 71 120q-17 -7 -40 -7q-30 0 -51 20.5t-21 50.5t22.5 51t56.5 21z" />
    <glyph glyph-name="commaaccent.alt" horiz-adv-x="292" 
d="M150 -90q35 0 63 -28.5t28 -87.5q0 -102 -93 -179q-12 -9 -22 2l-15 15q-11 12 1 22q70 51 71 120q-17 -7 -40 -7q-30 0 -51 20.5t-21 50.5t22.5 51t56.5 21z" />
    <glyph glyph-name="commaaccent.cap" horiz-adv-x="292" 
d="M150 -90q35 0 63 -28.5t28 -87.5q0 -102 -93 -179q-12 -9 -22 2l-15 15q-11 12 1 22q70 51 71 120q-17 -7 -40 -7q-30 0 -51 20.5t-21 50.5t22.5 51t56.5 21z" />
    <glyph glyph-name="brokenbar.case" horiz-adv-x="294" 
d="M139 512q-8 0 -13.5 5.5t-5.5 12.5v331q0 8 5.5 13.5t13.5 5.5h17q8 0 13 -5.5t5 -13.5v-331q0 -7 -5.5 -12.5t-13.5 -5.5h-16zM120 169q0 8 5.5 13.5t13.5 5.5h17q8 0 13 -5.5t5 -13.5v-331q0 -7 -5.5 -12.5t-13.5 -5.5h-16q-8 0 -13.5 5.5t-5.5 12.5v331z" />
    <glyph glyph-name="zero.tf" horiz-adv-x="560" 
d="M280 -10q-122 0 -189 92.5t-67 257.5t67 257.5t189 92.5t189 -92.5t67 -257.5t-67 -257.5t-189 -92.5zM280 135q46 0 70.5 53t24.5 152q0 98 -24.5 151.5t-70.5 53.5t-70.5 -53.5t-24.5 -151.5q0 -99 24.5 -152t70.5 -53z" />
    <glyph glyph-name="one.tf" horiz-adv-x="560" 
d="M111 0q-8 0 -13.5 5t-5.5 13v91q0 19 19 19h121v341h-96q-7 0 -12.5 5.5t-5.5 13.5v63q0 9 6 15l146 114h92q7 0 12.5 -5.5t5.5 -13.5v-533h90q19 0 19 -19v-91q0 -8 -5.5 -13t-13.5 -5h-359z" />
    <glyph glyph-name="two.tf" horiz-adv-x="560" 
d="M46 19v20q173 227 265 367q26 40 26 76q0 30 -24 51t-64 21q-52 0 -97 -50q-14 -14 -28 0l-61 62q-14 12 -1 26q3 4 9.5 10.5t26.5 23.5t42 30t55.5 23.5t66.5 10.5q104 0 165.5 -58t61.5 -144q0 -36 -8.5 -62t-30.5 -68q-14 -26 -41.5 -65t-68 -94t-51.5 -71h176
q7 0 13 -6t6 -13v-90q0 -7 -6 -13t-13 -6h-400q-8 0 -13.5 5.5t-5.5 13.5z" />
    <glyph glyph-name="three.tf" horiz-adv-x="560" 
d="M51 79q-10 12 1 25l63 63q12 12 25 2q62 -46 110 -46q33 0 60 24t27 56q0 34 -32.5 57.5t-86.5 23.5h-56q-8 0 -13.5 6t-5.5 13v83q0 8 5.5 13.5t13.5 5.5h56q51 0 79 21.5t28 55.5q0 32 -23.5 53.5t-56.5 21.5q-52 0 -87 -40q-12 -14 -27 -1l-61 60q-14 12 0 26
q3 4 9.5 9.5t26.5 21t41 27t52 21t62 9.5q90 0 153 -50.5t63 -132.5q0 -53 -32 -95t-71 -60v-3q44 -19 82.5 -64.5t38.5 -103.5q0 -82 -65 -136.5t-168 -54.5q-58 0 -106 18t-69.5 35t-35.5 36z" />
    <glyph glyph-name="four.tf" horiz-adv-x="560" 
d="M13 141q-8 0 -13.5 5.5t-5.5 13.5v106l349 419q6 6 15 6h72q8 0 13.5 -5.5t5.5 -13.5l1 -410h79q8 0 13.5 -5t5.5 -13v-83q0 -8 -5.5 -13.5t-13.5 -5.5h-79l1 -123q0 -7 -5.5 -13t-13.5 -6h-107q-7 0 -13 6t-6 13v122h-293zM151 265h159v186z" />
    <glyph glyph-name="five.tf" horiz-adv-x="560" 
d="M69 73q-17 19 -2 34l63 62q11 11 24 3q71 -48 119 -48q41 0 68 27t27 68q0 42 -28 69.5t-75 27.5h-154q-14 0 -22.5 11t-8.5 24v310q0 8 5.5 13.5t13.5 5.5h322q8 0 13.5 -5.5t5.5 -13.5v-88q0 -8 -5.5 -13.5t-13.5 -5.5h-206v-107h71q102 0 165 -64t63 -164
q0 -95 -71.5 -162t-175.5 -67q-69 0 -121 26.5t-77 56.5z" />
    <glyph glyph-name="six.tf" horiz-adv-x="560" 
d="M48 262q0 83 27.5 155.5t65.5 119t88 83.5t86.5 54.5t68.5 27.5q23 8 31 -16l29 -77q7 -21 -19 -29q-179 -57 -201 -164q47 20 95 20q78 0 138.5 -56.5t60.5 -160.5q0 -94 -67.5 -161.5t-161.5 -67.5q-113 0 -177 76t-64 196zM191 224q0 -39 28 -67.5t68 -28.5t68 28.5
t28 67.5q0 40 -28 68.5t-68 28.5t-68 -28.5t-28 -68.5z" />
    <glyph glyph-name="seven.tf" horiz-adv-x="560" 
d="M75 19v11l250 522h-232q-7 0 -13 6t-6 13v90q0 7 6 13t13 6h422q7 0 13 -6t6 -13v-7l-299 -625q-14 -29 -41 -29h-99q-8 0 -14 5.5t-6 13.5z" />
    <glyph glyph-name="eight.tf" horiz-adv-x="560" 
d="M36 181q0 31 15.5 61t39 52.5t39.5 35t28 19.5v3q-39 22 -71 62t-32 93q0 82 64 132.5t158 50.5q97 0 162 -50.5t65 -132.5q0 -88 -103 -154v-4q47 -26 84.5 -68.5t37.5 -99.5q0 -83 -67.5 -137t-178.5 -54q-107 0 -174 54t-67 137zM279 418q71 26 71 83q0 26 -21.5 45.5
t-49.5 19.5t-49 -19.5t-21 -45.5q0 -56 70 -83zM198 188q0 -32 25 -53.5t57 -21.5q31 0 56 22t25 53q0 29 -21.5 54t-60.5 38q-38 -13 -59.5 -38.5t-21.5 -53.5z" />
    <glyph glyph-name="nine.tf" horiz-adv-x="560" 
d="M115 77q-7 21 19 29q179 57 201 164q-47 -20 -95 -20q-78 0 -138.5 56.5t-60.5 160.5q0 94 67.5 161.5t161.5 67.5q113 0 177 -76t64 -196q0 -83 -26.5 -155.5t-64.5 -119t-87.5 -83.5t-87 -54.5t-70.5 -27.5q-23 -6 -31 16zM272 365q40 0 68 28.5t28 68.5q0 39 -28 67.5
t-68 28.5t-68 -28.5t-28 -67.5q0 -40 28 -68.5t68 -28.5z" />
    <glyph glyph-name="zero.denom" horiz-adv-x="362" 
d="M50 148q0 75 34 116.5t97 41.5t97 -41.5t34 -116.5q0 -74 -34 -116t-97 -42t-97 42t-34 116zM181 70q31 0 31 78t-31 78t-31 -78t31 -78z" />
    <glyph glyph-name="one.denom" horiz-adv-x="256" 
d="M112 9v184h-54q-8 0 -8 11v38q0 6 8 11l76 43h63q9 0 9 -9v-278q0 -9 -9 -9h-75q-10 0 -10 9z" />
    <glyph glyph-name="two.denom" horiz-adv-x="317" 
d="M50 9v18l102 123q20 26 20 47q0 29 -31 29q-20 0 -35 -15q-12 -8 -18 4l-22 36q0 1 -1 2q-8 13 -1 20q3 3 6 5q36 28 93 28q45 0 74.5 -25.5t29.5 -68.5q0 -41 -30 -84l-40 -53h58q10 0 10 -9v-57q0 -9 -10 -9h-195q-10 0 -10 9z" />
    <glyph glyph-name="three.denom" horiz-adv-x="316" 
d="M57 19q-12 9 -3 22l23 34q8 11 20 4q14 -11 36 -11q33 0 33 24q0 25 -33 25h-33q-13 2 -13 16v34q0 17 18 17h28q12 0 20 6.5t8 17.5q0 22 -29 22q-15 0 -30 -11q-10 -6 -17 4l-26 35q-9 11 1 21q31 27 87 27q50 0 80 -22.5t30 -60.5q0 -45 -51 -70q60 -23 60 -77
q0 -41 -34.5 -63.5t-84.5 -22.5q-51 0 -90 29z" />
    <glyph glyph-name="four.denom" horiz-adv-x="374" 
d="M50 64v62l159 167q1 3 7 3h51q9 0 9 -9v-163h39q9 0 9 -8v-51q0 -9 -9 -9h-39v-47q0 -9 -9 -9h-68q-10 0 -10 9v47h-130q-9 0 -9 8zM132 122h58v65z" />
    <glyph glyph-name="five.denom" horiz-adv-x="328" 
d="M54 28q-7 7 -1 15l30 39q8 13 17 4q19 -18 51 -18q13 0 24 7.5t11 20.5t-10.5 21t-27.5 8h-72q-7 0 -11.5 4.5t-4.5 10.5v147q0 9 10 9h161q10 0 10 -9v-53q0 -9 -10 -9h-96v-29h29q54 0 84 -25.5t30 -73.5t-35 -77.5t-93 -29.5q-63 0 -96 38z" />
    <glyph glyph-name="six.denom" horiz-adv-x="339" 
d="M50 109q0 47 20.5 86t51.5 62t54 35t43 18q15 4 20 -9l15 -40q4 -13 -9 -17q-26 -8 -56.5 -25.5t-40.5 -39.5q17 12 50 12q36 0 63.5 -25.5t27.5 -71.5q0 -43 -34.5 -73.5t-81.5 -30.5q-56 0 -89.5 33t-33.5 86zM143 99q0 -12 9 -20.5t21 -8.5t20.5 8t8.5 21t-8.5 21.5
t-20.5 8.5t-21 -8.5t-9 -21.5z" />
    <glyph glyph-name="seven.denom" horiz-adv-x="324" 
d="M50 9v5l108 208h-92q-10 0 -10 8v57q0 9 10 9h198q10 0 10 -9v-16l-127 -262q-5 -9 -16 -9h-68q-13 0 -13 9z" />
    <glyph glyph-name="eight.denom" horiz-adv-x="353" 
d="M50 76q0 22 15.5 41t28 26.5t17.5 8.5v1q-19 7 -35.5 25t-16.5 45q0 37 34 60t82 23q50 0 84 -23t34 -60q0 -27 -16.5 -45.5t-35.5 -24.5v-1q24 -6 43 -25t19 -51q0 -37 -35.5 -61.5t-92.5 -24.5q-56 0 -90.5 24.5t-34.5 61.5zM176 184q10 0 17.5 7.5t7.5 17.5t-7.5 18
t-17.5 8t-18 -8t-8 -18t8 -17.5t18 -7.5zM145 88q0 -13 10 -21.5t22 -8.5t21.5 8t9.5 22q0 13 -8.5 22t-22.5 9q-12 0 -22 -9.5t-10 -21.5z" />
    <glyph glyph-name="nine.denom" horiz-adv-x="339" 
d="M85 35q-4 13 9 17q26 8 56.5 25.5t40.5 39.5q-17 -12 -54 -12q-33 0 -60 26.5t-27 70.5q0 43 34.5 73.5t81.5 30.5q56 0 89.5 -33t33.5 -86q0 -47 -20.5 -86t-51.5 -62t-54 -35t-43 -18q-15 -4 -20 9zM166 167q12 0 21 8.5t9 21.5q0 12 -9 20.5t-21 8.5t-20.5 -8
t-8.5 -21t8.5 -21.5t20.5 -8.5z" />
    <glyph glyph-name="zero.num" horiz-adv-x="362" 
d="M181 394q-63 0 -97 42t-34 116q0 75 34 116.5t97 41.5t97 -41.5t34 -116.5q0 -74 -34 -116t-97 -42zM181 474q31 0 31 78t-31 78t-31 -78t31 -78z" />
    <glyph glyph-name="one.num" horiz-adv-x="256" 
d="M122 404q-10 0 -10 9v184h-54q-8 0 -8 11v38q0 6 8 11l76 43h63q9 0 9 -9v-278q0 -9 -9 -9h-75z" />
    <glyph glyph-name="two.num" horiz-adv-x="317" 
d="M60 404q-10 0 -10 9v18l102 123q20 26 20 47q0 29 -31 29q-20 0 -35 -15q-12 -8 -18 4l-22 36q0 1 -1 2q-8 13 -1 20q3 3 6 5q36 28 93 28q45 0 74.5 -25.5t29.5 -68.5q0 -41 -30 -84l-40 -53h58q10 0 10 -9v-57q0 -9 -10 -9h-195z" />
    <glyph glyph-name="three.num" horiz-adv-x="316" 
d="M147 394q-51 0 -90 29q-12 9 -3 22l23 34q8 11 20 4q14 -11 36 -11q33 0 33 24q0 25 -33 25h-33q-13 2 -13 16v34q0 17 18 17h28q12 0 20 6.5t8 17.5q0 22 -29 22q-15 0 -30 -11q-10 -6 -17 4l-26 35q-9 11 1 21q31 27 87 27q50 0 80 -22.5t30 -60.5q0 -45 -51 -70
q60 -23 60 -77q0 -41 -34.5 -63.5t-84.5 -22.5z" />
    <glyph glyph-name="four.num" horiz-adv-x="374" 
d="M199 404q-10 0 -10 9v47h-130q-9 0 -9 8v62l159 167q1 3 7 3h51q9 0 9 -9v-163h39q9 0 9 -8v-51q0 -9 -9 -9h-39v-47q0 -9 -9 -9h-68zM132 526h58v65z" />
    <glyph glyph-name="five.num" horiz-adv-x="328" 
d="M150 394q-63 0 -96 38q-7 7 -1 15l30 39q8 13 17 4q19 -18 51 -18q13 0 24 7.5t11 20.5t-10.5 21t-27.5 8h-72q-7 0 -11.5 4.5t-4.5 10.5v147q0 9 10 9h161q10 0 10 -9v-53q0 -9 -10 -9h-96v-29h29q54 0 84 -25.5t30 -73.5t-35 -77.5t-93 -29.5z" />
    <glyph glyph-name="six.num" horiz-adv-x="339" 
d="M173 394q-56 0 -89.5 33t-33.5 86q0 47 20.5 86t51.5 62t54 35t43 18q15 4 20 -9l15 -40q4 -13 -9 -17q-26 -8 -56.5 -25.5t-40.5 -39.5q17 12 50 12q36 0 63.5 -25.5t27.5 -71.5q0 -43 -34.5 -73.5t-81.5 -30.5zM173 474q12 0 20.5 8t8.5 21t-8.5 21.5t-20.5 8.5
t-21 -8.5t-9 -21.5q0 -12 9 -20.5t21 -8.5z" />
    <glyph glyph-name="seven.num" horiz-adv-x="324" 
d="M63 404q-13 0 -13 9v5l108 208h-92q-10 0 -10 8v57q0 9 10 9h198q10 0 10 -9v-16l-127 -262q-5 -9 -16 -9h-68z" />
    <glyph glyph-name="eight.num" horiz-adv-x="353" 
d="M175 394q-56 0 -90.5 24.5t-34.5 61.5q0 22 15.5 41t28 26.5t17.5 8.5v1q-19 7 -35.5 25t-16.5 45q0 37 34 60t82 23q50 0 84 -23t34 -60q0 -27 -16.5 -45.5t-35.5 -24.5v-1q24 -6 43 -25t19 -51q0 -37 -35.5 -61.5t-92.5 -24.5zM176 588q10 0 17.5 7.5t7.5 17.5t-7.5 18
t-17.5 8t-18 -8t-8 -18t8 -17.5t18 -7.5zM177 462q12 0 21.5 8t9.5 22q0 13 -8.5 22t-22.5 9q-12 0 -22 -9.5t-10 -21.5q0 -13 10 -21.5t22 -8.5z" />
    <glyph glyph-name="nine.num" horiz-adv-x="339" 
d="M120 390q-15 -4 -20 9l-15 40q-4 13 9 17q26 8 56.5 25.5t40.5 39.5q-17 -12 -54 -12q-33 0 -60 26.5t-27 70.5q0 43 34.5 73.5t81.5 30.5q56 0 89.5 -33t33.5 -86q0 -47 -20.5 -86t-51.5 -62t-54 -35t-43 -18zM166 571q12 0 21 8.5t9 21.5q0 12 -9 20.5t-21 8.5
t-20.5 -8t-8.5 -21t8.5 -21.5t20.5 -8.5z" />
    <glyph glyph-name="a.alt" 
d="M456 381v-362q0 -7 -6 -13t-13 -6h-47q-14 0 -21 20l-12 33q-5 -7 -15 -17.5t-44.5 -28t-73.5 -17.5q-85 0 -142 60.5t-57 149.5q0 87 57 148.5t141 61.5q39 0 72.5 -16t47.5 -32l14 -15l12 33q7 20 21 20h47q7 0 13 -6t6 -13zM162 199q0 -34 23.5 -57t57.5 -23t57 23
t23 57q0 35 -23 58.5t-57 23.5t-57.5 -23.5t-23.5 -58.5z" />
    <glyph glyph-name="agrave.alt" 
d="M456 381v-362q0 -7 -6 -13t-13 -6h-47q-14 0 -21 20l-12 33q-5 -7 -15 -17.5t-44.5 -28t-73.5 -17.5q-85 0 -142 60.5t-57 149.5q0 87 57 148.5t141 61.5q39 0 72.5 -16t47.5 -32l14 -15l12 33q7 20 21 20h47q7 0 13 -6t6 -13zM162 199q0 -34 23.5 -57t57.5 -23t57 23
t23 57q0 35 -23 58.5t-57 23.5t-57.5 -23.5t-23.5 -58.5zM330 512l-182 82q-16 10 -6 30l34 59q3 6 12.5 6.5t13.5 -3.5l170 -104q11 -9 6 -19l-21 -42q-10 -20 -27 -9z" />
    <glyph glyph-name="aacute.alt" 
d="M456 381v-362q0 -7 -6 -13t-13 -6h-47q-14 0 -21 20l-12 33q-5 -7 -15 -17.5t-44.5 -28t-73.5 -17.5q-85 0 -142 60.5t-57 149.5q0 87 57 148.5t141 61.5q39 0 72.5 -16t47.5 -32l14 -15l12 33q7 20 21 20h47q7 0 13 -6t6 -13zM162 199q0 -34 23.5 -57t57.5 -23t57 23
t23 57q0 35 -23 58.5t-57 23.5t-57.5 -23.5t-23.5 -58.5zM178 512q-17 -11 -27 9l-21 42q-5 10 6 19l170 104q4 4 13.5 3.5t12.5 -6.5l34 -59q10 -20 -6 -30z" />
    <glyph glyph-name="acircumflex.alt" 
d="M456 381v-362q0 -7 -6 -13t-13 -6h-47q-14 0 -21 20l-12 33q-5 -7 -15 -17.5t-44.5 -28t-73.5 -17.5q-85 0 -142 60.5t-57 149.5q0 87 57 148.5t141 61.5q39 0 72.5 -16t47.5 -32l14 -15l12 33q7 20 21 20h47q7 0 13 -6t6 -13zM162 199q0 -34 23.5 -57t57.5 -23t57 23
t23 57q0 35 -23 58.5t-57 23.5t-57.5 -23.5t-23.5 -58.5zM145 512q-13 -7 -22 4l-33 47q-6 9 6 19l135 104q11 8 24 0l138 -104q11 -9 6 -19l-34 -46q-9 -12 -21 -5l-99 58z" />
    <glyph glyph-name="atilde.alt" 
d="M456 381v-362q0 -7 -6 -13t-13 -6h-47q-14 0 -21 20l-12 33q-5 -7 -15 -17.5t-44.5 -28t-73.5 -17.5q-85 0 -142 60.5t-57 149.5q0 87 57 148.5t141 61.5q39 0 72.5 -16t47.5 -32l14 -15l12 33q7 20 21 20h47q7 0 13 -6t6 -13zM162 199q0 -34 23.5 -57t57.5 -23t57 23
t23 57q0 35 -23 58.5t-57 23.5t-57.5 -23.5t-23.5 -58.5zM125 555l-35 28q-12 9 -6 23q8 14 20 30.5t37.5 35t49.5 18.5q25 0 57.5 -23.5t50.5 -23.5t38 31q10 16 25 2l34 -26q14 -10 1 -29q-46 -78 -100 -78q-28 0 -61.5 24t-48.5 24q-8 0 -15 -5.5t-15.5 -17t-9.5 -12.5
q-9 -9 -22 -1z" />
    <glyph glyph-name="adieresis.alt" 
d="M456 381v-362q0 -7 -6 -13t-13 -6h-47q-14 0 -21 20l-12 33q-5 -7 -15 -17.5t-44.5 -28t-73.5 -17.5q-85 0 -142 60.5t-57 149.5q0 87 57 148.5t141 61.5q39 0 72.5 -16t47.5 -32l14 -15l12 33q7 20 21 20h47q7 0 13 -6t6 -13zM162 199q0 -34 23.5 -57t57.5 -23t57 23
t23 57q0 35 -23 58.5t-57 23.5t-57.5 -23.5t-23.5 -58.5zM353 535q-29 0 -49.5 21t-20.5 50t20.5 49.5t49.5 20.5t50 -20.5t21 -49.5t-21 -50t-50 -21zM148 535q-29 0 -49.5 21t-20.5 50t20.5 49.5t49.5 20.5t50 -20.5t21 -49.5t-21 -50t-50 -21z" />
    <glyph glyph-name="amacron.alt" 
d="M456 381v-362q0 -7 -6 -13t-13 -6h-47q-14 0 -21 20l-12 33q-5 -7 -15 -17.5t-44.5 -28t-73.5 -17.5q-85 0 -142 60.5t-57 149.5q0 87 57 148.5t141 61.5q39 0 72.5 -16t47.5 -32l14 -15l12 33q7 20 21 20h47q7 0 13 -6t6 -13zM162 199q0 -34 23.5 -57t57.5 -23t57 23
t23 57q0 35 -23 58.5t-57 23.5t-57.5 -23.5t-23.5 -58.5zM119 563q-8 0 -13.5 5t-5.5 13v41q0 19 19 19h256q19 0 19 -19v-41q0 -8 -5.5 -13t-13.5 -5h-256z" />
    <glyph glyph-name="abreve.alt" 
d="M456 381v-362q0 -7 -6 -13t-13 -6h-47q-14 0 -21 20l-12 33q-5 -7 -15 -17.5t-44.5 -28t-73.5 -17.5q-85 0 -142 60.5t-57 149.5q0 87 57 148.5t141 61.5q39 0 72.5 -16t47.5 -32l14 -15l12 33q7 20 21 20h47q7 0 13 -6t6 -13zM162 199q0 -34 23.5 -57t57.5 -23t57 23
t23 57q0 35 -23 58.5t-57 23.5t-57.5 -23.5t-23.5 -58.5zM245 527q-55 0 -94.5 34t-47.5 86q-2 9 3.5 15.5t15.5 6.5h45q13 0 17 -12q7 -21 23.5 -34.5t37.5 -13.5q19 0 35.5 14.5t23.5 33.5q3 12 17 12h47q9 0 14.5 -6.5t4.5 -15.5q-8 -52 -48 -86t-94 -34z" />
    <glyph glyph-name="aring.alt" 
d="M456 381v-362q0 -7 -6 -13t-13 -6h-47q-14 0 -21 20l-12 33q-5 -7 -15 -17.5t-44.5 -28t-73.5 -17.5q-85 0 -142 60.5t-57 149.5q0 87 57 148.5t141 61.5q39 0 72.5 -16t47.5 -32l14 -15l12 33q7 20 21 20h47q7 0 13 -6t6 -13zM162 199q0 -34 23.5 -57t57.5 -23t57 23
t23 57q0 35 -23 58.5t-57 23.5t-57.5 -23.5t-23.5 -58.5zM247 480q-48 0 -81.5 33.5t-33.5 81.5t33.5 81.5t81.5 33.5q47 0 81 -33.5t34 -81.5t-34 -81.5t-81 -33.5zM247 551q17 0 30 13.5t13 30.5t-13 30t-30 13t-30.5 -13t-13.5 -30t13.5 -30.5t30.5 -13.5z" />
    <glyph glyph-name="aringacute.alt" 
d="M456 381v-362q0 -7 -6 -13t-13 -6h-47q-14 0 -21 20l-12 33q-5 -7 -15 -17.5t-44.5 -28t-73.5 -17.5q-85 0 -142 60.5t-57 149.5q0 87 57 148.5t141 61.5q39 0 72.5 -16t47.5 -32l14 -15l12 33q7 20 21 20h47q7 0 13 -6t6 -13zM162 199q0 -34 23.5 -57t57.5 -23t57 23
t23 57q0 35 -23 58.5t-57 23.5t-57.5 -23.5t-23.5 -58.5zM240 429q-48 0 -81.5 33.5t-33.5 81.5t33.5 81.5t81.5 33.5q47 0 81 -33.5t34 -81.5t-34 -81.5t-81 -33.5zM240 500q17 0 30 13.5t13 30.5t-13 30t-30 13t-30.5 -13t-13.5 -30t13.5 -30.5t30.5 -13.5zM169 661
q-17 -11 -27 9l-21 42q-5 10 6 19l170 104q4 4 13.5 3.5t12.5 -6.5l34 -59q11 -20 -6 -30z" />
    <glyph glyph-name="aogonek.alt" 
d="M456 381v-362q0 -7 -6 -13t-13 -6h-10q-45 -45 -45 -95q0 -29 17.5 -48t52.5 -19q8 0 41 6q10 1 16 -4.5t6 -14.5v-33q0 -15 -15 -19q-35 -8 -63 -8q-61 0 -99.5 29t-38.5 85q0 37 18.5 71t33.5 47.5t20 16.5l-14 39q-5 -7 -15 -17.5t-44.5 -28t-73.5 -17.5
q-85 0 -142 60.5t-57 149.5q0 87 57 148.5t141 61.5q39 0 72.5 -16t47.5 -32l14 -15l12 33q7 20 21 20h47q7 0 13 -6t6 -13zM162 199q0 -34 23.5 -57t57.5 -23t57 23t23 57q0 35 -23 58.5t-57 23.5t-57.5 -23.5t-23.5 -58.5z" />
    <glyph glyph-name="parenleft.case" horiz-adv-x="344" 
d="M291 -49q-254 18 -254 394q0 380 254 393q8 1 14 -4.5t6 -13.5l4 -85q0 -15 -13 -19q-61 -19 -88 -86.5t-27 -184.5q0 -118 27 -185t88 -87q13 -6 13 -19l-4 -84q-2 -19 -20 -19z" />
    <glyph glyph-name="parenright.case" horiz-adv-x="344" 
d="M29 55q0 5 4 10.5t9 7.5q61 20 88 87t27 185q0 117 -27 184.5t-88 86.5q-13 4 -13 19l4 85q0 8 6 13.5t14 4.5q254 -13 254 -393q0 -376 -254 -394q-8 0 -14 5.5t-6 12.5z" />
    <glyph glyph-name="hyphen.case" horiz-adv-x="359" 
d="M65 268q-8 0 -13.5 5t-5.5 13v91q0 19 19 19h229q19 0 19 -19v-91q0 -8 -5.5 -13t-13.5 -5h-229z" />
    <glyph glyph-name="bracketleft.case" horiz-adv-x="361" 
d="M198 -63h127q8 0 13.5 -5.5t5.5 -12.5v-81q0 -8 -6 -13.5t-13 -5.5h-246q-7 0 -13 5.5t-6 13.5v963q0 7 6 13t13 6h246q7 0 13 -6t6 -13v-80q0 -8 -5.5 -13.5t-13.5 -5.5h-127v-765z" />
    <glyph glyph-name="bracketright.case" horiz-adv-x="361" 
d="M36 -63h127v765h-127q-8 0 -13.5 5.5t-5.5 13.5v80q0 7 5.5 13t13.5 6h246q8 0 13.5 -6t5.5 -13v-963q0 -8 -5.5 -13.5t-13.5 -5.5h-246q-8 0 -13.5 5.5t-5.5 13.5v81q0 7 5.5 12.5t13.5 5.5z" />
    <glyph glyph-name="braceleft.case" horiz-adv-x="393" 
d="M101 101v104q0 50 -69 64q-6 1 -10.5 6.5t-4.5 11.5v58q0 14 13 18l20 7.5t31.5 21.5t19.5 35v111q0 69 16.5 121.5t41.5 83t60 50t66 27t66 9.5q18 2 20 -17q1 -16 2.5 -43t2.5 -42q0 -15 -14 -19q-110 -28 -110 -170v-91q0 -22 -9 -43.5t-21 -36t-24.5 -26t-21.5 -17.5
l-9 -5v-4q17 -7 34 -19.5t34 -40t17 -60.5v-94q0 -142 110 -170q14 -4 14 -19q-2 -60 -5 -85q-1 -8 -7 -13t-13 -4q-35 2 -66 9.5t-66 27t-60 50t-41.5 83t-16.5 121.5z" />
    <glyph glyph-name="bar.case" horiz-adv-x="174" 
d="M60 -162v1023q0 8 5.5 13.5t13.5 5.5h17q8 0 13 -5.5t5 -13.5v-1023q0 -7 -5.5 -12.5t-13.5 -5.5h-16q-8 0 -13.5 5.5t-5.5 12.5z" />
    <glyph glyph-name="braceright.case" horiz-adv-x="393" 
d="M141 101v94q0 47 27.5 77t57.5 43v4l-9 6t-20.5 16.5t-26 26.5t-20.5 35.5t-9 43.5v91q0 142 -110 170q-14 4 -14 19q1 15 2.5 42t2.5 43q2 19 20 17q35 -2 66 -9.5t66 -27t60 -50t41.5 -83t16.5 -121.5v-111q0 -18 18 -34t36 -23l17 -7q13 -4 13 -18v-58
q0 -6 -4.5 -11.5t-10.5 -6.5q-69 -14 -69 -64v-104q0 -69 -16.5 -121.5t-41.5 -83t-60 -50t-66 -27t-66 -9.5q-7 -1 -13 4t-7 13q-3 25 -5 85q0 15 14 19q110 28 110 170z" />
    <glyph glyph-name="guilsinglleft.case" horiz-adv-x="283" 
d="M125 159l-104 155q-8 11 0 24l109 148q7 12 18 12h79q13 0 17 -9.5t-2 -21.5l-65 -139l62 -147q6 -12 1.5 -21t-16.5 -9h-84q-9 0 -15 8z" />
    <glyph glyph-name="guilsinglright.case" horiz-adv-x="283" 
d="M58 151q-12 0 -16.5 9t1.5 21l62 147l-65 139q-6 12 -2 21.5t17 9.5h79q11 0 18 -12l109 -148q8 -13 0 -24l-104 -155q-6 -8 -15 -8h-84z" />
    <glyph glyph-name="guillemotleft.case" horiz-adv-x="501" 
d="M239 314q-8 11 0 24l109 148q7 12 18 12h79q13 0 17 -9.5t-2 -21.5l-65 -139l62 -147q6 -12 1.5 -21t-16.5 -9h-84q-9 0 -15 8zM125 159l-104 155q-8 11 0 24l109 148q7 12 18 12h79q13 0 17 -9.5t-2 -21.5l-65 -139l62 -147q6 -12 1.5 -21t-16.5 -9h-84q-9 0 -15 8z" />
    <glyph glyph-name="guillemotright.case" horiz-adv-x="501" 
d="M261 181l62 147l-65 139q-6 12 -2 21.5t17 9.5h79q11 0 18 -12l109 -148q8 -13 0 -24l-104 -155q-6 -8 -15 -8h-84q-12 0 -16.5 9t1.5 21zM58 151q-12 0 -16.5 9t1.5 21l62 147l-65 139q-6 12 -2 21.5t17 9.5h79q11 0 18 -12l109 -148q8 -13 0 -24l-104 -155
q-6 -8 -15 -8h-84z" />
    <glyph glyph-name="endash.case" horiz-adv-x="535" 
d="M63 293q-8 0 -13.5 5t-5.5 13v51q0 19 19 19h409q19 0 19 -19v-51q0 -8 -5.5 -13t-13.5 -5h-409z" />
    <glyph glyph-name="emdash.case" horiz-adv-x="755" 
d="M63 293q-8 0 -13.5 5t-5.5 13v51q0 19 19 19h629q19 0 19 -19v-51q0 -8 -5.5 -13t-13.5 -5h-629z" />
    <glyph glyph-name="bullet.case" horiz-adv-x="406" 
d="M201 173q-57 0 -99 42t-42 99q0 59 42 102t99 43q59 0 102 -43t43 -102q0 -57 -43 -99t-102 -42z" />
    <glyph glyph-name="periodcentered.case" horiz-adv-x="276" 
d="M136 239q-43 0 -74 31t-31 74q0 45 31 77t74 32q45 0 77 -32t32 -77q0 -43 -32 -74t-77 -31z" />
    </font>
</defs>
</svg>
