<svg width="620" height="491" xmlns="http://www.w3.org/2000/svg" xmlns:xlink="http://www.w3.org/1999/xlink" xml:space="preserve" overflow="hidden"><defs><clipPath id="clip0"><rect x="2089" y="653" width="620" height="491"/></clipPath></defs><g clip-path="url(#clip0)" transform="translate(-2089 -653)"><path d="M2137.41 653 2286.42 653 2290.95 653.914 2290.95 653 2293.4 654.408 2293.98 654.527 2296.18 656.013 2428.39 732.089 2682.27 732.089C2697.03 732.089 2709 744.065 2709 758.837L2709 1065.25C2709 1080.02 2697.03 1092 2682.27 1092L2144.73 1092C2129.97 1092 2118 1080.02 2118 1065.25L2118 795.145 2118 758.837 2118 672.428C2118 661.698 2126.69 653 2137.41 653Z" fill="#383838" fill-rule="evenodd"/><path d="M2108.41 705 2257.42 705 2261.95 705.914 2261.95 705 2264.4 706.408 2264.98 706.527 2267.18 708.013 2399.39 784.089 2653.27 784.089C2668.03 784.089 2680 796.065 2680 810.837L2680 1117.25C2680 1132.02 2668.03 1144 2653.27 1144L2115.73 1144C2100.97 1144 2089 1132.02 2089 1117.25L2089 847.145 2089 810.837 2089 724.428C2089 713.698 2097.69 705 2108.41 705Z" fill="#36B893" fill-rule="evenodd"/><path d="M2231 764C2279.6 764 2319 803.774 2319 852.837 2319 858.97 2318.38 864.958 2317.21 870.741L2316.83 872 2145.18 872 2144.79 870.741C2143.62 864.958 2143 858.97 2143 852.837 2143 803.774 2182.4 764 2231 764Z" fill="#FFFFFF" fill-rule="evenodd"/><path d="M2231 808C2255.85 808 2276 828.018 2276 852.711 2276 858.885 2274.74 864.766 2272.46 870.115L2271.18 872 2190.82 872 2189.54 870.115C2187.26 864.766 2186 858.885 2186 852.711 2186 828.018 2206.15 808 2231 808Z" fill="#383838" fill-rule="evenodd"/><path d="M2244 832C2244 824.268 2250.04 818 2257.5 818 2264.96 818 2271 824.268 2271 832 2271 839.732 2264.96 846 2257.5 846 2250.04 846 2244 839.732 2244 832Z" fill="#FFFFFF" fill-rule="evenodd"/><path d="M2596 844.5C2596 833.178 2605.63 824 2617.5 824 2629.37 824 2639 833.178 2639 844.5 2639 855.822 2629.37 865 2617.5 865 2605.63 865 2596 855.822 2596 844.5Z" fill="#383838" fill-rule="evenodd"/><path d="M2532 844.5C2532 833.178 2541.4 824 2553 824 2564.6 824 2574 833.178 2574 844.5 2574 855.822 2564.6 865 2553 865 2541.4 865 2532 855.822 2532 844.5Z" fill="#383838" fill-rule="evenodd"/><path d="M0 74.9999 74.9999 0 150 74.9999Z" fill="#FFFFFF" fill-rule="evenodd" transform="matrix(1 0 0 -1 2157 1078)"/><path d="M0 74.9999 75.0001 0 150 74.9999Z" fill="#FFFFFF" fill-rule="evenodd" transform="matrix(1 0 0 -1 2307 1078)"/><path d="M0 74.9999 74.9999 0 150 74.9999Z" fill="#FFFFFF" fill-rule="evenodd" transform="matrix(1 0 0 -1 2457 1078)"/><path d="M0 72.9999 72.9999 72.9999 72.9999 0Z" fill="#FFFFFF" fill-rule="evenodd" transform="matrix(1 0 0 -1 2607 1076)"/></g></svg>