<?xml version="1.0" encoding="utf-8"?>
<!-- Generator: Adobe Illustrator 25.4.1, SVG Export Plug-In . SVG Version: 6.00 Build 0)  -->
<svg version="1.1" xmlns="http://www.w3.org/2000/svg" xmlns:xlink="http://www.w3.org/1999/xlink" x="0px" y="0px"
	 viewBox="0 0 595.28 841.89" style="enable-background:new 0 0 595.28 841.89;" xml:space="preserve">
<style type="text/css">
	.st0{fill:#FFFFFF;}
</style>
<g id="Calque_2">
</g>
<g id="Calque_1">
	<circle class="st0" cx="297.75" cy="421.25" r="193.26"/>
	<path d="M465.32,381.91c-4.36-12.11-26.53-16.5-58.74-13.87c-26.38-51.81-87.78-77.12-143.89-56.9
		c-60.82,21.91-92.36,88.97-70.45,149.79c5.16,14.32,12.83,27,22.33,37.75c-3.5,0.44-6.89,0.8-10.15,1.08
		c-27.17,2.27-45.62-1.22-49.18-11.1c-3.56-9.88,8.43-24.33,30.8-39.91l-1.2-3.32c-31.54,20.46-49.08,40.21-44.3,53.48
		c4.78,13.27,30.89,17.3,68.22,12.94c30.86-3.6,69.39-12.92,109.98-27.54c43.48-15.67,81.28-34.51,107.72-52.54
		C454.55,412.63,469.82,394.4,465.32,381.91z M422.03,419.45c-0.85,0.63-1.76,1.27-2.65,1.91c0.02-13.21-2.16-26.63-6.9-39.77
		c-1.22-3.39-2.61-6.68-4.1-9.89c21.6-0.67,35.99,3.08,39.09,11.69C450.73,392.45,440.93,405.36,422.03,419.45z"/>
	<g>
		<path d="M342.03,531.39c38.31-13.8,64.84-45.56,73.86-82.34c-11.54,9.31-44.26,34.11-84.23,50.42
			c-34.05,13.9-63.29,23.31-78.49,27.9C280.14,539.89,311.84,542.26,342.03,531.39z"/>
	</g>
	<g>
		<path class="st0" d="M207.89,412.35l28.56-11.38c18.83-7.5,31.73,5.55,38.13,21.62c7.79,19.54,3.56,35.6-16.14,43.45l-25.16,10.02
			L207.89,412.35z M244.18,452.8l6.8-2.71c10.84-4.32,8.47-14.85,6.09-20.83c-1.6-4.02-7.15-14.73-19.73-9.72l-5.54,2.21
			L244.18,452.8z"/>
		<path class="st0" d="M298.45,422.9l-35.9-32.33l19.22-7.66l18.77,19.72l0.46-27.38l19.06-7.6l-4.21,48.32l9.35,23.47l-17.4,6.94
			L298.45,422.9z"/>
		<path class="st0" d="M352.91,403.57c0.64,1.61,1.45,2.94,2.31,3.94c2.79,3.33,6.91,2.62,10.16,1.33c2.85-1.13,6.77-3.94,4.89-8.67
			c-1.31-3.3-4.12-3.22-15.1-2.46c-10.08,0.71-21.39,2.01-26.51-10.84c-5.87-14.72,2.76-25.51,14.39-30.14
			c12.26-4.89,25.2-3.94,31.86,11.4l-16.45,6.56c-0.65-2.54-2.23-3.76-4.09-4.27c-1.89-0.59-4.04-0.25-5.78,0.44
			c-2.37,0.95-5.96,3.21-4.54,6.77c2.13,4.42,10.59,2.19,19.58,1.51c8.98-0.69,18.57,0.35,23.23,12.04
			c6.61,16.6-4.78,27.34-17.36,32.36c-6.41,2.55-25.71,7.25-33.98-13.03L352.91,403.57z"/>
	</g>
</g>
</svg>
