<svg width="1652" height="1947" xmlns="http://www.w3.org/2000/svg" xmlns:xlink="http://www.w3.org/1999/xlink" xml:space="preserve" overflow="hidden"><defs><clipPath id="clip0"><rect x="1948" y="43" width="1652" height="1947"/></clipPath></defs><g clip-path="url(#clip0)" transform="translate(-1948 -43)"><path d="M1948.52 914.332 2120.31 677.979 3599.6 1753.17 3427.81 1989.52Z" fill="#6A6A6A" fill-rule="evenodd"/><path d="M2055.64 766.959 2081.91 730.811 3561.2 1806 3534.93 1842.15Z" fill="#FFFFFF" fill-rule="evenodd"/><path d="M1948.52 914.331 2017.24 819.79 3496.53 1894.98 3427.81 1989.52Z" fill="#0D0D0D" fill-rule="evenodd"/><path d="M1948.52 914.332 2120.31 677.979 2693.12 1094.31 2521.33 1330.66Z" fill="#FFFFFF" fill-rule="evenodd"/><path d="M1948.52 914.332 2017.24 819.791 2526.09 1189.64 2457.38 1284.18Z" fill="#D9D9D9" fill-rule="evenodd"/><path d="M2081.91 730.811 2120.31 677.979 2629.16 1047.83 2590.77 1100.66Z" fill="#F2F2F2" fill-rule="evenodd"/><path d="M2457.38 1284.18 2526.09 1189.64 2590.05 1236.12 2521.33 1330.66Z" fill="#BF9000" fill-rule="evenodd"/><path d="M2526.09 1189.64 2564.49 1136.81 2628.45 1183.29 2590.05 1236.12Z" fill="#FFFF00" fill-rule="evenodd"/><path d="M2590.76 1100.66 2629.16 1047.83 2693.12 1094.31 2654.72 1147.14Z" fill="#FFFF00" fill-rule="evenodd"/><path d="M2017.24 819.791 2055.64 766.959 2564.49 1136.81 2526.09 1189.64Z" fill="#F2F2F2" fill-rule="evenodd"/><path d="M2299 263 2299 341.247" stroke="#DD8833" stroke-width="48.125" stroke-linecap="round" stroke-linejoin="round" stroke-miterlimit="10" fill="none" fill-rule="evenodd"/><path d="M0 0 70.876 0.000360892" stroke="#DD8833" stroke-width="48.125" stroke-linecap="round" stroke-linejoin="round" stroke-miterlimit="10" fill="none" fill-rule="evenodd" transform="matrix(-1 0 0 1 2431.88 206)"/><path d="M0 0 70.876 0.000360892" stroke="#DD8833" stroke-width="48.125" stroke-linecap="round" stroke-linejoin="round" stroke-miterlimit="10" fill="none" fill-rule="evenodd" transform="matrix(-1 0 0 1 2238.88 206)"/><path d="M2388 527.434 2565.65 483.155 2603.05 312 2665.95 312 2710.15 483.155 2881 527.434 2881 593.566 2703.35 637.845 2665.95 809 2603.05 809 2558.85 624.22 2388 593.566 2388 527.434Z" stroke="#F9D366" stroke-width="27.5" stroke-linecap="round" stroke-linejoin="round" stroke-miterlimit="10" fill="#F9D366" fill-rule="evenodd"/><path d="M2299 67 2299 145.247" stroke="#DD8833" stroke-width="48.125" stroke-linecap="round" stroke-linejoin="round" stroke-miterlimit="10" fill="none" fill-rule="evenodd"/></g></svg>