<svg width="1733" height="1766" xmlns="http://www.w3.org/2000/svg" xmlns:xlink="http://www.w3.org/1999/xlink" xml:space="preserve" overflow="hidden"><defs><clipPath id="clip0"><rect x="1434" y="231" width="1733" height="1766"/></clipPath></defs><g clip-path="url(#clip0)" transform="translate(-1434 -231)"><path d="M1834 794.341C1834 726.222 1889.22 671 1957.34 671L2625.66 671C2693.78 671 2749 726.222 2749 794.341L2749 1287.69C2749 1355.81 2693.78 1411.03 2625.66 1411.03L1957.34 1411.03C1889.22 1411.03 1834 1355.81 1834 1287.69Z" fill="#FCBE37" fill-rule="evenodd"/><path d="M2291.5 231C2475.13 231 2624 379.95 2624 563.689L2624 671 2576.71 671 2576.71 562.255C2576.71 404.652 2449.01 276.888 2291.5 276.888 2133.99 276.888 2006.29 404.652 2006.29 562.255L2006.29 671 1959 671 1959 563.689C1959 379.95 2107.87 231 2291.5 231Z" fill="#6A6A6A" fill-rule="evenodd"/><path d="M2164 1041C2164 971.964 2221.08 916 2291.5 916 2361.92 916 2419 971.964 2419 1041 2419 1110.04 2361.92 1166 2291.5 1166 2221.08 1166 2164 1110.04 2164 1041Z" fill="#6A6A6A" fill-rule="evenodd"/><path d="M2562 1041.5 2562 1041.5 2562 1041.5ZM2582.4 1021 2749 1021 2749 1062 2582.4 1062C2576.77 1062 2571.67 1059.7 2567.98 1056L2562 1041.5 2567.98 1027C2571.67 1023.29 2576.77 1021 2582.4 1021Z" fill="#E3AB32" fill-rule="evenodd"/><path d="M0 20.4996 0 20.5 0 20.5ZM20.4001 0 187 0 187 40.9999 20.4001 40.9995C14.7667 40.9995 9.66678 38.7049 5.97528 34.9954L0 20.5 5.97528 6.00418C9.66678 2.29461 14.7667 0 20.4001 0Z" fill="#E3AB32" fill-rule="evenodd" transform="matrix(-1 0 0 1 2020 1021)"/><path d="M2040 1499.62C2040 1483.81 2052.81 1471 2068.62 1471L2533.38 1471C2549.19 1471 2562 1483.81 2562 1499.62L2562 1968.38C2562 1984.19 2549.19 1997 2533.38 1997L2068.62 1997C2052.81 1997 2040 1984.19 2040 1968.38Z" fill="#FCBE37" fill-rule="evenodd"/><path d="M2301 1598 2301 1869.56" stroke="#6A6A6A" stroke-width="45.8333" stroke-linecap="round" stroke-linejoin="round" stroke-miterlimit="10" fill="none" fill-rule="evenodd"/><path d="M2165 1734 2436.56 1734" stroke="#6A6A6A" stroke-width="45.8333" stroke-linecap="round" stroke-linejoin="round" stroke-miterlimit="10" fill="none" fill-rule="evenodd"/><path d="M2396.81 1638.21 2204.79 1830.23" stroke="#6A6A6A" stroke-width="45.8333" stroke-linecap="round" stroke-linejoin="round" stroke-miterlimit="10" fill="none" fill-rule="evenodd"/><path d="M2396.81 1830.23 2204.79 1638.21" stroke="#6A6A6A" stroke-width="45.8333" stroke-linecap="round" stroke-linejoin="round" stroke-miterlimit="10" fill="none" fill-rule="evenodd"/><path d="M1434 1499.68C1434 1483.84 1446.84 1471 1462.68 1471L1928.32 1471C1944.16 1471 1957 1483.84 1957 1499.68L1957 1968.32C1957 1984.16 1944.16 1997 1928.32 1997L1462.68 1997C1446.84 1997 1434 1984.16 1434 1968.32Z" fill="#FCBE37" fill-rule="evenodd"/><path d="M1696 1598 1696 1869.56" stroke="#6A6A6A" stroke-width="45.8333" stroke-linecap="round" stroke-linejoin="round" stroke-miterlimit="10" fill="none" fill-rule="evenodd"/><path d="M1560 1734 1831.56 1734" stroke="#6A6A6A" stroke-width="45.8333" stroke-linecap="round" stroke-linejoin="round" stroke-miterlimit="10" fill="none" fill-rule="evenodd"/><path d="M1791.69 1638.21 1599.67 1830.23" stroke="#6A6A6A" stroke-width="45.8333" stroke-linecap="round" stroke-linejoin="round" stroke-miterlimit="10" fill="none" fill-rule="evenodd"/><path d="M1791.69 1830.23 1599.67 1638.21" stroke="#6A6A6A" stroke-width="45.8333" stroke-linecap="round" stroke-linejoin="round" stroke-miterlimit="10" fill="none" fill-rule="evenodd"/><path d="M2645 1499.62C2645 1483.81 2657.81 1471 2673.62 1471L3138.38 1471C3154.19 1471 3167 1483.81 3167 1499.62L3167 1968.38C3167 1984.19 3154.19 1997 3138.38 1997L2673.62 1997C2657.81 1997 2645 1984.19 2645 1968.38Z" fill="#FCBE37" fill-rule="evenodd"/><path d="M2906 1598 2906 1869.56" stroke="#6A6A6A" stroke-width="45.8333" stroke-linecap="round" stroke-linejoin="round" stroke-miterlimit="10" fill="none" fill-rule="evenodd"/><path d="M2770 1734 3041.56 1734" stroke="#6A6A6A" stroke-width="45.8333" stroke-linecap="round" stroke-linejoin="round" stroke-miterlimit="10" fill="none" fill-rule="evenodd"/><path d="M3001.93 1638.21 2809.91 1830.23" stroke="#6A6A6A" stroke-width="45.8333" stroke-linecap="round" stroke-linejoin="round" stroke-miterlimit="10" fill="none" fill-rule="evenodd"/><path d="M3001.93 1830.23 2809.91 1638.21" stroke="#6A6A6A" stroke-width="45.8333" stroke-linecap="round" stroke-linejoin="round" stroke-miterlimit="10" fill="none" fill-rule="evenodd"/></g></svg>