<svg width="1624" height="1666" xmlns="http://www.w3.org/2000/svg" xmlns:xlink="http://www.w3.org/1999/xlink" xml:space="preserve" overflow="hidden"><defs><clipPath id="clip0"><rect x="608" y="250" width="1624" height="1666"/></clipPath></defs><g clip-path="url(#clip0)" transform="translate(-608 -250)"><path d="M1598.75 1492.21 1599.12 1491.95 1829.9 1272.64 1830.19 1272.29 2220.24 1682.76C2242.03 1705.69 2231.82 1750.76 2197.45 1783.42L2090.5 1885.06C2056.12 1917.72 2010.59 1925.62 1988.8 1902.69Z" fill-rule="evenodd"/><path d="M1435.89 1439.29C1403.11 1404.8 1404.51 1350.27 1439 1317.49L1663.83 1103.84C1698.33 1071.06 1752.86 1072.45 1785.64 1106.95L1785.64 1106.95C1818.41 1141.44 1817.02 1195.97 1782.53 1228.75L1557.69 1442.4C1523.2 1475.18 1468.67 1473.79 1435.89 1439.29Z" fill-rule="evenodd"/><path d="M879.332 504.945C685.362 689.266 677.54 995.932 861.862 1189.9 1046.18 1383.87 1352.85 1391.69 1546.82 1207.37 1740.79 1023.05 1748.61 716.385 1564.29 522.415 1379.97 328.445 1073.3 320.623 879.332 504.945ZM797.4 417.179C1039.86 186.778 1423.19 196.555 1653.6 439.017 1884 681.48 1874.22 1064.81 1631.76 1295.21 1389.3 1525.61 1005.96 1515.84 775.562 1273.38 545.16 1030.91 554.937 647.581 797.4 417.179Z" fill-rule="evenodd"/><path d="M1179.25 459.901 1179.25 546.097 1120.08 562.003C1078.65 577.585 1039.6 601.546 1005.49 633.952 937.288 698.764 901.81 785.086 899.587 872.256L899.699 877.317 815.651 877.317 815.491 870.111C818.27 761.149 862.617 653.246 947.874 572.23 1011.82 511.469 1089.69 474.46 1170.6 460.926Z" fill-rule="evenodd"/></g></svg>