<svg xmlns="http://www.w3.org/2000/svg" viewBox="0 0 272 227"><path d="M247 6c-2-2-10 4-24 13-14 10-24 18-26 19-14 11-22 19-34 29 0 0-28 24-77 64-4 3-3 2-8 6s-7 6-11 8c-3 2-4 3-5 3-5 2-9 .5-13 .01-8-1-15 2-20 4-2 .9-10 4-16 12-2 3-5 6-7 12-4 11 .5 23 8 32 8 9 17 11 20 12 2 .5 12 2 24-2 4-1 12-5 17-13 2-3 4-6 4-11 .6-6-1-8 .2-13 1-4 4-7 6-9 22-21 33-31 39-37a418 418 0 0 0 18-17c6-6 12-11 18-17 7-7 12-12 16-15 6-6 9-9 18-17 4-4 7-8 11-12s11-10 18-18c9-9 26-29 24-32zm-24 23c.9 1-16 17-24 26-7 7-14 13-27 25-3 3-7 7-14 13-22 20-32 30-36 33-.01.01-.05.04-.06.05-4 3-6 6-7 6-4 4-14 12-27 24l-8 8c-5 5-12 7-13 7-4 .4-4-1-9-2-3-.3-11-1-17 4-1 .9-4 4-5 9-.2 4 2 9 6 11 .7.4 4 2 8 1 .5-.1 5-1 6-4 .4-2-1-4-2-5-1-2-3-2-3-3-.06-1 3-3 6-3 .3-.02 5-.2 8 3 3 4 2 9 2 10-2 9-17 16-30 13-3-.6-14-4-18-14-4-12 4-23 6-24 7-8 18-13 29-11 4 .6 6 2 10 .8.8-.2 3-.8 7-3 5-3 8-6 8-6 6-6 13-11 19-16 8-7 5-4 39-33 12-11 22-19 25-21 17-15 18-15 24-20 5-4 37-31 39-30zm10 58c-.8-7 3-11 .4-13-2-2-5 .2-12 .2-9 .05-14-3-15-.9-1 2 3 5 4 12 .9 7-3 11-.5 13 2 2 5-.6 13-.5 9 .2 13 4 14 2 2-2-2-5-3-12zm-2 7c-1 1-4-1-9-1-5 .02-7 2-8 .6-1-1 .2-3 .06-7-.2-6-3-8-2-10 1-1 3 .8 9 .8 5 .1 7-2 9-.4 1 1-.7 4-.3 9 .4 5 2 7 1 8zm32-43c-.6-5 .9-8-1-10-2-2-5-.8-10-1-10-.6-14-5-16-3s3 6 4 15c.8 6-.7 9 1 11 2 2 5-.5 12-.2 8 .3 12 4 13 2 2-2-3-5-4-14zm-3 .6c.7 5 4 8 3 9s-4-1-10-1c-5-.09-7 2-8 .4-2-1-.1-4-1-10-1-5-3-7-2-8s4 1 10 2c5 .6 7-.6 9 1 1 2-.03 3 .5 7"/></svg>