<svg xmlns="http://www.w3.org/2000/svg" viewBox="0 0 238 270"><path d="M124 52c-34 1-61 31-62 64-2 36 28 71 66 70 36-.5 64-32 64-67 .2-36-30-69-67-67zm3 118c-28 .9-51-23-52-50-.9-27 21-52 49-53 28-.7 50 23 51 49 1 27-20 52-48 53z" class="st0"/><path d="M213 218c-23-36-64-42-73-43-2-.3-12-1-25 .3-11 1-46 6-69 35-18 22-19 47-20 57 5-.01 10-.03 16-.04-.08-8 .9-29 16-48 20-25 50-29 58-30 11-1 20-.3 24 .4 7 1 41 6 60 36 10 16 12 32 12 41l14 .4c-.06-11-2-30-14-49zm19-173c-4-8-13-11-22-14s-17-3-29-3c-7-.01-12 .4-15 .8-5 .6-9 1-14 2-6 1-17 4-27 7-41 12-71 32-71 32s-19 13-34 30c-2 2-5 5-8 10-4 6-8 13-8 22-.07 4-.2 13 6 19 4 4 10 6 20 5 19-1 32-9 42-14-1-3-2-7-4-10a93 93 0 0 1-12 5c-4 1-8 3-15 4-9 1-16 2-20-2s-3-11-3-14c.4-4 2-10 12-21 8-9 15-15 19-18 3-2 16-12 35-20 6-2 11-4 21-8 2-.7 11-4 18-6 28-9 45-10 52-11 12-.8 20-.2 28 3 5 2 12 5 14 12 2 6-2 12-3 13-2 3-5 6-14 10-5 2-12 5-21 8 2 6 5 12 7 17 15-6 25-13 31-18 5-4 7-7 8-8 6-7 12-22 6-33z" class="st0"/><path d="M154 32c-10-7-18-10-20-11-5-2-9-3-17-6C96 9 80 5 64 4c-1-.09-8-.6-17 1-.6.1-7 2-12 5-1 .9-3 2-3 4-1 3-1 5-1 6 .4 5 4 8 7 12 4 5 9 11 12 19 1 3 2 6 3 10 .7 4 .9 6 .3 8-.4 2-1 3-2 4l14-5c.4-3 .4-5 .4-7-.03-2-.4-12-6-21-1-2-2-4-3-5-.9-1-3-4-7-9-5-5-6-6-5-7 .4-3 6-5 10-6 2-.3 4-.2 5-.1 4 .5 10 1 17 2 2 .4 7 1 19 4 0 0 23 5 33 12 2 2 4 3 4 4 1 2 1 4 1 5l25-7c-.7-.5-2-1-3-2"/></svg>