<svg width="1760" height="1754" xmlns="http://www.w3.org/2000/svg" xmlns:xlink="http://www.w3.org/1999/xlink" xml:space="preserve" overflow="hidden"><defs><clipPath id="clip0"><rect x="1288" y="26" width="1760" height="1754"/></clipPath></defs><g clip-path="url(#clip0)" transform="translate(-1288 -26)"><path d="M1288 689.239C1288 648.79 1320.79 616 1361.24 616L2974.76 616C3015.21 616 3048 648.79 3048 689.239L3048 1706.76C3048 1747.21 3015.21 1780 2974.76 1780L1361.24 1780C1320.79 1780 1288 1747.21 1288 1706.76Z" fill="#CF8BFC" fill-rule="evenodd"/><path d="M1376 798.929C1376 745.396 1419.4 702 1472.93 702L2864.07 702C2917.6 702 2961 745.396 2961 798.929L2961 1597.07C2961 1650.6 2917.6 1694 2864.07 1694L1472.93 1694C1419.4 1694 1376 1650.6 1376 1597.07Z" fill="#CEC1E8" fill-rule="evenodd"/><path d="M2251 539.081C2251 496.51 2285.51 462 2328.08 462L2877.92 462C2920.49 462 2955 496.51 2955 539.081L2955 1487.92C2955 1530.49 2920.49 1565 2877.92 1565L2328.08 1565C2285.51 1565 2251 1530.49 2251 1487.92Z" fill="#EDE6F5" fill-rule="evenodd"/><path d="M0 0 76.5002 0C118.75-1.95903e-14 153 34.2502 153 76.5L153 1231 0 1231Z" fill="#CEC1E8" fill-rule="evenodd" transform="matrix(-1 0 0 1 2304 462)"/><path d="M1378 539.081C1378 496.51 1412.51 462 1455.08 462L2004.92 462C2047.49 462 2082 496.51 2082 539.081L2082 1504.92C2082 1547.49 2047.49 1582 2004.92 1582L1455.08 1582C1412.51 1582 1378 1547.49 1378 1504.92Z" fill="#EDE6F5" fill-rule="evenodd"/><path d="M1977 465 2064 465C2112.05 465 2151 503.951 2151 552L2151 1686 1977 1686Z" fill="#EDE6F5" fill-rule="evenodd"/><path d="M1848.01 1688.2C1847.06 1630.22 1913.23 1582.67 1995.79 1582.01 2078.35 1581.34 2146.04 1627.81 2146.99 1685.8 2147.04 1688.68 2146.92 1691.57 2146.62 1694.45L1997.5 1687Z" fill="#CEC1E8" fill-rule="evenodd"/><path d="M1523.5 702.5 1997.85 702.5" stroke="#5D4E75" stroke-width="55" stroke-linecap="round" stroke-linejoin="round" stroke-miterlimit="10" fill="none" fill-rule="evenodd"/><path d="M1523.5 843.5 1997.85 843.5" stroke="#5D4E75" stroke-width="55" stroke-linecap="round" stroke-linejoin="round" stroke-miterlimit="10" fill="none" fill-rule="evenodd"/><path d="M1523.5 987.5 1997.85 987.5" stroke="#5D4E75" stroke-width="55" stroke-linecap="round" stroke-linejoin="round" stroke-miterlimit="10" fill="none" fill-rule="evenodd"/><path d="M1523.5 1137.5 1760.67 1137.5" stroke="#5D4E75" stroke-width="55" stroke-linecap="round" stroke-linejoin="round" stroke-miterlimit="10" fill="none" fill-rule="evenodd"/><path d="M1881.5 1137.5 1997.68 1137.5" stroke="#5D4E75" stroke-width="55" stroke-linecap="round" stroke-linejoin="round" stroke-miterlimit="10" fill="none" fill-rule="evenodd"/><path d="M1523.5 1288.5 1997.85 1288.5" stroke="#5D4E75" stroke-width="55" stroke-linecap="round" stroke-linejoin="round" stroke-miterlimit="10" fill="none" fill-rule="evenodd"/><path d="M1523.5 1437.5 1997.85 1437.5" stroke="#5D4E75" stroke-width="55" stroke-linecap="round" stroke-linejoin="round" stroke-miterlimit="10" fill="none" fill-rule="evenodd"/><path d="M2372.5 710.5 2846.85 710.5" stroke="#5D4E75" stroke-width="55" stroke-linecap="round" stroke-linejoin="round" stroke-miterlimit="10" fill="none" fill-rule="evenodd"/><path d="M2372.5 851.5 2846.85 851.5" stroke="#5D4E75" stroke-width="55" stroke-linecap="round" stroke-linejoin="round" stroke-miterlimit="10" fill="none" fill-rule="evenodd"/><path d="M2372.5 995.5 2846.85 995.5" stroke="#5D4E75" stroke-width="55" stroke-linecap="round" stroke-linejoin="round" stroke-miterlimit="10" fill="none" fill-rule="evenodd"/><path d="M2372.5 1145.5 2479.59 1145.5" stroke="#5D4E75" stroke-width="55" stroke-linecap="round" stroke-linejoin="round" stroke-miterlimit="10" fill="none" fill-rule="evenodd"/><path d="M2607.5 1145.5 2846.52 1145.5" stroke="#5D4E75" stroke-width="55" stroke-linecap="round" stroke-linejoin="round" stroke-miterlimit="10" fill="none" fill-rule="evenodd"/><path d="M2372.5 1296.5 2846.85 1296.5" stroke="#5D4E75" stroke-width="55" stroke-linecap="round" stroke-linejoin="round" stroke-miterlimit="10" fill="none" fill-rule="evenodd"/><path d="M2372.5 1445.5 2846.85 1445.5" stroke="#5D4E75" stroke-width="55" stroke-linecap="round" stroke-linejoin="round" stroke-miterlimit="10" fill="none" fill-rule="evenodd"/><path d="M2299 263 2299 341.247" stroke="#DD8833" stroke-width="48.125" stroke-linecap="round" stroke-linejoin="round" stroke-miterlimit="10" fill="none" fill-rule="evenodd"/><path d="M0 0 70.876 0.000360892" stroke="#DD8833" stroke-width="48.125" stroke-linecap="round" stroke-linejoin="round" stroke-miterlimit="10" fill="none" fill-rule="evenodd" transform="matrix(-1 0 0 1 2431.88 206)"/><path d="M0 0 70.876 0.000360892" stroke="#DD8833" stroke-width="48.125" stroke-linecap="round" stroke-linejoin="round" stroke-miterlimit="10" fill="none" fill-rule="evenodd" transform="matrix(-1 0 0 1 2238.88 206)"/><path d="M1523 255.001 1700.65 210.811 1738.05 39.9999 1800.95 39.9999 1845.15 210.811 2016 255.001 2016 320.999 1838.35 365.189 1800.95 536 1738.05 536 1693.85 351.592 1523 320.999 1523 255.001Z" stroke="#F9D366" stroke-width="27.5" stroke-linecap="round" stroke-linejoin="round" stroke-miterlimit="10" fill="#F9D366" fill-rule="evenodd"/><path d="M2388 527.434 2565.65 483.155 2603.05 312 2665.95 312 2710.15 483.155 2881 527.434 2881 593.566 2703.35 637.845 2665.95 809 2603.05 809 2558.85 624.22 2388 593.566 2388 527.434Z" stroke="#F9D366" stroke-width="27.5" stroke-linecap="round" stroke-linejoin="round" stroke-miterlimit="10" fill="#F9D366" fill-rule="evenodd"/><path d="M2299 67 2299 145.247" stroke="#DD8833" stroke-width="48.125" stroke-linecap="round" stroke-linejoin="round" stroke-miterlimit="10" fill="none" fill-rule="evenodd"/></g></svg>