<svg width="1732" height="1837" xmlns="http://www.w3.org/2000/svg" xmlns:xlink="http://www.w3.org/1999/xlink" xml:space="preserve" overflow="hidden"><defs><clipPath id="clip0"><rect x="1334" y="250" width="1732" height="1837"/></clipPath></defs><g clip-path="url(#clip0)" transform="translate(-1334 -250)"><path d="M0 69.4986C-2.90052e-14 31.1156 31.1156 0 69.4987 0L69.4987 0C107.882-1.45026e-14 138.997 31.1156 138.997 69.4986L138.997 386.152C138.997 424.535 107.881 455.651 69.4982 455.651L69.4987 455.65C31.1156 455.65 0 424.535 0 386.152Z" fill="#F0C419" fill-rule="evenodd" transform="matrix(-0.85868 -0.512512 -0.512512 0.85868 1865.98 1721.39)"/><path d="M2577.99 1781.07C2558.32 1748.11 2569.09 1705.44 2602.05 1685.77L2602.05 1685.77C2635.01 1666.1 2677.67 1676.87 2697.34 1709.83L2859.63 1981.74C2879.3 2014.69 2868.53 2057.36 2835.57 2077.03L2835.57 2077.03C2802.61 2096.7 2759.95 2085.93 2740.28 2052.97Z" fill="#F0C419" fill-rule="evenodd"/><path d="M1334 1281.5C1334 886.892 1721.72 567 2200 567 2678.28 567 3066 886.892 3066 1281.5 3066 1676.11 2678.28 1996 2200 1996 1721.72 1996 1334 1676.11 1334 1281.5Z" fill="#35495E" fill-rule="evenodd"/><path d="M1334 738.5C1334 568.672 1721.72 431 2200 431 2678.28 431 3066 568.672 3066 738.5 3066 908.328 2678.28 1046 2200 1046 1721.72 1046 1334 908.328 1334 738.5Z" fill="#3B5169" fill-rule="evenodd"/><path d="M1462 716.5C1462 598.587 1791.07 503 2197 503 2602.93 503 2932 598.587 2932 716.5 2932 834.413 2602.93 930 2197 930 1791.07 930 1462 834.413 1462 716.5Z" fill="#65DDB9" fill-rule="evenodd"/><path d="M1463.02 700.539C1468.32 599.315 1807.84 498.736 2198.66 499.001 2603.95 499.275 2932 594.71 2932 712.341 2927.68 746.438 2913.04 766.78 2880.36 794 2880.36 735.144 2544.53 605.751 2197.8 605.67 1873.37 605.595 1543.5 736.85 1512.9 791.675 1486.25 773.904 1462.18 761.289 1463.02 700.539Z" fill="#46B29D" fill-rule="evenodd"/><path d="M1421 1243.5C1421 1105.71 1481.67 994 1556.5 994 1631.33 994 1692 1105.71 1692 1243.5 1692 1381.29 1631.33 1493 1556.5 1493 1481.67 1493 1421 1381.29 1421 1243.5Z" fill="#3B5169" fill-rule="evenodd"/><path d="M1763 469C1763 348.05 1860.15 250 1980 250 2099.85 250 2197 348.05 2197 469 2197 589.95 2099.85 688 1980 688 1860.15 688 1763 589.95 1763 469Z" fill="#71C285" fill-rule="evenodd"/><path d="M1818 383.5C1818 340.146 1853.59 305 1897.5 305 1941.41 305 1977 340.146 1977 383.5 1977 426.854 1941.41 462 1897.5 462 1853.59 462 1818 426.854 1818 383.5Z" fill="#FFFFFF" fill-rule="evenodd"/><path d="M2410 550C2410 463.844 2479.17 394 2564.5 394 2649.83 394 2719 463.844 2719 550 2719 636.156 2649.83 706 2564.5 706 2479.17 706 2410 636.156 2410 550Z" fill="#71C285" fill-rule="evenodd"/><path d="M2434 486.5C2434 450.878 2462.88 422 2498.5 422 2534.12 422 2563 450.878 2563 486.5 2563 522.122 2534.12 551 2498.5 551 2462.88 551 2434 522.122 2434 486.5Z" fill="#FFFFFF" fill-rule="evenodd"/><path d="M154.571 352.098C-1.01338 295.43-46.8067 177.364 52.2893 88.392 151.385-0.580293 357.845-26.7675 513.43 29.9012 669.015 86.5699 714.808 204.635 615.712 293.608 590.535 316.212 557.321 335.534 518.23 350.317L419.802 265.199C533.699 248.15 587.615 201.108 540.228 160.129 492.841 119.149 362.094 99.7506 248.198 116.8 134.301 133.85 80.3847 180.892 127.772 221.871 150.825 241.807 195.206 257.566 250.913 265.598Z" fill="#556080" fill-rule="evenodd" transform="matrix(1 0 0 -1 1866 1626)"/></g></svg>