<svg width="1610" height="1505" xmlns="http://www.w3.org/2000/svg" xmlns:xlink="http://www.w3.org/1999/xlink" xml:space="preserve" overflow="hidden"><defs><clipPath id="clip0"><rect x="1535" y="303" width="1610" height="1505"/></clipPath></defs><g clip-path="url(#clip0)" transform="translate(-1535 -303)"><path d="M1535 1536.5C1535 1386.55 1895.41 1265 2340 1265 2784.59 1265 3145 1386.55 3145 1536.5 3145 1686.45 2784.59 1808 2340 1808 1895.41 1808 1535 1686.45 1535 1536.5Z" fill="#5B5E8B" fill-rule="evenodd"/><path d="M2400 1808C1922.27 1808 1535 1686.45 1535 1536.5 1535 1386.55 1922.27 1265 2400 1265 1922.27 1334.28 1713.94 1512 1934.67 1661.94 2029.59 1726.43 2194.55 1778.2 2400 1808Z" fill="#312E4B" fill-rule="evenodd" fill-opacity="0.458824"/><path d="M2376.87 306.274C2381.99 305.652 2386.93 306.08 2391.61 307.649L2395.72 309.59 2395.89 309.086C2619.14 442.481 2748.95 548.547 2779.87 613.439 2734.1 628.687 2676.48 636.626 2597.87 638.192L2547.63 638.188 2566.7 676.104C2661.09 871.069 2756.13 1132.73 2869 1491.16L2867.31 1491.16 2869 1502.57C2869 1602.22 2631.94 1683 2339.5 1683 2047.06 1683 1810 1602.22 1810 1502.57L1811.69 1491.16 1810 1491.16C1975.47 889.996 2151.55 504.599 2308.4 354.867L2328.06 337.93 2328.16 337.797C2344.55 319.464 2361.52 308.141 2376.87 306.274Z" fill="#5B5E8B" fill-rule="evenodd"/><path d="M2086.58 1166.34 2156.46 1144.06 2176.13 1068.03 2219.09 1133.77 2292.42 1132.52 2249.09 1195.43 2274.75 1270.69 2205.01 1243.83 2147.54 1291.6 2147.77 1212.08Z" fill="#FCB73E" fill-rule="evenodd"/><path d="M2477.63 1269.25 2550.68 1275.82 2598.3 1213.37 2612.39 1290.63 2680.47 1317.92 2616.13 1359.1 2610.59 1438.42 2556.73 1386.61 2485.23 1408.34 2516.28 1335.14Z" fill="#FCB73E" fill-rule="evenodd"/><path d="M2243.05 688.698 2306.47 687.14 2338.79 638.674 2361.29 692.404 2423.25 705.999 2373.75 740.764 2379.72 797.633 2326.62 765.389 2268.35 786.94 2285.04 732.248Z" fill="#FCB73E" fill-rule="evenodd"/><path d="M1835.26 1401.67 1837.15 1412.57C1862.94 1486.26 2077.37 1543.76 2338.08 1543.76 2598.79 1543.76 2813.22 1486.26 2839.01 1412.57L2840.74 1402.61 2869 1491.07 2867.31 1491.07 2869 1502.48C2869 1602.18 2631.94 1683 2339.5 1683 2047.06 1683 1810 1602.18 1810 1502.48L1811.69 1491.07 1810 1491.07ZM2828.56 1365 2828.73 1365 2828.82 1365.3ZM1845.86 1365 1847.6 1365 1844.98 1367.96Z" fill="#FCB73E" fill-rule="evenodd"/><path d="M2514.27 392 2535.23 398.26C2550.67 403.956 2565.38 411.619 2579.03 421.213L2608.39 448.171 2599.94 456.953 2613 535 2548.83 497.366 2484.66 535 2497.72 456.953 2445 402.165Z" fill="#FCB73E" fill-rule="evenodd"/><path d="M2080.12 711.691 2082.49 790.193 2145.72 827.368 2075.94 858.45 2058.58 936.049 2013.09 876.757Z" fill="#FCB73E" fill-rule="evenodd"/><path d="M2376.95 303.274C2382.07 302.652 2387.01 303.08 2391.69 304.649L2395.8 306.588 2395.97 306.085C2619.25 439.438 2749.07 545.47 2780 610.341L2771.85 612.579 2749.16 588.272C2688.02 527.433 2591.41 452.011 2460.57 365.512L2460.41 366.035 2456.55 364.022C2452.17 362.394 2447.53 361.95 2442.73 362.595 2428.34 364.532 2412.43 376.279 2397.06 395.3L2396.96 395.438 2378.53 413.01C2231.45 568.356 2066.33 968.204 1911.17 1591.91L1912.75 1591.91 1911.17 1603.74 1911.34 1605 1900.44 1600.04C1843.34 1571.25 1810 1536.54 1810 1499.19L1811.69 1487.79 1810 1487.79C1975.49 886.811 2151.6 501.536 2308.46 351.852L2328.13 334.919 2328.23 334.787C2344.62 316.459 2361.59 305.14 2376.95 303.274Z" fill="#312E4B" fill-rule="evenodd" fill-opacity="0.458824"/><path d="M2645.36 888.068 2658.22 905.894C2667.02 919.883 2674.04 934.995 2679.03 950.996L2685.89 990.451 2673.78 992.271 2636.37 1062.43 2608.33 993.158 2534.18 983.834 2592.39 929.667 2583.98 853.742Z" fill="#FCB73E" fill-rule="evenodd"/></g></svg>