<svg width="1210" height="1731" xmlns="http://www.w3.org/2000/svg" xmlns:xlink="http://www.w3.org/1999/xlink" xml:space="preserve" overflow="hidden"><defs><clipPath id="clip0"><rect x="1595" y="372" width="1210" height="1731"/></clipPath></defs><g clip-path="url(#clip0)" transform="translate(-1595 -372)"><path d="M2050 421.668C2050 394.237 2072.24 372 2099.67 372L2298.33 372C2325.76 372 2348 394.237 2348 421.668L2348 713.332C2348 740.763 2325.76 763 2298.33 763L2099.67 763C2072.24 763 2050 740.763 2050 713.332Z" fill="#FBB03B" fill-rule="evenodd"/><path d="M1938.75 568 2463.54 568C2515.43 568 2557.5 610.055 2557.5 661.933 2557.5 713.81 2515.43 755.866 2463.54 755.866L2415.42 755.866 2415.42 933.513 2435.49 940.859C2652.64 1032.68 2805 1247.63 2805 1498.16 2805 1832.21 2534.13 2103 2200 2103 1865.87 2103 1595 1832.21 1595 1498.16 1595 1247.63 1747.36 1032.68 1964.51 940.859L1984.58 933.513 1984.58 755.866 1938.75 755.866C1886.86 755.866 1844.79 713.81 1844.79 661.933 1844.79 610.055 1886.86 568 1938.75 568Z" fill="#6BC0DD" fill-rule="evenodd"/><path d="M1748.84 1281 2651.16 1281 2670.84 1321.23C2696.7 1381.4 2711 1447.56 2711 1517.01 2711 1794.8 2482.22 2020 2200 2020 1917.78 2020 1689 1794.8 1689 1517.01 1689 1447.56 1703.3 1381.4 1729.16 1321.23Z" fill="#DB6B79" fill-rule="evenodd"/><path d="M1827 1683C1827 1617.28 1881.17 1564 1948 1564 2014.83 1564 2069 1617.28 2069 1683 2069 1748.72 2014.83 1802 1948 1802 1881.17 1802 1827 1748.72 1827 1683Z" fill="#E88B9B" fill-rule="evenodd"/><path d="M2050 1859C2050 1827.52 2075.97 1802 2108 1802 2140.03 1802 2166 1827.52 2166 1859 2166 1890.48 2140.03 1916 2108 1916 2075.97 1916 2050 1890.48 2050 1859Z" fill="#E88B9B" fill-rule="evenodd"/><rect x="1986" y="755" width="430" height="98" fill="#509BAD"/><path d="M2018 628.5C2018 614.417 2029.42 603 2043.5 603L2097.5 603C2111.58 603 2123 614.417 2123 628.5L2123 628.5C2123 642.583 2111.58 654 2097.5 654L2043.5 654C2029.42 654 2018 642.583 2018 628.5Z" fill="#FFFFFF" fill-rule="evenodd"/><path d="M2168 628.5C2168 614.417 2179.42 603 2193.5 603L2466.5 603C2480.58 603 2492 614.417 2492 628.5L2492 628.5C2492 642.583 2480.58 654 2466.5 654L2193.5 654C2179.42 654 2168 642.583 2168 628.5Z" fill="#FFFFFF" fill-rule="evenodd"/><path d="M2295 830.5C2295 816.969 2305.97 806 2319.5 806L2319.5 806C2333.03 806 2344 816.969 2344 830.5L2344 913.5C2344 927.031 2333.03 938 2319.5 938L2319.5 938C2305.97 938 2295 927.031 2295 913.5Z" fill="#FFFFFF" fill-rule="evenodd"/><path d="M2442.52 1111.15C2627.89 1249.83 2693.14 1520.38 2588.25 1715.43 2556.04 1775.34 2509.87 1823.43 2454.09 1855.18L2429.75 1807.96C2585.26 1717.93 2632.01 1491.1 2534.17 1301.32 2504.98 1244.69 2464.77 1195.58 2417.13 1158.36Z" fill="#FFFFFF" fill-rule="evenodd"/><path d="M2202.96 1036.47C2247.88 1034.82 2293.52 1042.16 2337.79 1058.15L2327.58 1108.93C2288.69 1093.9 2248.57 1086.66 2209.11 1087.56Z" fill="#FFFFFF" fill-rule="evenodd"/></g></svg>