<svg width="650" height="650" xmlns="http://www.w3.org/2000/svg" xmlns:xlink="http://www.w3.org/1999/xlink" xml:space="preserve" overflow="hidden"><defs><clipPath id="clip0"><rect x="2881" y="652" width="650" height="650"/></clipPath></defs><g clip-path="url(#clip0)" transform="translate(-2881 -652)"><path d="M2881 977C2881 797.508 3026.51 652 3206 652 3385.49 652 3531 797.508 3531 977 3531 1156.49 3385.49 1302 3206 1302 3026.51 1302 2881 1156.49 2881 977Z" fill="#509BAD" fill-rule="evenodd"/><path d="M2944 887.5C2944 795.544 3018.54 721 3110.5 721 3202.46 721 3277 795.544 3277 887.5 3277 979.455 3202.46 1054 3110.5 1054 3018.54 1054 2944 979.455 2944 887.5Z" fill="#6BC0DD" fill-rule="evenodd"/></g></svg>