<svg xmlns="http://www.w3.org/2000/svg" viewBox="0 0 480 157"><path d="M471 53c-.2-3-16-5-40-8-26-3-45-3-48-3-27-.7-44-.1-67 .3 0 0-56 1-149-.2-8-.1-5-.2-15-.4-9-.2-14-.1-21-1-5-.6-7-.9-9-2-8-3-11-8-15-13-9-9-20-12-27-14-3-1-15-4-30-2-5 .9-12 2-19 7-15 9-22 28-22 44 .3 17 9 29 12 33 2 3 12 15 29 20 5 2 18 5 32 .7 5-2 10-3 15-8 6-6 7-10 13-15 6-4 12-4 16-5 45-3 67-5 81-5 8-.2 21-.7 37-2 12-.8 25-2 37-2 14-1 25-2 33-2 12-.5 19-1 37-3 8-.9 16-2 24-3 9-.4 22-1 38-3 19-2 58-9 58-14zm-50 3c.08 2-34 5-53 7-15 1-28 2-55 4-7 .4-14 1-29 2-45 2-65 3-73 3h-.1c-7 .2-13 .7-14 .8-9 .8-27 .8-54 3-4 .3-10 .7-17 1-11 1-21-4-22-4-5-3-3-5-9-11-3-3-12-12-24-11-2 .1-9 .5-14 6-4 5-6 12-4 18 .4 1 2 7 8 9 .7.4 7 4 11 .6 3-2 3-6 3-7 .1-4-2-5-.7-6 1-2 7-.5 10 2 .4.3 6 4 6 11 .02 7-7 12-8 13-12 8-35 1-47-14-2-3-13-18-7-34 6-18 27-22 30-23 15-3 34 3 44 15 4 4 5 8 11 10 1 .5 4 2 11 2 9 1 15 .5 16 .5 12-.8 25 .2 37-.2 17-.5 11 .1 76-.3 24-.2 44-.4 48-.4 34-.4 35-.5 47-.6 9-.02 73-.07 73 3zm-49 77c7-9 14-9 15-14 .1-4-5-5-13-13-10-10-11-18-15-17-4 .6-2 8-9 17s-14 9-14 13c-.1 4 6 5 14 13 9 9 10 17 13 17 4-.3 3-8 10-17zm-10 5c-3 .08-3-5-8-11-5-5-9-5-9-8-.03-2 3-3 8-7 6-6 5-12 8-12 2-.1 3 4 8 10s10 6 10 9c-.05 3-5 3-10 9-5 5-5 10-7 10zm80-15c5-6 9-7 10-11 .2-4-4-6-9-12-10-11-9-21-13-21-4 .09-3 9-12 20-6 7-11 9-10 13 .3 5 6 5 13 13 8 9 8 17 11 17 4-.2 3-9 11-19zm-4-3c-5 6-5 12-7 12-2 .2-3-6-9-12-5-5-9-5-9-8-.4-4 4-4 9-12 4-7 4-11 6-11 2-.1 3 5 8 13 5 6 8 7 8 10-.2 3-3 3-7 8"/></svg>