<svg xmlns="http://www.w3.org/2000/svg" viewBox="0 0 271 175"><path d="M20 6H6c-.6 54-1 108-2 163 6-.1 11-.3 17-.4-.4-54-.7-108-1-162zm236 13V6H20l.09 14c78-.2 157-.5 235-.8zM255 158l-234 .6.06 10 234 .8c.01-4 .02-7 .04-11z" class="st0"/><path d="m256 6-.5 163c4-.1 7-.3 11-.4V5.6h-11z" class="st0"/><path d="M256 15c-20 17-40 34-60 52 .6.7 2 2 2 3 .2 3-4 6-6 8-3 2-5 3-6 5-.6 2-.3 3 0 4 25-21 49-42 74-62-1-3-3-6-4-10zM92 70C69 53 46 35 22 18l-9 6 82 59c.3-.2.7-.6.8-1 .09-2-4-2-8-5-3-2-7-6-6-8s9 .5 10 .7zm75 17c-.6-16-17-28-32-25-12 2-22 12-23 25-.7 15 12 28 28 28 15-.4 27-13 26-27zm-27 23c-12-.2-22-10-22-22 .09-12 10-22 21-22 12-.3 23 10 23 22-.2 12-10 22-22 22z" class="st0"/><path d="M140 78c-5 .09-10 4-10 10-.2 6 5 10 10 10 5-.03 10-5 10-10-.1-6-5-10-10-10zm.6 16c-4 .2-7-3-7-6-.1-4 4-7 7-7 3 .1 7 3 7 7-.2 3-3 6-7 6zm60-28c-.8-.9-2-.9-3-.9-1-.03-4 .2-7 2 0 0 10-12 7-16-1-2-6-1-7-1-4 .6-8 3-17 13-3 3-7 8-11 14 .9 2 2 4 3 7 .7 3 .4 6 .1 8-.2 2-.7 4-2 7 8 .9 15-.9 18-2 4-1 8-3 9-7 .4-3-2-5-3-6 3-1 7-4 10-8a31 31 0 0 0 3-4c.07-.2 1-3-.5-4zm-12-2c-.3.5-1 2-3 4-.9 1-2 2-2 3-.1.9-.2 2 .4 2 .7.6 2-.2 4-1s7-3 9-2c.3.3.4.9-.2 3-3 3-6 5-8 6s-6 2-5 3c.02.1.3.5.9 1 .6.8 1 1 1 1 .9 1 1 3 1 4-.2 2-4 4-6 4-7 2-14 2-14 2s.6-5 .1-9c-.3-2-2-9-1-7 4-5 7-9 10-11 3-3 6-6 10-8 2-1 6-4 7-3s-2 6-3 8zm-108 2c.9-.9 2-.9 3-.9 1-.03 4 .2 7 2 0 0-10-12-7-16 1-2 6-1 7-1 4 .6 8 3 17 13 3 3 7 8 11 14-1 2-2 4-3 7-.7 3-.4 6-.1 8a29 29 0 0 0 2 7c-9 .9-15-.9-18-2-4-1-8-3-9-7-.4-3 2-5 3-6-3-1-7-4-10-8a31 31 0 0 1-3-4c-.08-.2-1-3 .5-4zm12-2c.3.5 1 2 3 4 .9 1 2 2 2 3 .1.9.2 2-.4 2-.8.6-2-.2-4-1s-8-3-9-2c-.3.3-.5.9.2 3 3 3 6 5 8 6s6 2 5 3c-.02.1-.3.5-.9 1-.6.8-1 1-1 1-.9 1-1 3-1 4 .2 2 4 4 6 4 7 2 14 2 14 2s-.7-5-.1-9c.3-2 2-9 1-7-4-5-7-9-10-11-3-3-6-6-10-8-2-1-6-4-7-3s2 6 3 8zm66 41c-.6.05-7 .6-9 5-.8 2-.7 4-.05 6 .2.5.6 1 2 2 .5.3 1 .3 1 .3 6 .6 7 .6 7 .6s5 .02 10-.5c.2-.02.6-.06 1-.3.3-.1 1-.6 2-2l.5-1c.4-2-6-10-15-10zm10 9c-.3.7-1 1-3 1-.3.06-1 .2-4 .2-.7 0-.7-.02-4-.2-2-.07-2-.1-3-.4-.7-.2-1-.5-2-1-.7-1-.5-2-.5-2 .2-1 .9-2 1-2 2-2 4-1 6-1 .6.05 3 .3 6 2 .6.4 4 2 3 4zm-46-9c.6.05 7 .6 9 5 .8 2 .7 4 .05 6-.2.5-.6 1-2 2-.5.3-1 .3-1 .3-6 .6-7 .6-7 .6s-5 .02-10-.5c-.2-.02-.6-.06-1-.3-.3-.1-1-.6-2-2l-.5-1c-.4-2 6-10 15-10zm-10 9c.3.7 1 1 3 1 .3.06 1 .2 4 .2.7 0 .7-.02 4-.2 2-.07 2-.1 3-.4.7-.2 1-.5 2-1 .7-1 .5-2 .5-2-.2-1-.9-2-1-2-2-2-4-1-6-1-.6.05-3 .3-6 2-.6.4-4 2-3 4"/></svg>